<svg width="130" height="58" viewBox="0 0 130 58" fill="none" xmlns="http://www.w3.org/2000/svg">
<g clip-path="url(#clip0_224_2960)">
<path d="M70.4887 12.6558C70.4887 11.6689 70.4275 11.5334 69.9447 11.4002C69.8095 11.3761 69.6723 11.3641 69.5349 11.3646C69.4878 11.3646 69.4384 11.3384 69.4384 11.2909C69.4384 11.2433 69.4996 11.1934 69.6315 11.1934C70.1755 11.1934 70.9362 11.229 70.9951 11.229C71.0539 11.229 71.8146 11.1934 72.1726 11.1934C72.3045 11.1934 72.3657 11.2171 72.3657 11.2909C72.3657 11.3646 72.3186 11.3646 72.2691 11.3646C72.1679 11.368 72.067 11.3799 71.9677 11.4002C71.6427 11.4621 71.5462 11.6689 71.5202 12.0946C71.4943 12.5202 71.4967 12.8508 71.4967 13.362V14.7246C71.4967 15.2739 71.4849 15.2977 71.3413 15.3833C70.5688 15.797 69.4831 15.9302 68.7837 15.9302C67.8652 15.9302 66.1531 15.8089 64.8131 14.6271C64.0783 13.9827 63.3789 12.6796 63.3789 11.1553C63.3789 9.20779 64.3209 7.82621 65.3925 7.1485C66.464 6.4708 67.6721 6.38281 68.6024 6.38281C69.2227 6.39514 69.8407 6.46439 70.4487 6.58969C70.7699 6.65653 71.096 6.69709 71.4237 6.71097C71.5461 6.72286 71.5697 6.77041 71.5697 6.82035C71.5093 7.39453 71.481 7.97171 71.4849 8.54911C71.4849 8.7441 71.4614 8.80592 71.3766 8.80592C71.2918 8.80592 71.3036 8.73221 71.2918 8.62282C71.2689 8.33916 71.1827 8.06439 71.0398 7.81908C70.736 7.3435 69.761 6.83224 68.2138 6.83224C67.4531 6.83224 66.5488 6.90596 65.6232 7.63598C64.9167 8.19717 64.4269 9.30053 64.4269 10.7273C64.4191 11.9742 64.8755 13.1785 65.7057 14.1016C66.1198 14.5213 66.6131 14.8529 67.1563 15.0767C67.6996 15.3005 68.2818 15.412 68.8685 15.4047C69.3396 15.4189 69.8083 15.3322 70.2438 15.1502C70.32 15.1097 70.3829 15.0477 70.4248 14.9717C70.4666 14.8956 70.4855 14.8089 70.4793 14.7222L70.4887 12.6558Z" fill="#4B817E"/>
<path d="M74.2872 10.9239C74.2872 9.31644 74.2871 9.02158 74.2636 8.69581C74.24 8.37003 74.1788 8.17266 73.8279 8.12273C73.7083 8.10849 73.588 8.10055 73.4676 8.09895C73.4464 8.09531 73.4269 8.08512 73.4117 8.06978C73.3965 8.05444 73.3864 8.03473 73.3828 8.01334C73.3828 7.95152 73.4299 7.92773 73.5524 7.92773C74.0234 7.92773 74.7464 7.95152 74.8052 7.95152C74.9136 7.95152 75.8061 7.92773 76.1335 7.92773C76.8094 7.92773 77.5465 7.98956 78.1117 8.37954C78.3323 8.54325 78.5131 8.75551 78.6404 9.00023C78.7677 9.24496 78.8382 9.51573 78.8465 9.79203C78.8465 10.5601 78.5333 11.302 77.5441 12.1557C78.4132 13.2519 79.1479 14.1888 79.7649 14.8332C80.3301 15.4182 80.681 15.5157 80.9425 15.5466C81.0659 15.5702 81.1913 15.5822 81.3169 15.5823C81.3407 15.5816 81.364 15.59 81.3819 15.6059C81.3998 15.6218 81.4111 15.6439 81.4135 15.6679C81.4135 15.7297 81.3546 15.7535 81.1615 15.7535H80.4926C79.8898 15.7535 79.6236 15.6917 79.3575 15.5466C78.9006 15.3088 78.5144 14.8023 77.9115 14.0224C77.4641 13.4635 76.9931 12.793 76.7646 12.5124C76.7475 12.4912 76.7254 12.4746 76.7003 12.4642C76.6752 12.4538 76.6479 12.4499 76.621 12.4529L75.2692 12.4268C75.2221 12.4268 75.1962 12.4529 75.1962 12.5124V12.7502C75.1962 13.7489 75.1962 14.5526 75.2456 14.9783C75.281 15.2827 75.3422 15.4777 75.6672 15.5276C75.8231 15.5528 75.9804 15.5687 76.1382 15.5751C76.1497 15.5736 76.1614 15.5747 76.1724 15.5785C76.1834 15.5822 76.1934 15.5885 76.2016 15.5967C76.2098 15.605 76.216 15.6151 76.2197 15.6262C76.2234 15.6373 76.2245 15.6491 76.223 15.6608C76.223 15.7083 76.1735 15.7464 76.0534 15.7464C75.4741 15.7464 74.7982 15.7083 74.7511 15.7083C74.7511 15.7083 74.0257 15.7464 73.7007 15.7464C73.5924 15.7464 73.5312 15.7226 73.5312 15.6608C73.5312 15.6381 73.5401 15.6163 73.556 15.6002C73.5719 15.5842 73.5935 15.5751 73.616 15.5751C73.7264 15.571 73.8362 15.555 73.9433 15.5276C74.1482 15.4777 74.1788 15.2898 74.2188 14.9783C74.2791 14.2333 74.2996 13.4855 74.2801 12.7383L74.2872 10.9239ZM75.2032 11.8014C75.2028 11.8281 75.2093 11.8545 75.2221 11.8778C75.2349 11.9012 75.2536 11.9208 75.2763 11.9345C75.6573 12.0534 76.0552 12.1072 76.4538 12.0939C76.7313 12.1154 77.0088 12.0516 77.2498 11.9108C77.6124 11.673 77.888 11.1189 77.888 10.3271C77.888 9.03585 77.1815 8.29394 76.0558 8.29394C75.801 8.29313 75.5467 8.31301 75.2951 8.35339C75.2706 8.3635 75.2496 8.38057 75.2346 8.40251C75.2195 8.42446 75.2111 8.45035 75.2103 8.47703L75.2032 11.8014Z" fill="#4B817E"/>
<path d="M85.2026 8.13527C85.3344 7.79523 85.3839 7.7334 85.4569 7.7334C85.5299 7.7334 85.6006 7.88084 85.7089 8.1115C85.902 8.54903 87.5929 12.8245 88.2547 14.3964C88.6409 15.3214 88.9306 15.4569 89.159 15.5282C89.2957 15.5699 89.4378 15.5907 89.5806 15.5901C89.6418 15.5901 89.7148 15.6139 89.7148 15.6757C89.7148 15.7375 89.5947 15.7613 89.4793 15.7613C89.3639 15.7613 88.5373 15.7613 87.8025 15.7375C87.5976 15.7232 87.4304 15.7232 87.4304 15.6638C87.4304 15.6043 87.454 15.6138 87.5011 15.5901C87.5274 15.5802 87.5513 15.5645 87.5709 15.5443C87.5906 15.524 87.6056 15.4996 87.6148 15.4727C87.624 15.4459 87.6273 15.4174 87.6243 15.3892C87.6213 15.3609 87.6122 15.3337 87.5976 15.3095L86.6556 12.9315C86.6297 12.884 86.6179 12.8721 86.5591 12.8721H84.0957C84.0707 12.8719 84.0464 12.8803 84.0268 12.8958C84.0071 12.9114 83.9932 12.9332 83.9874 12.9577L83.3845 14.6223C83.2938 14.8432 83.2405 15.0779 83.2267 15.3166C83.2267 15.5235 83.408 15.5972 83.5894 15.5972H83.6859C83.7707 15.5972 83.7943 15.6329 83.7943 15.6828C83.7943 15.7327 83.733 15.7684 83.6365 15.7684C83.3845 15.7684 82.8051 15.7304 82.6827 15.7304C82.5602 15.7304 82.0445 15.7684 81.6111 15.7684C81.4769 15.7684 81.4062 15.7446 81.4062 15.6828C81.4081 15.6586 81.4192 15.6361 81.4372 15.6201C81.4553 15.6041 81.4788 15.5959 81.5028 15.5972C81.6075 15.5947 81.7121 15.5867 81.816 15.5734C82.287 15.5116 82.5037 15.1478 82.7086 14.6223L85.2026 8.13527ZM86.3801 12.4465C86.4295 12.4465 86.4295 12.4227 86.4154 12.3751L85.3674 9.53587C85.3062 9.37893 85.2473 9.37893 85.1861 9.53587L84.197 12.3751C84.186 12.4227 84.1977 12.4465 84.2323 12.4465H86.3801Z" fill="#4B817E"/>
<path d="M91.3106 10.9237C91.3106 9.31618 91.3106 9.02132 91.287 8.69554C91.2635 8.36977 91.2022 8.1724 90.8513 8.12246C90.7309 8.10816 90.6099 8.10022 90.4887 8.09868C90.4679 8.0946 90.4489 8.08421 90.4342 8.06891C90.4194 8.05361 90.4097 8.03413 90.4062 8.01308C90.4062 7.95125 90.4533 7.92747 90.5734 7.92747C91.0562 7.92747 91.751 7.95125 91.8051 7.95125C91.9252 7.95125 92.6011 7.92747 93.2182 7.92747C94.2803 7.92747 96.2232 7.82998 97.4784 9.11643C97.8164 9.46267 98.0822 9.87379 98.2602 10.3255C98.4382 10.7772 98.5247 11.2604 98.5146 11.7464C98.524 12.8314 98.1123 13.877 97.3677 14.6594C96.9108 15.135 95.9547 15.8483 94.1484 15.8483C93.6892 15.8483 93.1216 15.8103 92.6647 15.7865C92.2078 15.7627 91.8428 15.7247 91.7957 15.7247C91.7486 15.7247 91.5791 15.739 91.3624 15.739C91.1457 15.739 90.8914 15.7627 90.7218 15.7627C90.6135 15.7627 90.5523 15.739 90.5523 15.6771C90.5523 15.6659 90.5545 15.6548 90.5587 15.6444C90.563 15.634 90.5692 15.6246 90.5771 15.6166C90.585 15.6087 90.5943 15.6023 90.6046 15.598C90.6149 15.5937 90.6259 15.5915 90.637 15.5915C90.7475 15.5874 90.8572 15.5714 90.9644 15.544C91.1669 15.494 91.1999 15.3062 91.2399 14.9947C91.3002 14.2497 91.3206 13.5019 91.3012 12.7547L91.3106 10.9237ZM92.2761 12.0437C92.2761 13.1399 92.2761 14.1029 92.2879 14.2979C92.2798 14.5516 92.3206 14.8043 92.408 15.0422C92.5399 15.2372 92.9144 15.456 94.1696 15.456C95.0867 15.478 95.9768 15.1415 96.6541 14.5167C97.2099 13.9936 97.4878 13.0067 97.4878 12.0579C97.5006 11.5794 97.4184 11.1032 97.2461 10.6572C97.0738 10.2112 96.8149 9.80461 96.4846 9.46124C95.4837 8.43873 94.3132 8.30556 93.0462 8.30556C92.8314 8.30473 92.6172 8.32947 92.408 8.37927C92.3115 8.41494 92.2761 8.46251 92.2761 8.58616V12.0437Z" fill="#4B817E"/>
<path d="M100.156 10.9239C100.156 9.31644 100.156 9.02158 100.133 8.69581C100.109 8.37003 100.048 8.17266 99.6971 8.12273C99.5774 8.10849 99.4572 8.10055 99.3367 8.09895C99.3156 8.09531 99.296 8.08512 99.2808 8.06978C99.2657 8.05444 99.2556 8.03473 99.252 8.01334C99.252 7.95152 99.2991 7.92773 99.4215 7.92773C99.8925 7.92773 100.543 7.95152 100.639 7.95152C100.736 7.95152 101.4 7.92773 101.713 7.92773C101.833 7.92773 101.894 7.95152 101.894 8.01334C101.89 8.03632 101.878 8.05714 101.86 8.0726C101.843 8.08807 101.821 8.09732 101.798 8.09895C101.708 8.09738 101.619 8.10535 101.532 8.12273C101.254 8.17266 101.195 8.36052 101.169 8.69581C101.143 9.03109 101.145 9.31644 101.145 10.9239V12.3745C101.145 13.8726 101.47 14.4932 101.93 14.9069C102.14 15.1067 102.389 15.2599 102.661 15.3566C102.933 15.4532 103.222 15.4912 103.51 15.4681C103.82 15.472 104.128 15.4086 104.413 15.2822C104.697 15.1559 104.951 14.9696 105.158 14.7357C105.653 14.1389 105.761 13.2876 105.761 12.227V10.9239C105.761 9.31644 105.761 9.02158 105.738 8.69581C105.714 8.37003 105.665 8.17266 105.314 8.12273C105.194 8.10849 105.074 8.10055 104.953 8.09895C104.932 8.0973 104.911 8.08775 104.895 8.07204C104.88 8.05633 104.87 8.0355 104.869 8.01334C104.869 7.95152 104.916 7.92773 105.036 7.92773C105.507 7.92773 106.122 7.95152 106.183 7.95152C106.244 7.95152 106.762 7.92773 107.075 7.92773C107.195 7.92773 107.245 7.95152 107.245 8.01334C107.243 8.0355 107.234 8.05633 107.218 8.07204C107.203 8.08775 107.182 8.0973 107.16 8.09895C107.071 8.09747 106.982 8.10544 106.894 8.12273C106.604 8.18455 106.545 8.36052 106.522 8.69581C106.498 9.03109 106.508 9.31644 106.508 10.9239V12.032C106.508 13.1544 106.364 14.41 105.519 15.14C104.899 15.6636 104.107 15.9327 103.3 15.8938C102.949 15.8938 101.84 15.87 101.091 15.1638C100.573 14.6763 100.163 13.9582 100.163 12.4458L100.156 10.9239Z" fill="#4B817E"/>
<path d="M110.594 8.13527C110.726 7.79523 110.775 7.7334 110.846 7.7334C110.954 7.7334 110.992 7.88084 111.1 8.1115C111.293 8.54903 112.984 12.8245 113.646 14.3964C114.032 15.3214 114.322 15.4569 114.55 15.5282C114.687 15.57 114.829 15.5908 114.972 15.5901C115.033 15.5901 115.104 15.6139 115.104 15.6757C115.104 15.7375 114.984 15.7613 114.868 15.7613C114.711 15.7613 113.926 15.7613 113.192 15.7375C112.987 15.7232 112.817 15.7232 112.817 15.6638C112.817 15.6043 112.841 15.6138 112.89 15.5901C112.916 15.5805 112.939 15.5654 112.959 15.5459C112.978 15.5263 112.993 15.5027 113.003 15.4768C113.012 15.4508 113.016 15.4231 113.014 15.3954C113.012 15.3678 113.005 15.3409 112.991 15.3166L112.038 12.9387C112.014 12.8911 112.002 12.8792 111.941 12.8792H109.482C109.435 12.8792 109.4 12.903 109.374 12.9648L108.771 14.6294C108.681 14.8505 108.629 15.0852 108.616 15.3237C108.616 15.5306 108.795 15.6043 108.976 15.6043H109.073C109.157 15.6043 109.181 15.64 109.181 15.6899C109.181 15.7399 109.122 15.7755 109.025 15.7755C108.771 15.7755 108.192 15.7375 108.083 15.7375C107.975 15.7375 107.445 15.7755 107.01 15.7755C106.878 15.7755 106.805 15.7518 106.805 15.6899C106.807 15.666 106.818 15.6438 106.836 15.6279C106.854 15.612 106.877 15.6036 106.901 15.6043C107.006 15.6019 107.111 15.5939 107.214 15.5806C107.697 15.5187 107.902 15.1549 108.107 14.6294L110.594 8.13527ZM111.771 12.4464C111.819 12.4464 111.819 12.4227 111.807 12.3751L110.756 9.53587C110.698 9.37893 110.636 9.37893 110.577 9.53587L109.588 12.3751C109.574 12.4227 109.588 12.4464 109.624 12.4464H111.771Z" fill="#4B817E"/>
<path d="M118.292 12.7531C118.292 13.7518 118.292 14.5674 118.342 14.9931C118.377 15.2975 118.427 15.4924 118.752 15.5424C118.908 15.5673 119.065 15.5832 119.223 15.5899C119.234 15.5888 119.245 15.5903 119.256 15.5942C119.267 15.5981 119.277 15.6044 119.285 15.6126C119.293 15.6207 119.299 15.6306 119.303 15.6415C119.307 15.6524 119.308 15.664 119.307 15.6755C119.307 15.7231 119.258 15.7611 119.138 15.7611C118.558 15.7611 117.883 15.7231 117.824 15.7231C117.765 15.7231 117.039 15.7611 116.724 15.7611C116.604 15.7611 116.557 15.7374 116.557 15.6755C116.557 15.6648 116.559 15.6541 116.563 15.6443C116.567 15.6345 116.574 15.6257 116.582 15.6187C116.59 15.6117 116.6 15.6065 116.61 15.6036C116.62 15.6007 116.631 15.6001 116.641 15.6018C116.747 15.5976 116.852 15.5817 116.955 15.5543C117.171 15.5043 117.233 15.2975 117.268 14.9931C117.315 14.5674 117.315 13.7518 117.315 12.7531V8.40384L115.784 8.42762C115.12 8.43951 114.868 8.51323 114.71 8.75577C114.643 8.8598 114.586 8.97055 114.541 9.0863C114.517 9.17191 114.482 9.1838 114.432 9.1838C114.412 9.18142 114.393 9.17128 114.379 9.15542C114.366 9.13955 114.359 9.11912 114.359 9.0982C114.359 8.98881 114.578 8.06142 114.595 7.97819C114.611 7.89497 114.666 7.7832 114.703 7.7832C114.858 7.833 115.015 7.87349 115.174 7.90447C115.476 7.94014 115.881 7.95203 116.006 7.95203H120.009C120.263 7.95427 120.516 7.93838 120.767 7.90447C120.925 7.88069 121.022 7.85454 121.069 7.85454C121.116 7.85454 121.118 7.91637 121.118 7.97819C121.118 8.29446 121.083 9.03637 121.083 9.16716C121.083 9.25276 121.034 9.30269 120.986 9.30269C120.939 9.30269 120.913 9.26465 120.902 9.1196V9.01021C120.864 8.69395 120.636 8.46091 119.623 8.43713L118.295 8.41335L118.292 12.7531Z" fill="#4B817E"/>
<path d="M123.18 10.9246C123.18 9.31709 123.18 9.02222 123.156 8.69645C123.133 8.37067 123.071 8.1733 122.723 8.12337C122.602 8.10914 122.481 8.1012 122.36 8.09959C122.339 8.09563 122.32 8.08534 122.305 8.07006C122.29 8.05478 122.279 8.03523 122.275 8.01398C122.275 7.95216 122.325 7.92838 122.445 7.92838C122.928 7.92838 123.622 7.95216 123.674 7.95216C123.726 7.95216 125.968 7.96405 126.208 7.95216C126.449 7.94027 126.606 7.9046 126.679 7.89271C126.752 7.88082 126.776 7.84277 126.825 7.84277C126.875 7.84277 126.872 7.89271 126.872 7.94027C126.872 7.98783 126.811 8.13526 126.788 8.41585C126.788 8.51335 126.752 8.97704 126.729 9.09832C126.715 9.14588 126.679 9.2077 126.632 9.2077C126.585 9.2077 126.547 9.16014 126.547 9.07454C126.548 8.94986 126.527 8.82604 126.486 8.70833C126.413 8.53712 126.305 8.47055 125.726 8.39207C125.547 8.36829 124.312 8.35403 124.195 8.35403C124.145 8.35403 124.134 8.39207 124.134 8.46579V11.2789C124.134 11.3526 124.134 11.3883 124.195 11.3883C124.327 11.3883 125.726 11.3883 125.968 11.3645C126.211 11.3407 126.378 11.3264 126.486 11.2171C126.559 11.1433 126.606 11.0839 126.644 11.0839C126.682 11.0839 126.703 11.1077 126.703 11.1695C126.666 11.359 126.638 11.5502 126.62 11.7426C126.595 11.9495 126.571 12.3371 126.571 12.4108C126.571 12.4845 126.547 12.6058 126.474 12.6058C126.401 12.6058 126.401 12.5701 126.401 12.5083C126.407 12.3929 126.391 12.2776 126.354 12.1682C126.317 12.0208 126.22 11.8995 125.81 11.852C125.521 11.8139 124.397 11.802 124.207 11.802C124.145 11.802 124.134 11.8377 124.134 11.8757V12.7413C124.134 13.0932 124.122 14.2988 124.134 14.5057C124.157 15.2001 124.353 15.3356 125.401 15.3356C125.758 15.3535 126.116 15.3166 126.463 15.2262C126.741 15.1026 126.884 14.9195 126.934 14.5129C126.957 14.3916 126.981 14.3559 127.042 14.3559C127.103 14.3559 127.115 14.4415 127.115 14.5129C127.086 14.8484 127.037 15.1819 126.969 15.5116C126.896 15.7803 126.788 15.7803 126.378 15.7803C125.582 15.7803 124.965 15.7565 124.532 15.7446C124.098 15.7327 123.809 15.7185 123.651 15.7185C123.627 15.7185 123.415 15.7185 123.194 15.7327C122.972 15.747 122.746 15.7565 122.579 15.7565C122.469 15.7565 122.41 15.7327 122.41 15.6709C122.409 15.6596 122.411 15.6483 122.415 15.6378C122.42 15.6272 122.426 15.6177 122.434 15.6096C122.442 15.6016 122.451 15.5953 122.462 15.5911C122.472 15.587 122.483 15.585 122.494 15.5853C122.603 15.5753 122.712 15.5594 122.819 15.5377C123.024 15.4997 123.055 15.2999 123.097 14.9884C123.155 14.2433 123.175 13.4956 123.156 12.7484L123.18 10.9246Z" fill="#4B817E"/>
<path d="M128.828 14.8833C128.828 14.5432 129.261 14.2246 129.577 14.2246C129.636 14.2246 129.674 14.2627 129.794 14.4624C129.908 14.6146 129.979 14.7955 129.999 14.9855C129.979 15.1487 129.939 15.3086 129.878 15.4611C129.681 15.9291 129.421 16.3676 129.106 16.7642C129.069 16.8199 129.013 16.8591 128.948 16.8736C128.926 16.872 128.906 16.8624 128.89 16.8467C128.875 16.831 128.865 16.8102 128.863 16.788C128.863 16.7405 128.925 16.6667 128.948 16.6168C129.118 16.3599 129.218 16.0621 129.238 15.7536C129.24 15.1877 128.828 15.0283 128.828 14.8833Z" fill="#4B817E"/>
<path d="M64.7574 28.9111C64.7574 27.0088 64.7574 26.6711 64.7338 26.2811C64.7103 25.8911 64.6114 25.67 64.2134 25.5868C64.0783 25.5606 63.9411 25.5479 63.8036 25.5487C63.7565 25.5487 63.707 25.5249 63.707 25.4774C63.707 25.4298 63.7683 25.3799 63.9001 25.3799C64.4442 25.3799 65.2025 25.4156 65.2637 25.4156C65.3956 25.4156 66.3141 25.3799 66.6767 25.3799C67.4374 25.3799 68.2452 25.4512 68.8857 25.9149C69.1397 26.1111 69.3464 26.3627 69.4903 26.651C69.6343 26.9392 69.7118 27.2567 69.7171 27.5795C69.7171 28.4807 69.3426 29.3819 68.257 30.3925C69.2484 31.6719 70.068 32.7562 70.7674 33.51C71.4174 34.2044 71.9449 34.3375 72.2393 34.3875C72.3951 34.412 72.5526 34.4239 72.7103 34.4231C72.7692 34.4231 72.8186 34.4612 72.8186 34.4969C72.8186 34.5706 72.7456 34.5943 72.529 34.5943H71.6717C70.9959 34.5943 70.6944 34.5325 70.3812 34.3566C69.8631 34.076 69.4392 33.4791 68.7515 32.566C68.2452 31.8954 67.68 31.0798 67.4374 30.7635C67.4188 30.7395 67.3948 30.7203 67.3673 30.7074C67.3399 30.6946 67.3098 30.6886 67.2796 30.6898L65.7959 30.666C65.7371 30.666 65.7135 30.7017 65.7135 30.7635V31.056C65.7135 32.2236 65.7135 33.1961 65.7724 33.6979C65.8101 34.0522 65.8807 34.3185 66.2434 34.3684C66.423 34.3935 66.6038 34.4094 66.7851 34.416C66.8581 34.416 66.8816 34.454 66.8816 34.4897C66.8816 34.5254 66.8227 34.5872 66.6909 34.5872C66.0267 34.5872 65.2661 34.5515 65.2048 34.5515C65.2048 34.5515 64.4347 34.5872 64.0721 34.5872C63.9402 34.5872 63.879 34.5634 63.879 34.4897C63.879 34.454 63.9025 34.416 63.9755 34.416C64.0976 34.4119 64.2191 34.396 64.3382 34.3684C64.5737 34.3185 64.6396 34.0522 64.6867 33.6979C64.748 33.1866 64.748 32.2236 64.748 31.056L64.7574 28.9111ZM65.7229 29.9717C65.722 30.0012 65.7292 30.0304 65.7438 30.056C65.7583 30.0816 65.7797 30.1026 65.8054 30.1167C66.2113 30.2638 66.6415 30.33 67.0724 30.3117C67.3908 30.328 67.7066 30.245 67.9767 30.0739C68.4006 29.7814 68.7138 29.1227 68.7138 28.1977C68.7138 26.6759 67.9178 25.7604 66.6273 25.7604C66.3561 25.7547 66.0852 25.7794 65.8195 25.8341C65.7898 25.8448 65.7643 25.865 65.7469 25.8915C65.7295 25.9181 65.7211 25.9497 65.7229 25.9815V29.9717Z" fill="#4B817E"/>
<path d="M74.4082 29.7503C74.4082 28.1428 74.4082 27.848 74.3847 27.5222C74.3611 27.1964 74.2999 26.9991 73.9514 26.9491C73.8309 26.9349 73.7099 26.927 73.5887 26.9253C73.5675 26.9217 73.548 26.9115 73.5328 26.8962C73.5176 26.8808 73.5075 26.8611 73.5039 26.8397C73.5039 26.7803 73.5534 26.7541 73.6735 26.7541C74.1562 26.7541 74.851 26.7803 74.9028 26.7803C74.9546 26.7803 77.1942 26.7922 77.4368 26.7803C77.6417 26.766 77.8348 26.7303 77.9196 26.7185C77.9656 26.6973 78.0138 26.6813 78.0632 26.6709C78.1009 26.6709 78.1127 26.7185 78.1127 26.766C78.1127 26.8136 78.0515 26.961 78.0279 27.2535C78.0279 27.351 77.9926 27.8147 77.9667 27.936C77.9667 27.9859 77.9196 28.0453 77.8701 28.0453C77.8207 28.0453 77.7853 27.9978 77.7853 27.9122C77.7851 27.7877 77.7653 27.6641 77.7265 27.546C77.6535 27.3771 77.5451 27.3082 76.9658 27.2297C76.7845 27.2059 75.5528 27.194 75.435 27.194C75.3856 27.194 75.3738 27.2297 75.3738 27.3034V30.1165C75.3738 30.1902 75.3738 30.2259 75.435 30.2259C75.5669 30.2259 76.9658 30.2259 77.2084 30.2021C77.4509 30.1783 77.6181 30.1664 77.7265 30.0571C77.8348 29.9477 77.8466 29.9215 77.8819 29.9215C77.9172 29.9215 77.9431 29.9453 77.9431 30.0071C77.9048 30.1965 77.8765 30.3878 77.8584 30.5802C77.8348 30.7871 77.8113 31.1771 77.8113 31.2484C77.8113 31.3197 77.7854 31.4434 77.7147 31.4434C77.6441 31.4434 77.6417 31.4077 77.6417 31.3483C77.6472 31.2322 77.6312 31.1161 77.5946 31.0059C77.5569 30.8608 77.4604 30.7372 77.0506 30.6896C76.7609 30.6539 75.6376 30.6397 75.4468 30.6397C75.4369 30.638 75.4267 30.6388 75.4171 30.6419C75.4075 30.645 75.3987 30.6504 75.3916 30.6576C75.3844 30.6648 75.3791 30.6736 75.376 30.6833C75.3729 30.693 75.3722 30.7033 75.3738 30.7134V31.5789C75.3738 31.9309 75.3738 33.1365 75.3738 33.3457C75.3974 34.0401 75.5905 34.1733 76.6408 34.1733C76.9983 34.1911 77.3564 34.1543 77.7029 34.0639C77.9785 33.9426 78.1245 33.7595 78.1857 33.3505C78.2093 33.2268 78.2328 33.1912 78.294 33.1912C78.3553 33.1912 78.3647 33.2768 78.3647 33.3505C78.3365 33.686 78.2886 34.0195 78.221 34.3492C78.148 34.6156 78.0397 34.6156 77.6299 34.6156C76.8339 34.6156 76.2169 34.5918 75.7836 34.5799C75.3502 34.568 75.0606 34.5561 74.9028 34.5561C74.8792 34.5561 74.6673 34.5561 74.4459 34.568C74.2245 34.5799 73.9985 34.5918 73.8289 34.5918C73.7206 34.5918 73.6617 34.568 73.6617 34.5062C73.6614 34.495 73.6633 34.484 73.6673 34.4736C73.6713 34.4632 73.6773 34.4538 73.685 34.4458C73.6927 34.4378 73.7019 34.4314 73.712 34.4271C73.7222 34.4228 73.7331 34.4206 73.7441 34.4206C73.854 34.4105 73.9633 34.3947 74.0715 34.373C74.2763 34.335 74.307 34.1352 74.3494 33.8237C74.4073 33.0786 74.427 32.3309 74.4082 31.5837V29.7503Z" fill="#4B817E"/>
<path d="M83.1135 26.968C83.2454 26.628 83.2949 26.5662 83.3655 26.5662C83.4762 26.5662 83.5115 26.7136 83.6199 26.9443C83.813 27.3842 85.5039 31.6597 86.1656 33.2291C86.5519 34.1565 86.8415 34.2897 87.07 34.3634C87.207 34.4033 87.3489 34.4233 87.4915 34.4228C87.5527 34.4228 87.6258 34.449 87.6258 34.5084C87.6258 34.5679 87.5033 34.594 87.3902 34.594C87.2325 34.594 86.4482 34.594 85.7135 34.5703C85.5086 34.5584 85.339 34.5584 85.339 34.4965C85.339 34.4347 85.3649 34.449 85.412 34.4228C85.438 34.4129 85.4616 34.3973 85.481 34.3772C85.5004 34.3571 85.5153 34.3329 85.5245 34.3064C85.5337 34.2799 85.537 34.2517 85.5343 34.2237C85.5315 34.1958 85.5228 34.1688 85.5086 34.1446L84.5666 31.7667C84.543 31.7167 84.5313 31.7049 84.47 31.7049H82.0043C81.979 31.7046 81.9544 31.7129 81.9343 31.7284C81.9143 31.7439 81.8999 31.7658 81.8936 31.7905L81.2907 33.455C81.2006 33.676 81.148 33.9107 81.1353 34.1494C81.1353 34.3563 81.3166 34.4276 81.4956 34.4276H81.5922C81.6769 34.4276 81.7005 34.4656 81.7005 34.5132C81.7005 34.5608 81.6416 34.5988 81.5451 34.5988C81.2907 34.5988 80.7114 34.5631 80.5913 34.5631C80.4712 34.5631 79.9531 34.5988 79.5174 34.5988C79.3855 34.5988 79.3125 34.575 79.3125 34.5132C79.3149 34.4892 79.3262 34.4671 79.3441 34.4512C79.362 34.4353 79.3852 34.4269 79.4091 34.4276C79.5138 34.4252 79.6184 34.4173 79.7223 34.4038C80.1933 34.342 80.41 33.9782 80.6148 33.4526L83.1135 26.968ZM84.291 31.2816C84.3381 31.2816 84.3381 31.2554 84.3264 31.2079L83.276 28.371C83.2171 28.2117 83.1559 28.2117 83.097 28.371L82.1079 31.2079C82.1079 31.2554 82.1079 31.2816 82.1433 31.2816H84.291Z" fill="#4B817E"/>
<path d="M90.4242 31.6026C90.4242 33.1245 90.4477 33.7427 90.6409 33.9282C90.834 34.1137 91.2202 34.166 92.0539 34.166C92.6097 34.166 93.0807 34.1541 93.3326 33.8498C93.4652 33.6797 93.5528 33.4784 93.587 33.2648C93.587 33.1911 93.6341 33.1292 93.6953 33.1292C93.7565 33.1292 93.7683 33.1792 93.7683 33.2886C93.7433 33.6371 93.6905 33.983 93.6105 34.323C93.5375 34.5608 93.5022 34.6036 92.9346 34.6036C92.174 34.6036 91.5852 34.5917 91.0883 34.5679C90.5914 34.5441 90.2452 34.5441 89.932 34.5441C89.8825 34.5441 89.6965 34.5441 89.4963 34.556C89.2961 34.5679 89.0512 34.5798 88.8816 34.5798C88.7733 34.5798 88.7121 34.556 88.7121 34.4942C88.7121 34.4715 88.721 34.4497 88.7369 34.4336C88.7528 34.4176 88.7744 34.4086 88.7969 34.4086C88.9073 34.4044 89.0171 34.3885 89.1242 34.361C89.3291 34.3111 89.3597 34.1232 89.3997 33.8117C89.46 33.0667 89.4805 32.3189 89.461 31.5717V29.7502C89.461 28.1427 89.461 27.8479 89.4374 27.5221C89.4139 27.1963 89.3526 26.999 89.0017 26.949C88.8821 26.9348 88.7619 26.9268 88.6414 26.9252C88.62 26.9223 88.6 26.9124 88.5847 26.8969C88.5694 26.8814 88.5595 26.8613 88.5566 26.8396C88.5566 26.7802 88.6037 26.754 88.7239 26.754C89.1949 26.754 89.8708 26.7802 89.932 26.7802C89.9932 26.7802 90.7751 26.754 91.1095 26.754C91.2178 26.754 91.2767 26.7802 91.2767 26.8396C91.273 26.8598 91.2625 26.8781 91.2471 26.8915C91.2317 26.9049 91.2122 26.9126 91.1919 26.9133C91.1213 26.9133 90.9564 26.9252 90.8434 26.9371C90.5302 26.999 90.4689 27.1559 90.4454 27.5221C90.4336 27.8502 90.4336 28.1427 90.4336 29.7502L90.4242 31.6026Z" fill="#4B817E"/>
<path d="M97.4483 31.5792C97.4483 32.578 97.4483 33.3936 97.4978 33.8192C97.5331 34.1236 97.5825 34.3186 97.9075 34.3685C98.0635 34.3934 98.2208 34.4092 98.3785 34.4161C98.39 34.4145 98.4017 34.4157 98.4127 34.4194C98.4237 34.4232 98.4337 34.4294 98.4419 34.4377C98.4501 34.446 98.4563 34.4561 98.46 34.4672C98.4637 34.4783 98.4649 34.4901 98.4633 34.5017C98.4633 34.5516 98.4139 34.5873 98.2938 34.5873C97.7144 34.5873 97.0385 34.5517 96.9796 34.5517C96.9208 34.5517 96.1954 34.5873 95.8822 34.5873C95.7597 34.5873 95.7126 34.5635 95.7126 34.5017C95.7125 34.4909 95.7147 34.4803 95.7191 34.4705C95.7235 34.4606 95.7299 34.4519 95.738 34.4449C95.7461 34.4379 95.7556 34.4327 95.7659 34.4298C95.7761 34.4269 95.7869 34.4263 95.7974 34.428C95.9032 34.4238 96.0083 34.4079 96.1106 34.3804C96.3273 34.3305 96.3885 34.1236 96.4239 33.8192C96.4733 33.3936 96.4733 32.578 96.4733 31.5792V27.23L94.9402 27.2538C94.2761 27.2657 94.0241 27.3394 93.8663 27.5843C93.7978 27.6866 93.7417 27.7968 93.6991 27.9125C93.6732 27.9981 93.6379 28.01 93.5884 28.01C93.568 28.0076 93.5493 27.9974 93.5361 27.9814C93.523 27.9655 93.5164 27.9451 93.5178 27.9244C93.5178 27.815 93.7344 26.89 93.7533 26.8044C93.7721 26.7188 93.8263 26.6094 93.8616 26.6094C94.0157 26.6604 94.1731 26.7009 94.3326 26.7307C94.634 26.7663 95.0391 26.7806 95.1639 26.7806H99.1675C99.4219 26.7822 99.6761 26.7655 99.9281 26.7307C100.084 26.7069 100.18 26.6831 100.23 26.6831C100.279 26.6831 100.277 26.7425 100.277 26.8044C100.277 27.1206 100.241 27.8625 100.241 27.9933C100.241 28.0789 100.192 28.1265 100.145 28.1265C100.098 28.1265 100.072 28.0908 100.06 27.9434V27.834C100.025 27.5177 99.7939 27.2871 98.7812 27.2609L97.453 27.2372L97.4483 31.5792Z" fill="#4B817E"/>
<path d="M105.295 26.6094C107.683 26.6094 109.494 28.0837 109.494 30.4949C109.494 32.8086 107.791 34.7205 105.236 34.7205C102.327 34.7205 101.084 32.5161 101.084 30.6542C101.084 28.9849 102.363 26.6094 105.295 26.6094ZM105.53 34.2948C106.472 34.2948 108.401 33.7836 108.401 30.7874C108.401 28.3025 106.906 26.9994 105.229 26.9994C103.455 26.9994 102.167 28.1194 102.167 30.3736C102.184 32.7849 103.618 34.2948 105.537 34.2948H105.53Z" fill="#4B817E"/>
<path d="M111.713 29.7502C111.713 28.1427 111.713 27.8479 111.687 27.5221C111.662 27.1963 111.605 26.999 111.254 26.949C111.134 26.9348 111.013 26.9269 110.891 26.9252C110.87 26.9216 110.851 26.9114 110.836 26.8961C110.82 26.8807 110.81 26.861 110.807 26.8396C110.807 26.7802 110.856 26.754 110.976 26.754C111.447 26.754 112.17 26.7802 112.231 26.7802C112.34 26.7802 113.232 26.754 113.557 26.754C114.233 26.754 114.982 26.8159 115.536 27.2058C115.757 27.3689 115.938 27.581 116.066 27.8258C116.194 28.0706 116.265 28.3417 116.273 28.6183C116.273 29.3864 115.959 30.1283 114.97 30.982C115.839 32.0782 116.574 33.0151 117.189 33.6619C117.756 34.2469 118.105 34.3444 118.366 34.3753C118.49 34.3991 118.615 34.411 118.741 34.4109C118.765 34.4102 118.788 34.4187 118.806 34.4345C118.824 34.4504 118.835 34.4726 118.837 34.4966C118.837 34.5584 118.776 34.5822 118.583 34.5822H117.938C117.335 34.5822 117.069 34.5203 116.803 34.3753C116.346 34.1375 115.959 33.631 115.357 32.8534C114.909 32.2922 114.438 31.6216 114.21 31.3434C114.193 31.3214 114.17 31.3042 114.145 31.2933C114.119 31.2825 114.091 31.2785 114.064 31.2816L112.714 31.2578C112.665 31.2578 112.641 31.2816 112.641 31.3434V31.5812C112.641 32.5799 112.641 33.3837 112.688 33.8093C112.726 34.1137 112.785 34.3087 113.112 34.3586C113.268 34.3839 113.425 34.3998 113.583 34.4062C113.595 34.405 113.606 34.4064 113.617 34.4104C113.627 34.4143 113.637 34.4206 113.645 34.4288C113.653 34.4371 113.659 34.447 113.662 34.4579C113.666 34.4688 113.667 34.4804 113.666 34.4918C113.666 34.5417 113.619 34.5774 113.498 34.5774C112.919 34.5774 112.243 34.5417 112.194 34.5417C112.194 34.5417 111.471 34.5774 111.146 34.5774C111.037 34.5774 110.976 34.5536 110.976 34.4918C110.976 34.4805 110.978 34.4692 110.982 34.4587C110.986 34.4481 110.992 34.4385 111 34.4305C111.008 34.4225 111.018 34.4162 111.028 34.412C111.039 34.4079 111.05 34.4059 111.061 34.4062C111.171 34.402 111.28 34.3861 111.386 34.3586C111.591 34.3087 111.621 34.1208 111.664 33.8093C111.724 33.0643 111.745 32.3166 111.725 31.5693L111.713 29.7502ZM112.629 30.6277C112.629 30.6547 112.635 30.6815 112.648 30.7053C112.661 30.7291 112.68 30.7491 112.702 30.7632C113.084 30.88 113.482 30.933 113.88 30.9202C114.158 30.9417 114.435 30.8779 114.676 30.7371C115.036 30.4993 115.314 29.9452 115.314 29.1534C115.314 27.8621 114.608 27.1202 113.482 27.1202C113.227 27.1185 112.973 27.1392 112.721 27.1821C112.696 27.1909 112.675 27.2073 112.66 27.2291C112.645 27.2508 112.636 27.2767 112.637 27.3033L112.629 30.6277Z" fill="#4B817E"/>
<path d="M117.078 27.7001C117.062 27.3947 117.137 27.0913 117.293 26.8292C117.449 26.567 117.679 26.3582 117.954 26.2296C118.229 26.101 118.535 26.0586 118.834 26.1079C119.133 26.1571 119.411 26.2958 119.631 26.5059C119.851 26.7161 120.004 26.988 120.069 27.2867C120.134 27.5853 120.11 27.8969 119.998 28.1812C119.886 28.4654 119.692 28.7093 119.442 28.8813C119.191 29.0533 118.896 29.1455 118.593 29.1459C118.398 29.1569 118.203 29.1277 118.02 29.06C117.837 28.9923 117.669 28.8876 117.527 28.7522C117.386 28.6169 117.273 28.4538 117.195 28.2729C117.118 28.092 117.078 27.8971 117.078 27.7001ZM119.822 27.6811C119.808 27.3604 119.672 27.0574 119.443 26.8354C119.213 26.6134 118.907 26.4895 118.589 26.4895C118.271 26.4895 117.966 26.6134 117.736 26.8354C117.506 27.0574 117.37 27.3604 117.356 27.6811C117.37 28.0018 117.506 28.3048 117.736 28.5268C117.966 28.7488 118.271 28.8727 118.589 28.8727C118.907 28.8727 119.213 28.7488 119.443 28.5268C119.672 28.3048 119.808 28.0018 119.822 27.6811ZM118.03 27.4433C118.03 27.1936 118.013 27.0771 118.013 26.9939C118.013 26.9106 117.964 26.8774 117.832 26.8774C117.816 26.8774 117.783 26.8607 117.783 26.8441C117.783 26.8274 117.816 26.7941 117.865 26.7941H117.947C117.98 26.7941 118.112 26.8108 118.162 26.8108C118.31 26.8108 118.376 26.7941 118.508 26.7941C118.786 26.7941 119.198 26.8441 119.198 27.2436C119.198 27.41 119.149 27.5432 118.901 27.7405L119.181 28.0901C119.396 28.3564 119.462 28.3731 119.495 28.3731C119.528 28.3731 119.544 28.3897 119.544 28.4064C119.544 28.423 119.528 28.4563 119.429 28.4563C119.214 28.4563 119.099 28.4729 118.852 28.14L118.616 27.8238H118.32V27.9736C118.32 28.3065 118.336 28.3231 118.352 28.3398C118.405 28.3604 118.461 28.3717 118.517 28.3731C118.55 28.3731 118.567 28.3731 118.567 28.4064C118.567 28.4397 118.534 28.4563 118.501 28.4563H118.435C118.402 28.4563 118.254 28.4397 118.171 28.4397C118.089 28.4397 117.957 28.4563 117.936 28.4563H117.853C117.82 28.4563 117.787 28.4563 117.787 28.423C117.787 28.3897 117.82 28.3731 117.853 28.3731C118.002 28.3731 118.002 28.3731 118.018 28.2732C118.035 28.1733 118.035 28.0735 118.035 27.7976L118.03 27.4433ZM118.327 27.6407C118.403 27.6782 118.489 27.6954 118.574 27.6906C118.632 27.6895 118.688 27.6722 118.736 27.6407C118.787 27.6108 118.828 27.5669 118.854 27.5141C118.88 27.4614 118.891 27.4021 118.885 27.3434C118.888 27.289 118.879 27.2345 118.859 27.1837C118.839 27.133 118.809 27.0871 118.77 27.0492C118.731 27.0113 118.685 26.9823 118.634 26.9641C118.583 26.946 118.529 26.9391 118.475 26.9439C118.458 26.9439 118.36 26.9439 118.327 26.9772V27.6407Z" fill="#4B817E"/>
<path d="M65.7717 49.8823C65.7717 51.0522 65.7717 52.0224 65.8329 52.5242C65.8682 52.8785 65.9412 53.1472 66.3039 53.1947C66.4835 53.2205 66.6643 53.2372 66.8456 53.2447C66.9186 53.2447 66.9421 53.2803 66.9421 53.316C66.9421 53.3517 66.8809 53.4135 66.749 53.4135C66.0849 53.4135 65.336 53.3778 65.2653 53.3778C65.1947 53.3778 64.4458 53.4135 64.0878 53.4135C63.9559 53.4135 63.8947 53.3897 63.8947 53.316C63.8947 53.2803 63.9183 53.2447 63.9913 53.2447C64.1134 53.2397 64.2349 53.223 64.3539 53.1947C64.5894 53.1472 64.6554 52.8785 64.7025 52.5242C64.7637 52.0129 64.7637 51.0522 64.7637 49.8823V47.7422C64.7637 45.8398 64.7637 45.5021 64.7402 45.1122C64.7166 44.7222 64.5941 44.4915 64.328 44.4297C64.2062 44.3993 64.0814 44.3833 63.9559 44.3821C63.9065 44.3821 63.8594 44.356 63.8594 44.3084C63.8594 44.2609 63.9183 44.2109 64.0525 44.2109C64.4505 44.2109 65.2088 44.2466 65.27 44.2466C65.3313 44.2466 66.0896 44.2109 66.4476 44.2109C66.5794 44.2109 66.6407 44.2347 66.6407 44.3084C66.6407 44.3821 66.5912 44.3821 66.5441 44.3821C66.4428 44.3855 66.342 44.3975 66.2427 44.4178C65.9177 44.4796 65.8211 44.6865 65.7952 45.1122C65.7693 45.5378 65.7717 45.8422 65.7717 47.7422V49.8823Z" fill="#4B817E"/>
<path d="M70.1438 52C70.1674 52.8537 70.2639 53.1081 70.5536 53.189C70.7283 53.229 70.9067 53.2498 71.0858 53.2508C71.0969 53.2505 71.1078 53.2524 71.1181 53.2565C71.1284 53.2605 71.1377 53.2666 71.1456 53.2743C71.1535 53.2821 71.1598 53.2914 71.1641 53.3016C71.1684 53.3119 71.1706 53.3229 71.1706 53.334C71.1706 53.3959 71.0976 53.4196 70.9775 53.4196C70.3746 53.4196 69.9507 53.384 69.8542 53.384C69.7576 53.384 69.3125 53.4196 68.8297 53.4196C68.7214 53.4196 68.6602 53.4196 68.6602 53.334C68.6602 53.3229 68.6624 53.3119 68.6666 53.3016C68.6709 53.2914 68.6772 53.2821 68.6851 53.2743C68.693 53.2666 68.7024 53.2605 68.7127 53.2565C68.7229 53.2524 68.7339 53.2505 68.7449 53.2508C68.8915 53.2502 69.0373 53.2294 69.1783 53.189C69.4444 53.1153 69.4797 52.8347 69.4797 51.8978V45.9577C69.4797 45.544 69.5409 45.4346 69.6257 45.4346C69.7105 45.4346 69.9272 45.6414 70.0355 45.7508C70.205 45.922 71.7476 47.5795 73.3891 49.2844C74.4394 50.3807 75.5722 51.61 75.8995 51.9525L75.7818 46.7638C75.7818 46.0933 75.7111 45.8626 75.3838 45.8008C75.2125 45.7713 75.0393 45.7546 74.8657 45.7508C74.7926 45.7508 74.7809 45.6914 74.7809 45.6533C74.7809 45.6153 74.8657 45.582 74.9858 45.582C75.4685 45.582 75.9749 45.6058 76.0973 45.6058C76.2198 45.6058 76.5683 45.582 77.0017 45.582C77.11 45.582 77.1948 45.5939 77.1948 45.6533C77.1893 45.6812 77.1742 45.7063 77.1522 45.7241C77.1303 45.7419 77.1028 45.7514 77.0747 45.7508C76.9892 45.7497 76.9038 45.7585 76.8203 45.777C76.4694 45.8483 76.4459 46.0552 76.4459 46.6782L76.4223 52.7443C76.4223 53.4268 76.4223 53.4862 76.3375 53.4862C76.2528 53.4862 76.1209 53.4006 75.5298 52.8537C75.4214 52.7562 73.8813 51.232 72.7673 50.0525C71.5356 48.7494 70.3416 47.482 70.0167 47.1158L70.1438 52Z" fill="#4B817E"/>
<path d="M78.7492 53.2676C78.6055 53.1939 78.5938 53.1582 78.5938 52.8777C78.5938 52.3664 78.6409 51.9526 78.6526 51.7814C78.6526 51.672 78.6785 51.6102 78.7374 51.6102C78.7963 51.6102 78.834 51.6483 78.834 51.7339C78.8306 51.8602 78.8433 51.9865 78.8716 52.1096C79.0388 52.8658 79.8348 53.1345 80.5484 53.1345C81.5964 53.1345 82.1404 52.5376 82.1404 51.7577C82.1404 50.9777 81.7424 50.6614 80.8004 49.9552L80.3294 49.589C79.1849 48.7234 78.8104 48.0909 78.8104 47.3728C78.8104 46.1529 79.7524 45.4229 81.1654 45.4229C81.5345 45.4242 81.9023 45.4648 82.2629 45.5441C82.3848 45.5784 82.5108 45.5953 82.6373 45.5941C82.7198 45.5941 82.7457 45.606 82.7457 45.6678C82.7105 46.0321 82.694 46.398 82.6962 46.764C82.6962 46.9209 82.6962 47.0018 82.6114 47.0018C82.5266 47.0018 82.529 46.9519 82.5149 46.8686C82.4868 46.691 82.4345 46.5181 82.3594 46.355C82.2864 46.2337 81.9379 45.8437 80.9841 45.8437C80.2117 45.8437 79.5711 46.2337 79.5711 46.9638C79.5711 47.6224 79.8961 48.0005 80.9464 48.7187L81.2479 48.9255C82.5384 49.8149 82.9835 50.533 82.9835 51.4224C82.9878 51.7788 82.8986 52.1301 82.7248 52.4404C82.5511 52.7507 82.2991 53.0091 81.9944 53.1892C81.5493 53.4816 80.8852 53.5554 80.3059 53.5554C79.773 53.5675 79.2432 53.4696 78.7492 53.2676Z" fill="#4B817E"/>
<path d="M88.2221 50.4054C88.2221 51.4041 88.2221 52.2198 88.2715 52.6478C88.3069 52.9522 88.354 53.1472 88.6813 53.1947C88.8411 53.2208 89.0023 53.2374 89.1641 53.2447C89.1754 53.2432 89.1868 53.2443 89.1976 53.2479C89.2084 53.2515 89.2183 53.2575 89.2264 53.2655C89.2346 53.2735 89.2408 53.2833 89.2447 53.2941C89.2486 53.3049 89.25 53.3165 89.2489 53.3279C89.2489 53.3778 89.1994 53.4135 89.0793 53.4135C88.5 53.4135 87.8241 53.3778 87.7652 53.3778C87.7063 53.3778 86.981 53.4135 86.6654 53.4135C86.5453 53.4135 86.4982 53.3897 86.4982 53.3279C86.4982 53.2661 86.5217 53.2565 86.583 53.2565C86.689 53.2525 86.7941 53.2358 86.8962 53.2066C87.1128 53.159 87.1717 52.9522 87.2094 52.6478C87.2565 52.2198 87.2565 51.4041 87.2565 50.4054V46.0562L85.7257 46.0823C85.0616 46.0942 84.8096 46.1679 84.6518 46.4105C84.5849 46.5141 84.5281 46.624 84.4823 46.7387C84.4587 46.8243 84.4234 46.8361 84.3739 46.8361C84.3531 46.8343 84.3338 46.8244 84.3202 46.8084C84.3065 46.7924 84.2996 46.7716 84.3009 46.7505C84.3009 46.6412 84.52 45.7161 84.5364 45.6305C84.5529 45.5449 84.6071 45.4355 84.6448 45.4355C84.7989 45.4866 84.9563 45.5271 85.1158 45.5568C85.4172 45.5949 85.8223 45.6068 85.9471 45.6068H89.9507C90.2043 45.6097 90.4578 45.593 90.709 45.5568C90.8668 45.533 90.9633 45.5093 91.0104 45.5093C91.0575 45.5093 91.0599 45.5711 91.0599 45.6305C91.0599 45.9468 91.0245 46.6911 91.0245 46.8195C91.0245 46.9479 90.9751 46.9527 90.928 46.9527C90.8809 46.9527 90.855 46.917 90.8432 46.7719L90.8314 46.6602C90.7938 46.3439 90.5653 46.1133 89.5527 46.0895L88.2244 46.0633L88.2221 50.4054Z" fill="#4B817E"/>
<path d="M94.3064 50.4045C94.3064 51.4032 94.3064 52.2188 94.3535 52.6468C94.3912 52.9512 94.4265 53.1462 94.7398 53.1938C94.8958 53.2187 95.053 53.2354 95.2108 53.2437C95.2219 53.243 95.233 53.2447 95.2434 53.2486C95.2538 53.2526 95.2634 53.2586 95.2713 53.2664C95.2793 53.2743 95.2856 53.2837 95.2897 53.2941C95.2939 53.3045 95.2959 53.3157 95.2955 53.3269C95.2955 53.3769 95.2461 53.4125 95.126 53.4125C94.5349 53.4125 93.8472 53.3769 93.8001 53.3769C93.753 53.3769 93.0747 53.4125 92.7498 53.4125C92.6414 53.4125 92.5802 53.3888 92.5802 53.3269C92.5802 53.3158 92.5824 53.3048 92.5867 53.2945C92.591 53.2843 92.5973 53.275 92.6052 53.2672C92.6131 53.2595 92.6224 53.2534 92.6327 53.2493C92.643 53.2453 92.654 53.2434 92.665 53.2437C92.7748 53.2387 92.8837 53.222 92.99 53.1938C93.1972 53.1462 93.2255 52.956 93.2679 52.6468C93.3173 52.2188 93.3291 51.4032 93.3291 50.4045V48.5782C93.3291 46.9707 93.3291 46.6759 93.3055 46.3477C93.282 46.0196 93.1972 45.8365 92.9664 45.7889C92.8593 45.7671 92.7506 45.7544 92.6414 45.7509C92.6197 45.7498 92.5991 45.7407 92.5835 45.7254C92.5679 45.7101 92.5583 45.6896 92.5566 45.6676C92.5566 45.6058 92.6061 45.582 92.7262 45.582C93.0748 45.582 93.7389 45.6058 93.8001 45.6058C93.8613 45.6058 94.5349 45.582 94.8599 45.582C94.9823 45.582 95.0294 45.6058 95.0294 45.6676C95.0261 45.6889 95.016 45.7085 95.0007 45.7235C94.9854 45.7384 94.9658 45.7481 94.9446 45.7509C94.856 45.7488 94.7674 45.7576 94.6809 45.777C94.3912 45.8365 94.33 45.9839 94.3064 46.3477C94.2829 46.7115 94.2947 46.9707 94.2947 48.5782L94.3064 50.4045Z" fill="#4B817E"/>
<path d="M100.347 50.4054C100.347 51.4041 100.347 52.2198 100.397 52.6478C100.432 52.9522 100.479 53.1472 100.806 53.1947C100.962 53.2203 101.12 53.237 101.277 53.2447C101.289 53.2432 101.3 53.2443 101.311 53.2479C101.322 53.2515 101.332 53.2575 101.34 53.2655C101.348 53.2735 101.354 53.2833 101.358 53.2941C101.362 53.3049 101.363 53.3165 101.362 53.3279C101.362 53.3778 101.313 53.4135 101.193 53.4135C100.613 53.4135 99.9373 53.3778 99.8761 53.3778C99.8149 53.3778 99.0943 53.4135 98.7787 53.4135C98.6586 53.4135 98.6115 53.3897 98.6115 53.3279C98.6115 53.2661 98.635 53.2565 98.6939 53.2565C98.8007 53.2527 98.9066 53.236 99.0095 53.2066C99.2261 53.159 99.285 52.9522 99.3227 52.6478C99.3698 52.2198 99.3698 51.4041 99.3698 50.4054V46.0562L97.839 46.0823C97.1749 46.0942 96.9205 46.1679 96.7651 46.4105C96.6982 46.5141 96.6414 46.624 96.5956 46.7387C96.572 46.8243 96.5367 46.8361 96.4872 46.8361C96.4664 46.8343 96.4471 46.8244 96.4335 46.8084C96.4198 46.7924 96.4129 46.7716 96.4142 46.7505C96.4142 46.6412 96.6332 45.7161 96.6497 45.6305C96.6662 45.5449 96.7204 45.4355 96.7581 45.4355C96.912 45.4872 97.0694 45.5277 97.2291 45.5568C97.5329 45.5949 97.9356 45.6068 98.0627 45.6068H102.066C102.32 45.6097 102.573 45.593 102.825 45.5568C102.982 45.533 103.079 45.5093 103.126 45.5093C103.173 45.5093 103.176 45.5711 103.176 45.6305C103.176 45.9468 103.138 46.6911 103.138 46.8195C103.138 46.9479 103.091 46.9527 103.044 46.9527C102.997 46.9527 102.971 46.917 102.959 46.7719V46.6602C102.921 46.3439 102.693 46.1133 101.678 46.0895L100.352 46.0633L100.347 50.4054Z" fill="#4B817E"/>
<path d="M105.283 48.5782C105.283 46.9707 105.283 46.6759 105.26 46.3477C105.236 46.0196 105.175 45.8246 104.824 45.777C104.704 45.762 104.584 45.7532 104.464 45.7509C104.443 45.7481 104.423 45.7384 104.408 45.7235C104.392 45.7085 104.382 45.6889 104.379 45.6676C104.379 45.6058 104.426 45.582 104.546 45.582C105.029 45.582 105.669 45.6058 105.766 45.6058C105.863 45.6058 106.527 45.582 106.84 45.582C106.96 45.582 107.021 45.6058 107.021 45.6676C107.017 45.6904 107.005 45.7109 106.987 45.7259C106.97 45.741 106.948 45.7498 106.925 45.7509C106.835 45.7492 106.746 45.7579 106.659 45.777C106.381 45.8246 106.319 46.0148 106.296 46.3477C106.272 46.6806 106.272 46.9707 106.272 48.5782V50.0335C106.272 51.5316 106.597 52.1546 107.057 52.5684C107.267 52.7679 107.516 52.9207 107.788 53.0169C108.06 53.1132 108.349 53.1507 108.637 53.1272C108.947 53.1308 109.255 53.0676 109.539 52.9417C109.823 52.8158 110.078 52.6302 110.285 52.3972C110.78 51.8003 110.888 50.949 110.888 49.8885V48.5854C110.888 46.9779 110.888 46.683 110.862 46.3549C110.836 46.0267 110.792 45.8317 110.441 45.7842C110.321 45.7692 110.201 45.7605 110.08 45.758C110.059 45.7569 110.038 45.7479 110.022 45.7325C110.007 45.7172 109.997 45.6967 109.996 45.6748C109.996 45.6129 110.043 45.5892 110.163 45.5892C110.634 45.5892 111.249 45.6129 111.31 45.6129C111.371 45.6129 111.889 45.5892 112.202 45.5892C112.322 45.5892 112.372 45.6129 112.372 45.6748C112.37 45.6965 112.36 45.7168 112.345 45.732C112.329 45.7472 112.309 45.7564 112.287 45.758C112.198 45.7565 112.108 45.7653 112.021 45.7842C111.731 45.8436 111.672 46.0219 111.647 46.3549C111.621 46.6878 111.647 46.9779 111.647 48.5854V49.6935C111.647 50.8135 111.503 52.0714 110.657 52.799C110.039 53.3241 109.246 53.5942 108.439 53.5552C108.088 53.5552 106.979 53.5291 106.23 52.8228C105.712 52.3353 105.302 51.6172 105.302 50.1072L105.283 48.5782Z" fill="#4B817E"/>
<path d="M117.359 50.4054C117.359 51.4041 117.359 52.2198 117.406 52.6478C117.444 52.9522 117.491 53.1472 117.816 53.1947C117.972 53.2202 118.129 53.2369 118.287 53.2447C118.298 53.2432 118.309 53.2443 118.32 53.2479C118.331 53.2515 118.341 53.2575 118.349 53.2655C118.357 53.2735 118.363 53.2833 118.367 53.2941C118.371 53.3049 118.373 53.3165 118.372 53.3279C118.372 53.3778 118.324 53.4135 118.202 53.4135C117.625 53.4135 116.949 53.3778 116.888 53.3778C116.827 53.3778 116.104 53.4135 115.79 53.4135C115.67 53.4135 115.621 53.3897 115.621 53.3279C115.621 53.2661 115.647 53.2565 115.706 53.2565C115.812 53.2527 115.917 53.236 116.019 53.2066C116.238 53.159 116.297 52.9522 116.334 52.6478C116.381 52.2198 116.381 51.4041 116.381 50.4054V46.0562L114.848 46.0823C114.187 46.0942 113.932 46.1679 113.777 46.4105C113.708 46.5129 113.651 46.623 113.607 46.7387C113.584 46.8243 113.546 46.8361 113.499 46.8361C113.478 46.8343 113.459 46.8244 113.445 46.8084C113.432 46.7924 113.425 46.7716 113.426 46.7505C113.426 46.6412 113.643 45.7161 113.661 45.6305C113.68 45.5449 113.734 45.4355 113.772 45.4355C113.926 45.4872 114.083 45.5277 114.243 45.5568C114.545 45.5949 114.95 45.6068 115.077 45.6068H119.08C119.335 45.6097 119.589 45.593 119.841 45.5568C119.999 45.533 120.095 45.5093 120.142 45.5093C120.19 45.5093 120.192 45.5711 120.192 45.6305C120.192 45.9468 120.154 46.6911 120.154 46.8195C120.154 46.9479 120.107 46.9527 120.058 46.9527C120.008 46.9527 119.987 46.917 119.973 46.7719V46.6602C119.938 46.3439 119.709 46.1133 118.694 46.0895L117.368 46.0633L117.359 50.4054Z" fill="#4B817E"/>
<path d="M122.545 48.5789C122.545 46.9714 122.545 46.6765 122.521 46.3484C122.498 46.0202 122.437 45.8252 122.088 45.7777C121.968 45.7626 121.847 45.7539 121.725 45.7515C121.705 45.748 121.685 45.7382 121.67 45.7233C121.655 45.7084 121.645 45.6892 121.641 45.6683C121.641 45.6065 121.69 45.5827 121.81 45.5827C122.281 45.5827 122.988 45.6065 123.04 45.6065C123.091 45.6065 125.333 45.6183 125.574 45.6065C125.814 45.5946 125.972 45.5565 126.056 45.5446C126.102 45.5235 126.15 45.5075 126.2 45.4971C126.238 45.4971 126.249 45.5446 126.249 45.5946C126.249 45.6445 126.188 45.7896 126.165 46.082C126.153 46.1795 126.129 46.6408 126.103 46.7645C126.103 46.8121 126.056 46.8739 126.007 46.8739C125.957 46.8739 125.924 46.824 125.924 46.7383C125.923 46.6146 125.903 46.4918 125.863 46.3745C125.79 46.2033 125.682 46.1367 125.103 46.0559C124.921 46.0321 123.69 46.0202 123.572 46.0202C123.522 46.0202 123.511 46.0559 123.511 46.1296V48.9427C123.511 49.0164 123.511 49.0544 123.572 49.0544C123.704 49.0544 125.103 49.0544 125.345 49.0283C125.588 49.0021 125.755 48.9926 125.863 48.8832C125.972 48.7739 125.983 48.7501 126.021 48.7501C126.059 48.7501 126.08 48.7739 126.08 48.8333C126.08 48.8927 126.021 49.0711 125.995 49.4064C125.972 49.6133 125.948 50.0032 125.948 50.077C125.948 50.1507 125.924 50.2719 125.851 50.2719C125.778 50.2719 125.778 50.2339 125.778 50.1744C125.784 50.0584 125.768 49.9423 125.731 49.832C125.694 49.687 125.597 49.5657 125.187 49.5158C124.898 49.4801 123.774 49.4682 123.584 49.4682C123.522 49.4682 123.511 49.5039 123.511 49.5395V50.4051C123.511 50.7594 123.511 51.965 123.511 52.1719C123.534 52.8663 123.727 52.9994 124.778 52.9994C125.135 53.0173 125.493 52.9804 125.84 52.89C126.115 52.7688 126.261 52.5857 126.322 52.1767C126.346 52.0554 126.37 52.0173 126.431 52.0173C126.492 52.0173 126.501 52.1029 126.501 52.1767C126.474 52.5122 126.426 52.8457 126.358 53.1754C126.285 53.4441 126.176 53.4441 125.767 53.4441C124.971 53.4441 124.354 53.4179 123.92 53.406C123.487 53.3942 123.197 53.3823 123.04 53.3823C123.016 53.3823 122.804 53.3823 122.583 53.3942C122.361 53.4061 122.135 53.4179 121.966 53.4179C121.857 53.4179 121.798 53.3942 121.798 53.3323C121.798 53.3213 121.8 53.3103 121.804 53.3001C121.808 53.2899 121.814 53.2805 121.822 53.2728C121.83 53.265 121.839 53.2588 121.849 53.2548C121.859 53.2507 121.87 53.2488 121.881 53.2491C121.991 53.2385 122.1 53.2218 122.208 53.1992C122.413 53.1635 122.444 52.9614 122.486 52.6522C122.544 51.9063 122.564 51.1578 122.545 50.4099V48.5789Z" fill="#4B817E"/>
<path d="M64.2891 21.2559H126.992" stroke="#FCB853" stroke-width="1.5"/>
<path d="M64.2891 40.0225H126.992" stroke="#FCB853" stroke-width="1.5"/>
<path d="M28.0332 31.5807L8.7549 12.4551L3.81641 22.8419L28.0332 31.5807Z" fill="url(#paint0_linear_224_2960)"/>
<path d="M28.0319 31.5813L3.65733 47.316L2.28906 37.1884L28.0319 31.5813Z" fill="url(#paint1_linear_224_2960)"/>
<path d="M27.8267 31.6855L14.1016 46.9994L21.5647 52.1214L27.8267 31.6855Z" fill="url(#paint2_linear_224_2960)"/>
<path d="M28.0312 31.5811L29.5055 57.9998L39.91 52.0954L28.0312 31.5811Z" fill="url(#paint3_linear_224_2960)"/>
<path d="M28.0312 31.5811L52.4529 39.9537L48.8191 49.0327L28.0312 31.5811Z" fill="url(#paint4_linear_224_2960)"/>
<path d="M28.0326 31.5812L18.2969 5.73793L30.3735 1.48145L28.0326 31.5812Z" fill="url(#paint5_linear_224_2960)"/>
<path d="M28.0311 31.5816L11.9863 36.6062L14.5745 23.958L28.0311 31.5816Z" fill="url(#paint6_linear_224_2960)"/>
<path d="M28.0312 31.5809L48.4423 9.44238L54.5277 19.3322L28.0312 31.5809Z" fill="url(#paint7_linear_224_2960)"/>
<path d="M28.0312 31.5813L48.6802 27.2012L46.4452 39.8422L28.0312 31.5813Z" fill="url(#paint8_linear_224_2960)"/>
<path d="M25.4067 7.21701L18.2969 5.73794L23.266 0L30.3735 1.48145L25.4067 7.21701Z" fill="#4B817E"/>
<path d="M16.8983 31.2083L11.9881 36.6062L9.66602 29.3535L14.5763 23.958L16.8983 31.2083Z" fill="#4B817E"/>
<path d="M54.5277 19.3322L48.4258 18.5094L48.4423 9.44238L54.5441 10.2675L54.5277 19.3322Z" fill="#FFEBB2"/>
<path d="M52.9082 34.8413L46.446 39.8421L42.2188 32.2018L48.4831 27.3532L48.681 27.201L52.9082 34.8413Z" fill="#FCB853"/>
<path d="M9.54216 20.376L3.81473 22.8419L3.02344 14.921L8.75322 12.4551L9.54216 20.376Z" fill="#FCB853"/>
<path d="M5.94645 43.2426L3.65736 47.3159L0 41.2594L2.28909 37.1884L5.94645 43.2426Z" fill="#994209"/>
<path d="M55.2919 52.3146L48.8203 49.033L52.4541 39.9541L58.9281 43.2333L55.2919 52.3146Z" fill="#994209"/>
<path d="M38.926 57.8597L29.5059 58L30.4903 52.2359L39.9104 52.0956L38.926 57.8597Z" fill="#4B817E"/>
<path d="M28.0312 31.5813L40.8921 9.91123L35.1034 8.7627L28.0312 31.5813Z" fill="url(#paint9_linear_224_2960)"/>
<path d="M37.3027 6.89648L40.8941 9.9117L38.6969 11.7784L35.1055 8.76316L37.3027 6.89648Z" fill="#FCB853"/>
<path d="M21.5658 52.1221L18.7115 57.1704L11.2461 52.0483L14.1027 47L21.5658 52.1221Z" fill="#FFEBB2"/>
</g>
<defs>
<linearGradient id="paint0_linear_224_2960" x1="27.7906" y1="30.5963" x2="-3.64928" y2="12.0307" gradientUnits="userSpaceOnUse">
<stop stop-color="white"/>
<stop offset="1" stop-color="#FCB853"/>
</linearGradient>
<linearGradient id="paint1_linear_224_2960" x1="21.459" y1="26.338" x2="4.3075" y2="47.8347" gradientUnits="userSpaceOnUse">
<stop stop-color="white"/>
<stop offset="1" stop-color="#994209"/>
</linearGradient>
<linearGradient id="paint2_linear_224_2960" x1="28.552" y1="35.8612" x2="11.7103" y2="56.9732" gradientUnits="userSpaceOnUse">
<stop stop-color="white"/>
<stop offset="1" stop-color="#FFEBB2"/>
</linearGradient>
<linearGradient id="paint3_linear_224_2960" x1="24.6047" y1="31.4836" x2="42.2627" y2="71.8765" gradientUnits="userSpaceOnUse">
<stop stop-color="white"/>
<stop offset="1" stop-color="#4B817E"/>
</linearGradient>
<linearGradient id="paint4_linear_224_2960" x1="36.4293" y1="41.9559" x2="47.0899" y2="33.3253" gradientUnits="userSpaceOnUse">
<stop stop-color="white"/>
<stop offset="1" stop-color="#994209"/>
</linearGradient>
<linearGradient id="paint5_linear_224_2960" x1="19.8135" y1="21.4275" x2="35.9469" y2="8.36633" gradientUnits="userSpaceOnUse">
<stop stop-color="white"/>
<stop offset="1" stop-color="#4B817E"/>
</linearGradient>
<linearGradient id="paint6_linear_224_2960" x1="26.6205" y1="33.7218" x2="4.44776" y2="28.1129" gradientUnits="userSpaceOnUse">
<stop stop-color="white"/>
<stop offset="1" stop-color="#4B817E"/>
</linearGradient>
<linearGradient id="paint7_linear_224_2960" x1="28.9827" y1="32.9577" x2="62.0206" y2="6.21729" gradientUnits="userSpaceOnUse">
<stop stop-color="white"/>
<stop offset="1" stop-color="#FFEBB2"/>
</linearGradient>
<linearGradient id="paint8_linear_224_2960" x1="34.9244" y1="25.4558" x2="47.1543" y2="39.2136" gradientUnits="userSpaceOnUse">
<stop stop-color="white"/>
<stop offset="1" stop-color="#FCB853"/>
</linearGradient>
<linearGradient id="paint9_linear_224_2960" x1="30.5026" y1="33.9209" x2="43.3189" y2="-7.69851" gradientUnits="userSpaceOnUse">
<stop stop-color="white"/>
<stop offset="1" stop-color="#FCB853"/>
</linearGradient>
<clipPath id="clip0_224_2960">
<rect width="130" height="58" fill="white"/>
</clipPath>
</defs>
</svg>
