<svg width="182" height="46" viewBox="0 0 182 46" fill="none" xmlns="http://www.w3.org/2000/svg">
<g clip-path="url(#clip0_224_625)">
<path d="M45.4481 16.5079C45.4481 13.258 45.4481 10.008 45.4481 6.75806C45.4288 5.93089 45.5099 5.10442 45.6899 4.29638C45.7805 3.91223 45.9063 3.53702 46.0656 3.17537C46.3438 2.53465 46.7575 1.96017 47.2787 1.49047C47.7999 1.02076 48.4166 0.666697 49.0875 0.452008C49.9009 0.189388 50.7479 0.0425395 51.6031 0.01588C51.7926 0.01588 51.9821 0.01588 52.1715 0.01588H71.9956C72.7361 0.0107779 73.4752 0.0822398 74.2008 0.229098C76.5421 0.715837 77.9752 2.11575 78.5001 4.42883C78.6475 5.08981 78.7219 5.76463 78.7222 6.44148C78.7222 13.1675 78.7222 19.8925 78.7222 26.6163C78.724 27.3979 78.6241 28.1764 78.425 28.9327C77.8663 31.0228 76.5007 32.2827 74.3968 32.7835C73.7688 32.9344 73.1253 33.0135 72.4791 33.0193H51.9625C51.126 33.0237 50.2928 32.915 49.4861 32.6963C47.4475 32.1374 46.2191 30.8161 45.7029 28.8196C45.5483 28.2185 45.465 27.6016 45.4546 26.9814C45.4546 26.681 45.4546 26.3805 45.4546 26.0801L45.4481 16.5079ZM72.0642 16.5079V7.3751C72.0642 7.24265 72.0642 7.11343 72.0642 6.98097C72.0642 6.60946 72.0642 6.60946 71.6852 6.59977H52.7694C52.6387 6.59977 52.5048 6.59977 52.3708 6.59977C52.1389 6.59977 52.1029 6.645 52.0931 6.85499C52.0931 6.98744 52.0931 7.11666 52.0931 7.24912V25.7926C52.0931 25.9056 52.0931 26.0187 52.0931 26.1318C52.0931 26.4387 52.1127 26.4548 52.4198 26.4548H71.7342C72.0348 26.4548 72.0609 26.4225 72.0609 26.1318C72.0609 25.9799 72.0609 25.8313 72.0609 25.6795L72.0642 16.5079Z" fill="white"/>
<path d="M166.155 19.9561C171.382 24.2829 176.624 28.6076 181.879 32.9301C181.831 32.9753 181.771 33.0081 181.707 33.0256C181.643 33.043 181.575 33.0446 181.51 33.0302C178.452 33.0302 175.394 33.0302 172.336 33.0302C172.195 33.0282 172.056 32.9986 171.926 32.9431C171.797 32.8877 171.68 32.8075 171.582 32.7072C166.703 28.5828 161.822 24.4595 156.939 20.3373L156.812 20.2275C156.269 19.772 156.24 19.7623 155.528 19.8172C155.499 19.815 155.471 19.8191 155.444 19.8292C155.418 19.8394 155.394 19.8552 155.375 19.8757C155.355 19.8962 155.341 19.9207 155.332 19.9475C155.323 19.9743 155.321 20.0026 155.325 20.0304C155.325 20.1984 155.325 20.3535 155.325 20.5376C155.325 24.4811 155.325 28.4267 155.325 32.3744C155.325 33.0819 155.41 33.0205 154.695 33.0205H149.056C148.605 33.0205 148.618 32.9979 148.618 32.5812V14.2219C148.618 14.0539 148.618 13.8988 148.618 13.7147C148.616 13.6915 148.618 13.668 148.626 13.6459C148.633 13.6238 148.646 13.6035 148.662 13.5864C148.678 13.5693 148.697 13.5557 148.719 13.5467C148.741 13.5376 148.764 13.5332 148.788 13.5338C148.977 13.5338 149.167 13.5338 149.356 13.5338H173.571C174.176 13.5338 174.123 13.5758 174.123 12.9878V7.2374C174.123 7.12433 174.123 7.01449 174.123 6.91434C174.123 6.71405 174.084 6.67851 173.895 6.66882C173.705 6.65912 173.568 6.66882 173.382 6.66882H149.34H148.772C148.733 6.66882 148.696 6.65396 148.669 6.62739C148.641 6.60082 148.625 6.56467 148.625 6.52668C148.625 6.43407 148.625 6.34038 148.625 6.24561V0.462906C148.625 0.369219 148.625 0.272301 148.625 0.178614C148.627 0.132051 148.648 0.0883433 148.683 0.0569161C148.718 0.0254889 148.764 0.00886532 148.811 0.0106286H173.708C174.164 0.00467808 174.619 0.0295071 175.071 0.0849351C176.348 0.266394 177.548 0.801667 178.531 1.62889C179.513 2.45611 180.239 3.5415 180.625 4.75956C180.8 5.3358 180.89 5.93447 180.889 6.53637V13.5241C180.895 14.3322 180.785 15.1371 180.563 15.9147C180.334 16.7738 179.879 17.5574 179.243 18.1853C178.608 18.8131 177.815 19.2626 176.946 19.4877C176.087 19.7332 175.197 19.8529 174.303 19.8431H166.23L166.155 19.9561Z" fill="white"/>
<path d="M33.2028 14.5772C33.1113 14.7549 33.0198 14.9326 32.9349 15.1135C30.5391 20.0519 28.1433 24.9936 25.7476 29.9385C25.2967 30.8689 24.8393 31.7961 24.395 32.7297C24.3673 32.8289 24.3054 32.9154 24.2202 32.9743C24.1349 33.0333 24.0315 33.061 23.9278 33.0528C21.6867 33.0528 19.4455 33.0528 17.2077 33.0528C17.1325 33.0528 17.0607 33.0528 16.9888 33.0302C16.9333 32.804 17.0803 32.6587 17.1619 32.4971C17.8905 31.0111 18.6288 29.5315 19.3639 28.0486C23.8941 18.904 28.4297 9.76796 32.9708 0.640541C33.3498 -0.125102 33.1342 0.0105812 33.9705 -0.00557158C35.7739 -0.00557158 37.5642 -0.00557158 39.3839 -0.00557158H39.838C39.8617 -0.0069438 39.8854 -0.00339849 39.9076 0.00483942C39.9298 0.0130773 39.95 0.0258203 39.967 0.0422539C39.9839 0.0586876 39.9972 0.0784459 40.0059 0.100254C40.0146 0.122062 40.0187 0.145434 40.0177 0.168872C40.0177 0.298094 40.0177 0.430548 40.0177 0.563001V32.4874C40.0177 33.1142 40.0765 33.0463 39.4297 33.0496H33.9117C33.7778 33.0496 33.6438 33.0496 33.5132 33.0496C33.4895 33.0509 33.4658 33.0474 33.4436 33.0391C33.4213 33.0309 33.4011 33.0182 33.3842 33.0017C33.3673 32.9853 33.354 32.9655 33.3453 32.9437C33.3365 32.9219 33.3325 32.8985 33.3335 32.8751C33.3335 32.7071 33.3335 32.5521 33.3335 32.3679V14.5998L33.2028 14.5772Z" fill="white"/>
<path d="M14 29.2366C12.7748 26.7071 11.5857 24.2583 10.4063 21.8063C9.2269 19.3543 8.05406 16.9411 6.85508 14.4762C6.70153 14.628 6.75707 14.7637 6.75707 14.88C6.75707 19.2929 6.75707 23.708 6.75707 28.1253V32.4639C6.75707 32.5964 6.75707 32.7256 6.75707 32.8581C6.75863 32.8811 6.75507 32.9042 6.74666 32.9257C6.73825 32.9472 6.72518 32.9666 6.70838 32.9827C6.69157 32.9987 6.67144 33.0108 6.64938 33.0183C6.62731 33.0258 6.60387 33.0285 6.58066 33.0261H6.4075H0.343996C0.268318 33.0295 0.19251 33.023 0.118574 33.0067C0.0688982 32.9852 0.0292293 32.946 0.00748781 32.8968C-0.00249594 32.8424 -0.00249594 32.7866 0.00748781 32.7321C0.00748781 32.5996 0.00748781 32.4672 0.00748781 32.3379C0.00748781 21.7977 0.00748781 11.2574 0.00748781 0.717185C0.00748781 -0.11307 -0.0970483 0.00322993 0.729497 -6.29574e-07H6.48264C6.61658 -6.29574e-07 6.74727 -6.29574e-07 6.88122 -6.29574e-07C6.93799 -0.00550945 6.99506 0.00682497 7.04433 0.0352449C7.0936 0.0636649 7.13254 0.10672 7.15563 0.158294C7.21117 0.258441 7.25365 0.36182 7.30592 0.461968L17.5577 21.199C17.5904 21.2668 17.623 21.3346 17.659 21.3993C17.7081 21.4785 17.734 21.5696 17.734 21.6625C17.734 21.7555 17.7081 21.8466 17.659 21.9258C16.4807 24.2777 15.3067 26.6338 14.1372 28.9943C14.1241 29.0525 14.0914 29.0945 14 29.2366Z" fill="white"/>
<path d="M113.369 0.0191794C113.344 0.213807 113.26 0.3963 113.128 0.542529C112.213 2.01351 111.295 3.48235 110.374 4.94902C107.03 10.2967 103.685 15.6411 100.337 20.9823C100.115 21.3286 100.002 21.7321 100.011 22.1421C100.011 25.56 100.011 28.9779 100.011 32.3959C100.011 33.1131 100.076 33.042 99.3574 33.042H93.4931C93.3494 33.042 93.2971 32.958 93.2971 32.8288C93.2971 32.6996 93.2971 32.5283 93.2971 32.3765C93.2971 28.5494 93.2971 24.719 93.2971 20.8854C93.2909 20.5134 93.3967 20.1479 93.601 19.8355C97.6063 13.4174 101.607 6.99505 105.604 0.568379C106.015 -0.0777336 105.839 0.02241 106.584 0.0191794C108.651 0.0191794 110.72 0.0191794 112.791 0.0191794C112.977 0.00625716 113.164 0.0127183 113.369 0.0191794Z" fill="white"/>
<path d="M130.473 0.00901877H143.338C143.828 0.00901877 143.835 -0.0232873 143.835 0.503295C143.835 2.38025 143.835 4.25721 143.835 6.13417C143.835 6.24724 143.835 6.3603 143.835 6.45722C143.836 6.48056 143.831 6.50375 143.822 6.52526C143.813 6.54677 143.799 6.5661 143.782 6.58199C143.765 6.59787 143.744 6.60994 143.722 6.61739C143.699 6.62484 143.676 6.62751 143.652 6.62522H117.866C117.069 6.62522 117.17 6.72213 117.167 5.94033C117.167 4.17644 117.167 2.41256 117.167 0.648674C117.167 0.516221 117.167 0.383767 117.167 0.254545C117.167 0.0316359 117.206 0.00255488 117.441 -0.00390625C117.595 -0.00390625 117.745 -0.00390625 117.898 -0.00390625L130.473 0.00901877Z" fill="white"/>
<path d="M130.471 13.5234H143.565C143.794 13.5234 143.817 13.559 143.827 13.7916C143.827 13.9046 143.827 14.0177 143.827 14.1308V19.5387C143.827 19.6874 143.827 19.836 143.827 19.9878C143.826 20.011 143.821 20.0339 143.811 20.055C143.802 20.0762 143.788 20.0951 143.77 20.1105C143.753 20.126 143.732 20.1378 143.71 20.145C143.687 20.1522 143.664 20.1548 143.641 20.1526H117.907C117.044 20.1526 117.162 20.2656 117.162 19.4031C117.162 17.6747 117.162 15.9496 117.162 14.2342C117.162 14.1211 117.162 14.008 117.162 13.9111C117.162 13.559 117.162 13.5557 117.488 13.5461H130.468L130.471 13.5234Z" fill="white"/>
<path d="M130.537 26.4046H143.183C143.899 26.4046 143.837 26.3303 143.837 27.0313V32.3844C143.837 32.5362 143.837 32.6848 143.837 32.8367C143.837 32.9885 143.755 33.0337 143.621 33.0305H117.812C117.083 33.0305 117.158 33.108 117.158 32.4102V27.0604C117.158 26.928 117.158 26.7955 117.158 26.6663C117.158 26.4434 117.198 26.4143 117.433 26.4046H130.537Z" fill="white"/>
<path d="M80.0625 0.0078125H87.6223C87.6697 0.00821344 87.7161 0.0205937 87.7573 0.0437778C87.7985 0.0669618 87.833 0.10018 87.8575 0.140267C87.9294 0.250106 87.998 0.359945 88.0666 0.463323L94.0452 10.3004C94.0627 10.3346 94.0835 10.367 94.1072 10.3973C94.1856 10.4871 94.2288 10.6017 94.2288 10.7204C94.2288 10.839 94.1856 10.9536 94.1072 11.0434C92.9638 12.859 91.8203 14.681 90.6998 16.4998C90.6344 16.6097 90.592 16.7486 90.4025 16.7938L80.0625 0.0078125Z" fill="white"/>
<path d="M12.1062 43.3739H0.779557C0.606407 43.3739 0.436522 43.3739 0.266639 43.3739C0.0967562 43.3739 0.00853505 43.3189 0.00853505 43.151C0.00853505 42.1624 -0.141732 42.2884 0.818759 42.2884H23.4883C23.6582 42.2884 23.815 42.2884 24.0012 42.2884C24.1874 42.2884 24.2626 42.3433 24.2626 42.5662C24.2626 43.4708 24.3835 43.3739 23.5046 43.3739H12.1062Z" fill="white"/>
<path d="M169.872 43.3729H158.438C157.667 43.3729 157.761 43.4343 157.755 42.6589C157.748 42.5848 157.748 42.5102 157.755 42.436C157.759 42.3983 157.777 42.3634 157.805 42.3378C157.833 42.3122 157.87 42.2977 157.908 42.2971C158.039 42.2971 158.173 42.2971 158.307 42.2971H181.427C182.009 42.2971 182.002 42.268 181.996 42.8399C181.996 42.9174 181.996 42.9917 181.996 43.066C181.996 43.3503 181.96 43.3891 181.669 43.3891H169.879L169.872 43.3729Z" fill="white"/>
<path d="M109.581 43.1483C110.069 43.4188 110.44 43.8567 110.624 44.3792C110.718 44.5827 110.816 44.7895 110.918 44.9898C111.046 45.2688 111.266 45.4965 111.542 45.6359C111.575 45.6548 111.6 45.6845 111.613 45.7199C111.626 45.7553 111.626 45.7942 111.613 45.8297C111.604 45.8664 111.582 45.8986 111.551 45.9209C111.52 45.9433 111.482 45.9544 111.444 45.9525C110.97 45.9525 110.496 45.9525 110.019 45.9525C109.962 45.9524 109.906 45.9359 109.858 45.9049C109.809 45.8739 109.771 45.8299 109.748 45.778C109.578 45.455 109.402 45.1513 109.242 44.8347C109.082 44.5181 108.915 44.1207 108.729 43.7654C108.665 43.627 108.557 43.5135 108.421 43.4427C108.285 43.3719 108.129 43.3479 107.977 43.3745C107.873 43.3745 107.794 43.4391 107.794 43.5489C107.794 44.0917 107.794 44.6376 107.794 45.1803C107.793 45.2565 107.814 45.3313 107.855 45.3961C107.895 45.4608 107.954 45.5126 108.023 45.5454C108.105 45.5874 108.2 45.6165 108.232 45.7199C108.248 45.7539 108.251 45.7924 108.241 45.8285C108.231 45.8645 108.208 45.8959 108.177 45.9169C108.127 45.9448 108.07 45.9582 108.013 45.9557H106.079C106.041 45.9535 106.003 45.9481 105.965 45.9395C105.943 45.9308 105.924 45.9178 105.908 45.9013C105.891 45.8849 105.879 45.8653 105.87 45.8438C105.862 45.8223 105.858 45.7993 105.86 45.7763C105.861 45.7534 105.866 45.7308 105.877 45.7102C105.896 45.6811 105.913 45.6326 105.942 45.6229C106.321 45.4743 106.328 45.161 106.328 44.8282C106.328 43.5123 106.328 42.1975 106.328 40.8837C106.328 40.8094 106.328 40.7351 106.328 40.6576C106.338 40.554 106.317 40.4495 106.266 40.3583C106.216 40.2671 106.138 40.1934 106.043 40.1471C105.991 40.1268 105.945 40.0934 105.909 40.0502C105.894 40.0278 105.883 40.0025 105.877 39.9759C105.872 39.9493 105.872 39.9219 105.877 39.8951C105.884 39.8703 105.897 39.8474 105.914 39.8283C105.932 39.8092 105.954 39.7945 105.978 39.7853C106.086 39.7674 106.195 39.7598 106.305 39.7627C107.046 39.7627 107.788 39.7627 108.526 39.7627C108.926 39.7539 109.324 39.804 109.709 39.9113C109.998 39.9787 110.259 40.1322 110.457 40.3512C110.655 40.5702 110.781 40.844 110.816 41.1357C110.88 41.4424 110.852 41.7608 110.736 42.0522C110.62 42.3436 110.421 42.5953 110.163 42.7768C110.026 42.8737 109.84 42.9706 109.581 43.1483ZM107.778 41.5169V42.3019C107.778 42.8447 107.778 42.8447 108.366 42.8124C108.477 42.8006 108.587 42.7768 108.693 42.7413C108.879 42.6988 109.047 42.599 109.172 42.4561C109.297 42.3133 109.373 42.1349 109.389 41.9466C109.418 41.6868 109.418 41.4245 109.389 41.1648C109.37 40.9578 109.282 40.763 109.138 40.6118C108.994 40.4605 108.803 40.3617 108.595 40.3313C108.411 40.2889 108.221 40.2736 108.033 40.2861C107.827 40.2861 107.775 40.341 107.772 40.5639C107.775 40.8643 107.778 41.1842 107.778 41.5007V41.5169Z" fill="white"/>
<path d="M32.7435 43.1192C33.2328 43.432 33.6047 43.8951 33.802 44.4373C33.8837 44.6246 33.9751 44.812 34.0732 44.9929C34.1825 45.2355 34.3712 45.4347 34.6089 45.5583C34.6572 45.5864 34.7003 45.6225 34.7364 45.6649C34.7886 45.723 34.7364 45.891 34.671 45.9072C34.6164 45.9207 34.5606 45.9294 34.5044 45.933C34.1058 45.933 33.7072 45.933 33.3087 45.933C33.2042 45.9426 33.0994 45.9182 33.0103 45.8633C32.9212 45.8085 32.8528 45.7263 32.8154 45.6293C32.6324 45.2578 32.4429 44.8928 32.2567 44.5213C32.1228 44.2531 31.9986 43.9785 31.8549 43.7136C31.8128 43.6184 31.7464 43.5355 31.6622 43.4733C31.578 43.411 31.4789 43.3713 31.3746 43.3583C30.9303 43.2969 30.8944 43.4002 30.9009 43.7556C30.9074 44.111 30.9009 44.5471 30.9009 44.9412C30.8804 45.0742 30.9056 45.2102 30.9726 45.3274C31.0395 45.4445 31.1443 45.5361 31.2701 45.5873C31.3058 45.6007 31.3358 45.6258 31.355 45.6584C31.3802 45.7072 31.3905 45.7622 31.3844 45.8167C31.357 45.8629 31.3143 45.8982 31.2636 45.9169C31.2091 45.9358 31.1513 45.9435 31.0937 45.9395H29.2707C29.2146 45.9439 29.1584 45.9338 29.1073 45.9104C29.0831 45.8992 29.0616 45.883 29.0441 45.863C29.0267 45.8429 29.0137 45.8195 29.0061 45.7941C29.0006 45.741 29.0158 45.6879 29.0485 45.6455C29.0849 45.6019 29.1322 45.5684 29.1858 45.5486C29.2702 45.5042 29.3412 45.4382 29.3911 45.3575C29.4411 45.2769 29.4683 45.1844 29.47 45.0898C29.476 44.9822 29.476 44.8744 29.47 44.7668V40.916C29.47 40.8029 29.47 40.6898 29.47 40.5767C29.4556 40.4551 29.4086 40.3395 29.334 40.2418C29.2593 40.1442 29.1597 40.068 29.0453 40.0211C29.0093 40.0017 28.993 39.9177 29.0028 39.8725C29.0126 39.8272 29.0681 39.7949 29.1073 39.7594C29.1255 39.7543 29.1447 39.7543 29.1629 39.7594C29.1812 39.7561 29.2001 39.7561 29.2184 39.7594C30.2443 39.7594 31.2701 39.7174 32.2926 39.7949C32.596 39.8176 32.8921 39.8976 33.1649 40.0308C33.3924 40.1312 33.5872 40.2923 33.7274 40.496C33.8676 40.6997 33.9477 40.9379 33.9588 41.1841C34.0223 41.5961 33.9366 42.0171 33.717 42.3729C33.5541 42.6051 33.3366 42.7947 33.0833 42.9254C33.0114 42.9609 32.9036 43.0223 32.7435 43.1192ZM30.9009 41.533V42.2631C30.9009 42.8187 30.9009 42.8155 31.4792 42.7864C31.648 42.7711 31.814 42.7331 31.9725 42.6734C32.0638 42.6455 32.1486 42.6 32.222 42.5395C32.2954 42.4791 32.3561 42.4049 32.4005 42.3212C32.5438 42.0757 32.6193 41.7971 32.6193 41.5136C32.6193 41.2301 32.5438 40.9515 32.4005 40.706C32.1228 40.2408 31.6197 40.2407 31.1361 40.2537C31.1075 40.2513 31.0787 40.255 31.0516 40.2647C31.0246 40.2744 31 40.2897 30.9795 40.3096C30.959 40.3296 30.9431 40.3537 30.933 40.3803C30.9228 40.4068 30.9185 40.4353 30.9205 40.4637C30.8976 40.8352 30.9009 41.1905 30.9009 41.533Z" fill="white"/>
<path d="M99.1422 45.9358H97.4335C97.3225 45.9358 97.2081 45.9358 97.1068 45.9132C97.0785 45.91 97.0523 45.8969 97.0331 45.8761C97.0138 45.8553 97.0029 45.8283 97.0023 45.8001C97.0028 45.745 97.0127 45.6904 97.0317 45.6386C97.0393 45.6212 97.0533 45.6073 97.0709 45.5998C97.4466 45.4544 97.4597 45.1411 97.4597 44.8083C97.4597 43.473 97.4597 42.1399 97.4597 40.8089C97.4597 40.4858 97.4302 40.2047 97.0807 40.0691C97.0513 40.0691 97.0349 40.0109 97.0121 39.9819C97.0008 39.9616 96.9941 39.9392 96.9926 39.9162C96.991 39.8931 96.9945 39.87 97.0029 39.8485C97.0113 39.8269 97.0244 39.8074 97.0412 39.7914C97.058 39.7754 97.0782 39.7632 97.1003 39.7557C97.2087 39.7433 97.3178 39.7368 97.427 39.7363C98.6227 39.7363 99.8206 39.7363 101.021 39.7363C101.521 39.7363 101.52 39.7363 101.524 40.2338C101.524 40.4955 101.524 40.7604 101.524 41.0221C101.525 41.0599 101.511 41.0967 101.486 41.1249C101.46 41.1531 101.425 41.1707 101.387 41.1739C101.278 41.1863 101.169 41.1928 101.06 41.1933C101.022 41.1932 100.984 41.183 100.952 41.1637C100.919 41.1443 100.892 41.1166 100.874 41.0835C100.845 41.0345 100.82 40.9838 100.798 40.9316C100.743 40.7204 100.61 40.5372 100.425 40.4178C100.24 40.2983 100.017 40.2512 99.7988 40.2855C98.7926 40.3178 98.9363 40.1498 98.9233 41.1546C98.9233 41.4776 98.9233 41.8297 98.9233 42.1657C98.9233 42.3757 98.9821 42.4177 99.2042 42.4274H99.4329C99.5762 42.451 99.7231 42.4202 99.8443 42.3411C99.9655 42.262 100.052 42.1405 100.086 42.001C100.139 41.8168 100.273 41.7877 100.436 41.7974C100.599 41.8071 100.658 41.8491 100.668 41.9816C100.678 42.114 100.668 42.2045 100.668 42.3046C100.668 42.6632 100.668 43.0186 100.668 43.3772C100.668 43.4644 100.668 43.5775 100.547 43.5969C100.426 43.6162 100.243 43.655 100.129 43.5129C100.108 43.4809 100.093 43.446 100.083 43.4095C100.061 43.3176 100.017 43.2325 99.9536 43.162C99.8903 43.0914 99.8101 43.0377 99.7204 43.0057C99.5006 42.9427 99.2672 42.9427 99.0474 43.0057C98.9429 43.0315 98.9233 43.1381 98.9233 43.235C98.9233 43.7035 98.9233 44.1751 98.9233 44.6436C98.9233 44.8309 98.9233 45.0183 98.9233 45.2057C98.9228 45.2294 98.9272 45.253 98.9363 45.275C98.9454 45.2969 98.9589 45.3168 98.976 45.3335C98.9931 45.3501 99.0135 45.3631 99.0359 45.3717C99.0583 45.3803 99.0822 45.3842 99.1062 45.3833C99.41 45.3833 99.7139 45.3833 100.018 45.3833C100.159 45.3748 100.294 45.3277 100.41 45.2473C100.525 45.1668 100.616 45.0562 100.671 44.9278C100.723 44.8277 100.772 44.7243 100.815 44.6048C100.962 44.2817 101.004 44.2397 101.354 44.2817C101.382 44.2808 101.411 44.2862 101.437 44.2976C101.463 44.3089 101.487 44.3258 101.505 44.3472C101.524 44.3685 101.538 44.3937 101.546 44.4209C101.553 44.4482 101.555 44.4768 101.55 44.5046C101.55 44.8988 101.524 45.2929 101.501 45.687C101.501 45.8841 101.422 45.939 101.204 45.9422C100.521 45.9422 99.8347 45.9422 99.1519 45.9422L99.1422 45.9358Z" fill="white"/>
<path d="M142.338 45.9313H140.574C140.442 45.928 140.311 45.915 140.182 45.8925C140.1 45.8925 140.064 45.7213 140.123 45.6599C140.182 45.5985 140.146 45.6244 140.162 45.6179C140.531 45.4758 140.57 45.1688 140.567 44.8361C140.567 43.5019 140.567 42.1709 140.567 40.8399C140.567 40.785 140.567 40.7268 140.567 40.6719C140.585 40.552 140.563 40.4295 140.504 40.3233C140.445 40.217 140.353 40.1329 140.24 40.084C140.194 40.0691 140.155 40.0367 140.132 39.9938C140.11 39.9509 140.105 39.9008 140.12 39.8546C140.155 39.7544 140.26 39.7415 140.355 39.7383H144.099C144.193 39.7383 144.288 39.7383 144.383 39.7383C144.572 39.7383 144.625 39.7964 144.628 39.9709C144.628 40.2939 144.628 40.6461 144.628 40.982C144.628 41.121 144.55 41.1823 144.416 41.1888C144.04 41.2082 143.968 41.1597 143.886 40.898C143.856 40.809 143.815 40.7243 143.762 40.6461C143.711 40.5572 143.64 40.4816 143.553 40.4255C143.467 40.3693 143.368 40.3342 143.266 40.323C143.157 40.3086 143.048 40.2999 142.939 40.2972C141.877 40.2972 142.031 40.155 142.018 41.1759C142.018 41.5312 142.018 41.8866 142.018 42.2452C142.017 42.2686 142.021 42.292 142.029 42.3139C142.038 42.3359 142.05 42.3559 142.067 42.3728C142.083 42.3896 142.103 42.4031 142.125 42.4122C142.147 42.4214 142.17 42.4261 142.194 42.4261C142.327 42.4342 142.46 42.4342 142.593 42.4261C142.716 42.44 142.841 42.4108 142.945 42.3436C143.05 42.2764 143.127 42.1753 143.164 42.0578C143.184 41.9655 143.237 41.8837 143.315 41.8284C143.361 41.7978 143.414 41.7802 143.469 41.7775C143.525 41.7747 143.58 41.787 143.628 41.8129C143.677 41.8389 143.718 41.8775 143.746 41.9247C143.774 41.9718 143.789 42.0257 143.788 42.0804C143.788 42.5101 143.788 42.943 143.788 43.3727C143.788 43.4922 143.762 43.602 143.615 43.615C143.468 43.6279 143.308 43.6602 143.22 43.4857C143.201 43.4528 143.186 43.4182 143.174 43.3823C143.133 43.2476 143.044 43.1318 142.925 43.0555C142.805 42.9791 142.662 42.9473 142.521 42.9656H142.406C142.057 42.9656 142.021 42.9979 142.018 43.35C142.018 43.9154 142.018 44.4775 142.018 45.0396C142.018 45.3627 142.054 45.3821 142.384 45.3885C142.593 45.3885 142.802 45.3885 143.011 45.3885C143.193 45.3914 143.371 45.3382 143.521 45.2363C143.671 45.1344 143.785 44.9889 143.847 44.82C143.895 44.7148 143.937 44.607 143.971 44.4969C143.991 44.4139 144.044 44.3422 144.117 44.2974C144.191 44.2526 144.279 44.2384 144.363 44.2578C144.648 44.2578 144.69 44.2966 144.69 44.5809C144.69 44.9363 144.661 45.2916 144.638 45.6502C144.638 45.857 144.572 45.9054 144.357 45.9184C144.141 45.9313 143.978 45.9184 143.788 45.9184L142.338 45.9313Z" fill="white"/>
<path d="M43.1588 39.8001C43.2133 40.13 43.2286 40.465 43.2045 40.7984C43.2045 41.1828 43.1849 41.2248 42.7276 41.1861C42.69 41.1833 42.6536 41.172 42.6213 41.1529C42.589 41.1339 42.5616 41.1076 42.5413 41.0762C42.5215 41.044 42.5061 41.0092 42.4956 40.9728C42.3225 40.4043 41.9043 40.2621 41.3522 40.2815C40.4962 40.3073 40.5844 40.2137 40.5812 41.031C40.5812 41.4251 40.5812 41.8192 40.5812 42.2134C40.5792 42.2417 40.5834 42.2702 40.5936 42.2968C40.6038 42.3234 40.6197 42.3475 40.6401 42.3674C40.6606 42.3874 40.6852 42.4027 40.7123 42.4123C40.7393 42.422 40.7681 42.4258 40.7968 42.4234H41.1235C41.2568 42.4409 41.3919 42.4095 41.5033 42.3351C41.6147 42.2606 41.6946 42.1484 41.7279 42.0195C41.7422 41.947 41.784 41.8825 41.8447 41.8393C41.9053 41.7961 41.9804 41.7773 42.0546 41.7869C42.2669 41.7869 42.329 41.8386 42.3323 42.0486C42.3323 42.4815 42.3323 42.9112 42.3323 43.3408C42.3323 43.4539 42.3323 43.5734 42.1885 43.609C42.1092 43.6389 42.0217 43.6401 41.9415 43.6123C41.8614 43.5845 41.7938 43.5295 41.7507 43.4571C41.7251 43.4067 41.7023 43.3549 41.6821 43.3021C41.6447 43.2057 41.5782 43.1231 41.4918 43.0653C41.4053 43.0076 41.303 42.9774 41.1986 42.979C40.506 42.9402 40.5452 42.9499 40.5452 43.5508C40.5452 44.058 40.5452 44.5652 40.5452 45.0692C40.5452 45.3567 40.5844 45.3923 40.8719 45.3923C41.1006 45.3923 41.326 45.3923 41.5547 45.3923C41.7271 45.3906 41.8951 45.338 42.0372 45.2413C42.1792 45.1446 42.2888 45.0082 42.3519 44.8495C42.4009 44.7494 42.4368 44.6428 42.4793 44.5265C42.505 44.4674 42.5429 44.4143 42.5905 44.3704C42.6381 44.3265 42.6944 44.2929 42.7558 44.2717C42.8172 44.2504 42.8824 44.242 42.9473 44.2469C43.0121 44.2519 43.0753 44.27 43.1327 44.3003C43.1539 44.3169 43.1712 44.338 43.1831 44.362C43.1949 44.3861 43.2012 44.4125 43.2013 44.4392C43.2013 44.8721 43.1588 45.3018 43.1327 45.7315C43.1318 45.7789 43.1122 45.8241 43.0779 45.8573C43.0437 45.8905 42.9977 45.9091 42.9497 45.9091C42.855 45.914 42.7602 45.914 42.6655 45.9091H39.0686C38.9741 45.911 38.8797 45.9012 38.7876 45.8801C38.7625 45.8709 38.7398 45.8562 38.7211 45.8372C38.7025 45.8182 38.6883 45.7953 38.6798 45.7702C38.6798 45.7218 38.6798 45.6313 38.7222 45.6184C39.1371 45.4472 39.1437 45.0918 39.1502 44.73C39.1829 43.4378 39.1829 42.1455 39.1502 40.8533C39.1502 40.7596 39.1502 40.6659 39.1502 40.5723C39.1551 40.4668 39.1261 40.3625 39.0674 40.2743C39.0087 40.1862 38.9234 40.1186 38.8235 40.0812C38.7737 40.0539 38.7303 40.0164 38.6961 39.9714C38.6835 39.9521 38.6755 39.9302 38.6729 39.9074C38.6702 39.8845 38.673 39.8614 38.6809 39.8398C38.6888 39.8182 38.7017 39.7987 38.7185 39.7829C38.7353 39.767 38.7556 39.7552 38.7778 39.7484C38.9088 39.7306 39.0408 39.7209 39.1731 39.7194C40.31 39.7194 41.46 39.7194 42.5838 39.7194C42.779 39.7078 42.9746 39.7353 43.1588 39.8001Z" fill="white"/>
<path d="M51.7938 45.9474H50.7124C50.674 45.9507 50.6357 45.941 50.6036 45.9198C50.5715 45.8987 50.5477 45.8674 50.536 45.8311C50.5229 45.796 50.5226 45.7574 50.5351 45.722C50.5476 45.6867 50.5722 45.6567 50.6046 45.6373C50.6517 45.6062 50.7008 45.5781 50.7516 45.5533C50.8293 45.5155 50.8926 45.4539 50.9321 45.3776C50.9715 45.3014 50.985 45.2145 50.9705 45.1301C50.9468 44.8116 50.8764 44.4982 50.7614 44.1997C50.7489 44.1539 50.7211 44.1137 50.6826 44.0856C50.644 44.0574 50.5969 44.043 50.549 44.0446H48.9548C48.9068 44.0448 48.8603 44.0603 48.822 44.0889C48.7837 44.1174 48.7558 44.1574 48.7424 44.2029C48.6635 44.4143 48.597 44.6301 48.5431 44.849C48.4713 45.1721 48.4876 45.4951 48.8698 45.6405C48.9052 45.6561 48.933 45.6848 48.947 45.7205C48.9611 45.7562 48.9604 45.796 48.945 45.8311C48.945 45.8763 48.8698 45.9377 48.8306 45.9377C48.2589 45.9377 47.6904 45.9377 47.122 45.9377C47.0795 45.9377 47.0207 45.8796 47.0011 45.8344C46.9834 45.8003 46.9796 45.7609 46.9905 45.7241C47.0015 45.6874 47.0263 45.6563 47.0599 45.6373C47.2377 45.5309 47.392 45.3903 47.5138 45.2238C47.6356 45.0573 47.7223 44.8684 47.7689 44.6681C48.2132 43.4922 48.664 42.3163 49.1116 41.1403C49.2586 40.7527 49.4089 40.3682 49.5493 39.9806C49.5653 39.897 49.6124 39.8223 49.6814 39.7714C49.7504 39.7206 49.8362 39.6972 49.9218 39.706C50.2223 39.7286 50.5752 39.6026 50.8169 39.7609C51.0587 39.9192 51.0554 40.2939 51.1436 40.575C51.5683 41.9577 51.9822 43.3425 52.3851 44.7295C52.4929 45.0946 52.5909 45.4564 52.9797 45.6373C53.0135 45.657 53.0386 45.6884 53.0501 45.7255C53.0616 45.7626 53.0586 45.8026 53.0417 45.8376C53.0294 45.8733 53.0053 45.9038 52.9733 45.9243C52.9413 45.9449 52.9033 45.9541 52.8653 45.9506L51.7938 45.9474ZM49.0462 43.4405C49.5399 43.5317 50.0474 43.5196 50.536 43.405C50.382 42.6102 50.1466 41.8331 49.8336 41.0854C49.5591 41.8381 49.2978 42.5585 49.043 43.279C49.0327 43.3324 49.0338 43.3875 49.0462 43.4405Z" fill="white"/>
<path d="M117.883 44.3161L118.537 42.4714L118.988 41.1954C119.055 41.0199 119.098 40.8362 119.115 40.6494C119.115 40.3877 119.089 40.1616 118.788 40.055C118.752 40.0443 118.72 40.0229 118.697 39.9936C118.669 39.9467 118.658 39.8924 118.664 39.8385C118.673 39.8131 118.687 39.7897 118.706 39.7702C118.724 39.7507 118.747 39.7354 118.772 39.7255C118.845 39.708 118.919 39.7004 118.994 39.7029H120.301C120.358 39.698 120.414 39.698 120.471 39.7029C120.553 39.7029 120.618 39.7578 120.621 39.845C120.624 39.9322 120.621 39.9775 120.569 39.9936C120.089 40.2197 119.958 40.6817 119.795 41.1211C119.246 42.5619 118.701 44.0017 118.161 45.4403C118.119 45.5469 118.079 45.6535 118.037 45.7634C118.018 45.817 117.983 45.8634 117.936 45.8959C117.889 45.9284 117.833 45.9453 117.776 45.9443C117.567 45.9443 117.357 45.9443 117.148 45.9443C117.072 45.9503 116.997 45.9282 116.937 45.8822C116.876 45.8362 116.835 45.7697 116.822 45.6956C116.668 45.1722 116.495 44.6521 116.358 44.1287C116.031 43.0691 115.731 42.0062 115.414 40.9434C115.371 40.798 115.319 40.6591 115.27 40.517C115.191 40.3028 115.032 40.127 114.826 40.0259C114.794 40.005 114.77 39.9743 114.758 39.9385C114.747 39.9028 114.747 39.8642 114.76 39.8288C114.767 39.7912 114.788 39.7575 114.819 39.7343C114.85 39.711 114.888 39.6998 114.927 39.7029H117.09C117.127 39.6998 117.165 39.7106 117.195 39.7333C117.225 39.7559 117.246 39.7888 117.253 39.8256C117.266 39.8613 117.266 39.9002 117.253 39.9359C117.241 39.9717 117.217 40.0023 117.184 40.0227L117.086 40.0776C116.98 40.1221 116.894 40.2047 116.846 40.3088C116.798 40.413 116.792 40.5311 116.828 40.6397C116.851 40.7689 116.884 40.8949 116.916 41.0242C117.191 42.0192 117.466 43.0131 117.743 44.006C117.783 44.1123 117.83 44.2159 117.883 44.3161Z" fill="white"/>
<path d="M150.597 45.988C150.131 45.988 149.666 45.9436 149.209 45.8555C148.967 45.82 148.931 45.7748 148.925 45.5325C148.918 45.2902 148.925 44.9671 148.925 44.6861C148.925 44.405 148.974 44.4082 149.251 44.4082C149.308 44.4034 149.365 44.4034 149.421 44.4082C149.459 44.4118 149.495 44.4253 149.526 44.4475C149.556 44.4697 149.58 44.4997 149.594 44.5342C149.645 44.6755 149.703 44.8137 149.771 44.9477C149.853 45.073 149.959 45.1809 150.084 45.2651C150.208 45.3493 150.349 45.4081 150.496 45.4382C150.644 45.4683 150.796 45.469 150.945 45.4402C151.093 45.4115 151.233 45.3539 151.359 45.2708C151.48 45.1774 151.572 45.053 151.626 44.9112C151.68 44.7693 151.694 44.6154 151.666 44.4664C151.654 44.3253 151.611 44.1883 151.541 44.0647C151.471 43.941 151.376 43.8335 151.261 43.7492C151.044 43.5974 150.818 43.4583 150.584 43.3325C150.262 43.1718 149.957 42.9803 149.673 42.7606C149.426 42.5671 149.237 42.3104 149.126 42.0183C149.015 41.7263 148.988 41.4099 149.046 41.1034C149.078 40.8794 149.162 40.6659 149.292 40.4798C149.422 40.2936 149.593 40.1399 149.794 40.0308C150.141 39.8381 150.529 39.7276 150.927 39.7078C151.516 39.6624 152.108 39.7015 152.685 39.8241C152.91 39.8725 152.95 39.9048 152.953 40.1148C152.953 40.4152 152.953 40.7157 152.953 41.0161C152.953 41.1615 152.861 41.21 152.734 41.2132H152.564C152.498 41.2218 152.43 41.2062 152.374 41.1694C152.318 41.1326 152.278 41.077 152.26 41.0129C152.228 40.9006 152.183 40.7922 152.126 40.6899C152.045 40.5698 151.94 40.4678 151.817 40.3905C151.694 40.3132 151.555 40.2623 151.411 40.241C151.267 40.2197 151.119 40.2285 150.979 40.2669C150.838 40.3052 150.707 40.3723 150.594 40.4637C150.462 40.6122 150.384 40.8008 150.374 40.9985C150.364 41.1962 150.422 41.3915 150.539 41.5524C150.665 41.7176 150.824 41.856 151.006 41.9595C151.218 42.0822 151.434 42.1985 151.659 42.3181C151.958 42.4827 152.239 42.6765 152.499 42.8963C152.722 43.1079 152.887 43.3731 152.977 43.6661C153.066 43.9591 153.077 44.27 153.01 44.5686C152.942 44.8673 152.798 45.1436 152.59 45.3707C152.383 45.5979 152.119 45.7682 151.826 45.8652C151.428 45.9841 151.011 46.0258 150.597 45.988Z" fill="white"/>
<path d="M90.282 45.9861C89.8324 45.9858 89.3838 45.9426 88.9426 45.8569C88.691 45.8213 88.6518 45.7729 88.6453 45.5338C88.6387 45.2948 88.6453 45.0105 88.6453 44.7456C88.6453 44.6357 88.6126 44.4871 88.7204 44.4225C88.7994 44.389 88.8844 44.3717 88.9703 44.3717C89.0563 44.3717 89.1413 44.389 89.2203 44.4225C89.253 44.4403 89.2784 44.4689 89.2921 44.5033C89.3313 44.5905 89.3575 44.6809 89.3934 44.7649C89.6776 45.4434 90.2232 45.4983 90.7459 45.4111C90.9156 45.3779 91.0694 45.2903 91.1834 45.1617C91.2975 45.0332 91.3653 44.871 91.3765 44.7003C91.4021 44.5223 91.3793 44.3408 91.3104 44.1744C91.2415 44.008 91.129 43.8628 90.9844 43.7538C90.7867 43.6071 90.5781 43.4754 90.3604 43.3596C90.0227 43.1889 89.7003 42.99 89.3967 42.7652C89.1452 42.5757 88.9513 42.3215 88.8361 42.0303C88.7208 41.7392 88.6887 41.4224 88.7433 41.1144C88.773 40.8901 88.8545 40.6756 88.9813 40.4874C89.1082 40.2992 89.2772 40.1423 89.4751 40.0289C89.8036 39.8411 90.1713 39.7306 90.5499 39.7059C91.1751 39.6476 91.8057 39.6868 92.4186 39.8222C92.5918 39.8609 92.6408 39.9126 92.6441 40.0935C92.6441 40.3929 92.6441 40.6934 92.6441 40.9949C92.6436 41.0487 92.6252 41.1009 92.5918 41.1435C92.496 41.1992 92.384 41.2215 92.2738 41.2069C92.1637 41.1923 92.0616 41.1415 91.9841 41.0627C91.9253 40.9464 91.8959 40.814 91.8306 40.7009C91.7509 40.5796 91.6464 40.4762 91.5238 40.3974C91.4013 40.3185 91.2633 40.266 91.1189 40.2431C90.9745 40.2203 90.8269 40.2277 90.6855 40.2648C90.5442 40.3019 90.4123 40.3679 90.2984 40.4586C90.1584 40.6132 90.0781 40.8117 90.0716 41.0191C90.065 41.2265 90.1326 41.4295 90.2624 41.5925C90.3948 41.7525 90.5566 41.8863 90.7394 41.9866L91.4843 42.4002C91.7471 42.551 91.9925 42.7298 92.2161 42.9332C92.4263 43.1442 92.5797 43.4038 92.6624 43.6884C92.745 43.9731 92.7543 44.2737 92.6893 44.5628C92.6244 44.8518 92.4872 45.1202 92.2904 45.3435C92.0936 45.5667 91.8434 45.7377 91.5627 45.8407C91.1499 45.9734 90.7144 46.0228 90.282 45.9861Z" fill="white"/>
<path d="M76.7262 42.6956C76.7948 42.6342 76.8536 42.6051 76.8765 42.5599C77.1378 42.0409 77.3981 41.5186 77.6573 40.9931C77.7024 40.888 77.7406 40.7801 77.7716 40.67C77.8248 40.5681 77.8368 40.45 77.8053 40.3397C77.7737 40.2293 77.701 40.1349 77.6017 40.0756C77.5586 40.0423 77.523 40.0005 77.4972 39.9528C77.458 39.9012 77.4972 39.7622 77.556 39.759C78.0993 39.7079 78.6462 39.7079 79.1895 39.759C79.2712 39.759 79.3169 39.9302 79.2646 39.9916C79.2124 40.053 79.2418 40.0271 79.2287 40.0336C78.8535 40.2952 78.563 40.6588 78.3923 41.0803C78.0264 41.7587 77.6703 42.4436 77.2946 43.1156C77.1305 43.3918 77.0532 43.71 77.0725 44.0298C77.0888 44.3529 77.0725 44.705 77.0888 45.041C77.0742 45.1568 77.1022 45.274 77.1675 45.3712C77.2328 45.4684 77.3313 45.5392 77.4449 45.5708C77.4964 45.5942 77.542 45.6284 77.5789 45.6709C77.591 45.69 77.599 45.7114 77.6024 45.7337C77.6059 45.756 77.6047 45.7787 77.5988 45.8005C77.593 45.8224 77.5827 45.8428 77.5686 45.8605C77.5545 45.8782 77.5369 45.8929 77.5168 45.9036C77.4429 45.9212 77.3674 45.9309 77.2914 45.9326H75.4129C75.3369 45.9309 75.2613 45.9212 75.1874 45.9036C75.1123 45.9036 75.0764 45.7194 75.1352 45.6645C75.1578 45.6357 75.1869 45.6125 75.2201 45.5966C75.5827 45.4868 75.6513 45.209 75.6513 44.8892V44.831C75.7421 44.0473 75.5785 43.2553 75.1842 42.5696C74.8411 41.9849 74.5896 41.3517 74.2923 40.7443C74.1902 40.4592 73.9962 40.2152 73.7402 40.0498C73.7072 40.0302 73.6826 39.9993 73.6712 39.9629C73.6597 39.9266 73.6622 39.8874 73.6781 39.8527C73.6943 39.8184 73.721 39.7899 73.7544 39.7714C73.7878 39.7528 73.8262 39.7451 73.8643 39.7493H75.9127C75.9506 39.746 75.9886 39.7549 76.021 39.7747C76.0534 39.7945 76.0784 39.8241 76.0924 39.8592C76.1051 39.8955 76.1045 39.9351 76.0908 39.9711C76.0771 40.0071 76.0511 40.0372 76.0172 40.0562C75.7134 40.221 75.7232 40.4665 75.8408 40.7314C76.1381 41.3808 76.4256 42.0301 76.7262 42.6956Z" fill="white"/>
<path d="M67.1757 39.7364C67.8781 39.7364 68.5805 39.7364 69.2829 39.7364C69.415 39.7358 69.547 39.7434 69.6782 39.759C69.7169 39.7622 69.753 39.7795 69.7796 39.8075C69.8062 39.8356 69.8212 39.8724 69.8219 39.9108C69.8219 40.3405 69.8219 40.7734 69.8219 41.203C69.8219 41.2838 69.7435 41.329 69.6651 41.3355C69.5704 41.3403 69.4756 41.3403 69.3809 41.3355C69.3335 41.34 69.2859 41.3283 69.2461 41.3025C69.2063 41.2767 69.1767 41.2381 69.162 41.1933C69.1097 41.0512 69.0607 40.9091 69.0052 40.7701C68.955 40.6269 68.8604 40.503 68.7349 40.416C68.6094 40.329 68.4593 40.2833 68.306 40.2856C67.9107 40.2856 67.8356 40.3082 67.8356 40.7152C67.8356 42.0656 67.8356 43.4192 67.8356 44.7728C67.8362 44.9039 67.8482 45.0347 67.8715 45.1637C67.8779 45.2486 67.9091 45.3298 67.9613 45.3975C68.0135 45.4651 68.0845 45.5163 68.1656 45.5449C68.2343 45.5716 68.2967 45.6123 68.3485 45.6644C68.3612 45.6836 68.3697 45.7053 68.3734 45.7279C68.3771 45.7506 68.376 45.7737 68.3702 45.7959C68.3643 45.8181 68.3539 45.8389 68.3394 45.8568C68.325 45.8748 68.307 45.8896 68.2864 45.9003C68.2122 45.9152 68.1368 45.9239 68.061 45.9261H66.1825C66.1065 45.9244 66.031 45.9147 65.9571 45.897C65.882 45.897 65.8395 45.7064 65.9015 45.658C65.9581 45.6096 66.0221 45.5703 66.091 45.5417C66.1828 45.5097 66.2629 45.4515 66.321 45.3744C66.3792 45.2973 66.4129 45.2049 66.4177 45.1088C66.4334 45.0018 66.4399 44.8938 66.4373 44.7857C66.4373 43.4332 66.4373 42.0807 66.4373 40.7281C66.4373 40.6538 66.4373 40.5763 66.4373 40.502C66.4373 40.3663 66.3393 40.3114 66.2119 40.3017C66.0049 40.2506 65.7858 40.2824 65.6023 40.39C65.4188 40.4977 65.2857 40.6726 65.2318 40.8767C65.1893 40.9801 65.16 41.0899 65.1207 41.1998C65.1082 41.2455 65.0804 41.2858 65.0419 41.3139C65.0033 41.3421 64.9563 41.3565 64.9084 41.3549C64.4935 41.371 64.4314 41.3549 64.4379 40.9446C64.4379 40.6441 64.4379 40.3437 64.4379 40.0433C64.4379 39.801 64.4869 39.7557 64.7646 39.7525C65.2972 39.7525 65.8264 39.7525 66.3589 39.7525L67.1757 39.7364Z" fill="white"/>
<path d="M132.763 42.8936C132.736 43.3436 132.775 43.7951 132.878 44.2342C132.935 44.5092 133.046 44.7704 133.204 45.0031C133.349 45.2006 133.556 45.344 133.794 45.4103C134.031 45.4765 134.284 45.4617 134.511 45.3682C134.705 45.2854 134.861 45.1331 134.946 44.9417C134.998 44.8222 135.044 44.6962 135.086 44.5735C135.101 44.5192 135.135 44.4718 135.181 44.4394C135.228 44.407 135.284 44.3915 135.341 44.3958C135.436 44.3909 135.531 44.3909 135.625 44.3958C135.664 44.3965 135.701 44.4115 135.728 44.4379C135.756 44.4642 135.773 44.4999 135.776 44.5379C135.776 44.8933 135.776 45.2519 135.776 45.6072C135.774 45.6551 135.756 45.7009 135.724 45.7364C135.691 45.772 135.647 45.7949 135.599 45.8011C135.384 45.8552 135.166 45.8983 134.946 45.9303C134.308 46.0338 133.656 46.0174 133.025 45.8818C132.661 45.8027 132.325 45.6275 132.054 45.375C131.782 45.1224 131.585 44.8019 131.483 44.4475C131.182 43.5302 131.163 42.5456 131.427 41.6175C131.573 41.0598 131.903 40.5662 132.364 40.2151C132.826 39.8639 133.393 39.6753 133.975 39.6792C134.469 39.6537 134.963 39.695 135.446 39.8019C135.772 39.8762 135.772 39.9053 135.795 40.209C135.818 40.5127 135.795 40.7323 135.795 40.994C135.795 41.1652 135.727 41.2201 135.544 41.2266H135.374C135.316 41.2326 135.259 41.2184 135.211 41.1865C135.163 41.1546 135.128 41.107 135.112 41.0522C135.089 40.9811 135.06 40.9132 135.031 40.8422C134.972 40.6877 134.875 40.5504 134.748 40.4435C134.621 40.3366 134.468 40.2635 134.305 40.2312C134.141 40.1988 133.972 40.2083 133.813 40.2587C133.654 40.3091 133.511 40.3987 133.397 40.5191C133.232 40.6756 133.103 40.8665 133.021 41.078C132.866 41.4814 132.775 41.9066 132.754 42.3379C132.75 42.5027 132.763 42.7062 132.763 42.8936Z" fill="white"/>
<path d="M59.1883 45.9317H57.5385C57.4292 45.9317 57.32 45.9242 57.2118 45.9091C57.1852 45.9003 57.1611 45.8852 57.1417 45.8651C57.1223 45.845 57.1081 45.8205 57.1004 45.7938C57.0927 45.7671 57.0917 45.7389 57.0974 45.7118C57.1032 45.6846 57.1155 45.6592 57.1334 45.6378C57.1334 45.6216 57.1563 45.6022 57.1726 45.5958C57.5385 45.4407 57.5647 45.137 57.5647 44.801C57.5647 43.4668 57.5647 42.1326 57.5647 40.8016C57.5647 40.5302 57.5646 40.2653 57.2706 40.1232C57.1628 40.0683 57.0746 39.994 57.1203 39.8615C57.1661 39.7291 57.3066 39.7581 57.4144 39.7549H59.1557C59.2121 39.7484 59.2691 39.7484 59.3256 39.7549C59.3778 39.7549 59.4432 39.7807 59.4399 39.855C59.4366 39.9293 59.4399 39.9875 59.404 40.0037C58.9956 40.1813 58.976 40.5302 58.976 40.8985V44.8979C58.9775 44.9908 58.9841 45.0836 58.9956 45.1758C58.9978 45.2139 59.014 45.25 59.041 45.2773C59.068 45.3046 59.1041 45.3213 59.1426 45.3244C59.4622 45.3696 59.7867 45.3696 60.1063 45.3244C60.2199 45.305 60.3263 45.2562 60.4147 45.183C60.503 45.1098 60.5702 45.0148 60.6095 44.9076C60.6915 44.7187 60.7635 44.5257 60.8251 44.3294C60.91 44.0838 60.9231 44.0742 61.1877 44.0742C61.2442 44.0693 61.3011 44.0693 61.3576 44.0742C61.3955 44.0757 61.4316 44.091 61.4587 44.1173C61.4859 44.1435 61.5022 44.1788 61.5046 44.2163C61.5095 44.2905 61.5095 44.365 61.5046 44.4392C61.4752 44.8527 61.4491 45.263 61.4164 45.6765C61.4164 45.8542 61.3543 45.8994 61.1681 45.9123C61.0374 45.9123 60.9035 45.9123 60.7696 45.9123L59.1883 45.9317Z" fill="white"/>
<path d="M125.711 39.7617H126.734C126.816 39.7617 126.888 39.8037 126.894 39.8877C126.896 39.9144 126.892 39.9413 126.882 39.9664C126.873 39.9914 126.858 40.0142 126.839 40.0331C126.44 40.214 126.404 40.5597 126.407 40.9279V44.7626C126.401 44.8562 126.401 44.9501 126.407 45.0437C126.402 45.155 126.43 45.2655 126.488 45.361C126.546 45.4565 126.632 45.5327 126.734 45.58C126.752 45.5846 126.769 45.5934 126.783 45.6058C126.839 45.6607 126.894 45.7124 126.875 45.7996C126.867 45.8359 126.848 45.8687 126.819 45.8927C126.791 45.9168 126.755 45.9306 126.718 45.9321C126.642 45.9386 126.565 45.9386 126.489 45.9321H124.856C124.762 45.9298 124.669 45.9179 124.578 45.8966C124.499 45.8772 124.464 45.7221 124.519 45.6607C124.541 45.6301 124.569 45.6038 124.601 45.5832C124.954 45.4475 124.983 45.1503 124.983 44.8434V40.7955C125.01 40.6471 124.986 40.4939 124.914 40.3607C124.843 40.2276 124.728 40.1224 124.588 40.0622C124.553 40.0454 124.526 40.0169 124.511 39.9819C124.496 39.9469 124.494 39.9077 124.506 39.8715C124.526 39.7779 124.604 39.7649 124.679 39.7585C124.754 39.752 124.865 39.7585 124.96 39.7585H125.698L125.711 39.7617Z" fill="white"/>
</g>
<defs>
<clipPath id="clip0_224_625">
<rect width="182" height="46" fill="white"/>
</clipPath>
</defs>
</svg>
