<svg width="390" height="99" viewBox="0 0 390 99" fill="none" xmlns="http://www.w3.org/2000/svg">
<g clip-path="url(#clip0_246_1750)">
<path d="M97.3966 35.5294C97.3966 28.535 97.3966 21.5405 97.3966 14.5461C97.3552 12.7658 97.5291 10.9871 97.9146 9.24808C98.1089 8.42132 98.3784 7.61381 98.7197 6.83548C99.316 5.45653 100.202 4.22015 101.319 3.20927C102.436 2.19839 103.758 1.43638 105.195 0.974329C106.938 0.409125 108.753 0.0930809 110.586 0.0357051C110.992 0.0357051 111.398 0.0357051 111.804 0.0357051H154.284C155.871 0.0247245 157.455 0.178523 159.009 0.494588C164.027 1.54213 167.098 4.55499 168.222 9.53314C168.538 10.9557 168.698 12.408 168.698 13.8647C168.698 28.3403 168.698 42.8136 168.698 57.2845C168.702 58.9665 168.488 60.6419 168.061 62.2696C166.864 66.7681 163.938 69.4796 159.429 70.5573C158.084 70.8821 156.705 71.0524 155.32 71.0649H111.356C109.563 71.0742 107.778 70.8403 106.049 70.3696C101.681 69.1668 99.0488 66.3231 97.9427 62.0263C97.6114 60.7326 97.4329 59.4049 97.4106 58.0702C97.4106 57.4236 97.4106 56.777 97.4106 56.1304L97.3966 35.5294ZM154.431 35.5294V15.874C154.431 15.589 154.431 15.3109 154.431 15.0258C154.431 14.2262 154.431 14.2262 153.619 14.2054H113.085C112.805 14.2054 112.518 14.2054 112.231 14.2054C111.734 14.2054 111.657 14.3027 111.636 14.7547C111.636 15.0397 111.636 15.3178 111.636 15.6029V55.5116C111.636 55.7549 111.636 55.9983 111.636 56.2416C111.636 56.9021 111.678 56.9369 112.336 56.9369H153.724C154.368 56.9369 154.424 56.8674 154.424 56.2416C154.424 55.9148 154.424 55.595 154.424 55.2682L154.431 35.5294Z" fill="#333333"/>
<path d="M356.05 42.9476C367.251 52.2596 378.483 61.567 389.744 70.8698C389.64 70.9671 389.514 71.0377 389.376 71.0753C389.238 71.1128 389.093 71.1163 388.953 71.0853C382.401 71.0853 375.848 71.0853 369.295 71.0853C368.993 71.0809 368.694 71.0172 368.417 70.8979C368.139 70.7785 367.888 70.606 367.678 70.39C357.224 61.5137 346.765 52.6397 336.301 43.768L336.028 43.5316C334.866 42.5513 334.803 42.5304 333.277 42.6486C333.216 42.6439 333.155 42.6527 333.098 42.6745C333.042 42.6963 332.991 42.7304 332.949 42.7745C332.907 42.8186 332.876 42.8714 332.858 42.929C332.839 42.9866 332.834 43.0476 332.843 43.1075C332.843 43.469 332.843 43.8028 332.843 44.1991C332.843 52.686 332.843 61.1777 332.843 69.6739C332.843 71.1966 333.025 71.0645 331.492 71.0645H319.409C318.442 71.0645 318.47 71.0157 318.47 70.1189V30.6065C318.47 30.2449 318.47 29.9112 318.47 29.5149C318.465 29.4649 318.471 29.4144 318.487 29.3668C318.504 29.3192 318.53 29.2756 318.564 29.2387C318.599 29.2019 318.64 29.1728 318.687 29.1533C318.734 29.1338 318.784 29.1243 318.835 29.1255C319.241 29.1255 319.647 29.1255 320.053 29.1255H371.942C373.237 29.1255 373.125 29.2159 373.125 27.9505V15.5747C373.125 15.3313 373.125 15.0949 373.125 14.8794C373.125 14.4483 373.041 14.3718 372.635 14.351C372.229 14.3301 371.935 14.351 371.536 14.351H320.018H318.799C318.717 14.351 318.638 14.319 318.579 14.2618C318.52 14.2046 318.486 14.1268 318.484 14.0451C318.484 13.8458 318.484 13.6441 318.484 13.4402V0.994767C318.484 0.793138 318.484 0.584552 318.484 0.382923C318.49 0.282712 318.535 0.188644 318.61 0.121007C318.684 0.0533705 318.783 0.0175936 318.883 0.0213885H372.236C373.211 0.00858196 374.187 0.0620184 375.155 0.181309C377.892 0.57184 380.463 1.72384 382.569 3.50416C384.675 5.28449 386.23 7.62043 387.056 10.2419C387.433 11.4821 387.624 12.7705 387.623 14.0659V29.1047C387.635 30.8439 387.4 32.5761 386.923 34.2497C386.434 36.0987 385.458 37.7851 384.096 39.1364C382.734 40.4876 381.035 41.455 379.173 41.9394C377.333 42.4678 375.425 42.7255 373.51 42.7042H356.211L356.05 42.9476Z" fill="#333333"/>
<path d="M71.1455 31.3716C70.9495 31.754 70.7535 32.1364 70.5714 32.5257C65.4376 43.1542 60.3038 53.7895 55.17 64.4318C54.2039 66.4342 53.2238 68.4297 52.2717 70.439C52.2122 70.6524 52.0797 70.8385 51.897 70.9654C51.7144 71.0923 51.4928 71.152 51.2706 71.1343C46.4681 71.1343 41.6657 71.1343 36.8702 71.1343C36.7092 71.1343 36.5552 71.1343 36.4012 71.0856C36.2822 70.5989 36.5972 70.2861 36.7723 69.9384C38.3334 66.7402 39.9155 63.5558 41.4907 60.3645C51.1983 40.6836 60.9175 21.0213 70.6484 1.37749C71.4605 -0.270304 70.9985 0.0217112 72.7906 -0.0130525C76.655 -0.0130525 80.4914 -0.0130525 84.3907 -0.0130525H85.3638C85.4146 -0.0160057 85.4654 -0.00837563 85.513 0.00935379C85.5606 0.0270832 85.6039 0.0545082 85.6402 0.0898763C85.6764 0.125244 85.7049 0.167768 85.7236 0.214702C85.7423 0.261637 85.7509 0.311937 85.7489 0.36238C85.7489 0.640489 85.7489 0.925552 85.7489 1.21061V69.9175C85.7489 71.2664 85.8749 71.1204 84.4888 71.1273H72.6646C72.3776 71.1273 72.0906 71.1273 71.8106 71.1273C71.7598 71.1303 71.709 71.1226 71.6614 71.1049C71.6138 71.0872 71.5705 71.0597 71.5342 71.0244C71.498 70.989 71.4696 70.9465 71.4508 70.8996C71.4321 70.8526 71.4235 70.8023 71.4255 70.7519C71.4255 70.3903 71.4255 70.0566 71.4255 69.6603V31.4203L71.1455 31.3716Z" fill="#333333"/>
<path d="M29.9999 62.9229C27.3747 57.4789 24.8264 52.2087 22.2992 46.9316C19.7719 41.6544 17.2587 36.4607 14.6895 31.1558C14.3604 31.4826 14.4794 31.7746 14.4794 32.0249C14.4794 41.5223 14.4794 51.0244 14.4794 60.5311V69.8686C14.4794 70.1537 14.4794 70.4318 14.4794 70.7169C14.4828 70.7664 14.4752 70.8161 14.4571 70.8624C14.4391 70.9087 14.4111 70.9506 14.3751 70.985C14.3391 71.0194 14.2959 71.0456 14.2487 71.0618C14.2014 71.0779 14.1511 71.0836 14.1014 71.0784H13.7304H0.737134C0.574968 71.0859 0.412521 71.0718 0.254087 71.0367C0.147639 70.9904 0.0626342 70.906 0.0160453 70.8003C-0.00534843 70.6831 -0.00534843 70.563 0.0160453 70.4457C0.0160453 70.1607 0.0160453 69.8756 0.0160453 69.5975C0.0160453 46.913 0.0160453 24.2286 0.0160453 1.5441C0.0160453 -0.242752 -0.207961 0.00754581 1.56321 0.000593075H13.8914C14.1784 0.000593075 14.4584 0.000593075 14.7455 0.000593075C14.8671 -0.0112629 14.9894 0.0152829 15.095 0.0764477C15.2006 0.137612 15.284 0.230274 15.3335 0.34127C15.4525 0.556805 15.5435 0.779294 15.6555 0.994829L37.6236 45.6244C37.6936 45.7705 37.7636 45.9165 37.8407 46.0555C37.9459 46.226 38.0015 46.4222 38.0015 46.6222C38.0015 46.8222 37.9459 47.0183 37.8407 47.1888C35.3157 52.2504 32.8002 57.3213 30.2939 62.4014C30.2659 62.5265 30.1959 62.6169 29.9999 62.9229Z" fill="#333333"/>
<path d="M242.919 0.0414473C242.865 0.46032 242.684 0.853077 242.401 1.16779C240.441 4.3336 238.473 7.49479 236.499 10.6513C229.335 22.1604 222.167 33.6626 214.993 45.1578C214.517 45.9031 214.274 46.7714 214.293 47.6538C214.293 55.0098 214.293 62.3657 214.293 69.7217C214.293 71.2653 214.433 71.1123 212.893 71.1123H200.327C200.019 71.1123 199.907 70.9315 199.907 70.6534C199.907 70.3753 199.907 70.0068 199.907 69.68C199.907 61.4434 199.907 53.1998 199.907 44.9492C199.894 44.1485 200.12 43.362 200.558 42.6895C209.141 28.8768 217.714 15.0547 226.278 1.22342C227.16 -0.167126 226.782 0.0484 228.379 0.0414473C232.808 0.0414473 237.241 0.0414473 241.68 0.0414473C242.079 0.0136363 242.478 0.0275418 242.919 0.0414473Z" fill="#333333"/>
<path d="M279.582 0.0200044H307.15C308.2 0.0200044 308.214 -0.0495238 308.214 1.08377C308.214 5.12331 308.214 9.16285 308.214 13.2024C308.214 13.4457 308.214 13.6891 308.214 13.8977C308.216 13.9479 308.206 13.9978 308.187 14.0441C308.167 14.0904 308.138 14.132 308.101 14.1662C308.063 14.2004 308.019 14.2263 307.972 14.2424C307.924 14.2584 307.873 14.2642 307.822 14.2592H252.566C250.858 14.2592 251.075 14.4678 251.068 12.7852C251.068 8.98902 251.068 5.19285 251.068 1.39665C251.068 1.11159 251.068 0.826529 251.068 0.548419C251.068 0.0686803 251.152 0.00609297 251.656 -0.0078125C251.985 -0.0078125 252.307 -0.0078125 252.636 -0.0078125L279.582 0.0200044Z" fill="#333333"/>
<path d="M279.595 29.1055H307.653C308.144 29.1055 308.192 29.182 308.213 29.6826C308.213 29.9259 308.213 30.1692 308.213 30.4126V42.0515C308.213 42.3713 308.213 42.6911 308.213 43.0179C308.213 43.0679 308.202 43.1171 308.181 43.1626C308.16 43.2081 308.13 43.2487 308.092 43.2821C308.055 43.3154 308.011 43.3406 307.963 43.3562C307.915 43.3718 307.865 43.3773 307.814 43.3725H252.67C250.822 43.3725 251.074 43.6158 251.074 41.7595C251.074 38.0397 251.074 34.327 251.074 30.6351C251.074 30.3917 251.074 30.1484 251.074 29.9398C251.074 29.182 251.074 29.175 251.774 29.1541H279.588L279.595 29.1055Z" fill="#333333"/>
<path d="M279.727 56.8252H306.827C308.36 56.8252 308.227 56.6653 308.227 58.174V69.6947C308.227 70.0215 308.227 70.3413 308.227 70.6681C308.227 70.9949 308.052 71.0922 307.765 71.0853H252.46C250.898 71.0853 251.059 71.2522 251.059 69.7504V58.2366C251.059 57.9516 251.059 57.6665 251.059 57.3884C251.059 56.9086 251.143 56.8461 251.647 56.8252H279.727Z" fill="#333333"/>
<path d="M171.562 0.0136719H187.762C187.864 0.0145348 187.963 0.0411793 188.051 0.0910754C188.14 0.140971 188.214 0.212462 188.266 0.298737C188.42 0.53513 188.567 0.771523 188.714 0.99401L201.525 22.1651C201.563 22.2386 201.608 22.3084 201.658 22.3737C201.826 22.5669 201.919 22.8137 201.919 23.0689C201.919 23.3242 201.826 23.571 201.658 23.7642C199.208 27.6717 196.758 31.593 194.357 35.5074C194.217 35.7438 194.126 36.0428 193.72 36.1401L171.562 0.0136719Z" fill="#333333"/>
<path d="M25.9418 93.3473H1.67048C1.29944 93.3473 0.935404 93.3473 0.571369 93.3473C0.207335 93.3473 0.0182894 93.2291 0.0182894 92.8676C0.0182894 90.74 -0.303712 91.0112 1.75448 91.0112H50.3321C50.6961 91.0112 51.0321 91.0112 51.4312 91.0112C51.8302 91.0112 51.9913 91.1294 51.9913 91.6091C51.9913 93.5559 52.2503 93.3473 50.3671 93.3473H25.9418Z" fill="#B1892E"/>
<path d="M364.015 93.3471H339.513C337.861 93.3471 338.063 93.4791 338.049 91.8105C338.036 91.6509 338.036 91.4904 338.049 91.3307C338.058 91.2496 338.096 91.1743 338.157 91.1192C338.218 91.0642 338.296 91.033 338.379 91.0318C338.659 91.0318 338.946 91.0318 339.233 91.0318H388.776C390.022 91.0318 390.008 90.9692 389.994 92.1998C389.994 92.3667 389.994 92.5266 389.994 92.6865C389.994 93.2984 389.917 93.3818 389.294 93.3818H364.029L364.015 93.3471Z" fill="#B1892E"/>
<path d="M234.804 92.8608C235.85 93.4429 236.644 94.3853 237.037 95.5098C237.24 95.9479 237.45 96.3928 237.667 96.8239C237.942 97.4244 238.413 97.9146 239.004 98.2145C239.075 98.2552 239.129 98.3192 239.157 98.3954C239.185 98.4716 239.186 98.5551 239.158 98.6316C239.138 98.7105 239.09 98.7799 239.024 98.828C238.957 98.8761 238.876 98.9001 238.794 98.8958C237.779 98.8958 236.764 98.8958 235.742 98.8958C235.619 98.8956 235.499 98.8601 235.396 98.7935C235.292 98.7268 235.211 98.632 235.161 98.5204C234.797 97.8251 234.419 97.1715 234.076 96.4901C233.733 95.8088 233.376 94.9536 232.977 94.1888C232.84 93.891 232.608 93.6467 232.317 93.4944C232.025 93.3421 231.691 93.2904 231.367 93.3475C231.143 93.3475 230.975 93.4866 230.975 93.723C230.975 94.891 230.975 96.066 230.975 97.2341C230.972 97.3979 231.017 97.5591 231.104 97.6983C231.19 97.8376 231.316 97.9492 231.465 98.0198C231.64 98.1101 231.843 98.1727 231.913 98.3952C231.947 98.4685 231.953 98.5513 231.932 98.6289C231.91 98.7066 231.861 98.7741 231.794 98.8193C231.687 98.8793 231.566 98.9082 231.444 98.9028H227.299C227.217 98.898 227.135 98.8864 227.054 98.868C227.008 98.8493 226.966 98.8213 226.932 98.7858C226.897 98.7504 226.87 98.7082 226.852 98.6619C226.834 98.6156 226.826 98.5662 226.829 98.5168C226.831 98.4673 226.843 98.4188 226.865 98.3744C226.907 98.3118 226.942 98.2075 227.005 98.1866C227.817 97.8668 227.831 97.1924 227.831 96.4763C227.831 93.6442 227.831 90.8144 227.831 87.987C227.831 87.8271 227.831 87.6671 227.831 87.5003C227.855 87.2773 227.809 87.0526 227.7 86.8562C227.591 86.6598 227.425 86.5013 227.222 86.4018C227.11 86.3579 227.011 86.2861 226.935 86.1931C226.902 86.1448 226.879 86.0905 226.867 86.0332C226.855 85.9759 226.854 85.9169 226.865 85.8594C226.88 85.8059 226.908 85.7566 226.945 85.7156C226.983 85.6745 227.03 85.6428 227.082 85.6231C227.313 85.5845 227.548 85.5682 227.782 85.5744C229.371 85.5744 230.961 85.5744 232.543 85.5744C233.399 85.5555 234.253 85.6632 235.077 85.8942C235.697 86.0392 236.257 86.3697 236.681 86.8409C237.105 87.3122 237.374 87.9016 237.45 88.5293C237.587 89.1895 237.527 89.8747 237.278 90.5018C237.03 91.1289 236.603 91.6707 236.05 92.0613C235.756 92.2698 235.357 92.4784 234.804 92.8608ZM230.94 89.3497V91.0392C230.94 92.2073 230.94 92.2073 232.2 92.1378C232.438 92.1125 232.673 92.0612 232.9 91.9848C233.299 91.8934 233.658 91.6785 233.926 91.3711C234.194 91.0637 234.357 90.6797 234.391 90.2744C234.454 89.7153 234.454 89.151 234.391 88.5918C234.352 88.1464 234.163 87.7272 233.854 87.4017C233.545 87.0762 233.135 86.8636 232.69 86.7981C232.295 86.7068 231.89 86.674 231.486 86.7007C231.045 86.7007 230.933 86.8189 230.926 87.2987C230.933 87.9453 230.94 88.6336 230.94 89.315V89.3497Z" fill="#B1892E"/>
<path d="M70.178 92.7982C71.2266 93.4715 72.0235 94.4681 72.4462 95.635C72.6212 96.0382 72.8173 96.4415 73.0273 96.8309C73.2615 97.353 73.666 97.7816 74.1754 98.0476C74.2788 98.1082 74.3711 98.1858 74.4485 98.277C74.5605 98.4021 74.4484 98.7637 74.3084 98.7984C74.1914 98.8277 74.0718 98.8463 73.9514 98.8541C73.0973 98.8541 72.2432 98.8541 71.3891 98.8541C71.1652 98.8748 70.9407 98.8221 70.7498 98.7041C70.5589 98.5861 70.4122 98.4092 70.3321 98.2005C69.94 97.401 69.534 96.6153 69.1349 95.8157C68.8479 95.2387 68.5819 94.6477 68.2739 94.0776C68.1836 93.8726 68.0413 93.6943 67.8609 93.5603C67.6806 93.4262 67.4682 93.3409 67.2447 93.3128C66.2927 93.1807 66.2156 93.4031 66.2296 94.1679C66.2436 94.9327 66.2296 95.8714 66.2296 96.7196C66.1857 97.0059 66.2398 97.2985 66.3832 97.5507C66.5266 97.8028 66.7511 97.9998 67.0207 98.1101C67.0972 98.1389 67.1615 98.1929 67.2027 98.2631C67.2567 98.3681 67.2786 98.4866 67.2658 98.6038C67.207 98.7031 67.1155 98.7792 67.0067 98.8193C66.89 98.8601 66.7661 98.8767 66.6427 98.868H62.7363C62.6162 98.8774 62.4956 98.8558 62.3863 98.8054C62.3344 98.7813 62.2882 98.7465 62.2508 98.7033C62.2134 98.6602 62.1856 98.6097 62.1693 98.5551C62.1576 98.4409 62.1901 98.3265 62.2603 98.2353C62.3382 98.1414 62.4396 98.0695 62.5543 98.0267C62.7353 97.9311 62.8873 97.7892 62.9944 97.6155C63.1015 97.4419 63.1598 97.243 63.1633 97.0394C63.1763 96.8078 63.1763 96.5757 63.1633 96.3442V88.0565C63.1633 87.8132 63.1633 87.5698 63.1633 87.3264C63.1325 87.0647 63.0319 86.8159 62.8719 86.6057C62.712 86.3955 62.4984 86.2315 62.2533 86.1306C62.1763 86.0889 62.1413 85.9081 62.1623 85.8107C62.1833 85.7134 62.3023 85.6439 62.3863 85.5674C62.4252 85.5564 62.4664 85.5564 62.5053 85.5674C62.5446 85.5602 62.585 85.5602 62.6243 85.5674C64.8225 85.5674 67.0207 85.477 69.2119 85.6439C69.862 85.6926 70.4965 85.8649 71.0811 86.1514C71.5686 86.3676 71.9859 86.7143 72.2864 87.1527C72.5868 87.5911 72.7585 88.1038 72.7823 88.6336C72.9183 89.5204 72.7348 90.4264 72.2642 91.1922C71.9151 91.6919 71.4491 92.0999 70.9061 92.3811C70.7521 92.4576 70.5211 92.5897 70.178 92.7982ZM66.2296 89.3845V90.9558C66.2296 92.1517 66.2296 92.1447 67.4688 92.0821C67.8306 92.0491 68.1863 91.9673 68.5259 91.8388C68.7215 91.7787 68.9032 91.6808 69.0605 91.5507C69.2179 91.4207 69.3479 91.261 69.443 91.0809C69.7502 90.5525 69.9119 89.953 69.9119 89.3427C69.9119 88.7325 69.7502 88.133 69.443 87.6046C68.8479 86.6034 67.7698 86.6033 66.7337 86.6312C66.6723 86.626 66.6105 86.6341 66.5526 86.6549C66.4946 86.6757 66.4419 86.7087 66.398 86.7516C66.3541 86.7945 66.3201 86.8464 66.2983 86.9036C66.2765 86.9608 66.2674 87.0221 66.2716 87.0831C66.2226 87.8827 66.2296 88.6475 66.2296 89.3845Z" fill="#B1892E"/>
<path d="M212.451 98.8618H208.789C208.551 98.8618 208.306 98.8618 208.089 98.8132C208.029 98.8064 207.973 98.7781 207.931 98.7333C207.89 98.6885 207.867 98.6305 207.865 98.5698C207.866 98.4512 207.888 98.3337 207.928 98.2222C207.945 98.1848 207.975 98.1549 208.012 98.1388C208.817 97.8259 208.845 97.1515 208.845 96.4353C208.845 93.5615 208.845 90.6924 208.845 87.8278C208.845 87.1326 208.782 86.5277 208.033 86.2356C207.97 86.2356 207.935 86.1105 207.886 86.0479C207.862 86.0044 207.848 85.9561 207.845 85.9065C207.841 85.857 207.849 85.8072 207.867 85.7609C207.885 85.7145 207.913 85.6726 207.949 85.6381C207.985 85.6036 208.028 85.5774 208.075 85.5612C208.308 85.5345 208.542 85.5206 208.775 85.5195C211.338 85.5195 213.905 85.5195 216.476 85.5195C217.547 85.5195 217.547 85.5195 217.554 86.5902C217.554 87.1534 217.554 87.7235 217.554 88.2867C217.556 88.3681 217.527 88.4472 217.472 88.508C217.418 88.5687 217.342 88.6065 217.26 88.6135C217.028 88.6402 216.794 88.6541 216.56 88.6552C216.478 88.6551 216.398 88.633 216.328 88.5914C216.258 88.5498 216.2 88.4902 216.161 88.4188C216.1 88.3134 216.047 88.2043 216 88.0921C215.881 87.6374 215.595 87.2431 215.199 86.9861C214.803 86.729 214.325 86.6276 213.858 86.7015C211.702 86.771 212.01 86.4095 211.982 88.5718C211.982 89.2671 211.982 90.0249 211.982 90.748C211.982 91.1999 212.108 91.2903 212.584 91.3112H213.074C213.381 91.3621 213.696 91.2957 213.955 91.1255C214.215 90.9552 214.4 90.6937 214.474 90.3934C214.586 89.9971 214.873 89.9345 215.223 89.9554C215.573 89.9762 215.699 90.0666 215.72 90.3517C215.741 90.6368 215.72 90.8314 215.72 91.047C215.72 91.8187 215.72 92.5835 215.72 93.3553C215.72 93.543 215.72 93.7863 215.461 93.8281C215.202 93.8698 214.81 93.9532 214.565 93.6473C214.521 93.5785 214.488 93.5035 214.467 93.4248C214.421 93.227 214.325 93.0439 214.19 92.8921C214.054 92.7403 213.882 92.6247 213.69 92.5557C213.219 92.4201 212.719 92.4201 212.248 92.5557C212.024 92.6113 211.982 92.8408 211.982 93.0494C211.982 94.0575 211.982 95.0726 211.982 96.0807C211.982 96.484 211.982 96.8872 211.982 97.2905C211.981 97.3416 211.99 97.3923 212.01 97.4396C212.029 97.4869 212.058 97.5298 212.095 97.5656C212.132 97.6014 212.175 97.6294 212.223 97.6478C212.271 97.6663 212.322 97.6748 212.374 97.6729C213.025 97.6729 213.676 97.6729 214.327 97.6729C214.629 97.6545 214.92 97.5531 215.167 97.38C215.414 97.2069 215.608 96.9689 215.727 96.6926C215.839 96.477 215.944 96.2546 216.035 95.9973C216.35 95.302 216.441 95.2116 217.19 95.302C217.252 95.3001 217.312 95.3118 217.369 95.3361C217.425 95.3605 217.475 95.397 217.515 95.4429C217.555 95.4888 217.585 95.543 217.601 95.6016C217.618 95.6603 217.621 95.7218 217.61 95.7818C217.61 96.63 217.554 97.4782 217.505 98.3265C217.505 98.7506 217.337 98.8688 216.868 98.8758C215.405 98.8758 213.935 98.8758 212.472 98.8758L212.451 98.8618Z" fill="#B1892E"/>
<path d="M304.996 98.8538H301.216C300.934 98.8467 300.653 98.8188 300.376 98.7703C300.201 98.7703 300.124 98.4019 300.25 98.2698C300.376 98.1377 300.299 98.1933 300.334 98.1794C301.125 97.8735 301.209 97.2129 301.202 96.4968C301.202 93.6253 301.202 90.7608 301.202 87.8963C301.202 87.7781 301.202 87.6529 301.202 87.5347C301.241 87.2768 301.194 87.0131 301.067 86.7844C300.941 86.5557 300.742 86.3747 300.502 86.2693C300.402 86.2374 300.319 86.1677 300.27 86.0753C300.222 85.9829 300.212 85.8753 300.243 85.7757C300.32 85.5601 300.544 85.5323 300.747 85.5254H308.77C308.973 85.5254 309.176 85.5254 309.379 85.5254C309.785 85.5254 309.897 85.6505 309.904 86.026C309.904 86.7212 309.904 87.4791 309.904 88.2022C309.904 88.5011 309.736 88.6333 309.449 88.6472C308.644 88.6889 308.49 88.5846 308.315 88.0214C308.25 87.8298 308.161 87.6475 308.048 87.4791C307.939 87.2879 307.786 87.1252 307.601 87.0043C307.416 86.8835 307.204 86.8079 306.984 86.7838C306.752 86.7528 306.519 86.7342 306.284 86.7282C304.009 86.7282 304.338 86.4223 304.31 88.6194C304.31 89.3842 304.31 90.149 304.31 90.9207C304.308 90.9712 304.317 91.0215 304.335 91.0687C304.353 91.1158 304.38 91.1589 304.416 91.1952C304.451 91.2316 304.493 91.2605 304.54 91.2802C304.587 91.2999 304.637 91.3101 304.688 91.3101C304.973 91.3275 305.258 91.3275 305.542 91.3101C305.807 91.3399 306.075 91.2771 306.298 91.1325C306.522 90.9878 306.688 90.7704 306.767 90.5175C306.809 90.3188 306.924 90.1427 307.089 90.0238C307.188 89.9579 307.302 89.9199 307.421 89.9141C307.54 89.9082 307.657 89.9346 307.762 89.9904C307.866 90.0463 307.954 90.1294 308.014 90.2309C308.074 90.3323 308.106 90.4483 308.105 90.5661C308.105 91.4908 308.105 92.4225 308.105 93.3472C308.105 93.6045 308.049 93.8409 307.733 93.8687C307.418 93.8965 307.075 93.966 306.886 93.5905C306.847 93.5197 306.814 93.4452 306.788 93.3681C306.7 93.0781 306.51 92.8288 306.254 92.6645C305.998 92.5003 305.691 92.4318 305.388 92.4712H305.143C304.394 92.4712 304.317 92.5407 304.31 93.2985C304.31 94.5153 304.31 95.725 304.31 96.9348C304.31 97.6301 304.387 97.6718 305.094 97.6857C305.542 97.6857 305.99 97.6857 306.438 97.6857C306.828 97.6919 307.21 97.5774 307.531 97.3581C307.852 97.1388 308.097 96.8256 308.231 96.462C308.333 96.2358 308.422 96.0036 308.497 95.7668C308.54 95.5882 308.652 95.4339 308.81 95.3375C308.967 95.2411 309.157 95.2104 309.337 95.2523C309.946 95.2523 310.037 95.3357 310.037 95.9475C310.037 96.7123 309.974 97.4771 309.925 98.2489C309.925 98.6939 309.785 98.7982 309.323 98.826C308.861 98.8538 308.511 98.826 308.105 98.826L304.996 98.8538Z" fill="#B1892E"/>
<path d="M92.482 85.6579C92.5987 86.3678 92.6316 87.0888 92.5801 87.8063C92.5801 88.6336 92.538 88.724 91.5579 88.6406C91.4775 88.6348 91.3995 88.6104 91.3302 88.5694C91.261 88.5283 91.2023 88.4718 91.1589 88.4042C91.1163 88.3348 91.0834 88.2599 91.0609 88.1817C90.6899 86.9581 89.7938 86.6521 88.6107 86.6939C86.7765 86.7495 86.9655 86.5478 86.9585 88.3069C86.9585 89.1551 86.9585 90.0033 86.9585 90.8516C86.9542 90.9126 86.9633 90.9739 86.9852 91.0311C87.007 91.0883 87.041 91.1402 87.0849 91.1831C87.1288 91.226 87.1815 91.259 87.2394 91.2798C87.2974 91.3006 87.3592 91.3087 87.4206 91.3035H88.1206C88.4062 91.3414 88.6958 91.2737 88.9346 91.1135C89.1733 90.9533 89.3445 90.7117 89.4157 90.4344C89.4464 90.2782 89.5359 90.1395 89.666 90.0465C89.7961 89.9535 89.9569 89.9132 90.1158 89.9338C90.5708 89.9338 90.7039 90.045 90.7109 90.497C90.7109 91.4286 90.7109 92.3534 90.7109 93.2781C90.7109 93.5214 90.7109 93.7787 90.4029 93.8552C90.2328 93.9196 90.0453 93.9221 89.8736 93.8622C89.7019 93.8024 89.557 93.6842 89.4647 93.5284C89.4099 93.4198 89.3609 93.3084 89.3178 93.1946C89.2375 92.9873 89.0951 92.8095 88.9098 92.6852C88.7245 92.5608 88.5052 92.496 88.2816 92.4994C86.7975 92.4159 86.8815 92.4368 86.8815 93.73C86.8815 94.8216 86.8815 95.9132 86.8815 96.9978C86.8815 97.6166 86.9655 97.6931 87.5816 97.6931C88.0716 97.6931 88.5547 97.6931 89.0447 97.6931C89.4142 97.6895 89.7742 97.5763 90.0785 97.3682C90.3828 97.1601 90.6177 96.8665 90.7529 96.525C90.8579 96.3095 90.9349 96.0801 91.0259 95.8298C91.0811 95.7026 91.1623 95.5883 91.2643 95.4939C91.3663 95.3995 91.4869 95.3271 91.6185 95.2814C91.7501 95.2357 91.8898 95.2175 92.0288 95.2281C92.1678 95.2387 92.303 95.2779 92.426 95.3431C92.4716 95.3787 92.5085 95.4241 92.534 95.4758C92.5594 95.5276 92.5728 95.5844 92.573 95.642C92.573 96.5737 92.482 97.4984 92.426 98.4231C92.4242 98.5252 92.3821 98.6224 92.3088 98.6939C92.2354 98.7655 92.1368 98.8055 92.034 98.8055C91.8311 98.8159 91.6278 98.8159 91.4249 98.8055H83.7172C83.5147 98.8095 83.3124 98.7885 83.1151 98.743C83.0613 98.7231 83.0127 98.6916 82.9727 98.6507C82.9327 98.6098 82.9025 98.5606 82.8842 98.5065C82.8842 98.4023 82.8841 98.2076 82.9751 98.1798C83.8642 97.8113 83.8782 97.0465 83.8922 96.2678C83.9623 93.4867 83.9623 90.7056 83.8922 87.9245C83.8922 87.7229 83.8922 87.5212 83.8922 87.3196C83.9026 87.0927 83.8405 86.8682 83.7148 86.6784C83.589 86.4886 83.4061 86.3432 83.1922 86.2628C83.0854 86.2039 82.9924 86.1234 82.9191 86.0264C82.892 85.9849 82.875 85.9377 82.8693 85.8886C82.8636 85.8395 82.8695 85.7898 82.8865 85.7433C82.9034 85.6968 82.931 85.6548 82.967 85.6207C83.0031 85.5866 83.0466 85.5612 83.0942 85.5466C83.3749 85.5083 83.6578 85.4874 83.9412 85.4841C86.3774 85.4841 88.8417 85.4841 91.2499 85.4841C91.6682 85.4591 92.0873 85.5182 92.482 85.6579Z" fill="#B1892E"/>
<path d="M110.978 98.8896H108.66C108.578 98.8967 108.496 98.8757 108.427 98.8303C108.359 98.7848 108.308 98.7175 108.282 98.6393C108.254 98.5637 108.254 98.4807 108.281 98.4046C108.307 98.3285 108.36 98.264 108.429 98.2222C108.53 98.1552 108.636 98.0948 108.745 98.0414C108.911 97.9601 109.047 97.8275 109.131 97.6634C109.216 97.4992 109.245 97.3124 109.214 97.1306C109.163 96.4451 109.012 95.7706 108.766 95.1282C108.739 95.0298 108.679 94.9432 108.597 94.8826C108.514 94.822 108.413 94.791 108.31 94.7945H104.894C104.791 94.7949 104.692 94.8283 104.61 94.8897C104.528 94.9511 104.468 95.0372 104.439 95.1352C104.27 95.5902 104.127 96.0545 104.012 96.5257C103.858 97.221 103.893 97.9162 104.712 98.2291C104.788 98.2626 104.847 98.3245 104.878 98.4014C104.908 98.4782 104.906 98.5637 104.873 98.6393C104.873 98.7367 104.712 98.8688 104.628 98.8688C103.403 98.8688 102.185 98.8688 100.967 98.8688C100.876 98.8688 100.75 98.7436 100.708 98.6463C100.67 98.5731 100.662 98.4881 100.685 98.4091C100.709 98.3301 100.762 98.2632 100.834 98.2222C101.215 97.9932 101.545 97.6906 101.806 97.3323C102.067 96.974 102.253 96.5673 102.353 96.1364C103.305 93.6056 104.271 91.0748 105.23 88.544C105.545 87.7096 105.867 86.8823 106.168 86.0479C106.202 85.868 106.303 85.7073 106.451 85.5979C106.599 85.4884 106.783 85.4381 106.966 85.4569C107.61 85.5056 108.366 85.2345 108.885 85.5752C109.403 85.9158 109.396 86.7223 109.585 87.3272C110.495 90.303 111.381 93.2834 112.245 96.2685C112.476 97.0541 112.686 97.8328 113.519 98.2222C113.591 98.2645 113.645 98.3323 113.67 98.4121C113.694 98.4918 113.688 98.5779 113.652 98.6533C113.626 98.7301 113.574 98.7958 113.505 98.84C113.437 98.8841 113.355 98.9041 113.274 98.8966L110.978 98.8896ZM105.09 93.4943C106.148 93.6906 107.235 93.6646 108.282 93.4178C107.952 91.7074 107.448 90.0348 106.777 88.4258C106.189 90.0458 105.629 91.5962 105.083 93.1467C105.061 93.2618 105.063 93.3802 105.09 93.4943Z" fill="#B1892E"/>
<path d="M252.621 95.3777L254.021 91.4077L254.987 88.6614C255.131 88.2836 255.222 87.8884 255.26 87.4864C255.26 86.9232 255.204 86.4365 254.56 86.2071C254.483 86.1842 254.414 86.138 254.364 86.075C254.305 85.9741 254.281 85.8571 254.294 85.7413C254.312 85.6864 254.342 85.6362 254.382 85.5942C254.422 85.5521 254.471 85.5193 254.525 85.4979C254.681 85.4603 254.841 85.444 255.001 85.4493H257.801C257.922 85.4388 258.044 85.4388 258.165 85.4493C258.34 85.4493 258.48 85.5675 258.487 85.7552C258.494 85.9429 258.487 86.0402 258.375 86.075C257.346 86.5617 257.066 87.5559 256.716 88.5015C255.54 91.6024 254.373 94.701 253.216 97.7973C253.125 98.0267 253.041 98.2562 252.95 98.4925C252.91 98.6079 252.834 98.7077 252.734 98.7777C252.633 98.8476 252.513 98.8841 252.39 98.8819C251.942 98.8819 251.494 98.8819 251.046 98.8819C250.883 98.8948 250.721 98.8472 250.592 98.7483C250.462 98.6493 250.375 98.5062 250.346 98.3466C250.017 97.2202 249.645 96.1008 249.351 94.9745C248.651 92.694 248.007 90.4065 247.328 88.1191C247.237 87.8062 247.125 87.5072 247.02 87.2013C246.852 86.7405 246.511 86.362 246.068 86.1445C246 86.0996 245.95 86.0333 245.924 85.9565C245.899 85.8796 245.9 85.7964 245.928 85.7204C245.943 85.6394 245.988 85.5669 246.054 85.5168C246.12 85.4667 246.202 85.4427 246.285 85.4493H250.92C251 85.4427 251.081 85.466 251.146 85.5147C251.21 85.5635 251.254 85.6343 251.27 85.7134C251.297 85.7902 251.297 85.8739 251.27 85.9509C251.244 86.0279 251.192 86.0936 251.123 86.1376L250.913 86.2558C250.684 86.3516 250.501 86.5293 250.398 86.7534C250.296 86.9775 250.282 87.2317 250.36 87.4655C250.409 87.7436 250.479 88.0148 250.549 88.2929C251.137 90.4343 251.727 92.5735 252.32 94.7103C252.405 94.9392 252.506 95.1621 252.621 95.3777Z" fill="#B1892E"/>
<path d="M322.7 98.9735C321.701 98.9735 320.705 98.878 319.725 98.6884C319.207 98.6119 319.13 98.5146 319.116 97.9932C319.102 97.4717 319.116 96.7764 319.116 96.1715C319.116 95.5667 319.221 95.5736 319.816 95.5736C319.937 95.5632 320.059 95.5632 320.18 95.5736C320.26 95.5812 320.338 95.6104 320.403 95.6582C320.468 95.7059 320.519 95.7704 320.551 95.8447C320.658 96.1489 320.784 96.4462 320.929 96.7347C321.104 97.0043 321.332 97.2365 321.599 97.4177C321.866 97.599 322.167 97.7256 322.483 97.7903C322.8 97.855 323.126 97.8565 323.444 97.7946C323.761 97.7328 324.063 97.6088 324.331 97.43C324.59 97.2291 324.788 96.9613 324.904 96.656C325.021 96.3507 325.05 96.0195 324.989 95.6988C324.963 95.395 324.872 95.1003 324.722 94.8342C324.573 94.5681 324.368 94.3366 324.121 94.1552C323.656 93.8286 323.172 93.5292 322.672 93.2583C321.982 92.9126 321.328 92.5004 320.719 92.0277C320.189 91.6111 319.784 91.0587 319.547 90.4301C319.31 89.8016 319.25 89.1207 319.375 88.4609C319.443 87.979 319.624 87.5195 319.902 87.1189C320.18 86.7183 320.548 86.3874 320.978 86.1526C321.723 85.7379 322.554 85.5 323.407 85.4574C324.668 85.3596 325.937 85.444 327.173 85.7077C327.656 85.812 327.74 85.8815 327.747 86.3334C327.747 86.98 327.747 87.6266 327.747 88.2732C327.747 88.5861 327.551 88.6904 327.278 88.6974H326.914C326.772 88.7158 326.627 88.6823 326.507 88.603C326.388 88.5238 326.301 88.4042 326.263 88.2663C326.194 88.0245 326.098 87.7912 325.976 87.571C325.803 87.3126 325.577 87.0932 325.313 86.9268C325.049 86.7605 324.752 86.6508 324.443 86.605C324.134 86.5591 323.818 86.5781 323.517 86.6606C323.216 86.7432 322.935 86.8875 322.693 87.0843C322.409 87.404 322.243 87.8097 322.221 88.2352C322.2 88.6608 322.324 89.081 322.574 89.4274C322.845 89.7829 323.186 90.0808 323.575 90.3034C324.03 90.5676 324.492 90.8179 324.975 91.0752C325.615 91.4296 326.218 91.8465 326.774 92.3197C327.253 92.7751 327.606 93.3458 327.798 93.9764C327.99 94.6069 328.014 95.276 327.869 95.9188C327.724 96.5616 327.414 97.1562 326.97 97.6451C326.525 98.134 325.961 98.5005 325.332 98.7093C324.48 98.9651 323.586 99.0548 322.7 98.9735Z" fill="#B1892E"/>
<path d="M193.463 98.9709C192.499 98.9704 191.538 98.8773 190.592 98.6928C190.053 98.6163 189.969 98.512 189.955 97.9975C189.941 97.483 189.955 96.8712 189.955 96.3011C189.955 96.0647 189.885 95.7448 190.116 95.6058C190.285 95.5337 190.468 95.4965 190.652 95.4965C190.836 95.4965 191.018 95.5337 191.187 95.6058C191.258 95.6441 191.312 95.7056 191.341 95.7796C191.425 95.9673 191.481 96.162 191.558 96.3428C192.167 97.8029 193.337 97.9211 194.457 97.7333C194.82 97.662 195.15 97.4734 195.394 97.1967C195.639 96.9201 195.784 96.571 195.808 96.2037C195.863 95.8206 195.814 95.4299 195.666 95.0719C195.519 94.7138 195.277 94.4013 194.968 94.1666C194.544 93.851 194.097 93.5674 193.631 93.3183C192.907 92.9508 192.216 92.5229 191.565 92.039C191.027 91.6311 190.611 91.084 190.364 90.4574C190.117 89.8309 190.048 89.149 190.165 88.4862C190.229 88.0035 190.404 87.5418 190.675 87.1368C190.947 86.7317 191.309 86.3941 191.733 86.15C192.437 85.7459 193.225 85.508 194.037 85.4548C195.376 85.3293 196.728 85.4138 198.041 85.7051C198.412 85.7885 198.517 85.8998 198.524 86.2891C198.524 86.9334 198.524 87.58 198.524 88.229C198.523 88.3449 198.484 88.4572 198.412 88.5487C198.207 88.6687 197.967 88.7168 197.731 88.6853C197.495 88.6538 197.276 88.5445 197.11 88.3749C196.984 88.1246 196.921 87.8396 196.781 87.5962C196.61 87.3352 196.386 87.1127 196.124 86.943C195.861 86.7733 195.565 86.6602 195.256 86.6111C194.946 86.5619 194.63 86.5778 194.327 86.6577C194.024 86.7376 193.742 86.8796 193.498 87.0748C193.198 87.4076 193.026 87.8347 193.012 88.2811C192.997 88.7274 193.142 89.1644 193.421 89.5152C193.704 89.8596 194.051 90.1474 194.443 90.3634L196.039 91.2534C196.602 91.5781 197.128 91.9627 197.607 92.4006C198.057 92.8546 198.386 93.4133 198.563 94.0259C198.74 94.6385 198.76 95.2855 198.621 95.9076C198.482 96.5298 198.188 97.1075 197.766 97.5879C197.345 98.0683 196.809 98.4362 196.207 98.6581C195.322 98.9436 194.389 99.05 193.463 98.9709Z" fill="#B1892E"/>
<path d="M164.421 91.8868C164.568 91.7547 164.694 91.6922 164.743 91.5948C165.303 90.4778 165.861 89.3538 166.416 88.2228C166.513 87.9966 166.595 87.7643 166.661 87.5275C166.775 87.3082 166.801 87.054 166.733 86.8165C166.666 86.579 166.51 86.3759 166.297 86.2482C166.205 86.1766 166.128 86.0866 166.073 85.984C165.989 85.8727 166.073 85.5738 166.199 85.5668C167.363 85.4569 168.535 85.4569 169.7 85.5668C169.875 85.5668 169.973 85.9353 169.861 86.0674C169.749 86.1995 169.812 86.1439 169.784 86.1578C168.98 86.7209 168.357 87.5033 167.991 88.4105C167.207 89.8705 166.444 91.3446 165.639 92.7907C165.288 93.3852 165.122 94.0701 165.163 94.7583C165.198 95.4536 165.163 96.2115 165.198 96.9345C165.167 97.1838 165.227 97.436 165.367 97.6452C165.507 97.8544 165.718 98.0068 165.961 98.0748C166.071 98.1252 166.169 98.1987 166.248 98.2903C166.274 98.3314 166.291 98.3774 166.299 98.4254C166.306 98.4734 166.303 98.5223 166.291 98.5693C166.279 98.6162 166.257 98.6601 166.226 98.6982C166.196 98.7364 166.158 98.7679 166.115 98.7909C165.957 98.8289 165.795 98.8498 165.632 98.8535H161.607C161.444 98.8498 161.282 98.8289 161.124 98.7909C160.963 98.7909 160.886 98.3946 161.012 98.2764C161.06 98.2144 161.123 98.1645 161.194 98.1304C161.971 97.894 162.118 97.2961 162.118 96.6078V96.4826C162.312 94.7959 161.962 93.0915 161.117 91.6157C160.382 90.3573 159.843 88.9945 159.206 87.6874C158.987 87.0738 158.571 86.5485 158.022 86.1926C157.952 86.1504 157.899 86.0839 157.875 86.0057C157.85 85.9275 157.855 85.843 157.889 85.7684C157.924 85.6945 157.981 85.6333 158.053 85.5934C158.124 85.5535 158.207 85.5369 158.288 85.546H162.678C162.759 85.5388 162.841 85.558 162.91 85.6006C162.979 85.6432 163.033 85.707 163.063 85.7824C163.09 85.8606 163.089 85.9459 163.06 86.0233C163.03 86.1008 162.974 86.1656 162.902 86.2065C162.251 86.5611 162.272 87.0895 162.524 87.6596C163.161 89.0571 163.777 90.4546 164.421 91.8868Z" fill="#B1892E"/>
<path d="M143.953 85.5196C145.459 85.5196 146.964 85.5196 148.469 85.5196C148.752 85.5185 149.035 85.5347 149.316 85.5683C149.399 85.5751 149.476 85.6124 149.533 85.6727C149.59 85.7331 149.623 85.8123 149.624 85.895C149.624 86.8197 149.624 87.7514 149.624 88.6761C149.624 88.8499 149.456 88.9473 149.288 88.9612C149.085 88.9716 148.882 88.9716 148.679 88.9612C148.577 88.9709 148.475 88.9458 148.39 88.8902C148.305 88.8346 148.241 88.7517 148.21 88.6553C148.098 88.3494 147.993 88.0434 147.874 87.7445C147.766 87.4362 147.564 87.1695 147.295 86.9822C147.026 86.795 146.704 86.6968 146.376 86.7016C145.529 86.7016 145.368 86.7502 145.368 87.6262C145.368 90.5325 145.368 93.4457 145.368 96.3589C145.369 96.641 145.395 96.9225 145.445 97.2002C145.458 97.3828 145.525 97.5576 145.637 97.7033C145.749 97.8489 145.901 97.9591 146.075 98.0206C146.222 98.078 146.356 98.1657 146.467 98.2778C146.494 98.3192 146.512 98.3658 146.52 98.4145C146.528 98.4632 146.526 98.513 146.513 98.5608C146.501 98.6086 146.478 98.6533 146.447 98.6919C146.416 98.7306 146.378 98.7625 146.334 98.7854C146.175 98.8176 146.013 98.8362 145.851 98.841H141.825C141.662 98.8373 141.501 98.8164 141.342 98.7785C141.181 98.7785 141.09 98.3683 141.223 98.264C141.344 98.1598 141.481 98.0753 141.629 98.0136C141.826 97.9449 141.997 97.8196 142.122 97.6537C142.247 97.4878 142.319 97.2888 142.329 97.082C142.363 96.8518 142.377 96.6192 142.371 96.3867C142.371 93.4758 142.371 90.565 142.371 87.6541C142.371 87.4942 142.371 87.3273 142.371 87.1674C142.371 86.8754 142.161 86.7572 141.888 86.7363C141.445 86.6264 140.975 86.6947 140.582 86.9264C140.189 87.1581 139.903 87.5345 139.788 87.9739C139.697 88.1964 139.634 88.4328 139.55 88.6692C139.523 88.7676 139.464 88.8542 139.381 88.9148C139.298 88.9754 139.198 89.0064 139.095 89.0029C138.206 89.0377 138.073 89.0029 138.087 88.1199C138.087 87.4733 138.087 86.8267 138.087 86.1801C138.087 85.6586 138.192 85.5613 138.787 85.5543C139.928 85.5543 141.062 85.5543 142.203 85.5543L143.953 85.5196Z" fill="#B1892E"/>
<path d="M284.494 92.3106C284.435 93.2791 284.518 94.2509 284.739 95.196C284.861 95.7877 285.099 96.3499 285.439 96.8507C285.749 97.2757 286.194 97.5844 286.702 97.727C287.21 97.8696 287.752 97.8377 288.239 97.6364C288.655 97.4583 288.988 97.1304 289.171 96.7186C289.283 96.4614 289.381 96.1902 289.472 95.926C289.504 95.8092 289.576 95.7072 289.675 95.6374C289.775 95.5677 289.896 95.5345 290.018 95.5436C290.22 95.5332 290.424 95.5332 290.627 95.5436C290.709 95.5452 290.788 95.5775 290.848 95.6342C290.907 95.6909 290.943 95.7677 290.949 95.8495C290.949 96.6143 290.949 97.3861 290.949 98.1509C290.946 98.2538 290.907 98.3524 290.837 98.4289C290.768 98.5054 290.673 98.5548 290.571 98.5681C290.109 98.6845 289.642 98.7773 289.171 98.8462C287.804 99.0689 286.407 99.0336 285.054 98.7419C284.274 98.5715 283.555 98.1945 282.973 97.651C282.391 97.1075 281.969 96.4177 281.75 95.6549C281.106 93.6808 281.064 91.5616 281.631 89.5643C281.943 88.3641 282.65 87.3017 283.639 86.546C284.628 85.7902 285.843 85.3843 287.091 85.3926C288.149 85.3379 289.209 85.4267 290.242 85.6568C290.942 85.8168 290.942 85.8793 290.991 86.5329C291.04 87.1865 290.991 87.6592 290.991 88.2224C290.991 88.5909 290.844 88.7091 290.452 88.723H290.088C289.965 88.7359 289.841 88.7053 289.739 88.6366C289.636 88.5679 289.561 88.4656 289.528 88.3475C289.479 88.1946 289.416 88.0486 289.353 87.8956C289.227 87.5631 289.019 87.2678 288.747 87.0377C288.474 86.8076 288.148 86.6503 287.797 86.5806C287.447 86.511 287.084 86.5314 286.744 86.6398C286.403 86.7483 286.097 86.9412 285.852 87.2003C285.497 87.5371 285.222 87.9479 285.047 88.4032C284.713 89.2714 284.519 90.1865 284.473 91.1147C284.466 91.4693 284.494 91.9074 284.494 92.3106Z" fill="#B1892E"/>
<path d="M126.824 98.8549H123.289C123.055 98.855 122.821 98.8387 122.589 98.8063C122.532 98.7872 122.48 98.7547 122.439 98.7115C122.397 98.6683 122.367 98.6156 122.35 98.5581C122.334 98.5006 122.331 98.44 122.344 98.3815C122.356 98.323 122.383 98.2683 122.421 98.2223C122.421 98.1875 122.47 98.1458 122.505 98.1319C123.289 97.7981 123.345 97.1446 123.345 96.4215C123.345 93.55 123.345 90.6785 123.345 87.814C123.345 87.23 123.345 86.6599 122.715 86.3539C122.484 86.2357 122.295 86.0758 122.393 85.7908C122.491 85.5057 122.792 85.5683 123.023 85.5613H126.754C126.875 85.5473 126.997 85.5473 127.118 85.5613C127.23 85.5613 127.37 85.6169 127.363 85.7768C127.356 85.9368 127.363 86.0619 127.286 86.0967C126.411 86.4791 126.369 87.2299 126.369 88.0226V96.6301C126.373 96.83 126.387 97.0296 126.411 97.228C126.416 97.3101 126.451 97.3877 126.509 97.4465C126.566 97.5053 126.644 97.5412 126.726 97.5478C127.411 97.6451 128.107 97.6451 128.792 97.5478C129.035 97.506 129.263 97.4011 129.452 97.2435C129.642 97.086 129.786 96.8816 129.87 96.6509C130.045 96.2444 130.2 95.8289 130.332 95.4064C130.514 94.878 130.542 94.8571 131.109 94.8571C131.23 94.8466 131.352 94.8466 131.473 94.8571C131.554 94.8604 131.631 94.8935 131.689 94.95C131.748 95.0065 131.783 95.0824 131.788 95.163C131.798 95.3228 131.798 95.483 131.788 95.6428C131.725 96.5327 131.669 97.4157 131.599 98.3057C131.599 98.6881 131.466 98.7854 131.067 98.8132C130.787 98.8132 130.5 98.8132 130.213 98.8132L126.824 98.8549Z" fill="#B1892E"/>
<path d="M269.378 85.5756H271.57C271.745 85.5756 271.899 85.666 271.913 85.8468C271.917 85.9043 271.908 85.9621 271.887 86.016C271.867 86.07 271.835 86.119 271.794 86.1596C270.94 86.549 270.863 87.293 270.87 88.0856V96.3385C270.856 96.5399 270.856 96.742 270.87 96.9433C270.858 97.183 270.918 97.4207 271.043 97.6262C271.168 97.8317 271.351 97.9958 271.57 98.0975C271.609 98.1075 271.645 98.1265 271.675 98.1531C271.794 98.2713 271.913 98.3826 271.871 98.5703C271.855 98.6484 271.813 98.7189 271.752 98.7706C271.691 98.8224 271.615 98.8522 271.535 98.8553C271.372 98.8694 271.208 98.8694 271.045 98.8553H267.544C267.344 98.8504 267.144 98.8248 266.949 98.7789C266.781 98.7372 266.704 98.4034 266.823 98.2713C266.871 98.2054 266.93 98.1488 266.998 98.1044C267.754 97.8124 267.817 97.1728 267.817 96.5123V87.8005C267.876 87.4811 267.824 87.1513 267.671 86.8648C267.517 86.5783 267.27 86.3518 266.97 86.2222C266.896 86.1861 266.838 86.1248 266.806 86.0495C266.774 85.9742 266.77 85.8899 266.795 85.812C266.837 85.6104 267.005 85.5826 267.166 85.5687C267.327 85.5548 267.565 85.5687 267.768 85.5687H269.35L269.378 85.5756Z" fill="#B1892E"/>
</g>
<defs>
<clipPath id="clip0_246_1750">
<rect width="390" height="99" fill="white"/>
</clipPath>
</defs>
</svg>
