<svg class="arrow-curved" width="180" height="120" viewBox="0 0 180 120">
<path d="M145.278 119.795C157.989 115.85 169.379 109.173 178.732 99.8613C180.681 97.9208 180.321 95.0556 178.082 93.5144C169.209 87.4083 160.337 81.3015 151.464 75.1947C147.148 72.2239 142.851 79.0588 147.164 82.0264C151.919 85.2994 156.674 88.5724 161.43 91.8454C109.946 97.5698 51.9963 84.9529 22.2973 39.8877C14.9072 28.6737 9.99571 16.2657 8.06029 3.05645C7.31044 -2.06245 -0.694504 -0.256969 0.048645 4.82017C3.68158 29.6245 17.7441 52.0947 37.0108 68.3721C58.6192 86.6279 85.77 96.5689 113.934 99.9338C130.888 101.959 148.005 101.505 164.933 99.4849C166.98 99.2409 167.935 97.9026 168.045 96.3992C168.525 96.7294 169.005 97.0594 169.484 97.3896C161.945 103.971 153.193 108.955 143.47 111.972C138.462 113.527 140.239 121.358 145.278 119.795Z"/>
</svg>
