<svg width="30" height="31" viewBox="0 0 30 31">
<path d="M3.86268 5.66799C3.73392 5.70799 3.60517 5.92136 3.15452 6.85486L2.60731 7.98839L1.4485 8.14842C0.122318 8.33512 0 8.39513 0 8.87521C0 9.12192 0.0386268 9.17526 0.856227 9.9954L1.71889 10.8489L1.53863 11.8491C1.35837 12.8759 1.31975 13.256 1.39056 13.4493C1.4485 13.596 1.78971 13.7694 1.95709 13.7227C2.02791 13.7027 2.53005 13.4427 3.05795 13.1493L4.02362 12.6025L4.47427 12.8426C4.72534 12.9759 5.20818 13.2426 5.54938 13.4293C6.21891 13.7894 6.37985 13.8094 6.63093 13.5494C6.80475 13.3693 6.79187 13.1826 6.56655 11.9157L6.37342 10.8556L7.24252 9.98207C8.16312 9.06858 8.21463 8.9819 8.04081 8.58849C7.9378 8.36179 7.78329 8.31511 6.56655 8.14842C5.98071 8.0684 5.49788 7.99506 5.49144 7.98839C5.485 7.98172 5.2468 7.48163 4.96998 6.87486C4.50646 5.86802 4.43564 5.76134 4.24894 5.68799C4.13306 5.64798 4.0365 5.61464 4.03006 5.62131C4.02362 5.62798 3.95281 5.64798 3.86268 5.66799ZM4.39701 8.28177C4.5644 8.6485 4.75753 8.97523 4.81547 9.00857C4.87985 9.04191 5.17599 9.10192 5.47213 9.14192C6.43136 9.27528 6.40561 9.21527 5.81333 9.83538C5.53007 10.1354 5.27899 10.4355 5.25968 10.4955C5.23393 10.5622 5.27899 10.9356 5.34337 11.329C5.41419 11.7224 5.47213 12.0558 5.47213 12.0691C5.47213 12.0824 5.1953 11.9424 4.86054 11.7557C4.49358 11.5557 4.16525 11.4157 4.04293 11.4157C3.92705 11.4157 3.59873 11.549 3.23821 11.749C2.87769 11.9557 2.6395 12.0558 2.6395 12.0024C2.6395 11.9557 2.68456 11.6824 2.73606 11.3956C2.90345 10.4822 2.90345 10.4755 2.30473 9.84204C1.96353 9.47531 1.81546 9.27528 1.8734 9.25528C1.9249 9.24194 2.24035 9.1886 2.57512 9.14859C3.00001 9.09525 3.22534 9.02857 3.31546 8.94189C3.38628 8.87521 3.57298 8.54849 3.73392 8.2151C3.88843 7.88837 4.0365 7.61499 4.05581 7.61499C4.08156 7.61499 4.22963 7.91504 4.39701 8.28177Z"/>
<path d="M14.6911 0.922055C14.6074 0.982066 14.3371 1.48215 14.0538 2.08226C13.6353 2.99575 13.5452 3.14911 13.3971 3.17578C13.307 3.19578 12.7791 3.2758 12.2319 3.35581C11.0795 3.51584 10.9443 3.58919 10.9443 4.0426C10.9443 4.29597 10.983 4.34265 11.8134 5.17613L12.6761 6.04961L12.4894 7.08313C12.2512 8.35668 12.2512 8.55005 12.4443 8.73675C12.7019 8.99012 12.9336 8.93011 13.9637 8.35001C14.4916 8.05663 14.9551 7.81659 15.0001 7.81659C15.0452 7.81659 15.5152 8.05663 16.0431 8.35001C17.1117 8.93678 17.3242 8.99012 17.5753 8.71674C17.762 8.51004 17.7555 8.28333 17.5173 7.01645L17.3371 6.04961L18.1997 5.1828C19.0238 4.34932 19.056 4.30264 19.056 4.0426C19.056 3.58252 18.9272 3.51584 17.7362 3.35581C17.1697 3.2758 16.6482 3.20245 16.571 3.18245C16.4744 3.16244 16.3135 2.8824 15.9529 2.08892C15.6632 1.46882 15.3993 0.988734 15.3156 0.922055C15.1225 0.788699 14.8778 0.788699 14.6911 0.922055ZM15.322 3.38248C15.4701 3.72921 15.6439 4.05593 15.7083 4.11594C15.7727 4.17595 16.1139 4.26264 16.5774 4.32931L17.3371 4.44267L16.777 4.98276C16.1396 5.60287 16.1396 5.60954 16.3263 6.61638C16.3778 6.91643 16.41 7.17648 16.3907 7.19648C16.3778 7.21648 16.0881 7.07646 15.7534 6.88976C15.4186 6.70306 15.0774 6.5497 15.0001 6.5497C14.9229 6.5497 14.5817 6.70306 14.2469 6.88976C13.9122 7.07646 13.6225 7.21648 13.6096 7.19648C13.5903 7.17648 13.6225 6.91643 13.674 6.61638C13.8607 5.60954 13.8607 5.60287 13.2233 4.98276L12.6632 4.436L13.4164 4.33598C13.9186 4.2693 14.2083 4.19596 14.2856 4.11594C14.3564 4.05593 14.5366 3.72254 14.6847 3.37581C14.8392 3.02909 14.9808 2.74904 15.0066 2.74904C15.0259 2.74904 15.1675 3.03576 15.322 3.38248Z"/>
<path d="M25.7192 5.70631C25.5518 5.77965 25.4488 5.95968 25.0174 6.89318L24.5153 7.9867L23.3179 8.16007C21.9852 8.35343 21.8887 8.39344 21.8887 8.87352C21.8887 9.09356 21.953 9.18024 22.7578 9.98038L23.6269 10.8472L23.4337 11.9141C23.1634 13.4143 23.1762 13.541 23.6011 13.681C23.8264 13.761 23.8651 13.7477 24.4895 13.4076C24.8436 13.2143 25.3265 12.9476 25.5582 12.8275L25.9767 12.6008L27.0196 13.1809C27.8887 13.661 28.0947 13.7544 28.2557 13.7144C28.4617 13.6677 28.6162 13.521 28.6612 13.3076C28.6805 13.2276 28.6097 12.6408 28.4938 12.0141L28.2943 10.8605L29.1505 9.99372C29.9359 9.18691 30.0003 9.1069 30.0003 8.87352C30.0003 8.40678 29.9037 8.3601 28.6484 8.1734C28.0303 8.08672 27.5024 8.01337 27.4767 8.01337C27.4445 8.01337 27.1805 7.50662 26.8844 6.88651C26.3951 5.88634 26.3179 5.75298 26.1312 5.6863C26.0153 5.6463 25.9252 5.61296 25.9187 5.61296C25.9123 5.61963 25.8222 5.65963 25.7192 5.70631ZM26.6913 8.95354C26.7621 9.02022 27.0453 9.09356 27.393 9.14024C28.3393 9.26693 28.3136 9.20692 27.702 9.83369C27.0968 10.4605 27.1097 10.4271 27.2642 11.3473C27.3157 11.6607 27.3608 11.9541 27.3608 12.0007C27.3608 12.0541 27.1355 11.9607 26.7556 11.754C26.3887 11.5473 26.0732 11.414 25.9509 11.414C25.8222 11.414 25.5067 11.5473 25.1333 11.754C24.7986 11.9407 24.5282 12.0674 24.5282 12.0341C24.5282 12.0074 24.5732 11.7474 24.6247 11.4606C24.805 10.4871 24.7986 10.4605 24.1934 9.83369C23.5947 9.21358 23.5689 9.27359 24.5282 9.14024C24.8243 9.10023 25.1204 9.04022 25.1848 9.00688C25.2428 8.97354 25.4423 8.62681 25.6226 8.23341L25.9509 7.51996L26.2599 8.18674C26.4273 8.5468 26.6269 8.89353 26.6913 8.95354Z"/>
<path d="M14.0227 10.686C10.6362 11.1195 7.80985 13.6669 6.98577 17.0345C6.44496 19.2418 6.75399 21.6092 7.82273 23.4964C7.98368 23.7765 8.11245 24.0232 8.11245 24.0432C8.11245 24.0565 7.54589 25.0835 6.857 26.3239C6.02648 27.811 5.60156 28.6445 5.60156 28.7646C5.60156 29.0246 5.85909 29.2847 6.12305 29.2847C6.29688 29.2847 8.11245 29.0113 8.56312 28.9113C8.7112 28.8846 8.80777 28.978 9.45158 29.8115C9.85075 30.3184 10.2242 30.7585 10.2757 30.7785C10.4688 30.8585 10.7328 30.8185 10.8615 30.6918C10.9324 30.6184 11.3766 29.8716 11.8466 29.018C12.6707 27.5375 12.7093 27.4775 12.8702 27.5175C14.1901 27.8643 15.8125 27.8643 17.1323 27.5175C17.2868 27.4775 17.3319 27.5442 18.156 29.0246C18.6324 29.8782 19.0766 30.6318 19.1475 30.6985C19.2762 30.8185 19.5337 30.8518 19.7269 30.7785C19.7784 30.7585 20.1518 30.3184 20.551 29.8115C21.1948 28.978 21.2914 28.8846 21.4394 28.9113C21.8901 29.0113 23.7057 29.2847 23.8795 29.2847C24.1435 29.2847 24.401 29.0246 24.401 28.7646C24.401 28.6445 23.9761 27.811 23.1391 26.3105L21.8772 24.0499L22.0124 23.8165C22.2828 23.3697 22.7206 22.3761 22.8816 21.8626C23.4288 20.1287 23.4031 18.0281 22.8172 16.3343C21.8451 13.5135 19.5016 11.4062 16.6816 10.8127C15.9219 10.6527 14.718 10.5927 14.0227 10.686ZM15.7739 11.813C17.422 12.0197 18.832 12.7199 20.0102 13.9069C22.9395 16.8545 22.9073 21.6759 19.9265 24.6034C18.2397 26.2705 15.8704 26.9841 13.6171 26.5106C9.51597 25.6503 6.95358 21.3424 8.08669 17.2279C8.60819 15.3407 9.80568 13.7469 11.4603 12.7466C12.735 11.9797 14.3253 11.633 15.7739 11.813ZM10.0954 26.1371C10.3594 26.3372 10.81 26.6306 11.1062 26.7907L11.6406 27.0841L11.0482 28.1511C10.7263 28.7379 10.4495 29.218 10.4302 29.2114C10.4109 29.2114 10.1662 28.9113 9.88294 28.5445C9.59966 28.1711 9.31638 27.8443 9.25844 27.811C9.09749 27.7243 8.74982 27.7376 7.93862 27.871L7.21754 27.9977L7.42356 27.6176C7.53945 27.4108 7.90643 26.744 8.24121 26.1371L8.85284 25.0368L9.23913 25.4036C9.45158 25.6103 9.83787 25.9371 10.0954 26.1371ZM22.5854 27.6242L22.785 27.9977L22.0639 27.871C21.6712 27.811 21.2077 27.7509 21.0403 27.7509H20.7377L20.1518 28.4912C19.8235 28.8979 19.5531 29.218 19.5402 29.2047C19.5337 29.1914 19.2633 28.7112 18.9414 28.1311L18.3556 27.0841L18.7547 26.8774C19.3149 26.5839 20.1711 25.9638 20.6991 25.4636L21.1433 25.0368L21.7614 26.1438C22.1026 26.7507 22.4696 27.4175 22.5854 27.6242Z"/>
<path d="M13.9061 14.0554C12.3352 14.4088 10.9576 15.5757 10.3073 17.1159C9.9082 18.0428 9.79875 19.423 10.037 20.4499C10.597 22.8436 12.6121 24.4839 15.0005 24.4839C16.0499 24.4839 16.9254 24.2172 17.7945 23.6371C19.5391 22.4702 20.4147 20.2565 19.9833 18.0961C19.5842 16.0958 18.0134 14.4688 16.082 14.0554C15.4833 13.9287 14.4726 13.9287 13.9061 14.0554ZM15.9919 15.2156C16.2687 15.289 16.6679 15.4423 16.8868 15.5623C17.4147 15.8491 18.2516 16.7159 18.5284 17.2626C19.1336 18.4562 19.1336 19.9831 18.5284 21.17C18.2451 21.7234 17.4082 22.5902 16.8868 22.8703C15.728 23.497 14.2666 23.497 13.1142 22.8703C12.5863 22.5836 11.7494 21.7167 11.4726 21.17C11.1893 20.6165 11.0091 19.8431 11.0091 19.2163C11.0091 18.5895 11.1893 17.8161 11.4726 17.2626C11.7494 16.7159 12.5863 15.8491 13.1142 15.5623C13.9769 15.0956 15.0456 14.9622 15.9919 15.2156Z"/>
<path d="M15.4507 18.916L14.1953 20.2162L13.8219 19.5561C13.558 19.0827 13.4035 18.876 13.2683 18.8226C12.9271 18.6759 12.5923 18.8693 12.5215 19.256C12.4893 19.416 12.5794 19.6294 13.0365 20.4496C13.3455 20.9963 13.6417 21.5031 13.6932 21.5631C13.7576 21.6431 13.8928 21.6831 14.0601 21.6831C14.3177 21.6831 14.3563 21.6564 15.882 20.0628C16.7318 19.176 17.4529 18.3825 17.4722 18.3092C17.5237 18.1358 17.4142 17.8224 17.2662 17.7091C17.2082 17.6557 17.0537 17.6157 16.9314 17.6157C16.7254 17.6157 16.6095 17.7157 15.4507 18.916Z"/>
</svg>
