<svg width="30" height="31" viewBox="0 0 30 31">
<path d="M1.70682 0.973476C1.54344 1.07025 1.41031 1.21541 1.33164 1.38477C1.21061 1.63275 1.20456 1.74162 1.20456 3.82227V6.00573L0.593378 7.39081C0.00639858 8.72751 -0.0178068 8.78799 0.00639857 9.1388C0.0366553 9.64686 0.19399 9.85251 0.762816 10.1186L1.20456 10.3303V20.165V29.9997L1.33164 30.2598C1.41636 30.4352 1.54344 30.5743 1.71288 30.6711L1.97308 30.8223L12.9805 30.8102L23.9879 30.792L24.1875 30.6529C24.2965 30.5743 24.4357 30.4049 24.5022 30.2779C24.6172 30.0481 24.6232 29.9029 24.6232 25.409V20.7819L25.0529 20.0259C25.4402 19.3545 25.5007 19.2698 25.6459 19.2698C25.7367 19.2698 25.8577 19.2336 25.9061 19.1973C25.9606 19.1549 26.6262 18.042 27.3827 16.7295C28.133 15.417 28.7866 14.3041 28.835 14.2557C28.9015 14.1832 28.9197 14.1952 28.956 14.3344C28.9742 14.419 28.9802 14.5461 28.9621 14.6065C28.9499 14.6731 28.3993 15.6529 27.7397 16.79C26.4628 19.0037 26.4023 19.1428 26.6746 19.409C26.8501 19.5904 27.2616 19.5904 27.4069 19.409C27.4613 19.3364 28.0665 18.3202 28.7442 17.1408L29.9787 15.0057L29.9968 14.5823C30.0331 13.8928 29.8032 13.4997 29.1254 13.1247C28.9136 13.0037 28.726 12.8888 28.7079 12.8586C28.6897 12.8344 28.7745 12.6287 28.8894 12.4049C29.1254 11.9634 29.1496 11.7033 29.0105 11.3646C28.8773 11.0561 28.7745 10.9533 28.3509 10.7174C27.891 10.4634 27.6671 10.415 27.3524 10.4997C27.0317 10.5844 26.7896 10.7961 26.5597 11.1952L26.3721 11.5219L26.1663 11.4251C26.009 11.3525 25.9122 11.3404 25.7609 11.3827C25.5854 11.4311 25.5007 11.54 25.1073 12.2174L24.6535 12.9977L24.6232 8.89081C24.593 4.79001 24.593 4.78396 24.4599 4.57227C24.2723 4.26985 21.0045 1.04001 20.7685 0.919041C20.5931 0.834364 19.7035 0.822266 11.2679 0.822266H1.96098L1.70682 0.973476ZM19.9637 3.22348C19.9637 4.02186 19.994 4.76582 20.0242 4.88678C20.0605 5.00775 20.1695 5.1771 20.2723 5.26178L20.4599 5.41904H22.0272H23.5945V10.1247V14.8303L22.9531 15.9372C22.4024 16.8989 22.3177 17.0743 22.3479 17.2376C22.3721 17.3404 22.3964 17.4674 22.4024 17.5219C22.4085 17.5702 21.5552 19.0884 20.5144 20.8969L18.6203 24.1811L18.6627 25.3182C18.6869 25.9473 18.6869 26.4856 18.6687 26.5158C18.6445 26.5521 18.4811 26.5279 18.2572 26.4553C18.0394 26.3827 17.6218 26.3223 17.283 26.3041C16.5084 26.2618 16.0848 26.3707 15.3465 26.8182C14.5901 27.2779 14.4388 27.3263 13.9729 27.2477C13.5009 27.1751 13.2951 27.0844 12.7263 26.7336C11.8973 26.2134 11.3224 26.0985 10.3723 26.2436C9.53726 26.3767 8.40566 26.7033 8.24227 26.8666C7.94575 27.163 8.1636 27.7376 8.57509 27.7376C8.67192 27.7376 8.93817 27.6711 9.18023 27.5924C10.1847 27.2477 11.1832 27.1388 11.6129 27.3142C11.7278 27.3626 12.0304 27.5259 12.2785 27.6832C12.8473 28.034 13.283 28.1973 13.8579 28.2698C14.6083 28.3727 14.9714 28.2759 15.8428 27.7436C16.1272 27.5743 16.466 27.4049 16.5992 27.3686C16.9925 27.2598 17.6884 27.3384 18.2633 27.5501C18.5477 27.6529 18.8321 27.7376 18.9047 27.7376C19.0984 27.7376 19.2739 27.5803 19.4493 27.2658C19.5946 26.9936 19.649 26.9573 20.6173 26.4674L21.6278 25.9533L22.596 24.284L23.5643 22.6086L23.5824 26.159C23.5885 28.1065 23.5824 29.7396 23.5643 29.7819C23.5461 29.8424 21.3797 29.8545 12.9018 29.8424L2.26355 29.8243V20.2376V10.6569L2.46929 10.6146C2.7295 10.5602 2.9534 10.3969 3.13494 10.1247L3.27412 9.90694L3.52223 10.0158C3.80664 10.1428 3.82479 10.1731 3.92767 10.669C4.00633 11.044 4.00633 11.0501 3.80059 11.4493C3.6251 11.794 3.59484 11.915 3.60089 12.2477C3.60694 12.9069 3.98818 13.4452 4.56306 13.5965C4.81116 13.663 4.82932 13.6872 4.87167 13.911C4.92614 14.2557 5.09557 14.5642 5.33158 14.7638C5.6523 15.036 5.89435 15.1086 6.39056 15.0904C6.78995 15.0723 6.83836 15.0844 6.92308 15.2053C6.97754 15.2779 7.14698 15.411 7.30431 15.5017C7.52821 15.6348 7.67344 15.6711 8.00627 15.6832C8.3996 15.6952 8.42986 15.7073 8.59325 15.9069C9.0713 16.4815 10.0758 16.5541 10.6204 16.0521C10.7536 15.9372 10.7536 15.9372 11.0077 16.0642C11.3466 16.2396 11.9336 16.2396 12.2664 16.0702C12.569 15.913 12.9018 15.5319 12.9926 15.2235C13.0591 15.0057 13.0833 14.9876 13.3617 14.9513C13.7611 14.8969 14.1544 14.6247 14.3541 14.2557C14.4449 14.0924 14.5175 13.9049 14.5175 13.8384C14.5175 13.7416 14.5659 13.6993 14.7475 13.669C15.4434 13.542 15.9093 13.0037 15.9093 12.3202C15.9093 12.042 15.9275 12.0057 16.0848 11.9271C16.3995 11.7577 16.6899 11.3586 16.7686 10.9654C16.8412 10.6207 16.8533 10.6025 17.1075 10.4936C17.2527 10.4271 17.3919 10.3787 17.41 10.3787C17.4343 10.3787 17.5129 10.4876 17.5855 10.6146C17.7489 10.9049 18.1362 11.1045 18.5174 11.1045C18.699 11.1045 19.0379 11.0017 19.5643 10.784C20.5204 10.4029 20.6959 10.2275 20.7322 9.66501C20.7564 9.3384 20.6959 9.16904 19.5099 6.1146C18.6445 3.89485 18.2149 2.86057 18.106 2.74565C17.8881 2.52186 17.4827 2.37065 17.1983 2.41299C16.9259 2.44928 15.7822 2.88477 15.4978 3.06017C15.1226 3.29001 14.9532 3.95533 15.1468 4.42106L15.2376 4.63275L14.9774 4.78396C14.5357 5.04404 14.4449 5.03799 13.519 4.68719L12.6719 4.36662L11.9154 4.36057C11.2074 4.36057 11.1348 4.37267 10.7657 4.53598C10.2937 4.74162 10.1787 4.74767 9.70669 4.57227C9.22864 4.39082 8.47222 4.39082 7.6795 4.56622C6.89887 4.74162 6.63261 4.72952 6.14246 4.51178C5.92461 4.40896 5.74307 4.31823 5.74307 4.30614C5.74307 4.29404 5.78543 4.18517 5.83384 4.07025C6.01538 3.62872 5.91856 3.12065 5.58573 2.80614C5.48891 2.71541 5.09557 2.50977 4.70829 2.34041C3.8611 1.97146 3.52223 1.94122 3.10468 2.18315C2.84448 2.33436 2.80817 2.3888 2.36642 3.36259L2.24539 3.63477L2.23934 2.7517C2.23329 2.26783 2.25145 1.85049 2.27565 1.83235C2.2938 1.80815 6.28769 1.79001 11.1409 1.79001H19.9637V3.22348ZM21.9607 3.5138L22.8986 4.4513H21.9425H20.9924V3.5138C20.9924 2.99969 20.9985 2.5763 21.0106 2.5763C21.0166 2.5763 21.4463 2.99969 21.9607 3.5138ZM4.32705 3.30815C4.64172 3.44727 4.89588 3.56823 4.89588 3.58033C4.89588 3.60452 2.46324 9.10856 2.2938 9.47751L2.22119 9.64081L1.63421 9.37469C1.21061 9.18114 1.05328 9.08436 1.05933 9.00573C1.06538 8.84848 3.6372 3.06017 3.70377 3.06017C3.73402 3.06017 4.01238 3.17509 4.32705 3.30815ZM17.3616 3.44727C17.3616 3.45936 17.8942 4.8384 18.5416 6.50775C19.1891 8.1771 19.7217 9.56219 19.7217 9.58638C19.7217 9.63477 18.5114 10.0944 18.4751 10.0582C18.4025 9.98557 16.0909 3.94323 16.1272 3.91299C16.1635 3.8767 17.2346 3.44122 17.3193 3.42912C17.3435 3.42307 17.3616 3.43517 17.3616 3.44727ZM5.77938 5.49162C6.29979 5.7396 6.95333 5.78799 7.63108 5.63678C8.36935 5.47348 8.78084 5.41904 9.02894 5.46138L9.25889 5.49767L9.08946 5.67307C8.77479 6.00573 8.01837 6.61057 7.43744 6.98557C6.64472 7.50573 6.59025 7.56622 6.59025 7.87469C6.59025 8.35251 7.2559 9.00573 7.97601 9.22952C8.70217 9.45936 9.37387 9.36259 10.7052 8.84848C11.5645 8.51581 11.9517 8.42509 12.2241 8.50372C12.5085 8.5884 15.4252 10.2517 15.6249 10.4452C15.7157 10.536 15.7883 10.6509 15.7883 10.6993C15.7883 10.8505 15.5765 11.0561 15.4192 11.0561C15.3405 11.0561 14.7596 10.7719 14.1363 10.415C13.3012 9.94928 12.9381 9.77388 12.7868 9.77388C12.4237 9.77388 12.1877 10.1489 12.3511 10.4815C12.4116 10.6086 12.7021 10.8021 13.519 11.2678C14.8624 12.0239 14.8806 12.036 14.8806 12.2416C14.8806 12.4412 14.8322 12.5138 14.6567 12.6106C14.4933 12.6952 14.4751 12.6832 12.7021 11.6852C11.3648 10.9231 11.1711 10.8626 10.9049 11.1166C10.7475 11.2618 10.7173 11.6126 10.8443 11.7759C10.8867 11.8303 11.4616 12.1811 12.1272 12.5561C12.7929 12.9311 13.3738 13.2759 13.4162 13.3303C13.5917 13.5602 13.4162 13.9473 13.1318 13.9473C13.0107 13.9473 11.4434 13.0582 11.2498 12.8827C11.0198 12.6711 10.5841 12.4957 10.2755 12.4957C10.0214 12.4957 9.99111 12.4775 9.81562 12.2356C9.57962 11.9029 9.10156 11.6489 8.70822 11.6489C8.44196 11.6489 8.41171 11.6307 8.23622 11.3827C8.01837 11.0803 7.52821 10.8021 7.21354 10.8021C7.03805 10.8021 7.00175 10.7719 6.86256 10.4997C6.67497 10.1247 6.33005 9.8646 5.8883 9.76783C5.60994 9.70735 5.50706 9.70735 5.19845 9.79202C4.7567 9.91904 4.79301 9.91904 4.75065 9.75573C4.70224 9.54404 4.39967 9.27186 4.03659 9.10856C3.8611 9.02993 3.70982 8.95735 3.69771 8.9513C3.66746 8.93315 5.28922 5.29807 5.32552 5.29807C5.34973 5.29807 5.55548 5.3888 5.77938 5.49162ZM12.7929 5.53396C13.0591 5.63073 13.4404 5.76985 13.6401 5.84848C14.1907 6.05412 14.7596 6.04202 15.2316 5.81823C15.4373 5.72146 15.6128 5.64888 15.6249 5.66702C15.6733 5.72146 17.0712 9.36259 17.047 9.38073C17.0409 9.39283 16.8836 9.45936 16.7081 9.5259C16.3934 9.65291 16.3813 9.65291 16.224 9.54404C16.1332 9.48356 15.3102 9.00573 14.3904 8.47952C13.0107 7.69323 12.6658 7.52388 12.3693 7.47549C11.8791 7.39686 11.3708 7.48759 10.5841 7.79001C9.53726 8.1892 9.08341 8.32227 8.75058 8.32227C8.45407 8.32227 7.97601 8.15896 7.9034 8.03799C7.88524 8.00775 8.11519 7.80815 8.41171 7.59646C8.70822 7.39081 9.21654 6.97348 9.53726 6.6771C9.85798 6.37469 10.2634 6.02388 10.445 5.89081C11.1893 5.32831 11.9094 5.21944 12.7929 5.53396ZM5.82779 10.8686C5.91856 10.9412 5.98512 11.0501 5.98512 11.1408C5.98512 11.2799 5.59178 12.036 5.30737 12.4473C5.11373 12.7255 4.73249 12.6529 4.62357 12.3142C4.57516 12.163 5.19845 10.9715 5.39814 10.8323C5.56758 10.7114 5.63414 10.7174 5.82779 10.8686ZM27.8728 11.6489L28.0665 11.7638L27.9152 12.042C27.8305 12.1932 27.7518 12.3142 27.7397 12.3142C27.6973 12.3142 27.2858 12.0602 27.2858 12.036C27.2858 11.9755 27.5944 11.5279 27.6368 11.5279C27.661 11.5279 27.7639 11.5823 27.8728 11.6489ZM7.26195 11.8969C7.32852 11.9271 7.40719 12.0239 7.43744 12.1025C7.48585 12.2295 7.41929 12.3928 7.04411 13.1126C6.796 13.5844 6.56 13.9896 6.51764 14.0198C6.35425 14.1166 6.11825 14.0682 5.99117 13.911C5.91856 13.8202 5.86409 13.7174 5.86409 13.6811C5.86409 13.6146 6.72944 12.0541 6.84441 11.9029C6.92308 11.8122 7.10462 11.8061 7.26195 11.8969ZM27.9091 13.6932C27.891 13.7658 25.4704 17.9573 25.422 18.0057C25.3615 18.0662 23.6248 17.044 23.6248 16.9533C23.6248 16.9049 24.1815 15.9069 24.8653 14.7275L26.0998 12.5803L27.0135 13.1126C27.5097 13.4029 27.9152 13.669 27.9091 13.6932ZM8.97448 12.8767L9.10156 13.0461L8.71427 13.8021C8.50248 14.2194 8.27253 14.5884 8.21201 14.6186C8.04258 14.7094 7.81868 14.6368 7.7037 14.4614C7.61293 14.3162 7.61898 14.286 7.98206 13.5723C8.18781 13.161 8.40566 12.792 8.46012 12.7497C8.60535 12.6348 8.8353 12.6892 8.97448 12.8767ZM10.5055 13.6569C10.5841 13.7295 10.6447 13.8505 10.6447 13.9231C10.6447 14.0622 10.1 15.1207 9.94875 15.2719C9.76116 15.4654 9.31336 15.284 9.31336 15.0178C9.31336 14.8787 9.9548 13.6388 10.0637 13.5723C10.1847 13.4876 10.3602 13.5239 10.5055 13.6569ZM11.8791 14.5219C12.0667 14.6912 12.0788 14.8485 11.9275 15.036C11.8065 15.1872 11.5463 15.2174 11.4071 15.0965C11.3285 15.036 11.3406 14.9815 11.4797 14.6973C11.5645 14.5158 11.6552 14.3707 11.6794 14.3707C11.6976 14.3707 11.7884 14.4372 11.8791 14.5219ZM23.9879 18.4412C24.2904 18.6227 24.5264 18.792 24.5204 18.8223C24.5143 18.8525 23.6913 20.2981 22.6868 22.04L20.8533 25.2033L20.3147 25.4755C20.0121 25.6267 19.758 25.7356 19.7459 25.7235C19.7277 25.7114 19.7035 25.4271 19.6793 25.0944L19.643 24.4957L21.4826 21.3082C22.4932 19.5541 23.3525 18.1207 23.3827 18.1207C23.419 18.1207 23.6913 18.2658 23.9879 18.4412Z"/>
<path d="M16.9935 13.8181C16.7999 13.9754 16.7938 14.3746 16.9875 14.5621C17.1266 14.7012 17.1266 14.7012 19.2143 14.7012H21.3081L21.4533 14.5318C21.6288 14.3262 21.6409 14.0721 21.4715 13.8604L21.3505 13.7032H19.2386C17.2658 13.7032 17.1266 13.7092 16.9935 13.8181Z"/>
<path d="M4.61073 16.9536C4.42314 16.9899 4.22949 17.256 4.22949 17.4677C4.22949 17.5705 4.29001 17.7036 4.38078 17.7882L4.52601 17.9395H12.538H20.55L20.677 17.8003C20.8646 17.6007 20.8525 17.2741 20.6528 17.0866L20.4955 16.9415L12.6227 16.9354C8.28994 16.9294 4.68334 16.9415 4.61073 16.9536Z"/>
<path d="M4.55073 20.2369C4.33893 20.3215 4.21185 20.5695 4.25421 20.8115C4.33288 21.2348 3.77615 21.2046 11.8123 21.2046H19.0618L19.2071 21.0534C19.4612 20.8054 19.3947 20.4183 19.0739 20.249C18.9166 20.1582 4.76252 20.1522 4.55073 20.2369Z"/>
<path d="M4.39988 23.6233C4.24254 23.7866 4.21834 23.841 4.24859 24.0346C4.32726 24.5063 3.78264 24.4701 10.899 24.4701H17.2469L17.3921 24.3188C17.5434 24.1737 17.5857 23.9257 17.5071 23.714C17.3982 23.4358 17.5192 23.4418 10.8567 23.4418H4.58142L4.39988 23.6233Z"/>
<path d="M3.75764 3.58164C3.66082 3.64818 3.62451 3.73285 3.62451 3.90826C3.62451 4.08366 3.66082 4.16834 3.75764 4.23487C4.06626 4.45261 4.41119 4.27721 4.41119 3.90826C4.41119 3.65423 4.25385 3.48487 4.01785 3.48487C3.95128 3.48487 3.83026 3.52721 3.75764 3.58164Z"/>
<path d="M16.6537 4.00384C16.3814 4.27602 16.5629 4.69336 16.9502 4.69336C17.3375 4.69336 17.5069 4.20949 17.2043 3.9736C16.9925 3.80425 16.8473 3.81634 16.6537 4.00384Z"/>
</svg>
