<svg width="30" height="31" viewBox="0 0 30 31">
<path d="M0.868589 1.05679C0.55218 1.19742 0.382256 1.34977 0.171316 1.66618L0.0189705 1.90055L0.00139223 15.8109C-0.00446721 25.6664 0.00725167 29.7856 0.0541272 29.9556C0.136159 30.2661 0.65179 30.7817 0.96234 30.8696C1.12055 30.9165 4.28464 30.9341 11.5386 30.9341H21.8805L22.1911 30.7817C22.5661 30.5942 22.8708 30.2075 22.9587 29.7915C23.0056 29.5923 23.0173 28.6255 23.0056 26.8501C22.988 24.266 22.9821 24.1957 22.8649 24.0785C22.8005 24.0141 22.6481 23.9438 22.5309 23.9203C22.3493 23.891 22.2966 23.9145 22.1384 24.0668L21.9626 24.2426V26.8618C21.9626 29.6157 21.9509 29.7446 21.6989 29.8442C21.6462 29.8618 17.0348 29.8794 11.4507 29.8794H1.29633L1.17328 29.7446L1.04437 29.6098V15.9281V2.2404L1.17914 2.11735L1.31391 1.98845H11.4566C17.0348 1.98845 21.6462 2.00602 21.6989 2.0236C21.9626 2.12907 21.9626 2.09978 21.9626 7.20335V12.0198L22.1384 12.1956C22.2966 12.3479 22.3493 12.3714 22.5309 12.3421C22.6481 12.3186 22.8005 12.2483 22.8649 12.1839C22.988 12.0667 22.988 12.0315 22.988 7.03928C22.988 2.18767 22.9821 2.01188 22.8766 1.78922C22.7243 1.48453 22.4137 1.17984 22.1149 1.04507C21.8864 0.939606 21.4938 0.933746 11.5035 0.933746C1.19086 0.933746 1.13226 0.939606 0.868589 1.05679Z"/>
<path d="M4.63972 4.06353L4.47566 4.20416L4.45808 5.31745C4.43464 6.55379 4.48737 6.80575 4.76863 6.91122C5.00301 6.99911 18.0696 6.99325 18.2336 6.8995C18.427 6.79989 18.5032 6.67098 18.5032 6.44246C18.5032 6.21394 18.427 6.08504 18.2336 5.98543C18.1399 5.93269 16.4816 5.91511 11.8058 5.91511H5.50106V5.44636V4.9776L11.8644 4.96588L18.2278 4.9483L18.3684 4.78424C18.5618 4.56158 18.5559 4.28033 18.3567 4.07525L18.1985 3.9229H11.5011H4.80378L4.63972 4.06353Z"/>
<path d="M27.9806 6.99089C27.6466 7.11394 27.3595 7.36004 27.1252 7.73504C26.9377 8.03387 26.8966 8.06903 26.7619 8.03973C26.5978 8.01044 26.3751 8.09833 26.258 8.25068C26.2169 8.30341 25.9123 8.80732 25.5841 9.37569L24.9806 10.4128L24.7169 10.2722C24.5704 10.196 24.3654 10.1316 24.2657 10.1316C23.9435 10.1316 23.715 10.4655 23.8029 10.8054C23.838 10.9343 24.2013 11.2566 24.3771 11.3152C24.4122 11.3269 23.4923 12.9851 22.3263 14.9949L20.2169 18.657L19.6895 20.0633C19.3966 20.8368 19.0098 21.7567 18.8223 22.1141C18.5001 22.7176 18.4825 22.7821 18.4766 23.1688C18.4766 23.4676 18.5059 23.6434 18.5938 23.8133L18.7169 24.0477L18.2188 24.663C17.9493 25.0028 17.709 25.3016 17.6856 25.3251C17.6622 25.3485 17.5743 25.1845 17.4864 24.9559C17.211 24.2587 16.9297 24.0184 16.3848 24.0184C16.0332 24.0184 15.7754 24.1473 15.5703 24.4227C15.5 24.5223 15.4239 24.5868 15.4004 24.5751C15.377 24.5575 15.3418 24.2645 15.3184 23.9188C15.2188 22.454 15.125 22.1961 14.6153 21.9618C14.3223 21.827 14.1172 21.8211 13.8301 21.9442C13.3672 22.1317 13.3438 22.1903 12.623 24.3641C12.1484 25.7938 11.9609 26.4384 11.9844 26.5556C12.0547 26.8954 12.5469 27.0712 12.8164 26.8427C12.9043 26.7724 13.1211 26.1981 13.5488 24.9266C14.2344 22.8758 14.1641 22.9286 14.2871 24.3524C14.3516 25.1259 14.4043 25.3251 14.5977 25.5302C15.0547 26.0224 15.8457 25.9579 16.2266 25.3954C16.3028 25.2841 16.3789 25.1903 16.3965 25.1903C16.4141 25.1903 16.4903 25.3544 16.5664 25.5536C16.8184 26.2274 17.1172 26.4794 17.6563 26.4794C18.1192 26.4794 18.2833 26.3446 19.1505 25.2431L19.5899 24.6805H19.9708C20.6856 24.6805 21.0079 24.4462 21.5938 23.5028C21.7813 23.2098 22.338 22.4774 22.8243 21.8856L23.7208 20.8075L25.8419 17.1219C27.0021 15.1004 27.9689 13.4304 27.9806 13.4128C28.0217 13.366 28.4201 13.6121 28.5373 13.7585C28.6135 13.8582 28.6428 13.9636 28.6193 14.0632C28.6017 14.1511 28.1154 15.0418 27.5353 16.0496C26.6212 17.6316 26.4865 17.907 26.5158 18.0652C26.5802 18.4461 27.0607 18.6453 27.342 18.4109C27.4474 18.3172 29.1525 15.4226 29.5217 14.7019C29.6271 14.5086 29.6623 14.3386 29.6623 14.0574C29.6623 13.4304 29.4045 13.0085 28.8127 12.6394L28.5256 12.4636L28.7131 12.1355C28.8185 11.948 29.1056 11.4441 29.3576 11.0105C29.6154 10.5652 29.8146 10.155 29.8146 10.0671C29.8146 9.97921 29.7678 9.8503 29.7033 9.77413C29.5978 9.63936 29.5978 9.6335 29.7912 9.2292C30.0549 8.69013 30.0666 8.19794 29.8381 7.7409C29.5099 7.07879 28.6779 6.7448 27.9806 6.99089ZM28.8361 8.1452C28.8888 8.21552 28.9357 8.33271 28.9357 8.41474C28.9357 8.59052 28.7248 9.01826 28.6369 9.01826C28.5783 9.01826 27.9748 8.70185 27.881 8.62568C27.8341 8.58466 28.0802 8.18622 28.2267 8.06903C28.4084 7.92841 28.6838 7.96356 28.8361 8.1452ZM27.7521 9.77999C28.174 10.0202 28.5197 10.2487 28.508 10.2839C28.4728 10.448 27.6115 11.8835 27.5529 11.8718C27.3888 11.8367 25.9474 10.9753 25.965 10.9167C26.0001 10.7527 26.8615 9.31709 26.9201 9.32881C26.9494 9.33467 27.3244 9.53975 27.7521 9.77999ZM26.258 12.3816L27.0607 12.8445L26.9494 13.0261C26.8908 13.1257 26.0001 14.655 24.9806 16.4305C23.9611 18.2 23.1114 19.6649 23.0997 19.6766C23.0528 19.7293 21.4649 18.7567 21.4825 18.6863C21.5118 18.5516 25.379 11.8835 25.4201 11.9011C25.4376 11.9128 25.8185 12.1296 26.258 12.3816ZM21.6466 20.1102C21.9981 20.3153 22.3263 20.5086 22.379 20.5379C22.461 20.5848 22.3849 20.7078 21.8692 21.3231C21.5294 21.7274 21.2364 22.0555 21.213 22.0555C21.1134 22.0555 20.3223 21.5809 20.3223 21.5223C20.3223 21.4813 20.4571 21.1004 20.6153 20.6727C20.7794 20.2391 20.92 19.8524 20.9376 19.8114C20.9493 19.7762 20.9727 19.741 20.9845 19.741C21.002 19.741 21.295 19.9051 21.6466 20.1102ZM20.5567 22.9637C20.6329 23.0106 20.6329 23.0399 20.5333 23.2215C20.3751 23.5145 20.2345 23.6258 20.0177 23.6258C19.8126 23.6258 19.5606 23.3915 19.5606 23.1922C19.5606 23.0751 19.6954 22.7704 19.8067 22.6297C19.8595 22.5594 19.9708 22.6063 20.5567 22.9637Z"/>
<path d="M6.13522 8.07736C5.8774 8.33518 5.93014 8.75706 6.24069 8.89769C6.43405 8.98558 16.5885 8.99144 16.7584 8.89769C16.94 8.79808 17.0514 8.48167 16.9752 8.26487C16.8463 7.88986 17.0865 7.90744 11.4439 7.90744H6.30514L6.13522 8.07736Z"/>
<path d="M8.18942 11.499C7.9316 11.6982 7.90817 12.1201 8.14254 12.3369C8.25973 12.4423 8.47067 12.4482 13.9024 12.4658C18.1505 12.4775 19.5743 12.4599 19.7032 12.4072C19.8966 12.331 20.0548 12.0087 19.9962 11.8154C19.9786 11.7451 19.9024 11.6279 19.838 11.5517L19.7208 11.4228H14.002C9.59569 11.4286 8.25973 11.4404 8.18942 11.499Z"/>
<path d="M3.64014 14.5513C3.41162 14.7505 3.41162 15.1255 3.64014 15.3247L3.8042 15.4653H8.98395H14.1637L14.3278 15.3247C14.5563 15.1255 14.5563 14.7505 14.3278 14.5513L14.1637 14.4106H8.98395H3.8042L3.64014 14.5513Z"/>
<path d="M15.627 14.5806C15.5098 14.6977 15.457 14.8091 15.457 14.938C15.457 15.0669 15.5098 15.1782 15.627 15.2954L15.7969 15.4653H17.7364H19.67L19.834 15.3247C19.9629 15.2134 19.9981 15.1372 19.9981 14.938C19.9981 14.7388 19.9629 14.6626 19.834 14.5513L19.67 14.4106H17.7364H15.7969L15.627 14.5806Z"/>
<path d="M3.64087 17.0575C3.46508 17.2509 3.42993 17.4208 3.52954 17.6552C3.6643 17.9833 3.75219 17.9892 6.62332 17.9716L9.18975 17.954L9.3421 17.8017C9.54132 17.5966 9.55304 17.2743 9.35968 17.0692L9.23077 16.9286H6.49441H3.75805L3.64087 17.0575Z"/>
<path d="M10.6216 17.0747C10.4165 17.2739 10.4224 17.6196 10.6275 17.813L10.7798 17.9536H12.731H14.6822L14.8346 17.813C15.0514 17.6079 15.0514 17.2212 14.8346 17.0513C14.6822 16.9341 14.6119 16.9282 12.7193 16.9282H10.7622L10.6216 17.0747Z"/>
<path d="M5.61918 20.4574C3.53322 20.7504 1.98047 22.5492 1.98047 24.6586C1.98047 25.4145 2.10352 25.936 2.41407 26.5688C2.8711 27.4829 3.43947 28.0512 4.35354 28.5083C4.98636 28.8188 5.50785 28.9419 6.26372 28.9419C8.44343 28.9477 10.2013 27.3715 10.4767 25.1743C10.5294 24.7582 10.5235 24.6293 10.4532 24.4653C10.3126 24.1196 9.8497 24.061 9.58602 24.3481C9.52743 24.4184 9.46883 24.6528 9.43368 24.9633C9.28719 26.1469 8.64265 27.0786 7.63483 27.5591C7.0606 27.8344 6.69146 27.9106 6.05864 27.8696C5.39066 27.8344 4.84574 27.6411 4.3301 27.2485C3.5508 26.6684 3.10548 25.8305 3.05275 24.8637C2.99415 23.9086 3.29884 23.1059 3.96682 22.4438C5.06253 21.348 6.62701 21.1723 7.98054 21.9926C8.41413 22.2504 8.61336 22.2621 8.84187 22.0336C9.21688 21.6586 8.99422 21.2953 8.13288 20.8617C7.41217 20.5043 6.42192 20.3402 5.61918 20.4574Z"/>
<path d="M7.05134 24.1377L6.11383 25.0752L5.52203 24.4834C4.98296 23.9443 4.90679 23.8916 4.71343 23.8916C4.30913 23.8916 4.06889 24.2666 4.23881 24.6299C4.36772 24.8994 5.43414 25.9307 5.69195 26.042C5.96149 26.1533 6.26618 26.1533 6.52985 26.042C6.76423 25.9424 8.50448 24.2666 8.63925 24.0088C8.83847 23.622 8.61581 23.2002 8.20565 23.2002C8.01229 23.2002 7.91854 23.2822 7.05134 24.1377Z"/>
</svg>
