<svg width="30" height="31" viewBox="0 0 30 31">
<path d="M0.097561 0.194149C0.0121951 0.315607 0 1.82775 0 15.0727C0 29.7387 0 29.8176 0.121951 29.9391C0.243902 30.0605 0.323171 30.0605 12.1524 30.0605C23.6159 30.0605 24.0732 30.0545 24.1646 29.9512C24.2622 29.848 24.2683 29.3804 24.2683 24.4614C24.2683 21.5039 24.2866 18.9593 24.3049 18.8014L24.3476 18.5221H24.6829C25.1768 18.5221 25.4817 18.4067 25.7988 18.097C26.0122 17.8966 26.1098 17.7387 26.1829 17.4958C26.3049 17.0889 26.3049 16.9188 26.189 16.5423C26.1037 16.263 26.1098 16.2448 26.2317 16.1112L26.3598 15.9715L26.5061 16.184C26.7134 16.4937 27.0854 16.6638 27.5366 16.6699C27.8902 16.6699 27.939 16.6516 28.8476 16.1354C29.8476 15.5585 30 15.4371 30 15.2002C30 15.0605 25.9756 8.02209 25.628 7.54233C25.4268 7.26905 25.1524 7.27512 24.6768 7.56055C24.4817 7.67593 24.311 7.7731 24.2927 7.7731C24.2805 7.7731 24.2683 7.11115 24.2683 6.30346V4.82775L21.872 2.44719L19.4817 0.0605469H9.83537H0.189024L0.097561 0.194149ZM18.7805 3.09698C18.7805 5.20427 18.7866 5.28929 18.9024 5.40468C19.0183 5.52006 19.1037 5.52613 21.189 5.52613H23.3537V6.8986V8.27715L23.1159 8.53221C22.8293 8.84192 22.6951 9.31561 22.7927 9.66783L22.8537 9.89253L22.3963 10.0808L21.9451 10.269L21.6585 10.0869C21.1829 9.78929 20.8415 9.65569 20.5122 9.65569C20.0244 9.65569 18.3293 9.99577 17.9451 10.1719L17.6037 10.3237L17.1829 10.2265C16.6402 10.0929 16.122 10.1354 15.311 10.3784C14.9634 10.4816 14.5305 10.5848 14.3476 10.6031C14.0305 10.6456 14.0183 10.6395 13.1463 10.1415L12.2744 9.64354L12.2317 9.33383C12.1707 8.79941 11.9878 8.61723 10.8841 7.9735C10.3476 7.66379 9.84756 7.40872 9.77439 7.40872C9.70122 7.40872 9.57317 7.46945 9.4878 7.54233C9.40854 7.62127 8.51219 9.1152 7.5 10.8703C6.4878 12.6253 5.64024 14.0767 5.61585 14.101C5.59146 14.1253 5.21951 12.8197 4.78659 11.1921C3.89634 7.87026 3.87195 7.81561 3.29878 7.51804C2.75 7.23261 2.11585 7.29941 1.64634 7.69415C1.38415 7.9067 1.15854 8.3986 1.15854 8.73868C1.15854 8.90265 1.93902 11.9087 3.14024 16.3601L5.12195 23.7144L6.2439 25.9006C7.42683 28.2083 7.48171 28.2933 7.83537 28.2022C7.92073 28.178 8.03658 28.099 8.09146 28.0201C8.17683 27.8865 8.17683 27.6496 8.05488 25.3784L7.92683 22.8885L7.04268 19.6031C6.55488 17.7994 6.15854 16.2994 6.15854 16.2751C6.15854 16.2508 6.37195 16.348 6.62805 16.4937C7.04268 16.7306 7.14634 16.761 7.46951 16.761C7.82317 16.761 8.02439 16.6941 8.39024 16.4573C8.51219 16.3844 8.58537 16.4148 9.31098 16.8946L10.0976 17.4107L10.0732 17.6294C10.0366 17.9512 10.2134 18.4067 10.4756 18.6618C10.7012 18.8804 11.1098 19.0686 11.3659 19.0686C11.4573 19.0686 11.5244 19.1415 11.6037 19.3419C11.7927 19.7974 12.311 20.1618 12.7744 20.1618C12.8598 20.1618 12.939 20.2529 13.0488 20.4776C13.25 20.8905 13.561 21.1395 14.0061 21.2245C14.3171 21.2852 14.3598 21.3156 14.4024 21.4735C14.4695 21.7346 14.8049 22.1051 15.0854 22.2326C15.5854 22.4573 16.2988 22.3359 16.6402 21.9593C16.7256 21.8743 16.811 21.8014 16.8354 21.8014C16.8598 21.8014 17.1951 21.9836 17.5732 22.2022C17.9512 22.4269 18.3537 22.6456 18.4695 22.6941C18.7317 22.8035 19.378 22.8035 19.6463 22.6941C20.0915 22.5059 20.4756 22.0504 20.5732 21.5828C20.6159 21.3885 20.6159 21.3885 21.061 21.3642C21.4268 21.346 21.561 21.3095 21.8049 21.1638C22.1463 20.9512 22.4329 20.5322 22.4817 20.1739C22.5122 19.9431 22.5244 19.9249 22.6768 19.9553C22.7622 19.9735 22.9512 19.9614 23.0976 19.931L23.3537 19.8703V24.5403V29.2103H12.1341H0.914634V15.0605V0.910749H9.84756H18.7805V3.09698ZM21.2195 3.12735L22.7134 4.6152H21.2012H19.6951V3.12735C19.6951 2.30751 19.7012 1.63949 19.7134 1.63949C19.7195 1.63949 20.3963 2.30751 21.2195 3.12735ZM2.95122 8.39253C3.09146 8.51399 3.32317 9.32775 5 15.5707C6.04268 19.4452 6.87195 22.6334 6.84756 22.6577C6.79878 22.7063 5.85366 22.9553 5.85366 22.9249C5.85366 22.9128 5.0061 19.7427 3.96341 15.8743C2.92683 12.012 2.07317 8.79334 2.07317 8.73261C2.07317 8.66581 2.15244 8.53221 2.25 8.43504C2.46951 8.21642 2.73171 8.20427 2.95122 8.39253ZM26.9817 11.6962C28.0244 13.4877 28.878 14.9695 28.8841 14.9937C28.8963 15.012 28.5976 15.2063 28.2195 15.4188C27.5854 15.7893 27.5366 15.8075 27.3963 15.7225C27.25 15.6435 26.8354 14.9452 24.439 10.7913L23.6402 9.4067L23.7561 9.25488C23.8659 9.10913 24.8963 8.45326 25.0305 8.44719C25.0671 8.44111 25.9451 9.90468 26.9817 11.6962ZM10.7927 8.99982C11.0854 9.16986 11.2683 9.32168 11.2988 9.41277C11.3476 9.54638 11.122 9.9654 9.66463 12.4796C7.62805 16.0018 7.72561 15.85 7.53049 15.85C7.30488 15.85 6.14634 15.1759 6.17683 15.0605C6.19512 14.9937 8.01219 11.8298 9.92073 8.54435C9.93902 8.52006 10.0366 8.55042 10.1402 8.61723C10.25 8.67796 10.5427 8.85407 10.7927 8.99982ZM12.8354 11.0342C13.3049 11.3014 13.7378 11.5383 13.7988 11.5565C13.9695 11.6172 14.75 11.4897 15.5671 11.265C15.9756 11.1496 16.439 11.0525 16.5976 11.0525H16.878L16.7683 11.2771C16.622 11.5869 16.5427 12.0059 16.4329 13.0565C16.3841 13.5423 16.2866 14.1314 16.2195 14.3682C16.0854 14.848 16.1159 15.0605 16.3354 15.1759C16.4024 15.2124 16.7561 15.2427 17.122 15.2427C18.4695 15.2427 18.811 14.9877 19.4573 13.4998L19.5427 13.3055L22.2866 14.8844C23.7988 15.7529 25.0976 16.5302 25.1829 16.6091C25.4146 16.8399 25.3963 17.2043 25.1341 17.435C24.7866 17.7448 24.7378 17.7265 22.5305 16.4573C21.378 15.8014 20.4512 15.3035 20.3659 15.3035C20.1037 15.3035 19.939 15.4614 19.939 15.7225C19.939 15.8439 19.9756 15.9897 20.0183 16.0444C20.0549 16.0929 20.7988 16.5423 21.6707 17.0403C22.5549 17.5504 23.2927 18.0059 23.3415 18.0909C23.5 18.3278 23.4634 18.6193 23.25 18.8318C22.9207 19.1597 22.8171 19.1294 21.2439 18.2306C20.4756 17.7873 19.7866 17.429 19.7073 17.429C19.5244 17.429 19.2683 17.6901 19.2683 17.8662C19.2683 18.1213 19.439 18.261 20.4268 18.8318C20.9695 19.1354 21.4451 19.4452 21.4939 19.518C21.6524 19.7367 21.6098 20.0889 21.4085 20.2893C21.1037 20.5929 20.9207 20.5504 19.7744 19.8885C18.7317 19.2873 18.5 19.2144 18.2805 19.4148C18.2134 19.4755 18.1707 19.597 18.1707 19.7367C18.1707 20.0039 18.2805 20.1132 18.8598 20.435C19.0915 20.5626 19.3598 20.7326 19.4512 20.8116C19.8902 21.1759 19.6463 21.8561 19.0732 21.8622C18.9146 21.8622 18.6707 21.7589 18.189 21.4856C17.8293 21.2852 17.5061 21.0909 17.4756 21.0666C17.4451 21.0363 17.4878 20.933 17.5732 20.8176C17.8476 20.4533 17.9329 20.2286 17.9329 19.846C17.939 19.3601 17.7439 18.9836 17.372 18.7286L17.0915 18.5464L17.2622 18.2427C17.4024 18.0059 17.439 17.8723 17.439 17.5808C17.4329 16.7245 16.8049 16.1476 15.9634 16.2265C15.7439 16.2508 15.6707 16.2387 15.6707 16.1719C15.6707 16.0261 15.1463 15.5585 14.9024 15.4917C14.3598 15.3399 13.8537 15.4492 13.5 15.7954L13.3171 15.9715L13.1646 15.8136C12.9268 15.5585 12.5793 15.4128 12.1951 15.4067C11.6829 15.4067 11.3537 15.5828 10.9634 16.0808C10.7927 16.3055 10.628 16.512 10.6037 16.5423C10.5793 16.5727 10.1951 16.3601 9.7561 16.0686L8.95732 15.5464L9.07317 15.346C9.14024 15.2427 9.76219 14.1678 10.4573 12.9654C11.9268 10.4209 11.8841 10.4937 11.939 10.5241C11.9634 10.5423 12.3659 10.767 12.8354 11.0342ZM21.2012 10.9006C21.5061 11.0828 21.8171 11.2346 21.8902 11.2346C21.9634 11.2346 22.2927 11.1253 22.628 10.9856C22.9573 10.852 23.2622 10.7488 23.2927 10.761C23.3232 10.7731 23.9268 11.769 24.622 12.9776L25.8963 15.1699L25.6402 15.3824L25.3841 15.595L22.7988 14.1071C19.372 12.1334 19.3537 12.1273 19.189 12.1699C18.9451 12.2367 18.8963 12.3035 18.6585 12.9654C18.2439 14.095 18.0366 14.3318 17.4329 14.3318C17.1951 14.3318 17.1829 14.3257 17.2195 14.18C17.2378 14.101 17.2988 13.6273 17.3476 13.1294C17.4573 12.0605 17.561 11.6719 17.8171 11.3804C18.0976 11.0646 18.4085 10.9371 19.3293 10.7488C20.5244 10.5059 20.5488 10.5059 21.2012 10.9006ZM12.5366 16.5059C12.689 16.7002 12.622 16.8703 12.1951 17.4229C11.6707 18.097 11.5305 18.2002 11.2866 18.1031C11.0427 17.9998 10.9329 17.7812 11.0305 17.5747C11.1524 17.3075 11.9024 16.3905 12.0366 16.3358C12.189 16.2812 12.4268 16.3601 12.5366 16.5059ZM14.7256 16.4877C14.811 16.5666 14.878 16.6941 14.878 16.7731C14.878 16.9796 13.1463 19.178 12.9512 19.2265C12.6585 19.2994 12.372 19.014 12.4329 18.7043C12.4512 18.6132 13.7256 16.9553 14.0793 16.5605C14.3232 16.2933 14.5122 16.269 14.7256 16.4877ZM16.3841 17.2589C16.6524 17.5079 16.5915 17.6415 15.6341 18.8682C15.1402 19.4937 14.6707 20.0828 14.5854 20.1739C14.3963 20.3804 14.1768 20.3925 13.9817 20.2103C13.7134 19.9614 13.7744 19.8338 14.7561 18.5767C15.2622 17.9269 15.7439 17.3379 15.8293 17.2589C16.0244 17.0889 16.2012 17.0889 16.3841 17.2589ZM16.9024 19.5363C17.128 19.7367 17.0488 19.9735 16.5183 20.6537C16.25 20.9998 15.9817 21.3217 15.9268 21.3581C15.689 21.5464 15.2439 21.3338 15.2439 21.0363C15.2439 20.8966 15.8598 20.0342 16.2378 19.6273C16.4512 19.4087 16.7195 19.3662 16.9024 19.5363ZM7.09756 24.595L7.13415 25.597L6.68293 24.7164C6.43293 24.2306 6.2439 23.8237 6.2561 23.8116C6.27439 23.7873 7.03659 23.5747 7.04878 23.5869C7.05488 23.5869 7.07317 24.0423 7.09756 24.595Z"/>
<path d="M2.26792 2.37874C2.03621 2.49412 1.98743 2.89493 2.17645 3.10749C2.26792 3.21072 2.62767 3.2168 8.03011 3.2168C13.7008 3.2168 13.7801 3.2168 13.9021 3.09534C14.0545 2.94352 14.0606 2.66417 13.9082 2.48198L13.7923 2.33623L8.09718 2.32408C4.0545 2.31801 2.36548 2.33016 2.26792 2.37874Z"/>
<path d="M2.27468 4.67519C2.03078 4.77235 1.9881 5.23389 2.20761 5.41608C2.32346 5.51932 2.77468 5.52539 9.84785 5.52539H17.3722L17.4942 5.3675C17.6649 5.15495 17.6527 4.94847 17.4698 4.76628L17.3235 4.61446L9.86615 4.62053C5.64054 4.62053 2.34785 4.64482 2.27468 4.67519Z"/>
<path d="M13.2925 24.7589C13.134 24.9593 13.1645 25.2387 13.3596 25.3965C13.4815 25.4998 13.7803 25.5059 17.695 25.5059C21.9084 25.5059 22.073 25.4998 22.2072 25.2994C22.2986 25.1658 22.2559 24.8378 22.134 24.7164C22.012 24.5949 21.9328 24.5949 17.7193 24.5949H13.4206L13.2925 24.7589Z"/>
<path d="M10.6714 27.025C10.4885 27.2072 10.5068 27.529 10.708 27.6869C10.8726 27.8145 10.897 27.8145 16.4031 27.8145C21.9092 27.8145 21.9336 27.8145 22.0982 27.6869C22.2202 27.5898 22.2568 27.5108 22.2568 27.3347C22.2568 26.8732 22.7019 26.9035 16.4153 26.9035C10.8726 26.9035 10.7934 26.9035 10.6714 27.025Z"/>
</svg>
