<svg width="30" height="31" viewBox="0 0 30 31">
<path d="M13.2885 0.940298C12.7107 1.24469 12.5367 1.59879 12.4932 2.51198L12.4684 3.17047L12.2509 3.21396C11.1202 3.42517 9.49237 4.07745 8.33054 4.77943L7.87078 5.05898L7.4483 4.64897C6.81458 4.03397 6.37345 3.88487 5.74594 4.06503C5.54713 4.12094 5.27997 4.34458 4.47228 5.13353C3.37259 6.21445 3.22969 6.42566 3.22348 6.95991C3.22348 7.42583 3.35395 7.68674 3.8572 8.19614L4.29832 8.6372L4.04359 9.03478C3.42229 10.0225 2.86312 11.3519 2.54626 12.5819L2.36609 13.2777L1.65781 13.3088C0.906036 13.346 0.719647 13.402 0.402785 13.725C0.0672842 14.0542 0.0300064 14.222 0.00515446 15.5886C-0.0259104 17.3529 0.0859231 17.7629 0.713434 18.1294C0.974379 18.2847 1.08 18.3034 1.7013 18.3282L2.39094 18.3531L2.47171 18.7382C2.68295 19.8005 3.44093 21.6269 4.06844 22.6084L4.28589 22.9501L3.84477 23.4036C3.34774 23.9192 3.22348 24.1615 3.22348 24.615C3.22348 25.1368 3.34774 25.3231 4.39152 26.3792C5.44772 27.4415 5.67139 27.5906 6.19328 27.5968C6.65304 27.5968 6.90156 27.4726 7.41102 26.9756L7.86457 26.5407L8.44859 26.8948C8.77166 27.0874 9.32462 27.3794 9.68497 27.5409C10.3995 27.8577 11.7415 28.305 12.1888 28.3733L12.4684 28.4168L12.4932 29.0877C12.5243 29.9202 12.6672 30.2556 13.1207 30.56C13.4935 30.8147 13.7545 30.8396 15.2766 30.8147C16.4323 30.7961 16.5068 30.7899 16.7926 30.6408C16.9666 30.5476 17.1716 30.3737 17.2897 30.2183C17.476 29.9574 17.4823 29.9139 17.5133 29.1995L17.5444 28.4541L18.2278 28.2801C19.0293 28.0814 19.9674 27.7397 20.6198 27.4104L21.092 27.1744L21.266 27.5098C21.9059 28.7212 23.1796 29.9202 24.5526 30.5849C25.1366 30.8644 25.1429 30.8644 25.8511 30.5165C26.547 30.1686 27.0316 29.8208 27.628 29.2492C28.8458 28.0814 29.4609 26.8824 29.7529 25.1119C29.989 23.6955 30.076 21.9623 29.9268 21.8319C29.8834 21.8008 29.231 21.484 28.4792 21.1361C27.7275 20.782 27.0999 20.4901 27.0875 20.4776C27.0751 20.4652 27.1496 20.1919 27.2553 19.8688C27.3609 19.5396 27.4976 19.0675 27.5535 18.8128L27.6653 18.3531L28.3239 18.3282C29.1129 18.3034 29.4671 18.1605 29.7777 17.7318L29.9703 17.4585L29.989 15.8868C30.0076 14.4207 30.0014 14.2903 29.8834 14.0729C29.5851 13.4951 29.2061 13.3088 28.3053 13.3088H27.6653L27.5846 12.9174C27.3671 11.8489 26.7644 10.3269 26.1245 9.25221L25.7704 8.64341L26.2239 8.15886C26.7334 7.63083 26.8763 7.314 26.8204 6.82945C26.7644 6.36975 26.6029 6.14611 25.5716 5.12731C24.7701 4.34458 24.5153 4.12094 24.3103 4.06503C23.6766 3.88487 23.2168 4.04018 22.5955 4.65519L22.1855 5.06519L21.589 4.7111C20.5204 4.07124 19.1163 3.50593 18.0166 3.26987L17.5133 3.16426V2.48713C17.5133 1.74167 17.4388 1.50561 17.097 1.18257C16.7491 0.847115 16.5938 0.822266 14.9846 0.822266C13.6675 0.828478 13.4811 0.840902 13.2885 0.940298ZM16.5379 1.79137C16.6932 1.94046 16.6994 1.97773 16.7181 2.81017C16.7305 3.47487 16.7553 3.69851 16.8299 3.76684C16.8796 3.81654 17.1965 3.91594 17.5257 3.99048C18.905 4.28867 20.2595 4.84155 21.4648 5.60565C21.8376 5.84172 22.1482 5.99702 22.2538 5.99702C22.3905 5.99702 22.5458 5.87899 23.0056 5.4255C23.4654 4.9658 23.6207 4.84776 23.8133 4.8167C24.0432 4.77943 24.0494 4.77943 25.0372 5.76717C26.286 7.01582 26.2674 6.92885 25.4349 7.77371C24.7142 8.51296 24.7017 8.55644 25.1615 9.25221C25.8946 10.3766 26.5408 11.9359 26.8266 13.2777C27.0067 14.1226 27.0005 14.1164 28.0443 14.1164C28.852 14.1164 28.8706 14.1226 29.0322 14.2779L29.1937 14.4456V15.775C29.1937 16.6074 29.1689 17.1541 29.1254 17.2349C29.0073 17.4585 28.6967 17.5331 27.8703 17.5331C27.3112 17.5331 27.0751 17.5579 27.0316 17.6138C26.9943 17.6573 26.9011 17.9741 26.8328 18.3096C26.665 19.0675 26.3482 20.0801 26.2736 20.0801C26.2488 20.0801 26.0189 19.9807 25.7704 19.8626C25.5156 19.7446 25.236 19.6452 25.1429 19.6452C24.9627 19.6452 20.5701 21.6642 20.3651 21.8443C20.2222 21.9623 20.216 22.2108 20.3092 23.4408C20.4024 24.5963 20.5701 25.6213 20.7813 26.3109C20.8124 26.3979 20.7068 26.4724 20.2284 26.696C19.4953 27.0377 18.3831 27.4229 17.7308 27.5657C16.9542 27.7273 16.8299 27.777 16.7615 27.9509C16.7305 28.0317 16.7056 28.4354 16.7056 28.8455C16.7056 29.2617 16.6746 29.6468 16.6373 29.7214C16.5068 29.9636 16.221 30.0196 15.0281 30.0196C13.3506 30.0196 13.2885 29.9761 13.2885 28.6591C13.2885 27.8204 13.2574 27.7521 12.866 27.69C12.369 27.603 11.1947 27.2676 10.6542 27.0563C9.89 26.7582 9.34326 26.4786 8.58527 26.0065C8.21871 25.7704 7.88942 25.6089 7.79001 25.6089C7.66575 25.6089 7.47315 25.7518 7.01339 26.1991C6.13736 27.0439 6.19949 27.0563 4.98175 25.8388C3.764 24.615 3.77022 24.6771 4.6214 23.8136C5.08116 23.3415 5.21163 23.1737 5.21163 23.0371C5.21163 22.9314 5.0563 22.6146 4.814 22.2357C3.98146 20.9001 3.46578 19.6017 3.16135 18.0797C3.05573 17.5455 3.03087 17.5331 2.16106 17.5331C0.843906 17.5331 0.800415 17.4709 0.800415 15.7936C0.800415 14.6009 0.856332 14.3151 1.09864 14.1847C1.17319 14.1474 1.56461 14.1164 1.99331 14.1164C3.04951 14.1164 3.02466 14.135 3.22969 13.2156C3.54655 11.8054 4.143 10.3828 4.86991 9.27706C5.34831 8.55023 5.3421 8.52538 4.6214 7.77992C3.79507 6.92264 3.77643 7.01582 5.01903 5.76717C6.00689 4.77943 6.0131 4.77943 6.24298 4.8167C6.43558 4.84776 6.59091 4.9658 7.05067 5.4255C7.50422 5.87899 7.66575 5.99702 7.80244 5.99702C7.90806 5.99702 8.18764 5.86035 8.51693 5.64293C9.63527 4.90989 11.145 4.28867 12.5119 3.99669C12.8474 3.92215 13.1642 3.82897 13.2077 3.79169C13.2636 3.74821 13.2885 3.51836 13.2885 3.00274C13.2885 2.18895 13.3506 1.89697 13.5557 1.74167C13.6737 1.64849 13.8601 1.62985 15.0343 1.62985H16.3763L16.5379 1.79137ZM27.5473 21.6083L29.1626 22.3661L29.1502 22.9749C29.1254 24.2484 28.9203 25.466 28.5662 26.4413C28.1064 27.7148 26.957 28.9821 25.584 29.7338C25.1739 29.9574 25.1739 29.9574 24.9316 29.858C24.4532 29.6592 23.5026 28.9759 23.0367 28.4851C21.763 27.1495 21.3219 25.9568 21.1106 23.2855C21.0796 22.8134 21.0609 22.4096 21.0796 22.391C21.1044 22.3724 22.0177 21.9313 23.1236 21.4157L25.1242 20.4776L25.5281 20.664C25.7517 20.7634 26.6588 21.192 27.5473 21.6083Z"/>
<path d="M14.1593 5.6143C13.3578 5.71991 12.2581 6.14234 11.5498 6.62068C11.1398 6.90023 10.3321 7.69539 10.0276 8.12403C9.51195 8.85085 9.07083 9.93177 8.97142 10.7083C8.94036 10.9816 8.85959 11.1556 8.61728 11.5159C7.13238 13.7274 6.91493 16.6161 8.03948 19.0699C8.41226 19.8837 8.90929 20.567 9.64864 21.2939C10.4066 22.0331 11.059 22.4866 11.9288 22.8593C12.2146 22.9836 12.5563 23.1637 12.693 23.2631C13.072 23.524 13.5504 23.58 15.3335 23.5489C16.9427 23.5178 17.0794 23.4992 17.4521 23.201C17.5391 23.1327 17.7876 23.0022 18.0051 22.9153C20.6829 21.8281 22.5468 19.1755 22.7145 16.1999C22.8077 14.5909 22.2983 12.7583 21.4098 11.4848C21.2172 11.2115 21.124 11.0003 21.0929 10.7891C20.8196 8.86949 19.5335 7.0928 17.7628 6.19825C16.7128 5.664 15.4019 5.45279 14.1593 5.6143ZM16.2406 6.50886C17.7752 6.90023 19.0924 7.9563 19.8006 9.36647C20.3971 10.5654 20.5027 12.0501 20.0802 13.3298C19.8938 13.8889 19.4962 14.5226 18.6699 15.5787C17.887 16.5788 17.5018 17.3802 17.3962 18.2499L17.3589 18.5605L15.0167 18.5791L12.6681 18.5916V18.3928C12.6681 18.0325 12.4818 17.3926 12.2332 16.8832C12.0096 16.4173 11.8294 16.1564 10.8291 14.8643C10.3507 14.243 9.98414 13.5162 9.83503 12.9074C9.67349 12.2489 9.68592 11.0686 9.86609 10.3977C10.4066 8.37251 12.0468 6.83189 14.0723 6.44674C14.6563 6.34113 15.6877 6.36598 16.2406 6.50886ZM9.03977 13.0627C9.25722 14.0008 9.58651 14.6096 10.5619 15.8644C11.8045 17.4672 11.8667 17.6722 11.9039 20.1322L11.935 21.9586L11.73 21.8468C10.9782 21.4616 9.90337 20.4987 9.38148 19.747C8.18859 18.0138 7.82824 15.8334 8.40604 13.8703C8.52409 13.4789 8.88444 12.6154 8.92172 12.6465C8.93415 12.6651 8.99006 12.8515 9.03977 13.0627ZM21.3539 13.0876C22.1491 14.9699 22.087 17.0261 21.1986 18.8338C20.6021 20.0452 19.6018 21.1137 18.4338 21.7846L18.1356 21.9586V20.3496C18.1356 17.7964 18.235 17.4547 19.4341 15.9327C20.4282 14.6717 20.8444 13.9076 21.006 13.0379C21.0494 12.8142 21.0992 12.6279 21.124 12.6279C21.1426 12.6279 21.2483 12.8329 21.3539 13.0876ZM17.3279 20.0514V20.7037H15.0291H12.7303V20.0514V19.3992H15.0291H17.3279V20.0514ZM17.3279 21.7846C17.3279 22.0828 17.1601 22.381 16.8743 22.5922C16.7066 22.7165 16.6258 22.7227 15.0415 22.7227C13.4448 22.7227 13.3764 22.7165 13.1652 22.586C12.8732 22.4059 12.7303 22.1449 12.7303 21.7971V21.5113H15.0291H17.3279V21.7846Z"/>
<path d="M16.4818 10.5188L15.6555 11.3389L15.1522 10.8915C14.8602 10.6368 14.593 10.4504 14.5123 10.4504C14.4129 10.4504 14.0587 10.7735 13.2759 11.575C12.0892 12.7865 12.0147 12.9045 12.2942 13.1841C12.549 13.4389 12.6235 13.4016 13.6859 12.3205L14.5558 11.4445L15.0031 11.8794C15.6741 12.5318 15.643 12.5442 16.8794 11.3016C17.9543 10.2205 18.0288 10.0963 17.7617 9.82913C17.5069 9.57439 17.364 9.64895 16.4818 10.5188Z"/>
<path d="M25.6154 24.5975C25.1805 25.1069 24.7767 25.5729 24.7145 25.6412C24.5965 25.7593 24.5903 25.7593 24.2299 25.3989C23.8075 24.9765 23.5527 24.9143 23.3415 25.1691C23.1365 25.43 23.1924 25.5481 23.8323 26.1507C24.3231 26.6167 24.4785 26.7285 24.6276 26.7285C24.7332 26.7285 24.845 26.7037 24.8823 26.6788C24.9196 26.654 25.4166 26.0948 25.982 25.4362C26.6468 24.6658 27.0196 24.1874 27.0196 24.0942C27.0196 23.8581 26.8456 23.6842 26.6157 23.6842C26.4231 23.6842 26.3423 23.7587 25.6154 24.5975Z"/>
</svg>
