<svg width="15" height="16" viewBox="0 0 15 16">
<path d="M1.30911 0.544709C0.7098 0.712218 0.207583 1.2181 0.0502217 1.82113C-0.0167406 2.06905 -0.0167406 13.9354 0.0502217 14.1833C0.210931 14.7931 0.689711 15.2722 1.31246 15.4531C1.47987 15.5033 1.95865 15.5067 6.16722 15.4933C8.73188 15.4866 10.8881 15.4799 10.9517 15.4799C11.2831 15.4732 11.3401 15.4464 12.1001 14.9405C12.5119 14.6691 12.9806 14.3307 13.148 14.1934C14.0085 13.4664 14.6279 12.4312 14.9058 11.2352C14.9627 10.9906 14.9795 10.7829 14.9928 10.1497C15.0129 9.28536 14.9995 9.19155 14.8355 9.01399C14.7016 8.87329 14.6313 8.83978 14.1491 8.68903C13.6168 8.52487 13.1748 8.34731 12.619 8.07929L12.1603 7.85818L12.1503 6.431C12.1403 5.05072 12.1369 4.99711 12.0633 4.80615C12.0231 4.6956 11.9394 4.53144 11.8825 4.43763C11.8222 4.34383 11.1994 3.68049 10.4997 2.9602C8.48412 0.893129 8.41381 0.826125 8.18948 0.708868C7.76093 0.487756 7.94172 0.497807 4.54339 0.501157C2.18632 0.504507 1.42295 0.514557 1.30911 0.544709ZM7.50312 2.45097C7.50312 3.79105 7.50982 3.8413 7.71405 4.23327C7.93503 4.64869 8.4339 5.02057 8.90263 5.11772C9.00977 5.14117 9.52873 5.15457 10.2285 5.15457H11.3769L11.4003 5.25843C11.4104 5.31538 11.4204 5.82126 11.4204 6.38074V7.39585L11.3166 7.359C11.2631 7.3389 11.1291 7.3322 11.022 7.3389C10.8512 7.3523 10.7709 7.3858 10.3959 7.60691C9.51534 8.12284 9.02316 8.34731 8.09574 8.65552C7.13148 8.97714 7.11809 8.99724 7.14152 10.0861C7.15492 10.6388 7.17501 10.8801 7.23192 11.1615C7.50647 12.5183 8.34015 13.7813 9.46846 14.5485L9.79323 14.7696H5.70184H1.61379L1.4196 14.6959C1.1618 14.5988 0.910687 14.3475 0.813591 14.0895L0.739933 13.8952V8.00224V2.10925L0.813591 1.91494C0.907339 1.66032 1.1618 1.40571 1.40956 1.30855C1.59035 1.2382 1.63053 1.2382 4.55009 1.2382L7.50312 1.23485V2.45097ZM10.349 3.89155L10.868 4.42088L9.96064 4.41083L9.0533 4.40078L8.82228 4.28352C8.65822 4.19977 8.55778 4.11936 8.46738 3.99876C8.25645 3.72404 8.23971 3.61684 8.23971 2.62183V1.74073L9.03321 2.55147C9.47181 2.99705 10.0644 3.60008 10.349 3.89155ZM11.6046 8.39756C12.311 8.80628 13.0878 9.14465 13.8779 9.39257L14.2764 9.51987L14.2563 10.143C14.2429 10.6455 14.2228 10.8331 14.1558 11.1179C13.9215 12.1029 13.4427 12.9103 12.6827 13.587C12.4985 13.7512 11.1224 14.7026 11.0689 14.7026C11.0555 14.7026 10.7274 14.4882 10.339 14.2269C9.74636 13.8282 9.56891 13.6909 9.25753 13.3793C8.56447 12.6858 8.13926 11.8985 7.95512 10.9471C7.92498 10.7929 7.8915 10.4077 7.88146 10.0928L7.86137 9.51652L8.05891 9.46292C8.87585 9.23846 10.0577 8.71583 10.7843 8.25685C11.0588 8.08264 11.0722 8.07929 11.1526 8.13289C11.1994 8.1597 11.4037 8.2803 11.6046 8.39756Z"/>
<path d="M2.30719 3.39975C2.18666 3.46336 2.14648 3.54372 2.14648 3.71447C2.14648 3.88857 2.19001 3.96893 2.31389 4.03254C2.39759 4.07607 2.64201 4.08276 3.95781 4.08276H5.50129L5.61513 3.96893C5.70888 3.87518 5.72897 3.82831 5.72897 3.71447C5.72897 3.60064 5.70888 3.55376 5.61513 3.46001L5.50129 3.34618H3.94777C2.64535 3.34953 2.3842 3.35622 2.30719 3.39975Z"/>
<path d="M2.30719 5.54367C2.18666 5.60728 2.14648 5.68764 2.14648 5.85839C2.14648 6.03249 2.19001 6.11285 2.31389 6.17646C2.39759 6.21999 2.75919 6.22668 5.02921 6.22668H7.64409L7.75792 6.11285C7.85167 6.0191 7.87176 5.97223 7.87176 5.85839C7.87176 5.74456 7.85167 5.69768 7.75792 5.60394L7.64409 5.4901H5.02251C2.77258 5.49345 2.3842 5.50014 2.30719 5.54367Z"/>
<path d="M2.30719 7.68759C2.18666 7.7512 2.14648 7.83155 2.14648 8.00231C2.14648 8.17641 2.19001 8.25676 2.31389 8.32038C2.39759 8.3639 2.79602 8.3706 5.36067 8.3706C8.52799 8.3706 8.45098 8.37395 8.54138 8.20654C8.58491 8.12284 8.58491 7.88178 8.54138 7.79807C8.45098 7.63067 8.53134 7.63402 5.35398 7.63402C2.80941 7.63736 2.3842 7.64406 2.30719 7.68759Z"/>
<path d="M2.30719 9.83145C2.18666 9.89506 2.14648 9.97542 2.14648 10.1462C2.14648 10.3203 2.19001 10.4006 2.31389 10.4642C2.39759 10.5078 2.67883 10.5145 4.28928 10.5145C6.29814 10.5145 6.30819 10.5145 6.39859 10.3504C6.44211 10.2667 6.44211 10.0256 6.39859 9.94194C6.30819 9.77788 6.29814 9.77788 4.28258 9.77788C2.68553 9.78123 2.3842 9.78792 2.30719 9.83145Z"/>
<path d="M2.30719 11.9757C2.18666 12.0393 2.14648 12.1196 2.14648 12.2904C2.14648 12.4645 2.19001 12.5448 2.31389 12.6084C2.46121 12.6855 6.11735 12.6855 6.26466 12.6084C6.38854 12.5448 6.43207 12.4645 6.43207 12.2904C6.43207 12.1163 6.38854 12.0359 6.26466 11.9723C6.12069 11.8986 2.44447 11.8986 2.30719 11.9757Z"/>
<path d="M11.3463 10.7733L10.7169 11.3998L10.4524 11.1385C10.2348 10.9207 10.1712 10.8772 10.0573 10.8604C9.80622 10.8269 9.64551 10.9844 9.64551 11.2624C9.64551 11.3965 9.66225 11.4166 10.0908 11.8454L10.5361 12.291H10.7169H10.8977L11.6778 11.5137C12.5115 10.6829 12.5617 10.6125 12.4914 10.3981C12.4378 10.2306 12.314 10.1468 12.1298 10.1468H11.9758L11.3463 10.7733Z"/>
</svg>
