<svg width="30" height="31" viewBox="0 0 30 31">
<path d="M4.32786 0.914707C3.62796 1.15585 2.95747 1.75576 2.70457 2.36155C2.61635 2.58505 2.52812 2.70268 2.45167 2.72032C2.38109 2.73208 2.22229 2.76149 2.0929 2.77913C1.1695 2.92617 0.246113 3.87309 0.0637876 4.86118C-0.0244345 5.32581 -0.018553 28.3988 0.0696691 28.8164C0.240232 29.6163 0.781327 30.3044 1.52239 30.6691L1.96938 30.8926H10.7034H19.4432L19.8432 30.7044C20.3784 30.4515 20.8724 29.9751 21.1253 29.4634C21.2312 29.2458 21.3488 29.0517 21.3724 29.034C21.4018 29.0105 21.5547 28.9811 21.7135 28.9635C22.4075 28.8811 23.2368 28.2459 23.5779 27.546C23.8132 27.0637 23.8838 26.6873 23.8838 25.8933C23.8838 25.3228 23.9014 25.1934 24.0014 25.0287C24.0661 24.9229 24.1484 24.7406 24.1778 24.6288C24.2308 24.4288 24.2484 24.423 24.5248 24.4112C25.0659 24.3935 25.5835 23.9936 25.7188 23.476C25.7776 23.2584 25.8129 23.2173 25.9423 23.2173C26.2011 23.2173 26.4892 23.1055 26.6657 22.9408C26.848 22.7644 27.0598 22.3938 27.0598 22.2468C27.0598 22.1351 27.0656 22.1351 27.2715 22.2468C27.3656 22.2939 27.5538 22.335 27.6891 22.335C27.9714 22.335 29.3418 21.8586 29.6123 21.6704C29.8123 21.5293 29.9946 21.147 30.0005 20.8764C30.0005 20.6588 28.0596 15.389 27.8949 15.1596C27.7596 14.9773 27.3244 14.7479 27.1068 14.7479C26.9068 14.7479 25.5247 15.242 25.2483 15.4067C25.0189 15.5478 24.8248 15.9007 24.8248 16.1889C24.8248 16.4359 24.766 16.4477 24.2661 16.2536L23.9132 16.1183L23.8838 9.50754L23.8543 2.89676L23.7132 2.54388C23.4309 1.84398 22.9604 1.33817 22.3075 1.02646L21.9135 0.838249L13.2677 0.826487C5.18655 0.814724 4.60429 0.820604 4.32786 0.914707ZM21.9605 1.85574C22.2487 1.9969 22.4251 2.13805 22.5898 2.34391C23.0251 2.89088 23.0015 2.52035 23.0015 9.50754V15.7772H22.431C22.1134 15.7772 21.7547 15.8007 21.637 15.8301L21.4135 15.8772L21.4018 10.3309L21.3841 4.77884L21.2489 4.44359C21.043 3.93779 20.6548 3.44962 20.2372 3.17319C19.5079 2.68503 20.2372 2.7262 11.3915 2.69091L3.51621 2.66151L3.71618 2.39684C3.82793 2.25568 4.02202 2.0616 4.15141 1.97337C4.65722 1.62637 4.27492 1.63813 13.2971 1.64989L21.5606 1.66166L21.9605 1.85574ZM12.062 5.89043C12.062 8.08422 12.0679 8.21362 12.1737 8.34301C12.262 8.45476 12.3443 8.48417 12.5737 8.48417C12.8383 8.48417 12.9266 8.43711 13.9441 7.74898C14.5381 7.34316 15.0968 6.96674 15.1792 6.91381L15.3321 6.80795L16.5554 7.63135C17.8494 8.50181 18.0082 8.56651 18.2375 8.33713C18.3493 8.22538 18.3552 8.14304 18.3552 5.89043V3.55549L18.7551 3.5849C19.4668 3.63783 20.0196 3.99072 20.3431 4.60239L20.5019 4.89647L20.5196 10.4603L20.5313 16.0242L20.1373 15.8889C19.6256 15.7125 19.0139 15.7066 18.1493 15.8654C17.3259 16.0183 17.2495 16.0183 17.1848 15.8478C17.0671 15.5361 16.8083 15.3714 16.0261 15.1126C15.0968 14.8126 14.7322 14.7891 14.3969 15.0126C14.2793 15.0949 14.144 15.2361 14.097 15.3243C13.9264 15.6654 12.2973 20.847 12.2973 21.0588C12.2973 21.3234 12.4796 21.6998 12.6619 21.8351C12.8501 21.9645 14.3675 22.4527 14.5851 22.4527H14.7616L14.6381 22.7291C14.544 22.9467 14.5263 23.082 14.5499 23.3761C14.5969 23.9642 14.9145 24.3583 15.4791 24.5112C15.685 24.57 15.6967 24.5876 15.7614 24.917C15.9085 25.6639 16.726 26.1698 17.3847 25.9227C17.52 25.8698 17.5553 25.8874 17.7259 26.0815C17.9846 26.3697 18.3022 26.5109 18.7492 26.5109C19.0551 26.5109 19.1198 26.5285 19.1492 26.6226C19.208 26.805 19.6785 27.2049 19.9196 27.2696C20.049 27.3049 20.2372 27.3343 20.3431 27.3343H20.5313V27.9518C20.5313 28.7458 20.4019 29.1164 19.9785 29.5398C19.4021 30.1162 20.2431 30.0692 10.8622 30.0868C1.79882 30.1045 2.22229 30.1162 1.67531 29.7398C1.52827 29.6398 1.33419 29.4516 1.2342 29.3163C0.863668 28.8047 0.887194 29.6281 0.898957 16.6888L0.916601 4.89647L1.0754 4.59651C1.22832 4.30244 1.57533 3.94367 1.83999 3.80251C2.24581 3.5849 2.33992 3.57902 7.25683 3.57902L12.062 3.57313V5.89043ZM17.4729 5.37287C17.4729 6.7903 17.4553 7.16083 17.4024 7.12554C17.3612 7.10202 16.926 6.80795 16.4319 6.4727C15.7438 6.00218 15.4968 5.86691 15.3439 5.86691C15.1909 5.86691 14.9086 6.02571 14.044 6.60209L12.9442 7.33728V5.45521V3.57313H15.2086H17.4729V5.37287ZM28.1537 18.2474C28.7477 19.8354 29.1006 20.8647 29.0712 20.9176C29.0242 20.9999 27.8773 21.4528 27.7126 21.4528C27.642 21.4528 27.3832 20.8294 26.6539 18.865C26.1305 17.4416 25.707 16.2477 25.7188 16.2065C25.7482 16.1242 26.9833 15.6302 27.1127 15.6478C27.1597 15.6537 27.5773 16.6888 28.1537 18.2474ZM16.3378 16.183C16.3908 16.2301 16.2084 16.8653 15.5615 18.8591C15.0968 20.2942 14.691 21.494 14.6616 21.5234C14.5851 21.5998 13.2442 21.1823 13.203 21.0705C13.1677 20.9882 14.7969 15.8889 14.891 15.7713C14.9322 15.7243 15.1321 15.7595 15.6085 15.9125C15.9673 16.0242 16.2967 16.1477 16.3378 16.183ZM19.7902 16.6947L20.0196 16.7594L19.1609 17.6181C17.967 18.8297 17.9023 18.9944 18.4316 19.5296C18.9021 20.0119 19.1962 20.1295 19.9138 20.1295C20.4666 20.1236 20.5548 20.106 21.39 19.8178C21.8841 19.6531 22.3605 19.5119 22.4546 19.5119C22.5428 19.5119 22.7369 19.5766 22.8839 19.659C23.0309 19.7413 23.572 20.0236 24.0896 20.2824C25.2424 20.8647 25.9599 21.3293 26.1187 21.5822C26.301 21.8704 26.2011 22.335 25.9599 22.335C25.9129 22.335 25.1894 21.9645 24.3543 21.5116C23.5132 21.0588 22.778 20.6882 22.7075 20.6882C22.384 20.6882 22.1781 20.9882 22.2958 21.2823C22.3546 21.4116 22.6075 21.5763 23.5191 22.0704C24.1602 22.4174 24.7248 22.7526 24.7836 22.8173C24.8366 22.882 24.8836 23.0114 24.8836 23.1114C24.8836 23.3114 24.6542 23.5701 24.4719 23.5701C24.4072 23.5701 23.7838 23.2643 23.0956 22.8938C22.4016 22.5174 21.7723 22.2174 21.6841 22.2174C21.6017 22.2174 21.4782 22.2703 21.4135 22.335C21.2724 22.4762 21.2547 22.8173 21.39 22.9467C21.4371 22.9996 21.8429 23.229 22.284 23.4643C23.1662 23.9289 23.3544 24.076 23.3544 24.3053C23.3544 24.5053 23.1074 24.7464 22.9015 24.7464C22.8133 24.7464 22.331 24.5288 21.8135 24.2465C20.8901 23.7525 20.5431 23.6407 20.4372 23.8113C20.4137 23.8583 20.3549 23.7995 20.2902 23.6701C20.1078 23.3231 19.6373 23.0408 19.2315 23.0408C19.0962 23.0408 19.0492 22.9996 18.9551 22.7879C18.7551 22.3409 18.4316 22.0998 17.9023 22.0116C17.6788 21.9763 17.6376 21.9469 17.5435 21.7292C17.4259 21.4646 17.0848 21.1293 16.8436 21.0352C16.6495 20.9647 16.0202 20.9647 15.885 21.0411C15.7967 21.0882 15.7732 21.0823 15.7967 21.0293C15.8203 20.9529 16.8672 17.6769 17.0377 17.1417C17.1259 16.877 17.1377 16.8653 17.3436 16.8653C17.4612 16.8594 17.8258 16.8123 18.1493 16.7535C18.8316 16.6241 19.4668 16.6065 19.7902 16.6947ZM23.6191 16.9535C24.1073 17.1476 24.4484 17.2417 24.7307 17.2711L25.1306 17.3064L25.7129 18.865C26.0305 19.7237 26.2952 20.4471 26.2952 20.4706C26.2952 20.4941 26.1775 20.4353 26.0305 20.3353C25.8835 20.2353 25.1247 19.8178 24.3425 19.4119L22.9133 18.6709H22.4722C22.0193 18.665 21.9076 18.6944 20.8254 19.0708C20.1431 19.3061 19.7197 19.3472 19.4374 19.2002C19.0257 18.9885 19.0257 18.9885 19.9196 18.1063C21.1724 16.8711 21.6253 16.6124 22.4428 16.6476C22.8369 16.6653 23.0309 16.7123 23.6191 16.9535ZM16.526 21.8939C16.8554 22.0645 16.8436 22.2409 16.4672 22.9526C16.0673 23.6937 15.8908 23.8172 15.5674 23.5643C15.4674 23.4878 15.4144 23.3878 15.4144 23.2878C15.4144 23.0585 16.0143 21.9704 16.1849 21.8822C16.3614 21.7881 16.3319 21.7881 16.526 21.8939ZM18.0317 23.0114C18.114 23.0879 18.1787 23.2114 18.1787 23.282C18.1787 23.4996 17.3612 24.9817 17.2024 25.0523C16.9965 25.1464 16.7554 25.0464 16.6554 24.8347C16.5731 24.6641 16.5848 24.6347 16.9789 23.876C17.5024 22.8585 17.7141 22.6879 18.0317 23.0114ZM19.455 24.0524C19.5315 24.123 19.5903 24.2406 19.5903 24.323C19.5903 24.47 19.1198 25.3875 18.961 25.5404C18.7433 25.7581 18.2964 25.5522 18.2964 25.2346C18.2964 25.064 18.7845 24.1112 18.9316 23.9936C19.0727 23.8819 19.3021 23.9113 19.455 24.0524ZM20.8136 25.2522C20.8842 25.2993 20.943 25.3934 20.943 25.4581C20.943 25.6169 20.6313 26.2227 20.4784 26.358C20.3078 26.5109 20.0784 26.4344 19.9255 26.1698C19.8138 25.9757 19.8138 25.9698 19.9196 25.7286C20.1667 25.1875 20.4843 25.017 20.8136 25.2522ZM22.1193 25.5169C22.1958 25.6581 22.1487 25.8463 22.0076 25.9169C21.837 26.011 21.7782 25.9169 21.8076 25.5875C21.837 25.3111 21.8488 25.2875 21.9487 25.3405C22.0076 25.3699 22.084 25.4522 22.1193 25.5169ZM22.9192 26.8344C22.7486 27.4049 22.2663 27.8989 21.69 28.0695L21.4135 28.1518V27.4578V26.7638L21.7017 26.7932C21.8664 26.805 22.0899 26.7991 22.2075 26.7814C22.4369 26.7344 22.8486 26.405 22.9251 26.1992C23.0192 25.9404 23.0133 26.505 22.9192 26.8344Z"/>
<path d="M4.43375 11.2791C4.17497 11.385 4.09851 11.7849 4.29848 11.9849C4.41611 12.1025 4.49257 12.1025 10.7093 12.1025C16.926 12.1025 17.0025 12.1025 17.1201 11.9849C17.2671 11.8379 17.273 11.5673 17.126 11.3909L17.0142 11.2497L10.7857 11.238C7.26862 11.2321 4.50433 11.2497 4.43375 11.2791Z"/>
<path d="M4.29832 14.8049C4.15128 14.9519 4.1454 15.2224 4.29244 15.3989L4.40419 15.54H7.73898H11.0738L11.1855 15.3989C11.3326 15.2224 11.3267 14.9519 11.1796 14.8049C11.062 14.6872 10.9856 14.6872 7.73898 14.6872C4.49241 14.6872 4.41595 14.6872 4.29832 14.8049Z"/>
<path d="M4.32773 18.2467C4.12776 18.4408 4.13364 18.6996 4.33361 18.8584C4.48653 18.9819 4.53947 18.9819 7.73899 18.9819C10.9385 18.9819 10.9914 18.9819 11.1444 18.8584C11.3561 18.6937 11.3561 18.3879 11.1444 18.2232C10.9914 18.0997 10.9385 18.0997 7.72722 18.0997H4.46889L4.32773 18.2467Z"/>
<path d="M4.49273 21.551C4.19866 21.6099 4.08103 22.0568 4.29864 22.2745C4.41627 22.3921 4.49273 22.3921 7.7393 22.3921C10.9859 22.3921 11.0623 22.3921 11.18 22.2745C11.327 22.1274 11.3329 21.8569 11.1858 21.6804L11.0741 21.5393L7.84517 21.5334C6.07485 21.5275 4.56331 21.5334 4.49273 21.551Z"/>
</svg>
