<svg width="16" height="14" viewBox="0 0 16 14">
<path d="M1.2 13.5C0.88 13.5 0.6 13.3781 0.36 13.1344C0.12 12.8906 0 12.6062 0 12.2812V1.71875C0 1.39375 0.12 1.10937 0.36 0.865625C0.6 0.621875 0.88 0.5 1.2 0.5H14.8C15.12 0.5 15.4 0.621875 15.64 0.865625C15.88 1.10937 16 1.39375 16 1.71875V12.2812C16 12.6062 15.88 12.8906 15.64 13.1344C15.4 13.3781 15.12 13.5 14.8 13.5H1.2ZM8 7.36562L1.2 2.85625V12.2812H14.8V2.85625L8 7.36562ZM8 6.14687L14.72 1.71875H1.28L8 6.14687ZM1.2 2.85625V1.71875V12.2812V2.85625Z"/>
</svg>
