<svg width="30" height="31" viewBox="0 0 30 31">
<path d="M13.8382 0.911522C13.1628 1.03714 12.2989 1.40078 11.7806 1.78425C11.545 1.95615 9.27536 3.63548 6.74657 5.51316C1.68898 9.26852 1.80678 9.16273 1.80678 9.90984C1.81463 10.4123 2.00311 10.7627 2.45861 11.1065C2.88269 11.4173 3.37746 11.5561 4.02144 11.5429C4.77536 11.5297 5.19945 11.3181 6.50311 10.3065L6.75442 10.1082V13.3875V16.6668L6.50311 16.6999C6.36175 16.7197 5.97693 16.7594 5.65494 16.7792L5.06594 16.8189L4.8539 16.4949C4.69683 16.2503 4.55547 16.1313 4.30416 16.0255C3.99002 15.8999 3.8251 15.8867 2.52929 15.8867C1.02144 15.8867 0.801544 15.9197 0.440288 16.204C-0.0073561 16.5611 0.000497306 16.4354 0.000497306 21.09C0.000497306 25.1561 0.0083507 25.3875 0.149712 25.6519C0.243953 25.8238 0.424581 25.9957 0.636623 26.1147C0.966465 26.2999 0.990026 26.2999 2.31725 26.3197C3.79369 26.3461 4.17065 26.2933 4.55547 26.0288C4.86175 25.804 4.95599 25.6519 5.01882 25.2685L5.06594 24.9511L6.10259 25.4271L7.13924 25.9032L9.99787 28.2635C12.7701 30.5511 12.8722 30.6238 13.312 30.7362C14.2623 30.9676 15.1811 30.723 15.6366 30.1147C15.7623 29.9494 15.8644 29.7511 15.8644 29.685C15.8644 29.5924 15.8958 29.5726 16.0057 29.6056C16.3277 29.7246 16.9246 29.8304 17.0895 29.804C17.1916 29.7841 17.3644 29.7577 17.4743 29.7379C17.8905 29.6651 18.3539 29.1957 18.5659 28.6271C18.6052 28.5213 18.6523 28.5147 18.8644 28.561C19.3277 28.6602 20.0502 28.6205 20.3329 28.4817C20.7099 28.2966 21.0555 27.9065 21.1654 27.5494L21.2596 27.2387L21.7387 27.2255C22.3356 27.2056 22.8382 27.0073 23.2073 26.6437C23.4743 26.3792 23.7178 25.8701 23.7178 25.566C23.7178 25.4536 23.8434 25.361 24.3068 25.1495C24.6288 24.9974 24.9115 24.8784 24.935 24.8784C24.9586 24.8784 24.9743 24.9974 24.9743 25.1428C24.9743 25.6916 25.3748 26.128 26.011 26.2734C26.2073 26.3131 26.8591 26.3329 27.6837 26.3197C29.011 26.2999 29.0345 26.2999 29.3644 26.1147C29.5764 25.9957 29.757 25.8238 29.8513 25.6519C29.9926 25.3875 30.0005 25.1561 30.0005 21.09C30.0005 16.4354 30.0083 16.5611 29.5607 16.204C29.1916 15.9197 28.9874 15.8867 27.4324 15.8867C26.0267 15.8867 25.956 15.8933 25.6497 16.0454C25.3277 16.204 24.9743 16.6206 24.9743 16.8387C24.9743 16.9247 24.9193 16.9445 24.723 16.9181C24.5816 16.8982 24.189 16.8454 23.8591 16.8057L23.2466 16.7263V13.4206V10.1082L23.5057 10.3065C24.8251 11.3379 25.2178 11.5297 26.0188 11.5363C26.2858 11.5363 26.6628 11.4966 26.8513 11.4503C27.3068 11.3379 27.9115 10.8685 28.0764 10.4983C28.2649 10.095 28.2099 9.45364 27.9665 9.12306C27.778 8.8586 18.401 1.87681 17.7178 1.48673C17.1759 1.17598 16.7675 1.03714 16.0686 0.911522C15.3617 0.792515 14.5057 0.792515 13.8382 0.911522ZM16.1078 1.93631C16.3827 2.00243 16.7675 2.14788 16.9638 2.25367C17.3487 2.46523 26.6471 9.32141 26.8905 9.57265C27.3696 10.0751 26.5843 10.7495 25.7754 10.5445C25.5633 10.485 24.189 9.49992 20.812 6.98753C18.2439 5.0768 15.9979 3.45036 15.8251 3.37102C15.401 3.17928 14.6078 3.17928 14.1916 3.36441C14.0345 3.43713 11.7963 5.05696 9.22824 6.96109C6.65233 8.87182 4.42981 10.4718 4.2806 10.5247C3.9272 10.6437 3.51097 10.571 3.20468 10.3396C2.91411 10.1214 2.87484 9.81728 3.11044 9.57265C3.18898 9.4867 5.41149 7.82059 8.05023 5.87018C12.7151 2.41234 13.1706 2.1016 13.9403 1.89664C14.435 1.76441 15.5345 1.78425 16.1078 1.93631ZM15.5738 4.42887C15.7623 4.56771 17.3251 5.71812 19.0371 6.99414L22.1471 9.30157V12.9247C22.1471 15.7809 22.1235 16.5478 22.0528 16.5478C21.9979 16.5478 21.2989 16.4156 20.5057 16.2503C18.2047 15.7809 17.0031 15.7412 15.4953 16.085C14.922 16.2173 14.922 16.2173 14.3565 16.085C12.8015 15.7346 11.5686 15.7743 9.22824 16.2569C8.62353 16.3825 8.06594 16.5016 7.99526 16.5214C7.86175 16.5544 7.8539 16.3561 7.8539 12.9313V9.30157L10.9638 6.99414C14.8905 4.07184 14.7335 4.18424 15.0005 4.18424C15.1419 4.18424 15.346 4.2768 15.5738 4.42887ZM3.75442 16.9181L3.9272 17.0173V21.0503C3.9272 23.7081 3.89578 25.1296 3.84866 25.2156C3.77013 25.328 3.66803 25.3412 2.56856 25.3412C1.7361 25.3412 1.33558 25.3147 1.27275 25.2619C1.20207 25.2023 1.17851 24.1776 1.17851 21.0635C1.17851 17.2156 1.18636 16.9445 1.31987 16.885C1.39055 16.8454 1.93243 16.8123 2.51359 16.8123C3.3539 16.8123 3.61306 16.8321 3.75442 16.9181ZM13.4377 16.9181C13.4926 16.9445 12.4089 17.9032 10.7754 19.285C8.71777 21.0106 7.97955 21.6784 7.86175 21.9032C7.67327 22.2536 7.64971 22.8685 7.80678 23.2387C8.05808 23.8271 8.77274 24.323 9.4874 24.3957C10.3277 24.4751 10.4534 24.4288 12.7387 23.1462L14.8748 21.9561L15.7387 22.1412C16.524 22.3131 16.7518 22.3329 18.0476 22.3395L19.4848 22.3462L20.9691 23.761C22.5476 25.2619 22.6576 25.4073 22.4534 25.8106C22.3434 26.042 21.9665 26.2668 21.6916 26.2668C21.4795 26.2668 21.1183 26.1214 20.9769 25.9759C20.8277 25.8238 20.3722 25.8437 20.1759 26.009C20.0345 26.128 20.0188 26.1941 20.0738 26.6569C20.1288 27.2453 20.0031 27.5561 19.6733 27.6288C19.3905 27.6883 19.1628 27.6222 18.6366 27.3247C18.1026 27.0271 17.7727 26.9875 17.5528 27.1924C17.435 27.3048 17.4115 27.4238 17.4272 27.847C17.4429 28.4222 17.3644 28.6668 17.1209 28.7792C16.8775 28.8916 16.524 28.766 15.9822 28.3825C15.456 28.0056 15.1183 27.9528 14.8356 28.1908C14.6942 28.3098 14.6785 28.3759 14.7256 28.7065C14.812 29.3213 14.8042 29.3941 14.5607 29.6321C14.3958 29.7974 14.3015 29.837 14.0424 29.837C13.8775 29.837 13.6576 29.804 13.5633 29.7577C13.4691 29.718 12.1419 28.6536 10.6261 27.3842L7.86175 25.09L6.44028 24.4486L5.02667 23.8073V20.8123V17.8106L5.4429 17.7776C5.6628 17.7577 6.22039 17.7115 6.67589 17.6652C7.61044 17.5858 8.48217 17.4404 9.87222 17.1429C10.3984 17.0305 11.0345 16.9115 11.2858 16.8784C11.7727 16.8123 13.2963 16.8387 13.4377 16.9181ZM18.4795 16.885C18.7937 16.9247 19.6733 17.09 20.435 17.242C21.1968 17.4007 22.422 17.6057 23.1445 17.7049C23.867 17.7974 24.5816 17.8834 24.723 17.9032L24.9743 17.9429V20.8321V23.728L24.1733 24.085C23.7256 24.2833 23.3408 24.4486 23.3172 24.4486C23.2937 24.4486 22.6968 23.8999 21.99 23.2255C21.2911 22.5511 20.5293 21.8437 20.3094 21.6519L19.9089 21.3015L19.1235 21.3478C17.6 21.4404 16.4848 21.3478 15.4324 21.0437C15.1811 20.971 14.8984 20.9115 14.7963 20.9115C14.6942 20.9115 13.6419 21.4602 12.3696 22.1676C10.0057 23.49 9.88793 23.5362 9.38531 23.3445C8.97693 23.1858 8.72562 22.5842 8.93766 22.2602C8.98479 22.1875 10.3199 21.0437 11.9141 19.7148L14.8042 17.2883L15.3382 17.1429C16.4612 16.8387 17.4586 16.7528 18.4795 16.885ZM28.6733 16.8784C28.8146 16.9445 28.8225 17.0635 28.8225 21.0635C28.8225 24.1776 28.7989 25.2023 28.7282 25.2619C28.6654 25.3147 28.2649 25.3412 27.4324 25.3412C26.3329 25.3412 26.2309 25.328 26.1523 25.2156C26.1052 25.1296 26.0738 23.7081 26.0738 21.0503V17.0173L26.2466 16.9181C26.3879 16.8321 26.6471 16.8123 27.4717 16.8123C28.045 16.8123 28.5869 16.8454 28.6733 16.8784Z"/>
<path d="M13.7596 6.8616C13.1235 6.98722 12.1104 7.44341 11.6078 7.82027C11.0031 8.27647 10.4219 9.02357 10.1628 9.69134C9.97428 10.1608 9.94287 10.3393 9.94287 11.0269C9.94287 11.7145 9.97428 11.893 10.1628 12.3624C10.6654 13.6517 11.9298 14.7029 13.469 15.1128C14.2544 15.3244 15.7465 15.3244 16.5319 15.1128C18.0868 14.6963 19.2884 13.6913 19.8382 12.3492C20.0266 11.8864 20.058 11.7211 20.058 11.0269C20.058 10.3393 20.0266 10.1608 19.846 9.69134C19.579 9.02357 18.9978 8.27647 18.401 7.82688C17.8512 7.41697 16.9167 6.99383 16.2491 6.8616C15.6444 6.74259 14.3408 6.74259 13.7596 6.8616ZM16.0999 7.85994C18.0711 8.32275 19.3198 10.1541 18.8094 11.8203C18.134 13.9955 15.1026 15.0136 12.9036 13.8037C10.7753 12.6269 10.4533 10.207 12.2361 8.71283C13.2884 7.82688 14.6549 7.52275 16.0999 7.85994Z"/>
<path d="M14.7019 8.56071C14.5998 8.60699 14.4977 8.71939 14.4741 8.82517C14.4427 8.96402 14.372 9.02352 14.16 9.0698C12.817 9.38716 12.4322 10.5243 13.4767 11.1392C13.8223 11.3442 14.5605 11.5227 15.0553 11.5227C15.4636 11.5227 15.9663 11.688 15.927 11.8004C15.817 12.0781 14.6783 12.1706 13.9872 11.959C13.2804 11.7409 12.8799 11.8731 12.8799 12.3293C12.8799 12.6665 13.1469 12.8252 14.0029 12.9772C14.3563 13.0367 14.4505 13.0764 14.4505 13.1756C14.4505 13.321 14.804 13.5723 15.0003 13.5723C15.1966 13.5723 15.55 13.321 15.55 13.1756C15.55 13.083 15.6364 13.0301 15.8485 12.9772C16.6574 12.7921 17.1207 12.3756 17.1207 11.84C17.1207 11.0863 16.461 10.65 15.1259 10.5376C13.9951 10.445 13.7595 10.1673 14.6547 9.99542C15.016 9.9293 15.1652 9.9293 15.6521 10.0285C16.5867 10.2202 16.7123 10.2268 16.9322 10.1078C17.0971 10.0086 17.1286 9.94914 17.105 9.72434C17.0736 9.37393 16.8694 9.2417 16.1233 9.09625C15.6286 8.99707 15.5579 8.96402 15.5265 8.81195C15.4951 8.71278 15.4008 8.60699 15.2752 8.56071C15.0317 8.46815 14.9375 8.46815 14.7019 8.56071Z"/>
</svg>
