<svg width="30" height="31" viewBox="0 0 30 31">
<path d="M13.7209 1.01237C12.2849 1.32887 11.0248 2.2725 10.2863 3.58539L10.0811 3.9605L9.72945 3.98394C9.06129 4.03083 8.42243 4.50558 8.26418 5.07411C8.18212 5.36716 8.18212 11.5448 8.26418 11.8378C8.36382 12.1895 8.66859 12.5353 9.05543 12.7346L9.40123 12.9104L10.9251 12.928L12.4549 12.9456L13.2696 14.0943C14.1663 15.3486 14.2894 15.46 14.8286 15.46C15.3678 15.46 15.4909 15.3486 16.3877 14.0943L17.2023 12.9456L18.7321 12.928L20.256 12.9104L20.6018 12.7346C20.9886 12.5353 21.2934 12.1895 21.393 11.8378C21.4751 11.5448 21.4751 5.36716 21.393 5.07411C21.2348 4.50558 20.5959 4.03083 19.9278 3.98394L19.5761 3.9605L19.3709 3.58539C18.6266 2.26078 17.3665 1.32301 15.9129 1.01237C15.3971 0.906869 14.2249 0.906869 13.7209 1.01237ZM15.4264 1.95014C16.2235 2.02634 17.1027 2.47764 17.8002 3.18097C18.1929 3.57953 18.3218 3.76122 18.5387 4.21252C19.1424 5.46094 19.1424 6.68004 18.5563 7.86985C17.9995 8.98932 17.1555 9.69851 15.9422 10.0736C15.3151 10.267 14.3363 10.267 13.715 10.0736C12.3142 9.6399 11.3061 8.66695 10.8665 7.33649C10.7141 6.8676 10.6965 6.73279 10.6965 6.05291C10.6965 5.19719 10.7903 4.81622 11.183 4.06014C11.4468 3.55022 12.1852 2.78828 12.701 2.48936C13.3809 2.09667 14.3714 1.83292 14.9458 1.89739C15.0279 1.90912 15.2447 1.93256 15.4264 1.95014ZM9.72359 5.21477C9.65326 5.5723 9.65912 6.52766 9.73531 6.93793C10.0928 8.96001 11.5464 10.5366 13.545 11.07C14.2425 11.2576 15.4147 11.2576 16.1063 11.07C18.0874 10.5425 19.5116 9.02448 19.9043 7.03171C19.9922 6.56868 20.0098 5.70124 19.9336 5.24408C19.9102 5.09169 19.8984 4.96861 19.9102 4.96861C19.9219 4.96861 20.0098 5.00963 20.1036 5.05652C20.467 5.24408 20.4552 5.10927 20.4552 8.45596C20.4552 11.8026 20.467 11.6678 20.1036 11.8554C19.9688 11.9257 19.6523 11.9433 18.5094 11.9433C17.0265 11.9492 16.7745 11.9843 16.5225 12.2129C16.458 12.2715 16.0594 12.8049 15.6433 13.391C15.2213 13.983 14.8579 14.4636 14.8286 14.4636C14.7993 14.4636 14.4359 13.983 14.0139 13.391C13.5978 12.8049 13.1992 12.2715 13.1347 12.2129C12.8827 11.9843 12.6307 11.9492 11.1478 11.9433C10.0049 11.9433 9.68842 11.9257 9.55362 11.8554C9.19023 11.6678 9.20195 11.8026 9.20195 8.46768C9.20195 6.43388 9.2254 5.3906 9.26642 5.31441C9.31917 5.20891 9.6474 4.96861 9.73531 4.96861C9.75876 4.96861 9.7529 5.07997 9.72359 5.21477Z"/>
<path d="M13.9375 2.35915C12.648 2.68151 11.6458 3.60756 11.2297 4.85597C10.5732 6.80772 11.6106 8.93529 13.5565 9.65035C13.9375 9.79101 14.0547 9.80273 14.8284 9.80273C15.5727 9.80273 15.7251 9.78515 16.0592 9.66793C18.0461 8.95288 19.0894 6.83116 18.4271 4.85597C18.2278 4.26986 17.9465 3.8127 17.501 3.36726C17.0673 2.9394 16.6394 2.66979 16.0475 2.46465C15.5141 2.27123 14.4767 2.22434 13.9375 2.35915ZM15.5376 3.36139C16.0533 3.51378 16.4167 3.73064 16.7918 4.11161C17.671 4.98492 17.8644 6.20402 17.3135 7.30591C16.8329 8.26127 15.9009 8.84152 14.8284 8.84152C13.7441 8.84152 12.8121 8.26127 12.3315 7.28246C11.7923 6.18644 11.9916 4.98492 12.8649 4.11161C13.24 3.73064 13.5389 3.54895 14.0664 3.37898C14.4708 3.24417 15.1214 3.23831 15.5376 3.36139Z"/>
<path d="M14.5118 3.51117C14.3946 3.60495 14.3594 3.68114 14.3594 3.87456C14.3535 4.10314 14.336 4.12658 14.1074 4.2438C13.4392 4.57203 13.2751 5.55669 13.7967 6.09005C13.9667 6.26588 14.4825 6.55308 14.629 6.55308C14.6642 6.55308 14.8283 6.5941 14.9924 6.64099C15.3206 6.74063 15.4027 6.90474 15.1858 7.02196C14.881 7.18021 14.5704 7.05127 14.3242 6.66444C14.0839 6.28347 13.7557 6.21899 13.4744 6.50033C13.1872 6.78752 13.5213 7.52602 14.0722 7.83079C14.3418 7.97732 14.3594 8.00077 14.3594 8.22935C14.3594 8.53412 14.5411 8.72168 14.8341 8.72168C15.1038 8.72168 15.2972 8.5224 15.2972 8.24693C15.2972 8.06524 15.3206 8.03593 15.5023 7.9656C16.358 7.65496 16.5749 6.48274 15.8716 5.94352C15.7661 5.86733 15.4378 5.73252 15.1506 5.64461C14.8576 5.56255 14.588 5.45705 14.5411 5.41016C14.3418 5.21675 14.6993 4.97644 15.0334 5.0878C15.1565 5.12883 15.2444 5.21089 15.303 5.33983C15.4554 5.68563 15.8598 5.75597 16.1236 5.49222C16.2291 5.38672 16.2408 5.31639 16.2232 5.07608C16.1881 4.71855 15.9536 4.41378 15.5668 4.2145C15.3206 4.08556 15.2972 4.05625 15.2972 3.85111C15.2972 3.59322 15.092 3.38809 14.8283 3.38809C14.7404 3.38809 14.5997 3.44084 14.5118 3.51117Z"/>
<path d="M14.5355 16.2809C12.9003 16.3922 11.5522 16.6853 8.80336 17.5351C8.11761 17.7461 7.51392 17.922 7.46703 17.922C7.41428 17.922 6.31826 17.6992 5.03468 17.4238C3.7511 17.1483 2.60819 16.9256 2.49683 16.9256C2.38546 16.9256 2.22135 16.9549 2.12758 16.9901C1.91658 17.0662 1.60594 17.3652 1.52974 17.5644C1.41838 17.8458 0 24.5978 0 24.8381C0 25.2132 0.222721 25.5883 0.53922 25.7524C0.709192 25.8403 4.12035 26.5905 4.38996 26.6022C4.47201 26.6022 4.79437 26.6609 5.09915 26.7312L5.65009 26.8601L5.71456 27.1825C5.90212 28.1027 6.58787 28.6478 7.46703 28.5774C7.66631 28.5599 7.90661 28.5071 8.00039 28.4602C8.17036 28.3723 8.17036 28.3723 8.28758 28.6067C8.44583 28.9232 8.75647 29.2222 9.07883 29.3687C9.40705 29.5152 10.0166 29.5269 10.3272 29.3921L10.5441 29.2983L10.7199 29.6148C11.0306 30.1658 11.4702 30.4061 12.1442 30.4061C12.6131 30.4061 12.912 30.3006 13.2285 30.031L13.416 29.8727L13.5333 30.0955C13.8087 30.6288 14.3245 30.9277 14.9751 30.9336C15.4791 30.9336 15.8249 30.7812 16.2938 30.3651C16.5869 30.1072 16.6631 30.0662 17.1144 29.9724C18.6559 29.6559 20.3497 28.8822 22.1666 27.6748L23.0048 27.118L25.9764 26.4792C27.6175 26.1275 29.0241 25.7993 29.112 25.7524C29.4344 25.5883 29.6571 25.2132 29.6571 24.8381C29.6571 24.5978 28.2387 17.8458 28.1274 17.5644C28.0512 17.3652 27.7405 17.0662 27.5295 16.9901C27.4358 16.9549 27.2717 16.9256 27.1603 16.9256C27.0489 16.9256 25.8474 17.1659 24.4876 17.4531L22.0084 17.9864L21.2465 17.6055C19.1599 16.5622 16.9327 16.1226 14.5355 16.2809ZM17.2316 17.371C18.5445 17.5586 19.746 17.9571 21.0355 18.637L21.8208 19.0473L22.5769 18.889C22.9931 18.7953 23.3389 18.7367 23.3506 18.7484C23.3623 18.7601 23.6905 20.2899 24.0832 22.142C24.4759 23.9941 24.81 25.5531 24.8276 25.6059C24.851 25.6821 24.6928 25.7289 23.925 25.8931L22.9989 26.0806L22.53 25.6176C21.6392 24.7267 20.7658 24.164 18.2573 22.8687C17.4543 22.4526 16.5166 21.931 16.1766 21.7082C15.4029 21.1925 14.6527 20.4598 14.219 19.7799C13.7325 19.0239 13.5567 18.9945 12.953 19.5338C12.49 19.944 12.0797 20.2137 11.476 20.5008C10.6906 20.876 9.72941 21.0635 9.36016 20.917C9.26639 20.8818 9.26639 20.8584 9.42464 20.6474C9.51841 20.5184 10.1573 19.8854 10.8489 19.2466C11.5405 18.6019 12.238 17.9513 12.3962 17.7989C12.6834 17.5234 12.7068 17.5117 13.2637 17.4238C14.5883 17.2128 15.9715 17.1952 17.2316 17.371ZM3.82143 18.1857C5.33359 18.5081 5.27498 18.4905 5.27498 18.6136C5.27498 18.766 3.86246 25.389 3.81557 25.4359C3.76282 25.4945 0.996386 24.8849 0.996386 24.8146C0.996386 24.7443 2.38546 18.1974 2.43821 18.0216C2.4558 17.9689 2.49096 17.922 2.52027 17.922C2.54958 17.922 3.13568 18.0392 3.82143 18.1857ZM27.2189 18.0216C27.2717 18.1974 28.6607 24.7443 28.6607 24.8146C28.6607 24.8849 25.8943 25.4945 25.8416 25.4359C25.7947 25.389 24.3821 18.7601 24.3821 18.6077C24.3821 18.555 24.388 18.5081 24.3997 18.5081C24.4056 18.5022 24.9917 18.3733 25.7009 18.2209C26.4101 18.0626 27.0372 17.9278 27.09 17.9278C27.1427 17.922 27.2013 17.9689 27.2189 18.0216ZM9.93455 18.6956C9.54772 19.059 9.09055 19.4927 8.92058 19.6686C7.87731 20.747 8.15278 21.8372 9.49497 21.9485C10.4972 22.0306 11.8042 21.6086 12.953 20.8232C13.2109 20.6474 13.4336 20.5008 13.4453 20.5008C13.4571 20.5008 13.5801 20.6532 13.7208 20.8349C14.2366 21.5207 15.0689 22.2299 16.0887 22.8511C16.3173 22.986 17.173 23.449 18.0053 23.8768C20.1094 24.967 21.0765 25.5883 21.7564 26.2857L22.0377 26.5671L21.2582 27.0653C19.957 27.8975 18.5445 28.5657 17.3957 28.8822L16.9972 28.9936V28.7767C16.9972 28.4544 16.7569 28.003 16.4521 27.7276C16.1825 27.4931 15.8836 27.3759 15.4733 27.3466C15.2799 27.329 15.2623 27.3114 15.1978 27.0536C15.0513 26.4967 14.6586 26.0865 14.0901 25.9165C13.7267 25.811 13.4629 25.8169 13.0937 25.9399L12.7948 26.0454L12.7303 25.8696C12.6189 25.5648 12.3259 25.2659 11.9742 25.0901C11.5639 24.8908 10.9427 24.8674 10.6203 25.0373C10.5089 25.0959 10.4152 25.1311 10.4034 25.1194C10.3976 25.1077 10.3331 24.9963 10.2686 24.8615C10.1397 24.6036 9.84077 24.3164 9.536 24.1523C9.26639 24.0058 8.43411 24.0058 8.12933 24.1582C8.01211 24.2168 7.48461 24.6388 6.96298 25.0959L6.01934 25.9282L5.45668 25.7934C5.1519 25.7231 4.88229 25.6527 4.86471 25.6469C4.82954 25.6293 6.25965 18.807 6.30653 18.7484C6.31826 18.7367 6.59959 18.7835 6.93367 18.8539L7.54323 18.9828L8.76819 18.6019C10.2276 18.1506 10.5675 18.0509 10.6086 18.0451C10.6262 18.0451 10.3214 18.3381 9.93455 18.6956ZM9.13744 25.1018C9.23122 25.1487 9.34844 25.2776 9.40119 25.3949C9.59461 25.7993 9.45394 25.9692 7.77767 27.4052C7.42014 27.71 6.96884 27.6221 6.76956 27.2059C6.60545 26.8543 6.68751 26.7019 7.41428 26.0513C8.63339 24.9553 8.74475 24.8967 9.13744 25.1018ZM11.6753 26.1099C11.8746 26.2975 11.9273 26.5261 11.8277 26.7664C11.7339 26.9832 10.0928 28.4426 9.87594 28.4954C9.68252 28.5423 9.3543 28.4016 9.23122 28.214C9.114 28.0324 9.10228 27.6983 9.21364 27.5459C9.33086 27.3759 10.8958 26.0103 11.0423 25.9517C11.2299 25.8696 11.4936 25.9341 11.6753 26.1099ZM13.8908 26.9187C13.9846 26.9656 14.1018 27.0653 14.1487 27.1356C14.2542 27.2821 14.2718 27.6045 14.1838 27.7686C14.1311 27.8682 12.8827 29.0053 12.5193 29.2808C12.0094 29.6676 11.2767 29.1049 11.5639 28.5481C11.6519 28.3782 13.123 27.0536 13.3809 26.907C13.5567 26.8132 13.6856 26.8132 13.8908 26.9187ZM15.8718 28.5599C16.0301 28.7474 16.0477 29.146 15.8953 29.3335C15.8425 29.4038 15.6667 29.568 15.5026 29.6969C15.2623 29.8962 15.1685 29.9372 14.9575 29.9372C14.7465 29.9372 14.6703 29.9079 14.5296 29.7555C14.3421 29.5562 14.3069 29.2515 14.4359 29.0229C14.5414 28.8412 15.1158 28.3664 15.2623 28.343C15.4674 28.3078 15.7312 28.4016 15.8718 28.5599Z"/>
</svg>
