<svg width="30" height="31" viewBox="0 0 30 31" xmlns="http://www.w3.org/2000/svg">
<path d="M13.4176 0.900764C10.589 1.25954 7.93696 2.57507 5.90819 4.63207C4.27342 6.28843 3.13849 8.30358 2.57397 10.5579C2.2329 11.9272 2.18585 12.5073 2.18585 15.4552V18.0684L1.9918 18.182C1.73306 18.3315 1.03328 19.0191 0.827465 19.3241C-0.113411 20.7114 -0.266303 22.595 0.445234 24.0958C0.709855 24.652 1.16265 25.2439 1.61545 25.6266C2.05648 25.9974 2.89739 26.4279 3.43251 26.5595L3.82651 26.6611L3.89119 26.9481C4.04408 27.5939 4.59097 28.0185 5.26722 28.0185C5.84939 28.0125 6.27278 27.7494 6.56093 27.2113C6.68442 26.9721 6.68442 26.9721 6.68442 22.0986C6.68442 18.1521 6.66677 17.1834 6.60209 16.998C6.42567 16.4897 5.83763 16.0592 5.30838 16.0592C4.60273 16.0592 4.07937 16.4778 3.86767 17.2133C3.80298 17.4405 3.79122 17.4525 3.37371 17.5601C3.13849 17.6199 2.92091 17.6857 2.89151 17.7036C2.80918 17.7514 2.81506 13.6494 2.89739 12.7704C3.2267 9.09887 5.16725 5.72635 8.13101 3.67532L8.47796 3.43614L8.81903 3.64543C9.36591 3.99225 9.77754 4.11184 10.5067 4.14174C11.0595 4.16566 11.2477 4.14772 11.8063 4.01616C13.0412 3.72316 13.6528 3.65738 15.0053 3.65738C16.3519 3.65738 16.9635 3.72316 18.1866 4.01019C19.4568 4.30917 20.527 4.1537 21.368 3.54975L21.5326 3.43614L21.8737 3.67532C22.6969 4.24339 23.7848 5.25993 24.4434 6.07317C25.7665 7.71159 26.678 9.80447 27.0367 12.0229C27.1543 12.7524 27.2367 17.7754 27.1249 17.7096C27.0955 17.6857 26.8721 17.6199 26.6369 17.5601C26.2193 17.4525 26.2076 17.4405 26.1429 17.2133C26.0371 16.8365 25.9077 16.6273 25.6489 16.406C25.1079 15.9336 24.3435 15.9456 23.7966 16.4299C23.3026 16.8724 23.3262 16.5734 23.3262 22.0986V26.9721L23.4555 27.2172C23.5261 27.3488 23.6907 27.5581 23.8201 27.6777L24.0553 27.8929L23.8672 28.0783C23.7672 28.18 23.532 28.3354 23.3556 28.4251C23.0733 28.5627 22.9616 28.5866 22.5029 28.5866C22.0442 28.5866 21.9266 28.5627 21.6091 28.4132C21.3797 28.3055 21.1327 28.1261 20.9563 27.9348C20.6799 27.6418 20.5917 27.4803 19.9566 26.105C19.7979 25.7582 19.545 25.3097 19.3921 25.1064C18.2513 23.5816 16.3343 22.7265 14.5054 22.9298C13.0294 23.0972 11.6181 23.8985 10.7537 25.0586C9.47176 26.7807 9.61877 28.5268 11.1124 29.352C11.918 29.7945 12.9001 29.8602 14.5701 29.5672C16.3166 29.2683 17.0752 29.3221 17.8279 29.8184C18.0808 29.9858 18.2219 30.1293 18.3513 30.3625C18.5924 30.799 18.6335 30.8409 18.8452 30.817C18.9687 30.805 19.0569 30.7512 19.1157 30.6436C19.1922 30.506 19.1863 30.4642 19.051 30.1652C18.7511 29.4955 18.0161 28.9752 17.0752 28.76C16.493 28.6284 15.558 28.6763 14.4466 28.8915C13.3411 29.1008 12.4355 29.1128 11.8945 28.9214C10.9066 28.5686 10.4362 27.875 10.5949 27.002C10.7302 26.2485 11.3653 25.2738 12.0944 24.6819C13.988 23.157 16.5048 23.2647 18.2866 24.939C18.8099 25.4353 19.1569 25.9615 19.5509 26.8644C20.0096 27.9109 20.1037 28.0723 20.4976 28.473C21.6502 29.645 23.4144 29.6091 24.5317 28.3952C24.7257 28.1919 24.9315 28.0185 24.9903 28.0185C25.0491 28.0185 25.2314 27.9467 25.402 27.863C25.7607 27.6836 26.0253 27.3428 26.1194 26.9422L26.1841 26.6611L26.5781 26.5595C26.7956 26.5057 27.2131 26.3442 27.5013 26.2007C29.0831 25.3994 30.0005 23.8866 30.0005 22.0747C30.0005 21.118 29.8182 20.4124 29.3654 19.6231C29.1243 19.2045 28.4422 18.457 28.0893 18.2298L27.8306 18.0684L27.8071 15.1323C27.7894 12.7285 27.7659 12.1126 27.6836 11.694C27.1485 8.88958 26.1017 6.76681 24.3258 4.88321C22.203 2.62888 19.5332 1.26552 16.5342 0.900764C15.7051 0.793129 14.2467 0.799109 13.4176 0.900764ZM15.8638 1.52863C16.7635 1.60636 17.8456 1.81565 18.6394 2.07278C19.2745 2.28206 20.3389 2.73054 20.6388 2.91591C20.8211 3.02952 20.827 3.04148 20.727 3.11324C20.5094 3.26273 19.9272 3.44212 19.545 3.47799C19.2275 3.50789 18.9922 3.47799 18.3572 3.3285C17.1517 3.05344 16.299 2.95777 15.0053 2.95777C13.7116 2.95777 12.8766 3.05344 11.6593 3.3285C11.0183 3.47799 10.7831 3.50789 10.4656 3.47799C10.0833 3.44212 9.50116 3.26273 9.28358 3.11324C9.18362 3.04148 9.1895 3.0355 9.31299 2.95179C9.61289 2.76642 10.5714 2.34784 11.2241 2.12659C12.3179 1.75585 13.6528 1.51667 14.8642 1.47481C14.9994 1.47481 15.4463 1.49873 15.8638 1.52863ZM5.67885 16.9023C6.01992 17.1774 6.00816 16.9561 6.00816 22.0508C6.00816 26.4758 6.00228 26.7448 5.90231 26.9362C5.79058 27.1455 5.47892 27.3607 5.28486 27.3607C5.07317 27.3607 4.77326 27.1814 4.65565 26.99C4.53804 26.7927 4.53804 26.7209 4.5498 21.991L4.56745 17.1834L4.78502 16.9801C4.96732 16.8126 5.05552 16.7768 5.26722 16.7768C5.43776 16.7768 5.57301 16.8186 5.67885 16.9023ZM25.2255 16.9801L25.4431 17.1834L25.4608 21.9611C25.4725 25.4532 25.4549 26.7747 25.4078 26.9003C25.1961 27.4205 24.3494 27.4504 24.0906 26.9422C23.9612 26.685 23.9554 17.4584 24.0906 17.1953C24.2317 16.9203 24.4552 16.7768 24.7433 16.7768C24.955 16.7768 25.0433 16.8126 25.2255 16.9801ZM3.83239 22.0448V25.9376L3.64421 25.8957C3.27962 25.818 2.66217 25.519 2.27406 25.2439C1.58605 24.7417 1.03328 23.9165 0.798062 23.0494C0.633409 22.4455 0.656931 21.4768 0.850987 20.8728C1.18029 19.8443 1.88595 19.0012 2.83271 18.5109C3.06792 18.3853 3.66773 18.164 3.79122 18.1581C3.81474 18.1521 3.83239 19.9041 3.83239 22.0448ZM26.8427 18.3614C27.3954 18.5826 27.813 18.8696 28.2363 19.3301C28.9949 20.1373 29.3125 20.9266 29.3125 22.009C29.3184 22.7923 29.2125 23.2408 28.8773 23.8925C28.7538 24.1377 28.5127 24.4965 28.3481 24.6819C27.8718 25.238 27.0309 25.7462 26.3722 25.8957L26.1782 25.9376V22.0448V18.1521L26.3428 18.188C26.431 18.2119 26.6545 18.2896 26.8427 18.3614Z"/>
<path d="M13.6816 5.67706C12.0233 6.00594 10.7472 6.6637 9.57113 7.80581C8.93016 8.4277 8.41855 9.14526 8.00692 9.98839C7.39535 11.2501 7.14837 12.3982 7.2013 13.8154C7.28362 15.968 8.0422 17.7261 9.54761 19.2329L10.0651 19.7472L10.2415 20.9431C10.3356 21.6069 10.4356 22.1929 10.4532 22.2527C10.5884 22.6354 11.1177 22.9224 11.5293 22.8447C11.6411 22.8207 12.2115 22.5038 12.7995 22.1391L13.858 21.4753L14.8871 21.4633C16.0396 21.4514 16.71 21.3438 17.6333 21.0149C20.3206 20.0522 22.3141 17.6005 22.7316 14.7303C23.2315 11.3219 21.5732 8.00912 18.5918 6.46637C17.9273 6.11955 17.4862 5.9581 16.7453 5.76077C16.1279 5.6053 14.3167 5.55148 13.6816 5.67706ZM16.3454 6.40059C19.1269 6.94474 21.285 9.09144 21.9907 12.0215C22.0671 12.3444 22.0907 12.6912 22.0848 13.5762C22.0848 14.5987 22.0671 14.7661 21.9319 15.2864C21.2027 18.037 19.1916 19.9924 16.4042 20.6441C16.0867 20.7159 15.6751 20.7458 14.8283 20.7518L13.6816 20.7578L12.5466 21.4633C11.6587 22.0135 11.3823 22.163 11.2706 22.1331C11.0942 22.0852 11.1059 22.1092 10.9178 20.8116C10.8354 20.2196 10.7355 19.6396 10.7002 19.5259C10.659 19.3884 10.4473 19.1253 10.1004 18.7785C9.1889 17.8636 8.61261 16.9547 8.24802 15.8485C7.77758 14.4133 7.76582 12.7151 8.21274 11.3039C8.78902 9.49806 10.1651 7.87757 11.8586 7.01052C12.4996 6.68762 13.5698 6.3707 14.3284 6.28698C14.7459 6.24512 15.8456 6.30492 16.3454 6.40059Z"/>
<path d="M14.4752 8.46004C14.0165 8.60355 13.5519 9.05203 13.4285 9.4706C13.0051 10.8938 14.434 12.0658 15.6983 11.3303C16.8097 10.6845 16.6392 8.93243 15.4219 8.49592C15.1514 8.40024 14.7222 8.38828 14.4752 8.46004ZM15.3631 9.26131C15.5925 9.41678 15.7689 9.73371 15.7689 9.99083C15.7689 10.248 15.5395 10.6187 15.2984 10.7443C14.7457 11.0492 14.0459 10.6307 14.0459 9.99681C14.0459 9.30317 14.7986 8.87862 15.3631 9.26131Z"/>
<path d="M13.9465 12.177C13.7289 12.2667 13.429 12.5837 13.3584 12.7989C13.2526 13.1218 12.9527 17.3494 13.0173 17.5886C13.0997 17.8996 13.429 18.2404 13.7289 18.3301C13.8994 18.3779 14.3346 18.3959 15.0461 18.3779C16.0928 18.36 16.1046 18.36 16.3516 18.1926C16.5221 18.079 16.6397 17.9354 16.722 17.7441L16.8455 17.4631L16.6632 15.1429C16.4927 12.8707 16.4809 12.8169 16.328 12.5837C16.0752 12.195 15.8282 12.1113 14.8873 12.1172C14.4522 12.1172 14.0288 12.1471 13.9465 12.177ZM15.4695 12.8049C15.5753 12.8288 15.6988 12.9006 15.74 12.9723C15.8164 13.0859 16.1222 16.5302 16.1222 17.2358C16.1222 17.6424 16.034 17.6723 14.8756 17.6723C13.9347 17.6723 13.8877 17.6664 13.7642 17.5348C13.6583 17.4212 13.6466 17.3554 13.676 17.0445C13.6936 16.8472 13.7642 15.9024 13.8288 14.9516C13.8994 13.9949 13.9817 13.1457 14.017 13.056C14.0464 12.9664 14.1464 12.8707 14.2346 12.8348C14.411 12.769 15.1931 12.7511 15.4695 12.8049Z"/>
</svg>
