<svg width="30" height="31" viewBox="0 0 30 31">
<path d="M5.6592 0.134901C4.7497 0.301712 3.75697 0.71278 2.96041 1.24896C2.49079 1.5647 1.52778 2.52982 1.21273 3.00047C0.659889 3.82856 0.267553 4.79368 0.101107 5.72901C-0.0296718 6.49157 -0.0356163 14.6176 0.0951625 14.8738C0.225941 15.1181 0.463721 15.2491 0.778779 15.2551C1.09978 15.261 1.27812 15.1776 1.42673 14.9572C1.52184 14.8083 1.52778 14.4568 1.56345 10.501C1.59912 5.83624 1.59317 5.90178 1.94984 5.01411C2.23518 4.29325 2.56807 3.79877 3.16252 3.20302C3.75697 2.60727 4.25036 2.27365 4.95181 1.99365C5.86726 1.63024 5.75432 1.6362 10.1057 1.60045L14.1123 1.5647L14.3203 1.33236C14.5165 1.11789 14.5284 1.0881 14.5046 0.778313C14.4808 0.510224 14.4392 0.420862 14.2847 0.265966L14.1004 0.075326L10.0997 0.0634108C6.93132 0.0574541 6.00993 0.0693684 5.6592 0.134901Z"/>
<path d="M21.6198 0.110094C19.5036 0.38414 17.6846 1.67692 16.7453 3.58928C16.0498 4.99526 15.8893 6.50251 16.2698 7.99785C16.5432 9.09999 17.1198 10.1128 17.9283 10.923C19.5214 12.5136 21.81 13.1451 23.9976 12.5851C24.6693 12.4183 25.4837 12.049 26.0128 11.6796L26.3754 11.4294L27.5643 12.609C28.8543 13.8958 28.991 13.9851 29.4249 13.872C29.7103 13.7945 29.9064 13.586 29.9718 13.3C30.0669 12.889 29.9837 12.7758 28.6997 11.4889L27.487 10.2736L27.6891 9.99361C27.9685 9.60042 28.3906 8.68296 28.5392 8.14678C29.4606 4.75696 27.5405 1.28968 24.1997 0.318607C23.3378 0.0683918 22.4877 0.00285912 21.6198 0.110094ZM23.6647 1.77224C25.3351 2.24289 26.631 3.57141 27.065 5.25739C27.2314 5.91272 27.2314 6.86592 27.065 7.52124C26.3279 10.3749 23.3437 11.9238 20.6449 10.8515C19.2004 10.2796 18.1185 8.99275 17.7559 7.43188C17.6548 6.97911 17.637 5.99612 17.7321 5.48973C18.0829 3.58928 19.6998 2.0165 21.6971 1.65309C22.1429 1.56969 23.1713 1.63522 23.6647 1.77224Z"/>
<path d="M8.47618 13.83C7.88173 13.9432 7.66773 14.0207 7.05545 14.3305C6.568 14.5807 6.41939 14.7058 5.30183 15.796C2.57925 18.465 0.177678 20.8778 0.094455 21.0267C-0.0066013 21.2233 -0.0125458 21.5927 0.0885105 21.7893C0.130122 21.8667 0.254956 21.9978 0.367901 22.0752C0.534347 22.1884 0.629459 22.2123 0.861294 22.1884C1.11096 22.1646 1.18824 22.1229 1.43791 21.8786L1.72324 21.5927L1.74702 23.791C1.7708 25.8225 1.78269 26.0251 1.90158 26.46C2.27608 27.8243 3.21531 28.9741 4.43988 29.5638C5.45638 30.0583 5.28399 30.0404 9.34408 30.0404C13.3507 30.0404 13.2496 30.0524 14.1532 29.6175C15.4491 29.0098 16.3705 27.9315 16.7866 26.5434C16.9055 26.1383 16.9174 25.9655 16.9411 23.8506L16.9649 21.5927L17.2086 21.8369C17.5059 22.1289 17.7436 22.2301 18.0171 22.1765C18.4154 22.0991 18.6769 21.7833 18.6769 21.3723C18.6769 21.0803 18.558 20.9135 17.7318 20.0914L16.953 19.3169V17.2437C16.953 14.956 16.9471 14.9262 16.5785 14.6998C16.2159 14.4735 15.7106 14.5926 15.4966 14.956C15.3896 15.1228 15.3718 15.2956 15.348 16.4037L15.3183 17.6607L13.7311 16.1237C12.1558 14.5986 12.138 14.5807 11.5317 14.2888C11.1928 14.122 10.747 13.9492 10.533 13.8956C9.98014 13.7645 8.98741 13.7347 8.47618 13.83ZM10.1406 15.4445C10.9729 15.665 11.175 15.8258 13.3744 18.0063L15.4193 20.0259L15.3956 22.8914C15.3718 25.6259 15.3658 25.7689 15.241 26.1383C14.9854 26.9187 14.4682 27.5979 13.8203 27.9851C13.3982 28.2472 12.78 28.4557 12.453 28.4617H12.2034L12.1855 26.0013C12.1677 23.5885 12.1677 23.5408 12.031 23.2489C11.8527 22.8616 11.4841 22.4863 11.1036 22.3135C10.8124 22.1825 10.741 22.1765 9.34408 22.1765H7.88768L7.54884 22.3433C7.14462 22.5399 6.782 22.9331 6.63339 23.3263C6.53828 23.5765 6.52639 23.8923 6.50261 26.037L6.48478 28.4617H6.28861C5.78333 28.4617 5.02244 28.14 4.48149 27.6991C4.13076 27.4132 3.73248 26.8413 3.53631 26.3408L3.36987 25.9298L3.35203 22.9808L3.3342 20.0318L5.40288 17.9705C7.5964 15.7841 7.69746 15.6947 8.48213 15.4684C8.92797 15.3373 9.68886 15.3254 10.1406 15.4445ZM10.5211 23.8268C10.5746 23.8804 10.5924 24.494 10.5924 26.2098V28.5213H9.34408H8.09574V26.2098C8.09574 24.494 8.11357 23.8804 8.16707 23.8268C8.26813 23.7255 10.42 23.7255 10.5211 23.8268Z"/>
<path d="M29.0273 17.367C28.9441 17.3789 28.8193 17.4326 28.742 17.4802C28.4269 17.6887 28.4269 17.7006 28.4269 20.5781C28.4269 23.9382 28.3734 24.3909 27.886 25.4156C27.2915 26.6667 26.2869 27.6199 25.0148 28.1263C24.2361 28.442 23.9686 28.4718 21.8642 28.5016L19.9085 28.5314L19.6945 28.728C19.4924 28.9127 19.4805 28.9484 19.4805 29.288C19.4805 29.6157 19.4983 29.6693 19.6766 29.8421L19.8669 30.0387L21.8048 30.0565C23.9151 30.0744 24.3906 30.0327 25.2704 29.7348C25.8113 29.5501 26.5306 29.1987 27.024 28.865C27.4936 28.5493 28.4566 27.5842 28.7717 27.1135C29.3245 26.2914 29.7228 25.3084 29.8833 24.3552C30.0141 23.6105 30.0141 17.9866 29.8833 17.7364C29.7466 17.4743 29.3543 17.3075 29.0273 17.367Z"/>
</svg>
