<svg width="30" height="31" viewBox="0 0 30 31">
<path d="M11.5914 1.02003C11.4831 1.07417 8.83632 3.6659 5.72248 6.79223C0.74034 11.7795 0.056649 12.49 0.0160337 12.7133C-0.0448893 13.0381 0.0701874 13.3765 0.320648 13.6133C0.489879 13.7757 0.598186 13.8163 0.929878 13.8366L1.3428 13.8637L2.14834 13.072L2.95387 12.2735L2.97418 18.3231L2.99449 24.3728L3.15695 24.6028C3.46156 25.0224 3.3668 25.0156 7.73971 25.0156C11.3748 25.0156 11.7065 25.0089 11.6659 24.9073C11.5982 24.7246 11.4222 23.581 11.4222 23.3036V23.0532H10.7791H10.136V20.7524V18.4517H11.1852H12.2345L12.4782 17.9577C12.6135 17.6938 12.8572 17.2675 13.0197 17.0103L13.3175 16.5569H11.0972C8.99878 16.5569 8.87017 16.5637 8.66032 16.6923C8.2474 16.9427 8.24063 16.99 8.24063 20.1773V23.0532H6.58217H4.92372V16.672V10.2975L8.44371 6.7787L11.9637 3.25989L16.4855 7.77344L21.0006 12.287L22.0498 12.3547C22.6252 12.3953 23.2615 12.4562 23.4646 12.4968C23.6677 12.5306 23.8504 12.5509 23.8708 12.5306C23.9317 12.4629 12.5526 1.12153 12.3225 1.02003C12.0517 0.904991 11.8554 0.904991 11.5914 1.02003Z"/>
<path d="M20.5671 14.1883C15.5173 14.8244 12.1665 19.8117 13.4865 24.7312C14.3124 27.817 16.729 30.0974 19.8835 30.7877C20.7364 30.9704 22.3542 30.9839 23.2207 30.8147C26.5917 30.1448 29.1505 27.6004 29.8748 24.2034C30.0373 23.4185 30.044 21.7606 29.8816 20.935C29.2047 17.5448 26.6594 15.0004 23.2342 14.2899C22.5911 14.1613 21.2305 14.1071 20.5671 14.1883ZM23.2342 16.2861C24.5068 16.6244 25.8674 17.5042 26.6594 18.5057C27.1536 19.135 27.6816 20.1839 27.8847 20.9215C28.0945 21.7064 28.0945 23.3914 27.8847 24.1696C27.2619 26.4365 25.5019 28.1959 23.2342 28.8185C22.449 29.035 20.7702 29.035 19.985 28.8185C19.2336 28.6087 18.1911 28.0809 17.5684 27.5937C16.5598 26.7952 15.6865 25.4485 15.3345 24.1358C15.1112 23.3102 15.1179 21.7876 15.3413 20.9553C16.025 18.4042 18.0896 16.55 20.7296 16.1305C21.217 16.0493 22.6994 16.144 23.2342 16.2861Z"/>
<path d="M21.2368 18.1797C21.2368 18.403 21.2165 18.4503 21.1014 18.4503C20.851 18.4503 20.2417 18.721 19.9642 18.9578C19.8153 19.0932 19.6054 19.3706 19.4971 19.5872C19.3279 19.9255 19.3076 20.0473 19.3076 20.5819C19.3143 21.2654 19.4362 21.6037 19.8559 22.0909C20.0793 22.3481 20.9254 22.8488 21.142 22.8488C21.2165 22.8488 21.2368 23.0519 21.2368 23.8639C21.2368 24.4323 21.2097 24.8789 21.1759 24.8789C21.0743 24.8789 20.6817 24.3443 20.5937 24.0804C20.499 23.8097 20.5666 23.8165 19.5445 23.918L19.1045 23.9654L19.1316 24.1684C19.1383 24.2767 19.2128 24.527 19.2805 24.7165C19.5851 25.5286 20.1402 25.9955 21.054 26.1917C21.23 26.2323 21.2368 26.2458 21.2368 26.706V27.1797H21.6429H22.0491V26.7128V26.2458L22.374 26.1646C23.1389 25.9819 23.8091 25.3797 24.046 24.6692C24.2085 24.1887 24.1611 23.2684 23.958 22.8691C23.7008 22.3752 23.2405 22.0436 22.4214 21.7661L22.0829 21.6511L22.0626 20.6902C22.0491 19.7563 22.0491 19.7293 22.1777 19.7969C22.2454 19.8376 22.374 20.0067 22.4553 20.1759C22.5906 20.4601 22.6177 20.4804 22.8208 20.4466C22.9359 20.4263 23.2269 20.3857 23.4639 20.3451C23.7008 20.3112 23.9106 20.2706 23.9242 20.2503C23.9648 20.2097 23.8226 19.7699 23.6669 19.4586C23.4233 18.9714 22.6313 18.4503 22.1371 18.4503C22.0762 18.4503 22.0491 18.3556 22.0491 18.1797V17.909H21.6429H21.2368V18.1797ZM21.2368 20.4804C21.2368 21.015 21.2097 21.2924 21.1623 21.2924C21.0405 21.2924 20.702 20.9135 20.6546 20.724C20.587 20.4398 20.6885 20.0676 20.8983 19.8579C21.0066 19.7563 21.1217 19.6684 21.1623 19.6684C21.2097 19.6684 21.2368 19.9458 21.2368 20.4804ZM22.4823 23.3293C22.7599 23.5729 22.8479 23.891 22.7328 24.2699C22.6651 24.5135 22.2657 24.9466 22.1168 24.9466C22.0762 24.9466 22.0491 24.5744 22.0491 24.0331C22.0491 23.0045 22.0694 22.9639 22.4823 23.3293Z"/>
</svg>
