<svg width="31" height="31" viewBox="0 0 31 31">
<path d="M6.16535 4.94921C3.00236 7.15313 0.395716 8.99595 0.364461 9.03953C0.339457 9.08311 0.314453 9.18895 0.314453 9.26988C0.314453 9.43798 1.33336 10.9259 1.54589 11.0629C1.71467 11.175 1.87719 11.1314 2.25225 10.8637C2.40852 10.7578 2.57105 10.6458 2.6148 10.6209C2.67106 10.5835 2.68982 11.9532 2.68982 17.3634V24.1557H1.90845C0.82078 24.1557 0.877039 24.0747 0.877039 25.6125V26.8265L1.03956 26.951L1.20834 27.0818H12.135C22.9867 27.0818 23.0679 27.0818 23.1929 26.9573C23.3055 26.8452 23.318 26.7518 23.318 26.1168C23.318 25.4257 23.3242 25.3946 23.4617 25.3448C23.5617 25.3012 23.618 25.3137 23.6805 25.3884C23.7243 25.4506 24.4431 26.5713 25.2683 27.8911C26.0934 29.211 26.856 30.3752 26.956 30.4873C27.2811 30.8235 27.6874 30.9604 28.3125 30.9293C28.9376 30.8982 29.3001 30.755 29.6939 30.3752C30.0627 30.0141 30.269 29.5659 30.3065 29.0367C30.3503 28.3207 30.2878 28.2211 28.0937 25.7183C27.031 24.5105 26.1559 23.4957 26.1434 23.4708C26.1309 23.4459 26.1996 23.3152 26.2872 23.1845C26.5685 22.7798 26.8122 22.2568 26.9873 21.684C27.1373 21.1922 27.156 21.0428 27.156 20.1712C27.156 19.2996 27.1373 19.1564 26.981 18.6459C26.3059 16.4357 24.3931 14.9166 22.1178 14.7735L21.5052 14.7361V12.6567C21.5052 11.5174 21.5177 10.5835 21.5364 10.5835C21.5552 10.5835 21.7052 10.6831 21.8677 10.7952C22.2991 11.1065 22.4866 11.1687 22.6616 11.0567C22.7429 11.0006 23.0492 10.6146 23.3492 10.1975C23.8055 9.54382 23.8805 9.40063 23.868 9.21385C23.8493 9.00218 23.7243 8.91502 18.0734 4.96789C13.429 1.72427 12.26 0.933594 12.1038 0.933594C11.9475 0.933594 10.7348 1.75539 6.16535 4.94921ZM17.5796 5.62782L22.9242 9.36327L22.6491 9.74927L22.3741 10.1415L17.3483 6.63016C14.5854 4.70018 12.2663 3.10638 12.1975 3.08148C12.1288 3.0628 12.0037 3.07525 11.9287 3.11884C11.81 3.18109 2.13973 9.91114 1.9022 10.0917C1.82093 10.1602 1.28335 9.40685 1.35836 9.33214C1.5834 9.10802 12.11 1.82388 12.1663 1.85501C12.2038 1.87991 14.6416 3.57954 17.5796 5.62782ZM16.4607 7.02238L20.6926 9.97339V12.4263C20.6926 14.7672 20.6863 14.8793 20.58 14.8793C20.5113 14.8793 20.2987 14.9353 20.0987 15.0038C19.7299 15.1283 19.6299 15.1221 19.6299 14.9727C19.6299 14.7859 19.3799 14.7548 17.8734 14.7548C16.5482 14.7548 16.3419 14.7672 16.2419 14.8606C16.1356 14.954 16.1294 15.1034 16.1294 17.0396C16.1294 18.9323 16.1419 19.1253 16.2419 19.2186C16.3356 19.3183 16.3481 19.4303 16.3294 20.0404C16.2856 21.4973 16.7795 22.8358 17.7359 23.8506L18.0234 24.1557H16.4794H14.9417V20.4825C14.9417 16.8902 14.9417 16.8093 14.8167 16.6848C14.6979 16.5665 14.6104 16.5602 12.1163 16.5602C10.6973 16.5602 9.50335 16.5851 9.46585 16.6101C9.26582 16.7408 9.25332 16.9276 9.25332 20.5385V24.1557H6.37788H3.50244V17.0708V9.98585L7.79684 6.99126C10.1597 5.34143 12.1225 4.00912 12.16 4.0278C12.1913 4.0527 14.1291 5.39746 16.4607 7.02238ZM18.461 15.8381C17.9796 16.1992 17.5108 16.6972 17.1983 17.1828L16.942 17.575V16.5727V15.5641H17.8859H18.8298L18.461 15.8381ZM23.0367 15.7509C24.9495 16.3486 26.2497 17.9797 26.3622 19.9222C26.4872 22.0016 25.187 23.8817 23.1617 24.5666C22.4491 24.8094 21.4302 24.8467 20.6863 24.66C19.8112 24.4421 19.1861 24.0934 18.536 23.4397C17.9046 22.8109 17.5858 22.3191 17.3358 21.572C17.1795 21.1237 17.167 20.9868 17.167 20.1712C17.167 19.3183 17.1733 19.2373 17.3608 18.7206C17.6296 17.9548 17.8921 17.5439 18.511 16.9276C18.9735 16.4606 19.1298 16.3486 19.6987 16.0746C20.055 15.9003 20.5488 15.7135 20.7863 15.6637C21.3989 15.5268 22.4553 15.5704 23.0367 15.7509ZM14.1291 20.7626V24.1557H12.0975H10.0659V20.7626V17.3696H12.0975H14.1291V20.7626ZM26.1934 24.8405C26.1934 24.8592 25.9059 25.0771 25.5558 25.3323C25.0807 25.6748 24.912 25.7681 24.8744 25.7059C24.8494 25.6561 24.7307 25.4693 24.6119 25.2825L24.3931 24.9463L24.7494 24.7098C24.9432 24.5852 25.1995 24.3922 25.3183 24.2864L25.5371 24.0934L25.8621 24.4545C26.0434 24.6475 26.1934 24.8218 26.1934 24.8405ZM19.6299 25.1767C20.3488 25.4693 20.9926 25.5876 21.8177 25.5876H22.5053V25.93V26.2724H12.0975H1.68966V25.6187V24.965H10.3972H19.1048L19.6299 25.1767ZM28.0999 26.9822C29.0188 28.0405 29.4314 28.5573 29.4689 28.7129C29.6439 29.4102 29.0126 30.1324 28.2125 30.1324C27.6874 30.1324 27.5936 30.0328 26.4309 28.1775C25.8496 27.2561 25.387 26.4966 25.3933 26.4841C25.4745 26.4094 26.731 25.4693 26.756 25.4693C26.7747 25.4693 27.3811 26.1479 28.0999 26.9822Z"/>
<path d="M11.1036 6.33165C9.54716 6.66162 8.24071 7.75735 7.67187 9.20172C7.32807 10.0982 7.23431 10.9698 7.40308 11.8414C7.74063 13.5847 8.91581 14.9294 10.6036 15.5022C11.1849 15.7014 11.2724 15.7139 12.0663 15.7139C13.0477 15.7139 13.4478 15.6267 14.2291 15.2469C15.4043 14.6742 16.2857 13.6407 16.692 12.3582C16.8795 11.7667 16.9295 10.6586 16.7983 10.0422C16.5857 9.07098 16.1857 8.34257 15.4731 7.62661C14.948 7.10364 14.5104 6.81103 13.8791 6.55578C13.0727 6.23204 11.9725 6.14488 11.1036 6.33165ZM13.3415 7.24684C16.1544 8.19938 16.9733 11.6796 14.8792 13.7652C13.6728 14.9668 11.9288 15.2718 10.4223 14.5434C9.24711 13.9769 8.47825 12.9808 8.21571 11.7045C7.81565 9.71224 9.10334 7.70754 11.1412 7.15968C11.7913 6.98535 12.6664 7.01648 13.3415 7.24684Z"/>
<path d="M11.8596 7.84455C11.7095 7.96284 11.6908 8.01887 11.6845 8.36129V8.74729L11.3595 8.90293C10.9469 9.10838 10.6844 9.46325 10.6406 9.8866C10.5781 10.559 10.8719 10.9014 11.8846 11.3434C12.2284 11.4866 12.5659 11.6609 12.6347 11.7232C13.041 12.103 12.3096 12.6446 11.7658 12.3645C11.5533 12.2524 11.4407 12.0967 11.4407 11.8975C11.4407 11.717 11.222 11.5177 11.0344 11.5177C10.9469 11.5177 10.8157 11.58 10.7469 11.6485C10.6344 11.7606 10.6156 11.8353 10.6406 12.0905C10.6844 12.5076 10.9532 12.8687 11.372 13.0742L11.6908 13.2298V13.5722C11.6908 14.0143 11.8096 14.1948 12.0971 14.1948C12.4096 14.1948 12.5034 14.0641 12.5097 13.6158V13.2298L12.8347 13.0742C13.2535 12.8687 13.5098 12.5139 13.5536 12.0843C13.6161 11.4057 13.391 11.138 12.3471 10.6461C11.9346 10.4469 11.5595 10.2415 11.5095 10.1917C11.297 9.93641 11.6845 9.52551 12.1409 9.52551C12.4159 9.52551 12.7534 9.78076 12.7534 9.99244C12.7534 10.1854 12.9847 10.4594 13.1535 10.4594C13.416 10.4594 13.5661 10.2913 13.5661 9.98621C13.5661 9.48815 13.216 9.00877 12.7222 8.83445C12.5034 8.75351 12.5034 8.75351 12.5034 8.37374C12.5034 8.16207 12.4659 7.94416 12.4284 7.88813C12.2909 7.72004 12.0471 7.69513 11.8596 7.84455Z"/>
<path d="M4.67121 14.8668C4.57744 14.9727 4.56494 15.2155 4.56494 17.077C4.56494 19.1688 4.56494 19.1688 4.70246 19.2622C4.82123 19.3431 5.08377 19.3618 6.31521 19.3618C7.54665 19.3618 7.80919 19.3431 7.92795 19.2622C8.06547 19.1688 8.06547 19.1688 8.06547 17.0645C8.06547 15.1034 8.05922 14.954 7.95296 14.8606C7.85294 14.7672 7.64041 14.7548 6.30271 14.7548C4.89624 14.7548 4.76497 14.7672 4.67121 14.8668ZM7.25285 17.0583V18.5525H6.31521H5.37757V17.0583V15.5641H6.31521H7.25285V17.0583Z"/>
<path d="M20.7049 15.994C18.7546 16.4858 17.4419 18.1668 17.4419 20.1715C17.4419 22.5809 19.3234 24.4735 21.7175 24.4673C22.4677 24.4673 23.0302 24.3365 23.6553 24.0377C24.7305 23.5085 25.5306 22.5746 25.8932 21.4166C26.0995 20.7443 26.0995 19.5987 25.8932 18.9263C25.6681 18.2104 25.3556 17.7123 24.793 17.1458C23.9304 16.2928 23.1178 15.9442 21.8801 15.9006C21.3237 15.8819 21.0612 15.9006 20.7049 15.994ZM22.5364 16.7785C23.8179 17.1022 24.8368 18.117 25.1618 19.3933C25.5431 20.8875 24.7493 22.5622 23.324 23.2782C22.6864 23.5894 22.2489 23.6828 21.5363 23.6392C19.7735 23.5396 18.3733 22.1451 18.2733 20.3894C18.2295 19.6797 18.3233 19.2439 18.6421 18.6026C19.3547 17.1831 21.0362 16.3987 22.5364 16.7785Z"/>
</svg>
