<svg width="30" height="31" viewBox="0 0 30 31">
<path d="M16.7608 1.0171C15.7303 1.19877 14.5664 1.62657 13.7602 2.11297C12.1235 3.10921 10.8445 4.63287 10.2141 6.34991C9.84432 7.3696 9.77157 7.79739 9.7352 9.35036L9.69883 10.7744L5.21312 14.2905C2.74598 16.2303 0.612239 17.918 0.47888 18.0469C0.10305 18.3868 0 18.633 0 19.1545C0 19.5296 0.0242471 19.6351 0.16973 19.8753C0.58193 20.5493 1.47301 20.8071 2.20042 20.4614L2.45502 20.3442V25.5246C2.45502 28.9821 2.4732 30.7461 2.51564 30.8222C2.58231 30.9336 2.73992 30.9336 11.0506 30.9336C17.561 30.9336 19.5431 30.916 19.5977 30.8633C19.6523 30.8105 19.6704 29.5506 19.6704 25.5656V20.3324L20.0099 20.4848C20.6282 20.7544 21.3617 20.5961 21.8103 20.0922C22.0709 19.7992 22.18 19.4417 22.1437 18.9904C22.0952 18.3341 22.2346 18.4572 17.1306 14.4605L12.4569 10.8037L12.4751 9.45584C12.4933 8.19003 12.5054 8.07868 12.657 7.59229C12.954 6.65465 13.3541 5.99244 14.0572 5.27749C14.5967 4.73249 15.0696 4.39846 15.803 4.06442C16.6214 3.68937 17.2821 3.54872 18.2156 3.54872C19.4219 3.54872 20.3979 3.83002 21.3981 4.47464C22.9135 5.44744 23.8531 7.00626 24.0046 8.81121L24.047 9.28589L23.7197 9.38552C22.9984 9.60821 22.0952 10.2763 21.5738 10.9795C21.2586 11.4132 20.998 11.9523 20.8464 12.4797C20.6949 12.9954 20.6949 14.1733 20.8404 14.7007C20.9677 15.152 21.2829 15.8259 21.5557 16.201C21.9618 16.7811 22.8104 17.4551 23.4469 17.707L23.6712 17.8008V23.4559V29.1052L24.3804 29.9784C24.7684 30.4531 25.1139 30.8633 25.1503 30.8867C25.1867 30.9102 25.3018 30.9336 25.3988 30.9336C25.5564 30.9336 25.6474 30.8516 26.0959 30.3065C26.3808 29.9667 26.7142 29.5506 26.8415 29.3924L27.0658 29.1052V28.4723V27.8453L27.4295 27.5171C27.6599 27.3178 27.7932 27.1479 27.7932 27.0658C27.7932 27.0014 27.672 26.8197 27.5265 26.6673L27.2598 26.3978L27.6477 26.0403C27.866 25.8411 28.0357 25.6359 28.0357 25.5715C28.0357 25.507 27.872 25.3136 27.6599 25.1202L27.278 24.7803L27.6538 24.4405C27.866 24.2529 28.0357 24.0478 28.0357 23.9892C28.0357 23.9248 27.866 23.7196 27.6659 23.5321C27.4598 23.3446 27.3022 23.1864 27.3143 23.1805C27.3265 23.1688 27.4659 23.0633 27.6296 22.9402C28.0599 22.6062 28.0296 22.4656 27.4174 22.026L27.0658 21.7799V19.7992V17.8243L27.4598 17.6367C28.5509 17.1152 29.3814 16.1775 29.7997 14.9938C29.9815 14.4781 29.9997 14.3784 29.9997 13.6459C30.0058 12.7024 29.9209 12.3391 29.5148 11.5479C29.048 10.6513 28.2357 9.90122 27.2719 9.47928C27.0597 9.38552 26.8476 9.30933 26.793 9.30933C26.7203 9.30933 26.7021 9.21557 26.7021 8.78777C26.7021 7.4282 26.1565 5.81077 25.2715 4.51566C24.8351 3.89448 23.9804 3.0213 23.3136 2.5349C22.3316 1.81409 20.907 1.22807 19.6462 1.0171C18.9794 0.905758 17.3973 0.905758 16.7608 1.0171ZM19.6704 1.72033C21.2404 2.0192 22.6104 2.73415 23.744 3.84174C25.1018 5.17201 25.8353 6.74255 26.005 8.66471L26.0474 9.10423H25.3746H24.7017V8.80535C24.7017 8.38928 24.5502 7.59814 24.3804 7.11175C24.0713 6.23857 23.5924 5.4826 22.9196 4.80281C21.9133 3.79485 20.7373 3.17953 19.3734 2.95098C16.0152 2.38254 12.8025 4.3633 11.9296 7.55126C11.8023 8.01422 11.772 8.28379 11.7477 9.17455L11.7174 10.247L11.5537 10.2001C11.3416 10.1415 10.7718 10.1473 10.5535 10.2118L10.3778 10.2646L10.4141 9.30347C10.4747 7.73879 10.7051 6.80701 11.3052 5.68185C12.4145 3.60147 14.6513 2.0192 16.9426 1.69689C17.1912 1.66173 17.464 1.62071 17.5488 1.60899C17.8337 1.56211 19.2158 1.63243 19.6704 1.72033ZM26.1868 9.86605C26.8052 9.98912 27.5386 10.3642 28.0114 10.792C28.6479 11.3604 29.0238 11.9816 29.2177 12.7493C29.3572 13.3002 29.3147 14.2085 29.1329 14.7593C28.7692 15.8552 27.8478 16.7694 26.6536 17.2089C26.2838 17.3496 26.1687 17.3613 25.3685 17.3613C24.5684 17.3613 24.4532 17.3496 24.0834 17.2089C22.8892 16.7694 21.9982 15.8845 21.6042 14.7593C21.4223 14.2261 21.3799 13.3881 21.5132 12.802C21.7678 11.6944 22.5862 10.6865 23.6106 10.1942C24.4532 9.79573 25.3018 9.68439 26.1868 9.86605ZM11.7113 11.1026C11.875 11.2256 14.0997 12.972 16.6517 14.982C20.7009 18.1641 21.3071 18.6623 21.392 18.8674C21.5193 19.1662 21.4465 19.471 21.192 19.7054C20.9616 19.9164 20.4827 19.9867 20.2524 19.8402C20.1736 19.7874 18.1065 18.1759 15.6636 16.2537C11.9235 13.3177 11.19 12.7669 11.0506 12.7786C10.9354 12.7903 9.4988 13.8862 6.44972 16.283C4.00683 18.1993 1.95189 19.7992 1.88521 19.8402C1.70942 19.9398 1.33359 19.9339 1.11537 19.8285C0.733474 19.6351 0.575868 19.0725 0.806216 18.7384C0.897142 18.5978 10.1292 11.3018 10.6384 10.9619C10.9536 10.7509 11.3234 10.8037 11.7113 11.1026ZM15.0938 16.7049L18.9976 19.7698L19.0037 25.0265V30.289H14.5179H10.0322V26.9779C10.0322 23.7431 10.0322 23.6669 9.911 23.5497C9.79582 23.4384 9.71096 23.4325 7.43173 23.4325C5.36467 23.4325 5.05552 23.4442 4.97671 23.5263C4.89185 23.6083 4.87973 24.0009 4.87973 26.9545V30.289H4.03108H3.18243V25.0206V19.7464L7.11046 16.6698C9.26845 14.9703 11.0688 13.599 11.1112 13.6166C11.1537 13.6283 12.9419 15.0231 15.0938 16.7049ZM26.3384 20.0453C26.3384 21.1294 26.3566 22.0612 26.3748 22.1139C26.399 22.1608 26.5324 22.2839 26.6839 22.3835L26.9567 22.5652L26.8112 22.6589C26.5263 22.8406 26.3384 23.0457 26.3384 23.1805C26.3384 23.3212 26.399 23.3915 26.8233 23.7431L27.0961 23.9658L26.7142 24.3057C26.2293 24.7393 26.2293 24.8155 26.7142 25.2492L27.0901 25.5832L26.8476 25.7824C26.2293 26.304 26.205 26.3919 26.6112 26.7728L26.8779 27.0307L26.6112 27.3061L26.3384 27.5874V28.2379V28.8884L25.8777 29.4392C25.6231 29.744 25.3928 29.996 25.3685 29.996C25.3443 29.996 25.1139 29.744 24.8593 29.4392L24.3986 28.8884V23.4794V18.0704H25.3685H26.3384V20.0453ZM9.30482 27.2123V30.289H7.42567H5.54652V27.2123V24.1357H7.42567H9.30482V27.2123Z"/>
<path d="M24.7803 11.0954C23.1194 11.447 22.2283 13.2754 22.9982 14.7463C23.8407 16.3579 26.0957 16.6567 27.3444 15.3265C28.7023 13.8673 27.9143 11.4997 25.9321 11.0954C25.435 10.9899 25.2713 10.9899 24.7803 11.0954ZM26.2048 11.9099C26.8716 12.2381 27.2475 12.7831 27.296 13.4922C27.3384 14.2365 26.9626 14.8869 26.2715 15.2561C25.9745 15.4144 25.8957 15.4319 25.3683 15.4319C24.8409 15.4319 24.7621 15.4144 24.4651 15.2561C23.3012 14.635 23.077 13.1465 24.0165 12.2674C24.6106 11.7048 25.4956 11.5642 26.2048 11.9099Z"/>
<path d="M9.02614 16.9798C8.66243 17.1966 8.63818 17.3197 8.63818 19.195C8.63818 21.0527 8.65637 21.1464 9.02008 21.4043C9.18374 21.5215 9.26861 21.5273 11.0568 21.5273C13.1239 21.5273 13.1178 21.5273 13.3664 21.1288C13.4815 20.953 13.4876 20.8241 13.4876 19.195C13.4876 17.267 13.4755 17.2025 13.1057 16.9857C12.9239 16.8743 12.7905 16.8685 11.0629 16.8685C9.35953 16.8685 9.20193 16.8802 9.02614 16.9798ZM10.6992 18.187V18.8609H10.0324H9.3656V18.228C9.3656 17.8764 9.38378 17.5717 9.40803 17.5541C9.42621 17.5307 9.7293 17.5131 10.0748 17.5131H10.6992V18.187ZM12.7602 17.6244C12.7905 17.6889 12.8208 17.9936 12.8208 18.2984V18.8609H12.1237H11.4266V18.187V17.5131H12.0631C12.6268 17.5131 12.6996 17.5248 12.7602 17.6244ZM10.6992 20.1795V20.8593L10.0506 20.8417L9.3959 20.8241L9.37772 20.1619L9.35953 19.5056H10.0324H10.6992V20.1795ZM12.8208 20.1092C12.8208 20.5018 12.7966 20.7362 12.7481 20.7831C12.6996 20.83 12.4571 20.8534 12.051 20.8534H11.4266V20.1795V19.5056H12.1237H12.8208V20.1092Z"/>
<path d="M11.6504 23.5383C11.5595 23.638 11.5474 23.89 11.5474 25.941C11.5474 27.9452 11.5595 28.2441 11.6444 28.3203C11.7292 28.4023 12.0626 28.4141 14.4267 28.4141H17.1181L17.2091 28.2851C17.2939 28.1738 17.306 27.8456 17.306 25.9117C17.306 23.7435 17.3 23.6614 17.1848 23.5501C17.0696 23.4387 16.9848 23.4329 14.4085 23.4329C11.905 23.4329 11.7413 23.4387 11.6504 23.5383ZM16.5786 25.9235V27.7108H14.4267H12.2748V25.9235V24.1361H14.4267H16.5786V25.9235Z"/>
<path d="M8.34677 26.6103C8.2316 26.7216 8.24978 27.6827 8.37102 27.7941C8.49832 27.9171 8.71654 27.9113 8.83778 27.7823C8.96507 27.6476 8.98326 26.7216 8.86808 26.6103C8.7711 26.5165 8.44376 26.5165 8.34677 26.6103Z"/>
</svg>
