<svg width="30" height="31" viewBox="0 0 30 31">
<path d="M15.0716 0.975906C15.0306 0.996181 14.9603 1.09755 14.9075 1.21243C14.7845 1.48951 14.8841 1.8274 15.1185 1.94228L15.2942 2.02338V3.19925V4.37512H14.3041C13.396 4.37512 13.3081 4.38864 13.1616 4.51704C13.0444 4.62516 13.0093 4.71301 13.0093 4.91575C13.0093 5.11849 13.0444 5.20634 13.1616 5.31447C13.3081 5.44287 13.396 5.45638 14.3041 5.45638H15.2884L15.306 7.55132L15.3235 9.64627L15.4876 9.82873L15.6458 10.018L17.503 10.0382C18.7978 10.0517 19.4072 10.0315 19.5185 9.97741C19.8466 9.82197 19.8583 9.74088 19.8759 7.8757L19.8934 6.17272L21.3757 8.75423C22.1901 10.1734 22.8698 11.3763 22.8873 11.4303C22.9342 11.5655 22.2136 12.2886 21.7859 12.5386C20.9949 13.0049 20.2391 12.9711 19.208 12.4238C18.7627 12.1872 18.54 12.167 18.2412 12.3291C17.9835 12.4643 17.8311 12.7414 17.7843 13.1671L17.7432 13.4983H9.44122C1.4673 13.4983 1.12748 13.4915 1.0396 13.3766C0.981009 13.309 0.939997 13.1874 0.939997 13.1131C0.939997 12.9914 4.94747 5.90916 5.20526 5.57127C5.28728 5.46314 5.51578 5.45638 8.43349 5.45638C10.8122 5.44963 11.5973 5.42935 11.6676 5.36853C11.9254 5.13876 11.943 4.76708 11.7086 4.51028C11.5856 4.37512 11.5153 4.37512 8.43935 4.37512C4.94747 4.37512 4.8713 4.38188 4.53149 4.79411C4.32643 5.04415 0.143191 12.3359 0.0553077 12.5927C-0.0384342 12.8833 -0.00913984 13.4847 0.113896 13.7551C0.336534 14.2619 0.740796 14.5795 1.15092 14.5795H1.35012V15.2823C1.35012 15.8906 1.36769 16.0054 1.48487 16.2082C1.6665 16.519 1.95358 16.6745 2.3637 16.6745H2.69766V23.2566V29.8388L2.04732 29.8658C1.44972 29.8861 1.39113 29.8996 1.28567 30.0483C1.13334 30.2646 1.1392 30.6025 1.30911 30.7849L1.44386 30.9336H12.4175C19.4599 30.9336 23.4263 30.9066 23.4967 30.866C23.649 30.7714 23.7369 30.4335 23.6666 30.197C23.5787 29.9199 23.3912 29.8523 22.6764 29.8523H22.0319V28.1967V26.541L22.3425 26.7167C22.6998 26.9329 23.3678 27.21 23.7017 27.2843C24.1939 27.3992 25.4887 26.8248 26.5374 26.0206C27.1467 25.5543 28.1545 24.4055 28.5763 23.6959C29.2149 22.6214 29.666 21.3712 29.8828 20.0872C30.041 19.1343 29.9531 18.837 29.5196 18.837C29.2266 18.837 29.0802 19.0127 29.0333 19.4249C28.6466 22.5268 26.719 25.2232 24.2407 26.1085C23.8306 26.2571 23.6197 26.2031 22.8229 25.7706C22.0437 25.3448 21.4812 24.892 20.8836 24.2095C19.8231 22.9931 19.2021 21.6888 18.8564 19.952C18.751 19.4046 18.7334 19.0465 18.71 16.3568L18.6807 13.3631L19.0029 13.532C19.87 13.9713 20.8777 14.0524 21.7097 13.7415C22.4948 13.451 23.1861 12.8833 23.7076 12.1129L23.8833 11.8493L24.2935 12.3427C25.2192 13.478 26.0394 13.9308 27.1584 13.9308C27.7912 13.924 28.2541 13.8159 28.7814 13.532L29.0919 13.3631L29.1212 15.3229C29.1563 17.5124 29.1505 17.4989 29.5664 17.4989C29.7246 17.4989 29.8184 17.4584 29.8945 17.3503C29.9883 17.2151 30 17.0124 30 15.0391C30 12.613 29.9941 12.5927 29.5782 12.3427C29.2618 12.1534 29.0684 12.1805 28.4826 12.4846C27.7619 12.8563 27.2112 12.9509 26.6429 12.8022C26.4085 12.7346 26.0863 12.5927 25.9164 12.4846C25.5473 12.2413 24.9789 11.6398 24.6919 11.1938C24.4399 10.7884 24.2349 10.66 23.8775 10.66H23.608L21.9499 7.76758C20.9012 5.93619 20.2098 4.79411 20.0751 4.67247L19.8642 4.47649V3.2398C19.8642 2.2126 19.8759 2.00986 19.9462 2.00986C20.0751 2.00986 20.327 1.72603 20.3387 1.5706C20.3563 1.30029 20.3329 1.19892 20.204 1.06376C20.0809 0.93536 20.0165 0.928602 17.6143 0.93536C16.2551 0.93536 15.1126 0.955633 15.0716 0.975906ZM18.9267 5.49017V8.97048H17.5792H16.2317V5.49017V2.00986H17.5792H18.9267V5.49017ZM17.755 15.0864V15.5932H10.0212H2.28754V15.0864V14.5795H10.0212H17.755V15.0864ZM17.755 17.3976C17.755 18.1747 17.8487 19.729 17.9073 19.9318C17.9366 20.0399 17.9014 20.0534 17.5382 20.0534C17.087 20.0534 16.8058 20.1818 16.6183 20.4792C16.5012 20.6616 16.4953 20.7562 16.4953 22.6417C16.4953 24.4528 16.507 24.6352 16.6066 24.8245C16.8293 25.2502 16.964 25.2908 18.1124 25.2908C19.2841 25.2908 19.3779 25.2637 19.6298 24.8042L19.788 24.5204L20.1337 24.9258C20.3211 25.1488 20.6199 25.453 20.7899 25.6084L21.0945 25.8787V27.8655V29.8523H18.2237H15.3528V26.2166C15.3528 24.223 15.3294 22.3984 15.3001 22.1619C15.1946 21.3306 14.7845 20.6751 14.1342 20.3102L13.7416 20.0872H12.3648C10.9938 20.0872 10.988 20.0872 10.654 20.2697C10.2263 20.4994 9.82205 20.9657 9.62284 21.459L9.46465 21.8442L9.44708 25.8449L9.43536 29.8523H6.53522H3.63508V23.2634V16.6745H10.695H17.755V17.3976ZM13.642 21.236C13.9174 21.3712 14.099 21.5739 14.2572 21.9118C14.3861 22.1754 14.3861 22.2362 14.4037 26.0139L14.4213 29.8523H12.3941H10.3728V26.0341C10.3728 21.9118 10.3728 21.9389 10.6833 21.5469C10.9645 21.1955 11.193 21.1347 12.3531 21.1347C13.1909 21.1347 13.4721 21.1549 13.642 21.236ZM18.2823 21.5537C18.3526 21.7902 18.5049 22.1821 18.6104 22.4322C18.7978 22.8579 18.8096 22.9323 18.8096 23.5675V24.2433H18.1065H17.4034V22.689V21.1347H17.7784H18.1475L18.2823 21.5537Z"/>
<path d="M5.28463 20.1773C4.88623 20.4273 4.86865 20.5287 4.86865 22.6912C4.86865 24.482 4.87451 24.6307 4.98583 24.8334C5.21433 25.2659 5.30221 25.293 6.50914 25.293C7.69263 25.293 7.77465 25.2659 8.01487 24.8672C8.10861 24.705 8.12033 24.4888 8.1379 22.7588C8.15548 20.603 8.14376 20.5151 7.74536 20.211C7.55787 20.0624 7.48757 20.0556 6.515 20.0556C5.62445 20.0556 5.45454 20.0759 5.28463 20.1773ZM7.2122 22.6912V24.2455H6.50914H5.80607V22.6912V21.1369H6.50914H7.2122V22.6912Z"/>
<path d="M26.3721 16.6418C26.2901 16.6891 25.5343 17.5541 24.6848 18.5543L23.1497 20.3857L22.5521 19.6761C22.0131 19.0341 21.9428 18.9733 21.7436 18.9733C21.4741 18.9733 21.2749 19.1963 21.2749 19.5004C21.2749 19.6761 21.3979 19.8586 22.0424 20.656C22.7982 21.5818 22.9857 21.744 23.2493 21.69C23.4134 21.6629 26.9639 17.4933 27.0342 17.25C27.1103 16.9932 26.9873 16.7026 26.7705 16.6148C26.5479 16.5269 26.5537 16.5269 26.3721 16.6418Z"/>
</svg>
