<svg width="30" height="31" viewBox="0 0 30 31">
<path d="M11.0391 1.03497C10.875 1.09596 10.5996 1.24846 10.4238 1.38264C7.51172 3.54799 0.521484 8.90342 0.416016 9.04371C0.146484 9.40969 0 9.87935 0 10.4222C0 11.0749 0.146484 11.4896 0.533203 11.9349C0.9375 12.3924 1.34766 12.5876 1.98047 12.6242C2.53711 12.6547 2.87109 12.5754 3.25781 12.3253C3.39844 12.2277 3.5332 12.1484 3.54492 12.1484C3.5625 12.1484 3.57422 14.0881 3.57422 16.4608C3.57422 21.2185 3.57422 21.2124 3.9375 21.9199C4.33008 22.6885 5.15625 23.2984 5.97656 23.4326C6.1875 23.4631 7.44727 23.4936 8.82422 23.4936H11.291L11.5078 23.9511C12.0176 25.0185 12.9844 25.6712 14.25 25.787L14.7012 25.8236L14.7188 27.6047C14.7363 29.3004 14.7422 29.3919 14.8711 29.6786C15.0703 30.136 15.3633 30.4654 15.7734 30.6911C16.1191 30.8863 16.1836 30.9046 16.7871 30.9229C17.4199 30.9473 17.4316 30.9412 17.5781 30.7826L17.7246 30.6179L17.7422 28.2757L17.7598 25.9273L17.9473 25.9639C19.1484 26.2323 21 27.1168 22.8633 28.3245C23.7773 28.91 23.9355 28.9832 24.3281 28.9832C24.8613 28.9771 25.3184 28.6721 25.5117 28.1781C25.5879 27.989 25.6055 27.6535 25.6055 26.2994C25.6055 24.7806 25.6113 24.6464 25.7109 24.6159C26.0215 24.5244 26.5664 24.1829 26.7539 23.9694C27.375 23.2496 27.4746 22.109 26.9824 21.2978C26.7715 20.9501 26.3262 20.578 25.9512 20.4377L25.6055 20.3035V18.5408C25.6055 17.0403 25.5938 16.7475 25.5117 16.5828C25.2305 15.9972 24.6562 15.6983 24.0586 15.8142C23.9004 15.8447 23.3203 16.1497 22.5469 16.6072C21.8613 17.0159 20.9941 17.5099 20.625 17.7112L19.9512 18.0711L19.9336 15.1311C19.9277 13.5147 19.9336 12.1789 19.9453 12.1667C19.957 12.1545 20.0625 12.2094 20.1797 12.2948C20.5547 12.5571 20.9355 12.6547 21.498 12.6242C22.3125 12.5815 22.8809 12.2094 23.2676 11.4652C23.4609 11.0993 23.4668 11.0566 23.4668 10.4405C23.4668 9.86716 23.4492 9.76346 23.3086 9.46458C23.2207 9.2816 23.0215 9.00102 22.8691 8.84853C22.4941 8.47035 13.002 1.30335 12.627 1.11426C12.2285 0.912977 11.4727 0.870281 11.0391 1.03497ZM12.1465 2.0475C12.3281 2.12069 21.9023 9.33039 22.1895 9.60487C22.3945 9.79396 22.5176 10.2087 22.4883 10.5625C22.4355 11.1359 22.0195 11.5445 21.457 11.5872C21.2695 11.5994 21.0586 11.5811 20.9766 11.5506C20.8945 11.5201 18.832 9.97695 16.3887 8.12878C12.6387 5.29247 11.9121 4.76791 11.748 4.76791C11.5957 4.76791 11.4082 4.8777 10.916 5.24368C10.5703 5.50596 8.58984 7.00035 6.52734 8.56185C4.45898 10.1294 2.68359 11.4469 2.58984 11.5018C2.10938 11.758 1.42969 11.5323 1.13672 11.0139C1.00195 10.776 0.984375 10.6906 1.00781 10.3551C1.02539 10.0562 1.06641 9.92205 1.18359 9.76346C1.3418 9.54388 11.0156 2.19389 11.332 2.0475C11.5664 1.94381 11.9062 1.93771 12.1465 2.0475ZM15.3223 8.62894L18.8965 11.3311L18.9141 14.942L18.9258 18.5469L18.1816 18.8091L17.4316 19.0714L15.9844 19.0897L14.5312 19.108V16.8024C14.5312 15.4239 14.5078 14.4052 14.4727 14.271C14.3555 13.8441 14.0625 13.4781 13.6641 13.2646L13.2891 13.0633H11.7832C10.0547 13.0633 9.88477 13.0938 9.47461 13.5086C8.96484 14.0332 8.99414 13.716 8.97656 18.3578L8.96484 22.4689L7.51172 22.4445C6.30469 22.4201 6.01758 22.4018 5.78906 22.3103C5.40234 22.1578 4.96289 21.7308 4.76367 21.31L4.59961 20.9623V16.1436V11.325L8.16797 8.62894C10.1309 7.14065 11.7422 5.92683 11.748 5.92683C11.748 5.92683 13.3594 7.14065 15.3223 8.62894ZM13.3125 14.2771L13.5059 14.454L13.5234 16.8329L13.541 19.2117L13.248 19.3154C12.1523 19.6936 11.1914 21.0233 11.1914 22.1639V22.4567H10.5762H9.96094V18.4859V14.515L10.1602 14.3076L10.3594 14.1003H11.7422H13.125L13.3125 14.2771ZM24.5391 16.9183C24.5918 16.9732 24.6094 18.2785 24.6094 22.4079C24.6094 27.6962 24.6094 27.8243 24.498 27.8853C24.3047 27.989 24.2168 27.9585 23.6367 27.5803C22.2656 26.6837 20.918 25.9456 19.8047 25.4882C19.2012 25.2442 18.8262 25.1222 18.0059 24.8965L17.7539 24.8294V22.4323V20.0351L18.1992 19.901C19.3828 19.5411 20.9297 18.7847 22.9395 17.5831C24.1289 16.8695 24.3926 16.7658 24.5391 16.9183ZM16.7578 22.4567V24.7745H15.5684C14.9121 24.7745 14.2207 24.744 14.0273 24.7074C13.3066 24.5732 12.6797 24.067 12.375 23.3838C12.2344 23.0788 12.2168 22.9568 12.2168 22.4262C12.2168 21.8833 12.2344 21.7796 12.375 21.4746C12.5684 21.0782 12.9902 20.6085 13.3242 20.4316C13.8105 20.1693 13.9805 20.1449 15.3984 20.1449L16.7578 20.1388V22.4567ZM26.1094 21.8467C26.4023 22.3042 26.3555 22.8654 26.0039 23.2435C25.5996 23.6766 25.6055 23.6888 25.6055 22.4872V21.4137L25.7812 21.5112C25.8809 21.5661 26.0273 21.7125 26.1094 21.8467ZM16.7578 27.8609V29.9165L16.5469 29.8799C16.2773 29.8311 16.1074 29.7152 15.8965 29.4346L15.7324 29.2089L15.7148 27.5071L15.6973 25.8114H16.2246H16.7578V27.8609Z"/>
<path d="M28.0371 18.7874C27.9434 18.8545 27.668 19.1107 27.4395 19.3668C27.0645 19.7633 27.0117 19.8548 27.0117 20.0439C27.0117 20.4648 27.3867 20.6844 27.7617 20.4831C27.9844 20.3611 28.6934 19.5925 28.7578 19.4034C28.9336 18.9216 28.459 18.5129 28.0371 18.7874Z"/>
<path d="M28.1367 22.0097C28.0371 22.0463 27.8906 22.3574 27.8906 22.5159C27.8906 22.5891 27.9668 22.7294 28.0605 22.827C28.2305 23.0039 28.2363 23.0039 28.9629 23.0039C29.6133 23.0039 29.707 22.9917 29.8477 22.8758C29.9707 22.7782 30 22.6989 30 22.4854C30 22.272 29.9707 22.1927 29.8477 22.0951C29.707 21.9792 29.6133 21.967 28.9512 21.9731C28.5469 21.9731 28.1777 21.9914 28.1367 22.0097Z"/>
<path d="M27.041 24.5014C26.9355 24.6051 26.8945 24.7149 26.8945 24.8735C26.8945 25.0687 26.9531 25.1541 27.3516 25.5811C27.873 26.1483 28.084 26.2703 28.3535 26.1727C28.5762 26.0934 28.6523 25.9592 28.6523 25.6482C28.6523 25.4408 28.6055 25.3737 28.1309 24.8857C27.668 24.4099 27.5859 24.349 27.3984 24.349C27.2461 24.349 27.1406 24.3916 27.041 24.5014Z"/>
</svg>
