<svg width="22" height="22" viewBox="0 0 22 22" fill="none">
<path d="M5.24512 2.73556C5.24974 3.28171 5.02035 3.8076 4.6065 4.19961C4.19266 4.59161 3.6276 4.81825 3.03341 4.83055C2.44046 4.81056 1.87852 4.582 1.46374 4.1921C1.04895 3.8022 0.813014 3.28077 0.804688 2.73556C0.830463 2.20437 1.07507 1.70205 1.48893 1.33045C1.90279 0.958841 2.45492 0.745751 3.03341 0.734375C3.61021 0.745964 4.1604 0.959582 4.57151 1.33155C4.98261 1.70353 5.22357 2.20576 5.24512 2.73556ZM1.04287 8.55151C1.04287 7.34767 1.87652 7.53528 3.03341 7.53528C4.19031 7.53528 5.00694 7.34767 5.00694 8.55151V20.2772C5.00694 21.4967 4.17329 21.2465 3.03341 21.2465C1.89353 21.2465 1.04287 21.4967 1.04287 20.2772V8.55151Z" stroke-linecap="round" stroke-linejoin="round"/>
<path d="M8.4375 8.552C8.4375 7.87973 8.70971 7.62958 9.13504 7.55141C9.56037 7.47324 11.0235 7.55141 11.5339 7.55141C12.0443 7.55141 12.2484 8.31749 12.2314 8.89596C12.668 8.3575 13.2477 7.93101 13.9149 7.65727C14.5822 7.38354 15.3147 7.27172 16.0424 7.33253C16.757 7.29238 17.4728 7.39084 18.1433 7.62149C18.8137 7.85215 19.4239 8.20986 19.9342 8.67136C20.4444 9.13287 20.8433 9.68786 21.1049 10.3003C21.3665 10.9127 21.4849 11.5688 21.4526 12.2261V20.2308C21.4526 21.4503 20.6359 21.2001 19.479 21.2001C18.3221 21.2001 17.5055 21.4503 17.5055 20.2308V13.9771C17.5354 13.6552 17.4896 13.3312 17.3712 13.0271C17.2528 12.7229 17.0645 12.4458 16.8192 12.2144C16.5739 11.983 16.2773 11.8029 15.9495 11.6862C15.6217 11.5695 15.2704 11.519 14.9195 11.5381C14.5702 11.53 14.2231 11.5901 13.901 11.7145C13.5789 11.8389 13.2892 12.0248 13.0512 12.2598C12.8131 12.4948 12.6321 12.7736 12.5201 13.0778C12.4081 13.3819 12.3677 13.7044 12.4016 14.024V20.2777C12.4016 21.4972 11.5679 21.247 10.411 21.247C9.25413 21.247 8.4375 21.4972 8.4375 20.2777V8.552Z" stroke-linecap="round" stroke-linejoin="round"/>
</svg>
