<svg width="22" height="22" viewBox="0 0 22 22" fill="none">
<path d="M16.0234 5.13242H17.4988M6.433 0.732422H15.2856C16.8509 0.732422 18.352 1.35052 19.4588 2.45073C20.5656 3.55094 21.1874 5.04315 21.1874 6.59909V15.3991C21.1874 16.955 20.5656 18.4472 19.4588 19.5474C18.352 20.6477 16.8509 21.2658 15.2856 21.2658H6.433C4.86776 21.2658 3.36663 20.6477 2.25983 19.5474C1.15304 18.4472 0.53125 16.955 0.53125 15.3991V6.59909C0.53125 5.04315 1.15304 3.55094 2.25983 2.45073C3.36663 1.35052 4.86776 0.732422 6.433 0.732422ZM10.8593 15.3991C9.68539 15.3991 8.55954 14.9355 7.72944 14.1104C6.89935 13.2852 6.433 12.166 6.433 10.9991C6.433 9.83214 6.89935 8.71298 7.72944 7.88782C8.55954 7.06266 9.68539 6.59909 10.8593 6.59909C12.0333 6.59909 13.1591 7.06266 13.9892 7.88782C14.8193 8.71298 15.2856 9.83214 15.2856 10.9991C15.2856 12.166 14.8193 13.2852 13.9892 14.1104C13.1591 14.9355 12.0333 15.3991 10.8593 15.3991Z"/>
</svg>
