<svg width="12" height="22" viewBox="0 0 12 22" fill="none">
<path d="M7.25493 6.23998C7.25493 4.65832 8.02683 4.65832 8.79872 4.65832H9.725C9.87965 4.66045 10.0331 4.63081 10.1764 4.57115C10.3197 4.5115 10.4499 4.42303 10.5593 4.31098C10.6686 4.19894 10.755 4.06557 10.8132 3.91877C10.8714 3.77197 10.9004 3.6147 10.8983 3.45626V1.9695C10.8983 1.8103 10.8674 1.65269 10.8075 1.50581C10.7476 1.35892 10.6598 1.2257 10.5492 1.11387C10.4386 1.00204 10.3074 0.913828 10.1633 0.854357C10.0192 0.794886 9.86493 0.765341 9.70956 0.767435L7.51737 0.735802C6.87906 0.710507 6.24299 0.827417 5.65307 1.07846C5.06315 1.32951 4.53342 1.70871 4.10045 2.1899C3.66747 2.67108 3.34157 3.24279 3.14522 3.86557C2.94888 4.48835 2.88677 5.14736 2.96319 5.79712V8.09052H1.74359C1.43242 8.09052 1.13399 8.21717 0.913959 8.4426C0.693926 8.66803 0.570312 8.97378 0.570312 9.29259V10.7793C0.570312 11.0982 0.693926 11.4039 0.913959 11.6293C1.13399 11.8548 1.43242 11.9814 1.74359 11.9814H2.96319V20.4749C2.96319 20.6847 3.04451 20.8858 3.18927 21.0341C3.33403 21.1824 3.53037 21.2658 3.73508 21.2658H6.52935C6.72594 21.2536 6.91057 21.165 7.04546 21.018C7.18035 20.871 7.25529 20.6767 7.25493 20.4749V11.9814H8.61347C8.92464 11.9814 9.22307 11.8548 9.4431 11.6293C9.66314 11.4039 9.78675 11.0982 9.78675 10.7793V9.29259C9.78675 8.97378 9.66314 8.66803 9.4431 8.4426C9.22307 8.21717 8.92464 8.09052 8.61347 8.09052H7.25493V6.23998Z" stroke-linecap="round" stroke-linejoin="round"/>
</svg>
