<svg width="31" height="31" viewBox="0 0 31 31">
<path d="M23.4005 1.00391C21.0506 1.52588 19.316 3.17977 18.7007 5.4788C18.519 6.16499 18.4897 7.45526 18.6421 8.18836C18.8999 9.43171 19.4039 10.3584 20.3181 11.2733C21.2323 12.1882 22.1582 12.6926 23.4005 12.9506C24.133 13.1031 25.4223 13.0738 26.1079 12.892C28.0887 12.3583 29.6885 10.9038 30.339 9.0329C30.6085 8.25874 30.6847 7.72504 30.6496 6.75734C30.6144 5.6782 30.5031 5.20315 30.0518 4.28823C29.4599 3.06834 28.5165 2.1241 27.2975 1.53175C26.3423 1.06256 25.9145 0.962855 24.7484 0.939396C24.051 0.921801 23.676 0.94526 23.4005 1.00391ZM25.979 1.72529C27.8836 2.24726 29.3545 3.74866 29.8819 5.70166C29.9698 6.01836 29.9932 6.30574 29.9874 7.01539C29.9874 7.83061 29.9698 7.97723 29.8291 8.44055C29.4482 9.6839 28.6688 10.7689 27.655 11.4668C27.2507 11.7483 26.4713 12.1002 25.9497 12.2468C25.2758 12.4287 23.9279 12.4287 23.254 12.2468C21.3436 11.719 19.8727 10.2411 19.3453 8.31739C19.1636 7.66053 19.1636 6.30574 19.3453 5.63715C19.6149 4.66358 20.1423 3.76626 20.8572 3.08007C21.6366 2.3411 22.5156 1.87191 23.5763 1.64904C24.1272 1.52588 25.4047 1.5728 25.979 1.72529Z"/>
<path d="M21.5718 2.68329C21.4487 2.75367 21.4312 3.08796 21.5366 3.19353C21.5777 3.23459 21.6773 3.26391 21.7652 3.26391H21.9176L21.9527 3.9501C22.0055 5.08788 22.3454 5.97934 22.9841 6.67726L23.2713 6.9881L22.9548 7.32826C22.6091 7.70361 22.2223 8.43085 22.0816 8.98215C22.0289 9.17569 21.9703 9.63315 21.9527 9.9909C21.9234 10.5481 21.9 10.6536 21.8238 10.6536C21.6421 10.6536 21.4663 10.8296 21.4663 11.0055C21.4663 11.3633 21.4312 11.3574 24.5839 11.3574C26.1838 11.3574 27.4964 11.334 27.5785 11.3046C27.8832 11.1873 27.8129 10.7416 27.4847 10.683L27.2855 10.6419L27.2503 9.96158C27.2327 9.58036 27.1683 9.11704 27.1155 8.9235C26.9514 8.30769 26.5588 7.61564 26.1369 7.19337L25.9318 6.99396L26.2424 6.64793C26.8811 5.94415 27.2034 5.09375 27.2503 3.97942L27.2855 3.26391H27.4496C27.7719 3.26391 27.8891 2.77126 27.5902 2.65396C27.4203 2.58945 21.6832 2.61878 21.5718 2.68329ZM26.6233 3.60994C26.6233 3.79761 26.6057 4.07326 26.5881 4.22575C26.5471 4.49553 26.5471 4.5014 26.131 4.7008C25.0293 5.22864 23.8924 5.21691 22.9489 4.67148L22.6384 4.49553V3.87972V3.26391H24.6308H26.6233V3.60994ZM26.1193 5.70956C26.0314 5.86204 25.7618 6.17874 25.5274 6.41334C25.2227 6.71245 25.0996 6.87666 25.0996 6.98223C25.0996 7.0878 25.2286 7.25788 25.5567 7.58631C25.8908 7.92061 26.0724 8.16107 26.2306 8.4895C26.4768 8.98801 26.5119 9.16396 26.342 9.07599C26.2834 9.04666 26.0138 8.97628 25.7443 8.91763C24.9297 8.75342 23.7811 8.84726 22.8317 9.15223C22.7028 9.19328 22.7028 9.19328 22.7849 8.95282C22.9724 8.41912 23.2595 7.97339 23.6756 7.56285C24.2206 7.02328 24.2323 6.91772 23.787 6.53064C23.4939 6.27845 22.9548 5.5688 23.0134 5.51015C23.0251 5.49256 23.1599 5.52775 23.3123 5.57466C24.0682 5.83272 25.0059 5.82099 25.838 5.53947C26.0607 5.46323 26.2541 5.40458 26.2599 5.41045C26.2717 5.42218 26.2072 5.5512 26.1193 5.70956ZM25.5977 9.56863C25.8263 9.61555 26.1486 9.70939 26.3186 9.77977L26.6233 9.90293V10.2783V10.6536H24.6015H22.5798V10.3311C22.5798 9.96158 22.6266 9.91466 23.1541 9.74458C23.951 9.48653 24.8945 9.42201 25.5977 9.56863Z"/>
<path d="M24.3026 6.22427C24.2498 6.30637 24.2264 6.41194 24.2498 6.48818C24.3377 6.76383 24.7538 6.78143 24.8768 6.51751C25.0351 6.17148 24.5135 5.9017 24.3026 6.22427Z"/>
<path d="M24.3375 7.54575C24.1968 7.6865 24.191 7.76861 24.314 7.94456C24.484 8.19088 24.9235 8.04426 24.9235 7.73929C24.9235 7.62199 24.7008 7.42845 24.5719 7.42845C24.5074 7.42845 24.4019 7.48123 24.3375 7.54575Z"/>
<path d="M20.8628 4.56431C20.6225 4.75198 20.2943 6.05985 20.2943 6.83401C20.3002 7.1859 20.394 7.84863 20.4994 8.2709C20.5405 8.42338 20.5346 8.42925 20.4233 8.3706C20.265 8.28263 19.9838 8.28849 19.8959 8.37647C19.8197 8.45271 19.8021 8.71076 19.8724 8.81633C19.9427 8.9219 21.0562 9.42041 21.232 9.42041C21.4547 9.42041 21.5426 9.29138 21.7242 8.67557C21.9176 8.02457 21.9118 7.83103 21.6832 7.75479C21.4898 7.68441 21.3492 7.74893 21.2613 7.94247C21.232 8.01284 21.1851 8.07149 21.1675 8.07149C21.1323 8.07149 21.0503 7.68441 20.9683 7.10379C20.9155 6.74603 21.0444 5.87217 21.2085 5.40298C21.4312 4.7989 21.4371 4.75785 21.2964 4.61709C21.1558 4.47633 21.0034 4.45874 20.8628 4.56431Z"/>
<path d="M27.8594 4.59363C27.7422 4.69333 27.3848 5.71968 27.3848 5.96014C27.3848 6.10676 27.5899 6.26512 27.7422 6.24166C27.8184 6.22993 27.9356 6.14195 28.0059 6.03639L28.129 5.84871L28.2111 6.21233C28.2579 6.4176 28.2931 6.8692 28.2872 7.25041C28.2814 7.8369 28.2579 7.99525 28.0938 8.4879C27.9942 8.79874 27.9122 9.10371 27.9122 9.16822C27.9122 9.33244 28.0294 9.42041 28.2521 9.42041C28.4337 9.42041 28.4572 9.39695 28.5861 9.10371C28.8205 8.57587 28.9143 8.13601 28.9494 7.39703C28.9787 6.7343 28.9026 6.01879 28.7502 5.62585C28.7209 5.5496 28.7326 5.53787 28.8264 5.57893C29.0549 5.67863 29.2952 5.67863 29.3714 5.58479C29.4768 5.46163 29.471 5.20944 29.3714 5.10974C29.2835 5.02763 28.129 4.49393 28.0352 4.49393C28.0059 4.49393 27.9298 4.54085 27.8594 4.59363Z"/>
<path d="M17.3644 6.23792C17.1182 6.3259 17.042 6.74817 17.2472 6.92998C17.4054 7.0766 17.716 7.059 17.8449 6.89479C18.1145 6.56636 17.7687 6.0913 17.3644 6.23792Z"/>
<path d="M3.62794 6.40795C3.5459 6.49006 3.53418 6.81262 3.53418 9.07059V11.6511L3.68654 11.7508C3.82719 11.8388 3.85649 11.8388 3.99713 11.7626L4.1495 11.6746L4.16708 9.31692L4.1788 6.95924H10.3261C17.0419 6.95924 16.661 6.97684 16.661 6.63668C16.661 6.29652 17.0595 6.31411 10.0976 6.31411C4.37804 6.31411 3.70998 6.32584 3.62794 6.40795Z"/>
<path d="M5.67872 9.25736C5.60254 9.36293 5.58496 9.5858 5.58496 10.489C5.58496 11.5153 5.59082 11.5974 5.70216 11.7089C5.76663 11.7734 5.87211 11.8262 5.93657 11.8262C6.00103 11.8262 6.10652 11.7734 6.17098 11.7089C6.27646 11.6033 6.28818 11.5153 6.28818 10.6825V9.77347H12.1777C17.991 9.77347 18.0671 9.77347 18.1843 9.65617C18.325 9.51542 18.3308 9.43331 18.2078 9.25736L18.1199 9.12834H11.9433H5.76663L5.67872 9.25736Z"/>
<path d="M4.03248 12.6315C2.49711 14.3851 2.18652 14.7664 2.18652 14.8778C2.18652 14.9423 2.23927 15.0479 2.30373 15.1124C2.40335 15.2121 2.49711 15.2297 2.91905 15.2297H3.41716V16.6021C3.41716 18.0917 3.42888 18.1621 3.73947 18.1621C4.05592 18.1621 4.06178 18.1152 4.06178 16.3499C4.06178 14.5083 4.08522 14.5963 3.59883 14.5318L3.30582 14.4966L4.09694 13.5875C4.53645 13.089 4.89978 12.6726 4.9115 12.6609C4.91737 12.655 5.28656 13.0597 5.73193 13.5699L6.53477 14.4966L6.22418 14.5376C6.0308 14.5611 5.88429 14.6139 5.83741 14.6784C5.77881 14.7546 5.76123 15.13 5.76123 16.1974C5.76123 17.7926 5.78467 17.8923 6.13042 17.8571C6.42929 17.8278 6.46445 17.6929 6.46445 16.3851V15.2297H6.92155C7.44896 15.2297 7.63649 15.1417 7.63649 14.8895C7.63649 14.7664 7.34934 14.4027 6.37655 13.2767C5.21037 11.9454 5.09317 11.8281 4.92323 11.8281C4.75328 11.8281 4.65952 11.9102 4.03248 12.6315Z"/>
<path d="M19.2162 12.264C18.8939 12.3109 18.7298 12.3637 18.677 12.44C18.5071 12.6746 18.6301 12.9385 18.9056 12.9385C19.0872 12.9443 19.0755 12.9561 18.4485 13.5543C18.0969 13.8944 17.6046 14.3519 17.3643 14.5748L16.9248 14.9736L15.6942 14.3988C15.0203 14.0821 14.4167 13.8182 14.3639 13.8182C14.3112 13.8182 13.567 14.4692 12.7114 15.261C11.094 16.7565 11.0178 16.8445 11.2463 17.0673C11.469 17.2961 11.5921 17.214 13.0454 15.8709C13.8072 15.1613 14.4518 14.5806 14.4694 14.5806C14.487 14.5806 15.032 14.8328 15.6825 15.1378C16.3271 15.4428 16.9307 15.695 17.0186 15.695C17.1417 15.695 17.4288 15.4545 18.3664 14.5572L19.5619 13.4253L19.5971 13.6071C19.644 13.8827 19.6967 13.9355 19.9135 13.9355C20.1772 13.9355 20.2183 13.8475 20.3237 13.0734C20.4468 12.1233 20.3941 12.0822 19.2162 12.264Z"/>
<path d="M27.5611 12.7649C27.4497 12.8763 27.4438 12.9584 27.4438 14.6299C27.4438 16.6239 27.4263 16.5536 27.9361 16.5887L28.2174 16.6063L27.4145 17.5271C26.975 18.0374 26.6 18.4538 26.5883 18.4538C26.559 18.4538 24.9826 16.6533 24.9826 16.6122C24.9826 16.5946 25.1115 16.577 25.2697 16.577C25.7327 16.577 25.7444 16.5477 25.7444 15.0463C25.7444 13.8968 25.7327 13.7736 25.6389 13.6856C25.51 13.5683 25.2697 13.5566 25.1701 13.6563C25.1232 13.7032 25.0998 14.0493 25.0998 14.8293V15.9319H24.5548C23.9629 15.9319 23.8691 15.9729 23.8691 16.231C23.8691 16.3541 24.1035 16.665 24.9005 17.5858C26.2425 19.1341 26.4418 19.3335 26.6058 19.3335C26.7816 19.3335 29.3191 16.4421 29.3191 16.2427C29.3191 15.9964 29.1785 15.9319 28.61 15.9319H28.0885V14.3836C28.0885 12.847 28.0885 12.8294 27.9595 12.7414C27.7837 12.6182 27.7017 12.6241 27.5611 12.7649Z"/>
<path d="M26.3711 13.2208C26.2539 13.3498 26.2422 13.5903 26.3418 13.69C26.459 13.8073 26.7872 13.7779 26.8575 13.6489C26.9513 13.4671 26.9278 13.3029 26.7872 13.209C26.6172 13.0859 26.4883 13.0917 26.3711 13.2208Z"/>
<path d="M4.64804 14.2821C4.46052 14.6398 4.86487 15.0034 5.1403 14.7219C5.25164 14.6164 5.26336 14.3407 5.16374 14.241C5.04653 14.1237 4.71836 14.153 4.64804 14.2821Z"/>
<path d="M26.4006 14.2671C26.26 14.3668 26.2248 14.6307 26.342 14.748C26.3831 14.789 26.5003 14.8184 26.6057 14.8184C26.805 14.8184 26.9163 14.6952 26.9163 14.4723C26.9163 14.3609 26.7171 14.1732 26.594 14.1732C26.5589 14.1732 26.471 14.2143 26.4006 14.2671Z"/>
<path d="M4.68901 15.3339C4.41944 15.6271 4.76519 16.0025 5.12266 15.8148C5.27503 15.7268 5.27503 15.3749 5.12266 15.287C4.95272 15.199 4.79449 15.2166 4.68901 15.3339Z"/>
<path d="M26.4007 15.3243C26.2191 15.4475 26.2249 15.729 26.4125 15.8522C26.7523 16.0692 27.1215 15.5531 26.7875 15.3243C26.6234 15.207 26.5648 15.207 26.4007 15.3243Z"/>
<path d="M18.5714 15.6501C18.4894 15.7616 18.4776 16.1134 18.4776 18.2893V20.7995H16.7489H15.0201V19.0987V17.3979H15.694H16.368V18.7057C16.368 20.1837 16.3973 20.2951 16.7372 20.2599C17.0536 20.2306 17.077 20.125 17.0595 18.4359C17.0419 17.0108 17.036 16.9111 16.9305 16.8348C16.7547 16.7117 14.6861 16.7175 14.5044 16.8466C14.3755 16.9345 14.3755 16.9345 14.3755 18.8699V20.7995H13.643H12.9105V19.5503C12.9105 18.6588 12.8929 18.2834 12.8401 18.2307C12.7874 18.1779 12.4299 18.1603 11.5802 18.1603C10.4609 18.1603 10.3906 18.1661 10.332 18.2776C10.291 18.348 10.2792 18.9169 10.2851 19.8728L10.3027 21.3508L10.4492 21.427C10.5664 21.4857 12.1428 21.4974 18.1729 21.4857C25.6036 21.4739 25.756 21.4739 25.838 21.3625C25.9376 21.2217 25.9552 19.3978 25.8615 19.2101C25.7911 19.0811 25.463 19.0517 25.3458 19.169C25.2989 19.216 25.2754 19.4916 25.2754 20.0194V20.7995H23.2244H21.1733V18.2893C21.1733 16.1134 21.1616 15.7616 21.0795 15.6501C20.9916 15.527 20.9623 15.5211 19.8255 15.5211C18.6886 15.5211 18.6593 15.527 18.5714 15.6501ZM20.5287 18.4829V20.7995H19.8548H19.1809V18.4829V16.1662H19.8548H20.5287V18.4829ZM12.2658 19.8024V20.7995H11.5919H10.918V19.8024V18.8054H11.5919H12.2658V19.8024Z"/>
<path d="M4.68897 16.271C4.48387 16.4938 4.63037 16.8105 4.9351 16.8105C5.023 16.8105 5.12263 16.7812 5.16365 16.7402C5.26327 16.6405 5.25155 16.3648 5.14021 16.2593C5.01714 16.1361 4.80618 16.142 4.68897 16.271Z"/>
<path d="M26.4413 16.3656C26.2361 16.4653 26.242 16.8054 26.453 16.9227C26.5936 16.999 26.6229 16.999 26.7636 16.911C27.1152 16.6764 26.8222 16.172 26.4413 16.3656Z"/>
<path d="M4.71838 17.3184C4.57773 17.4123 4.55429 17.5765 4.64805 17.7583C4.71838 17.8873 5.04655 17.9166 5.16375 17.7993C5.26923 17.6938 5.24579 17.4298 5.12859 17.3243C4.9938 17.2011 4.88832 17.2011 4.71838 17.3184Z"/>
<path d="M4.29013 18.5097C2.87197 18.8616 1.62961 19.9055 1.03187 21.2545C0.6744 22.0697 0.551336 23.3658 0.756442 24.269C1.14321 25.9757 2.39143 27.3011 4.12018 27.8466C4.50109 27.9639 4.68276 27.9814 5.43872 27.9814C6.42909 27.9814 6.79242 27.9111 7.51322 27.565C8.78488 26.9668 9.66977 25.9346 10.1093 24.5505C10.2265 24.1693 10.2441 23.9933 10.2441 23.2016C10.2441 22.4098 10.2265 22.2339 10.1093 21.8527C9.57014 20.1343 8.28677 18.9085 6.61076 18.5038C5.98372 18.3572 4.91131 18.3572 4.29013 18.5097ZM6.72796 19.2311C7.99962 19.6475 9.01343 20.6621 9.44122 21.9524C9.57014 22.3453 9.59359 22.5154 9.59359 23.1723C9.59945 23.7529 9.576 24.0168 9.49396 24.2807C9.04859 25.7235 7.9879 26.785 6.54629 27.2307C6.28259 27.3129 6.01888 27.3363 5.43872 27.3363C4.7648 27.3304 4.62416 27.3129 4.20808 27.1662C2.50863 26.5856 1.40692 25.1429 1.32488 23.401C1.22526 21.5008 2.42659 19.7882 4.23739 19.2193C4.78238 19.0493 4.83512 19.0434 5.58523 19.061C6.1185 19.0786 6.35291 19.1138 6.72796 19.2311Z"/>
<path d="M4.94075 19.7363C4.38403 19.9181 3.95038 20.2876 3.71597 20.792C3.58705 21.0676 3.56361 21.2025 3.56361 21.6189C3.56361 22.0412 3.58705 22.1644 3.72183 22.4342L3.88006 22.7509L3.72183 22.874C3.04791 23.3843 2.59668 24.2464 2.59668 25.0206C2.59668 25.3959 2.66114 25.4897 2.93071 25.4897C3.15926 25.4897 3.212 25.4018 3.25888 24.9384C3.30576 24.4458 3.58119 23.9238 3.97968 23.5602C4.16135 23.396 4.33715 23.2611 4.38403 23.2611C4.42505 23.2611 4.58328 23.3139 4.72978 23.3843C5.08139 23.5367 5.73773 23.5485 6.11278 23.4077C6.62262 23.22 6.6109 23.2142 7.01525 23.6306C7.43132 24.0529 7.62471 24.4575 7.67745 25.0206C7.71847 25.4135 7.77121 25.4897 8.01148 25.4897C8.26933 25.4897 8.33965 25.3959 8.33965 25.0499C8.33965 24.3637 7.98804 23.6189 7.42546 23.0852L7.05627 22.7391L7.2145 22.399C7.34928 22.1175 7.37272 21.9826 7.37272 21.5896C7.36686 21.0207 7.22622 20.6571 6.85703 20.2818C6.47612 19.8829 6.11278 19.7246 5.55607 19.707C5.29822 19.6953 5.02279 19.707 4.94075 19.7363ZM5.82564 20.3932C6.27101 20.5281 6.63434 20.9562 6.72224 21.443C6.80429 21.9239 6.4644 22.4987 5.94284 22.7626C5.63225 22.9209 5.08139 22.8623 4.76494 22.6453C4.1086 22.1937 4.01484 21.355 4.55398 20.7627C4.90559 20.3756 5.33924 20.2524 5.82564 20.3932Z"/>
<path d="M27.3263 19.5612C27.2912 19.6375 27.2677 20.3999 27.2677 21.6432V23.6138H19.8663C13.2619 23.6138 12.4532 23.6256 12.336 23.7077C12.1954 23.8015 12.1719 23.9657 12.2657 24.1475C12.3184 24.2414 12.3946 24.259 12.7931 24.259H13.2619V25.948V27.643L10.8475 29.0154C9.52311 29.7719 8.40968 30.4347 8.37452 30.4874C8.33349 30.552 8.33349 30.6399 8.37452 30.7514L8.42726 30.9156L15.688 30.9332C21.0032 30.939 22.9664 30.9273 23.025 30.8804C23.1363 30.7866 23.1246 30.505 23.0132 30.4112C22.9546 30.3643 21.8705 29.7367 20.593 29.0095L18.2724 27.6899L18.2548 25.9715L18.2431 24.259H23.0074C26.6348 24.259 27.7893 24.2414 27.842 24.1886C27.9358 24.0948 27.9416 19.7372 27.8537 19.5612C27.8127 19.485 27.7307 19.4498 27.59 19.4498C27.4494 19.4498 27.3673 19.485 27.3263 19.5612ZM17.5398 26.0947C17.5398 27.4788 17.5574 27.9538 17.616 28.0301C17.657 28.0887 18.5419 28.6224 19.5909 29.2148L21.4954 30.2998H15.7232C11.3984 30.2939 9.9802 30.2822 10.0681 30.2294C10.1326 30.1942 10.9764 29.7192 11.9434 29.1679C12.9103 28.6224 13.7483 28.1239 13.8069 28.0594C13.8948 27.9538 13.9065 27.7662 13.9065 26.1005V24.259H15.7232H17.5398V26.0947Z"/>
<path d="M15.4245 22.0625C15.0963 22.2384 15.0553 22.7956 15.3542 23.0302C15.6882 23.2882 16.2098 23.1064 16.2859 22.7018C16.3797 22.1798 15.8874 21.8103 15.4245 22.0625Z"/>
<path d="M10.9585 23.6605C10.7241 23.9185 10.9175 24.376 11.2574 24.376C11.609 24.376 11.8083 23.9185 11.5621 23.6722C11.4098 23.5197 11.0875 23.5197 10.9585 23.6605Z"/>
</svg>
