<svg width="30" height="31" viewBox="0 0 30 31">
<path d="M4.40721 1.00372C4.33373 1.1084 4.27862 1.24797 4.27862 1.31776C4.27862 1.42942 4.16227 1.44338 2.61303 1.46432C1.02704 1.48525 0.929066 1.49223 0.690249 1.63879C0.377951 1.82722 0.139134 2.14126 0.0534052 2.48322C0.00441724 2.66467 -0.00782975 6.81009 0.00441724 16.2803L0.0227877 29.8193L0.151381 30.0984C0.21874 30.2519 0.396321 30.4683 0.537162 30.5869L0.800472 30.7963L10.2062 30.8172C16.7706 30.8312 19.6853 30.8172 19.8446 30.7614C20.1507 30.6637 20.4385 30.3706 20.5732 30.0286C20.6651 29.8053 20.6896 29.575 20.6896 28.8632V27.9769L21.1978 28.0187C22.8083 28.1443 24.6209 27.3976 25.8395 26.0995L26.2803 25.625L27.0213 25.8553C27.9214 26.1275 28.0623 26.1344 28.2521 25.9111C28.4052 25.7436 28.4052 25.7297 28.4052 24.4595V23.1824L28.7542 23.0149C29.1768 22.8125 29.6054 22.3519 29.8136 21.8634C30.0341 21.354 30.0647 20.356 29.8748 19.7837C29.6973 19.2463 29.2319 18.702 28.7604 18.4787L28.4052 18.3112V17.0061V15.6941L28.246 15.5546C28.0317 15.3661 27.8908 15.3731 27.0948 15.6174L26.4212 15.8267L25.9619 15.3173C25.4047 14.7031 24.8903 14.2984 24.2167 13.9355C23.3105 13.4539 22.1347 13.1887 21.1978 13.2655L20.6896 13.3074V7.95462C20.6896 2.90195 20.6835 2.58791 20.5732 2.31573C20.4202 1.93888 20.065 1.61087 19.6976 1.52015C19.5323 1.48525 18.724 1.45036 17.9034 1.45036C16.4828 1.45036 16.4031 1.44338 16.4031 1.31776C16.4031 1.24797 16.348 1.1084 16.2746 1.00372L16.1521 0.822266H10.3409H4.52968L4.40721 1.00372ZM15.3622 2.81123V3.68358H10.3409H5.31961V2.81123V1.93888H10.3409H15.3622V2.81123ZM4.29087 3.62077C4.30924 4.55593 4.31536 4.61176 4.4562 4.73738C4.59092 4.863 4.78075 4.86998 10.3531 4.86998H16.1031L16.2501 4.69551C16.397 4.535 16.4031 4.49312 16.4031 3.5789V2.63676H17.9095C18.8281 2.63676 19.4588 2.66467 19.5323 2.70654C19.6486 2.77633 19.6486 2.91591 19.6486 8.17794V13.5726L19.3914 13.6633C19.1832 13.7331 18.6382 13.9983 18.2892 14.2076C18.2586 14.2216 18.2402 12.4001 18.2402 10.1529C18.2402 6.13315 18.2402 6.07034 18.1116 5.88889L17.9891 5.70744H10.3715C2.96819 5.70744 2.75999 5.71442 2.61915 5.84004L2.47219 5.97263L2.45382 16.8387L2.44157 27.6977L2.61915 27.9071L2.79673 28.1094H8.78551C12.9128 28.1094 14.8294 28.1304 14.958 28.1862C15.1172 28.249 15.4234 28.1932 16.8808 27.8373C17.8299 27.6 18.6688 27.4116 18.7362 27.4116C18.8036 27.4116 19.0363 27.4814 19.2567 27.5651L19.6486 27.7256V28.598C19.6486 29.1912 19.6241 29.5052 19.5751 29.561C19.471 29.6797 1.21075 29.6797 1.10665 29.561C1.05154 29.4982 1.03316 26.4276 1.03316 16.1687C1.03316 4.15814 1.04541 2.84612 1.13114 2.74842C1.21075 2.65071 1.44344 2.63676 2.74774 2.63676H4.26637L4.29087 3.62077ZM17.1992 10.9485V15.08L16.7644 15.5964C15.8398 16.7061 15.2887 17.9971 15.0866 19.5255C14.9274 20.7189 15.0009 21.8076 15.3315 22.9661L15.4969 23.5383L15.1356 25.2132L14.7804 26.8882L9.12843 26.9091L3.48256 26.923V16.8736V6.82405H10.3409H17.1992V10.9485ZM22.9185 14.6752C23.6228 14.9055 24.2167 15.2475 24.7862 15.743C25.1659 16.071 25.221 16.1408 25.123 16.1896C24.7372 16.3711 20.959 17.4319 20.708 17.4319C19.3241 17.4319 18.2647 18.3949 18.0565 19.8535C17.8483 21.2772 18.1238 22.5404 18.7913 23.2522C19.2322 23.7268 19.6792 23.9361 20.3834 24.0129C20.7631 24.0478 21.6694 24.2781 23.0288 24.6689L25.0924 25.2691L24.7495 25.5761C23.3472 26.8184 21.3019 27.1743 19.667 26.4624C18.8403 26.1065 18.9628 26.1065 17.3584 26.4973C16.5501 26.6927 15.8888 26.8463 15.8765 26.8393C15.8704 26.8253 16.0296 26.0647 16.2256 25.1435L16.593 23.4685L16.3787 22.7358C16.0235 21.5075 15.9561 20.691 16.1276 19.5604C16.3235 18.3042 16.8134 17.2364 17.6217 16.3083C18.4545 15.3661 19.2873 14.8357 20.3712 14.5636C21.1244 14.3751 22.1654 14.417 22.9185 14.6752ZM27.3642 20.7468C27.3642 22.9172 27.352 24.6898 27.3336 24.6898C27.3152 24.6898 27.1193 24.641 26.9049 24.5782L26.5069 24.4665V20.7468V17.0341L26.8315 16.9224C27.4254 16.72 27.3642 16.2804 27.3642 20.7468ZM25.4659 20.7538V24.1455L25.3312 24.1106C25.2516 24.0827 24.3698 23.8245 23.3717 23.5244L21.5469 22.98V20.7398V18.5066L23.4329 17.9413C24.4678 17.6273 25.3496 17.369 25.3924 17.369C25.4476 17.3621 25.4659 18.0809 25.4659 20.7538ZM20.463 19.0858C20.4875 19.351 20.5059 20.3071 20.5059 21.2144V22.8684L20.3099 22.8335C19.6364 22.6939 19.1404 22.0518 19.0607 21.2214C18.9689 20.2164 19.1526 19.4348 19.5751 19.037C19.7588 18.8625 20.1813 18.6531 20.3895 18.6252C20.4079 18.6183 20.4447 18.8276 20.463 19.0858ZM28.8216 20.0768C28.9135 20.2653 28.9563 20.4676 28.9563 20.7398C28.9563 21.1865 28.8706 21.4237 28.595 21.7169L28.4052 21.9262V20.7608V19.5953L28.546 19.7C28.6256 19.7558 28.7481 19.9233 28.8216 20.0768Z"/>
<path d="M4.76807 9.79157V10.3848H5.56412H6.36018V9.79157V9.19837H5.56412H4.76807V9.79157Z"/>
<path d="M7.40137 9.79157V10.3848H11.4735H15.5456V9.79157V9.19837H11.4735H7.40137V9.79157Z"/>
<path d="M4.76807 14.5377V15.1309H5.56412H6.36018V14.5377V13.9445H5.56412H4.76807V14.5377Z"/>
<path d="M7.40137 14.5377V15.1309H11.4735H15.5456V14.5377V13.9445H11.4735H7.40137V14.5377Z"/>
<path d="M4.76807 19.2798V19.873H5.56412H6.36018V19.2798V18.6866H5.56412H4.76807V19.2798Z"/>
<path d="M7.40137 19.2798V19.873H10.4631H13.5249V19.2798V18.6866H10.4631H7.40137V19.2798Z"/>
<path d="M4.76807 23.9556V24.5488H5.56412H6.36018V23.9556V23.3624H5.56412H4.76807V23.9556Z"/>
<path d="M7.40137 23.9556V24.5488H10.4631H13.5249V23.9556V23.3624H10.4631H7.40137V23.9556Z"/>
</svg>
