<svg width="15" height="15" viewBox="0 0 15 15">
<path d="M14.0833 15C12.375 15 10.7083 14.5833 9.04167 13.75C7.375 12.9167 5.875 11.8333 4.54167 10.5C3.16667 9.16667 2.08333 7.66667 1.25 6C0.416667 4.33333 0 2.625 0 0.916667C0 0.666667 0.0833333 0.416667 0.291667 0.25C0.5 0.0833333 0.666667 0 0.916667 0H3.83333C4.04167 0 4.20833 0.0833333 4.33333 0.208333C4.45833 0.333333 4.58333 0.5 4.625 0.75L5.20833 3.375C5.25 3.58333 5.25 3.75 5.20833 3.91667C5.16667 4.08333 5.08333 4.20833 5 4.33333L2.91667 6.41667C3.70833 7.70833 4.58333 8.83333 5.54167 9.79167C6.5 10.75 7.58333 11.5833 8.83333 12.25L10.8333 10.2083C10.9583 10.0417 11.125 9.95833 11.2917 9.875C11.4583 9.79167 11.6667 9.79167 11.8333 9.83333L14.3333 10.375C14.5417 10.4167 14.7083 10.5 14.8333 10.7083C14.9167 10.8333 15 11.0417 15 11.25V14.0833C15 14.3333 14.9167 14.5833 14.7083 14.75C14.5417 14.9167 14.3333 15 14.0833 15ZM2.29167 5.25L4 3.54167L3.5 1.25H1.25C1.25 1.79167 1.33333 2.375 1.5 3.04167C1.66667 3.70833 1.91667 4.41667 2.29167 5.25ZM9.95833 12.8333C10.5417 13.0833 11.1667 13.2917 11.7917 13.4583C12.4583 13.625 13.125 13.7083 13.75 13.75V11.5417L11.5833 11.125L9.95833 12.8333Z"/>
</svg>
