<svg width="31" height="31" viewBox="0 0 31 31">
<path d="M13.3812 1.39573C11.7297 3.22508 8.73767 4.82881 5.42871 5.65811C4.08806 5.99349 2.38178 6.23741 1.38239 6.23741C1.0777 6.23741 0.90098 6.26789 0.803479 6.34107L0.657227 6.43863L0.69379 7.72528C0.833948 12.5304 2.4671 17.4147 5.24589 21.2929C7.32999 24.2077 9.95034 26.4944 13.0034 28.0676L13.6554 28.403V29.5738C13.6554 30.5555 13.6737 30.7568 13.7529 30.836C13.8382 30.9214 14.6853 30.9336 22.1807 30.9336C28.5792 30.9336 30.5293 30.9153 30.5841 30.8604C30.6389 30.8055 30.6572 29.9336 30.6572 27.3054C30.6572 23.3723 30.6633 23.4272 30.1941 22.4637C29.9564 21.9759 29.8285 21.8052 29.3531 21.3295C28.3538 20.3234 27.5189 20.0185 25.7639 20.0185H24.7462L25.1728 19.616C25.965 18.866 26.4281 17.9635 26.5804 16.8781C26.6719 16.2256 26.5926 15.4817 26.355 14.8292L26.1965 14.3963L26.4464 13.4999C26.9948 11.5181 27.3665 8.94484 27.3665 7.07891C27.3665 6.29838 27.3117 6.23741 26.684 6.23741C23.9662 6.23741 20.1758 5.17029 17.5981 3.68851C16.4647 3.03605 15.8187 2.54822 14.9656 1.71282C13.9784 0.73107 13.9845 0.737167 13.3812 1.39573ZM14.539 2.45066C17.0192 4.83491 21.425 6.62157 25.6907 6.97524L26.5926 7.04842L26.55 7.84723C26.4647 9.46925 26.2209 11.1096 25.8309 12.7072L25.6359 13.4877L25.1971 13.0731C24.3501 12.2864 23.3263 11.884 22.1563 11.8901C20.8279 11.8962 19.731 12.3779 18.8474 13.3414C18.11 14.1524 17.7139 15.189 17.72 16.3293C17.7261 17.6098 18.1283 18.5794 19.0241 19.488L19.5542 20.0185H18.5548C17.3422 20.0185 16.8973 20.1039 16.099 20.488C15.6176 20.7197 15.447 20.8417 15.0021 21.2868C14.411 21.8844 14.0942 22.3783 13.8565 23.0979C13.692 23.5796 13.692 23.604 13.6676 25.5187C13.6554 26.5858 13.6371 27.4578 13.6188 27.4578C13.5518 27.4578 12.8084 27.0554 12.199 26.6956C6.99483 23.604 3.1618 17.9269 1.90037 11.4206C1.65052 10.1339 1.46771 8.51189 1.46771 7.57283V7.04842L2.3635 6.97524C6.58654 6.62767 10.9558 4.841 13.5031 2.43846C13.7712 2.18235 14.0027 1.97503 14.0149 1.96893C14.0271 1.96893 14.2648 2.18845 14.539 2.45066ZM23.2227 12.8353C24.8924 13.3414 26.032 15.0914 25.7882 16.7744C25.6603 17.6647 25.319 18.3416 24.6914 18.9575C24.1124 19.5246 23.436 19.8417 22.5524 19.9697C21.3093 20.1526 19.8528 19.4636 19.1033 18.3294C18.1953 16.9635 18.3477 15.1036 19.4567 13.8902C20.4439 12.8109 21.8516 12.4206 23.2227 12.8353ZM27.0436 20.9027C28.0856 21.1466 29.0363 21.9027 29.4994 22.854C29.8589 23.5857 29.865 23.6528 29.865 27.0737V30.2019H28.2502H26.6353V27.6408C26.6353 25.159 26.6292 25.0736 26.5134 24.9577C26.3672 24.8114 26.1051 24.7992 25.9528 24.9394C25.8492 25.0309 25.8431 25.1955 25.8431 27.6225V30.2019H22.1563H18.4695V27.6286C18.4695 25.3236 18.4573 25.0492 18.3659 24.9455C18.2197 24.7809 17.9516 24.8053 17.8053 24.9943C17.6834 25.1529 17.6773 25.2199 17.6773 27.6774V30.2019H16.0625H14.4476V27.1225C14.4476 25.1407 14.472 23.9333 14.5146 23.726C14.7767 22.4332 15.9528 21.2198 17.2386 20.9088C17.7687 20.7746 26.5012 20.7746 27.0436 20.9027Z"/>
<path d="M8.19518 7.72475C5.12388 8.426 3.71011 11.9627 5.45904 14.5909C5.9892 15.3836 6.76312 15.9751 7.72595 16.3166C8.22565 16.4934 8.31705 16.5056 9.11535 16.5117C9.84051 16.5117 10.0355 16.4934 10.4255 16.3715C11.2177 16.1215 11.6809 15.841 12.2841 15.2312C13.1617 14.3592 13.5212 13.5421 13.576 12.3286C13.6187 11.4322 13.509 10.8773 13.1251 10.0846C12.8935 9.60288 12.7656 9.42605 12.3268 8.98091C11.7357 8.38942 11.236 8.07843 10.4987 7.83452C9.91364 7.64548 8.78019 7.5906 8.19518 7.72475ZM9.99286 8.52967C10.2122 8.58455 10.5901 8.7248 10.8216 8.84675C11.4066 9.13335 12.1501 9.88948 12.4243 10.4627C12.924 11.4993 12.9301 12.6945 12.4365 13.6823C12.1988 14.1641 12.1379 14.2494 11.693 14.6946C10.2915 16.1154 8.01236 16.0971 6.5864 14.658C6.05624 14.1275 5.78811 13.6579 5.61139 12.9689C5.45904 12.3713 5.45904 11.8103 5.61139 11.2127C5.78811 10.5237 6.05624 10.0541 6.5864 9.52361C7.07391 9.02969 7.64064 8.70041 8.29268 8.52967C8.74362 8.40771 9.51145 8.40771 9.99286 8.52967Z"/>
<path d="M9.83445 11.6145L8.41458 13.0292L7.63457 12.2548C6.8119 11.4438 6.69612 11.3767 6.4158 11.5779C6.3244 11.6389 6.28174 11.7304 6.28174 11.8645C6.28174 12.0353 6.40362 12.1816 7.24457 13.0231C8.05505 13.8341 8.23177 13.9805 8.38411 13.9805C8.54255 13.9805 8.78631 13.7609 10.2001 12.3463C11.3457 11.1999 11.8271 10.6754 11.8271 10.5779C11.8271 10.3949 11.6199 10.1998 11.4128 10.1998C11.2787 10.1998 10.9923 10.4559 9.83445 11.6145Z"/>
<path d="M21.8573 22.8353C21.8024 22.9085 21.7598 23.0731 21.7598 23.1951C21.7598 23.3963 21.7354 23.4268 21.5343 23.5122C21.0041 23.7317 20.6812 24.2622 20.7482 24.7988C20.8274 25.4147 21.1199 25.6708 21.9426 25.8415C22.686 26.0001 22.9176 26.2013 22.7043 26.5184C22.4118 26.9696 21.516 26.7806 21.516 26.2684C21.516 26.0916 21.2784 25.9147 21.0834 25.9452C21.0102 25.9574 20.8944 26.0367 20.8274 26.122C20.5715 26.4696 20.8944 27.1465 21.4429 27.4026C21.7354 27.5428 21.7537 27.5611 21.772 27.8172C21.8207 28.4636 22.552 28.4453 22.552 27.7989C22.552 27.5611 22.5642 27.5367 22.7713 27.4636C23.3015 27.2684 23.6367 26.7379 23.5696 26.1769C23.4965 25.5854 23.2528 25.3415 22.5459 25.1647C22.3326 25.1159 22.0523 25.0427 21.9243 25.0122C21.6623 24.9452 21.4855 24.7195 21.5465 24.5305C21.6013 24.3659 21.9243 24.1646 22.1437 24.1646C22.4849 24.1646 22.7957 24.4208 22.7957 24.7013C22.7957 24.9939 23.2406 25.122 23.4721 24.8903C23.5757 24.7866 23.594 24.7074 23.5696 24.4878C23.527 24.0976 23.2589 23.7439 22.8689 23.5549C22.5642 23.4085 22.552 23.3902 22.552 23.1524C22.552 22.8536 22.4118 22.7012 22.1376 22.7012C22.0096 22.7012 21.9182 22.7439 21.8573 22.8353Z"/>
</svg>
