<svg width="31" height="31" viewBox="0 0 31 31">
<path d="M18.9138 0.968945C16.9989 1.28019 15.4706 2.59231 14.8343 4.4964C14.638 5.07617 14.6321 5.10669 14.638 6.12586C14.638 7.09622 14.6499 7.19997 14.8046 7.68209C15.3576 9.41531 16.5767 10.6298 18.2656 11.1302C18.8781 11.3133 19.0089 11.3194 19.1874 11.1668C19.3479 11.0326 19.3776 10.6664 19.2409 10.5199C19.1933 10.4711 18.9138 10.3613 18.6165 10.2758C17.0881 9.8181 16.0653 8.78671 15.6371 7.2671C15.4944 6.74836 15.4825 6.6263 15.5063 5.95498C15.5301 5.31418 15.5598 5.1372 15.7204 4.7039C16.6837 2.05525 19.6988 1.01777 21.9467 2.56179C22.5176 2.95238 23.0349 3.54435 23.3323 4.13023C23.6296 4.72221 23.7604 5.16771 23.8199 5.83903C23.8556 6.27233 23.8853 6.38218 23.9983 6.47373C24.1767 6.6202 24.4443 6.61409 24.5989 6.45542C24.7179 6.33336 24.7238 6.27844 24.6941 5.73528C24.6465 4.96632 24.5395 4.55133 24.1827 3.80678C23.3501 2.07967 21.7564 1.02387 19.8653 0.93843C19.5382 0.926225 19.11 0.93843 18.9138 0.968945Z"/>
<path d="M18.4978 5.85221C18.0221 5.92544 17.8377 6.0536 16.9992 6.90796C16.3034 7.60976 16.2083 7.73791 16.2083 7.90879C16.2083 8.1712 16.3867 8.35428 16.6424 8.35428C16.8089 8.35428 16.9159 8.26884 17.4274 7.73791C18.2124 6.92627 18.4205 6.7676 18.7297 6.7676C18.9676 6.7676 18.9914 6.79201 21.6793 9.54428L24.3851 12.321L24.403 20.7853C24.4149 26.4729 24.403 29.3289 24.3614 29.4754C24.3257 29.5913 24.2305 29.7561 24.1413 29.8415L23.9867 29.988L18.7892 30.0063C14.1269 30.0185 13.5619 30.0124 13.3835 29.9209C12.997 29.7378 12.997 29.7317 12.997 26.6438C12.997 24.0868 12.9911 23.861 12.89 23.745C12.6997 23.5131 12.2596 23.5681 12.1644 23.8305C12.1288 23.922 12.105 25.1181 12.105 26.7475C12.105 29.9636 12.105 29.9819 12.5807 30.4579C13.0862 30.9583 12.7829 30.9339 18.7059 30.9339C24.4803 30.9339 24.29 30.9461 24.7538 30.5372C25.069 30.2626 25.2415 29.8903 25.2891 29.396L25.3247 29.0055L27.4121 28.4379C28.5598 28.1206 29.6243 27.8094 29.7789 27.7422C30.1 27.608 30.433 27.2601 30.5698 26.9306C30.778 26.418 30.778 26.4241 28.6371 18.2283C27.5251 13.9687 26.5676 10.3864 26.5022 10.2583C26.4368 10.1362 26.3119 9.95926 26.2168 9.87382C25.9729 9.63582 19.7526 5.97426 19.4314 5.87662C19.1401 5.78508 18.9676 5.77898 18.4978 5.85221ZM23.731 9.42223C24.6825 9.98367 25.515 10.4963 25.5864 10.5634C25.6578 10.6366 25.747 10.777 25.7767 10.8808C25.9908 11.552 29.767 26.1617 29.767 26.302C29.767 26.5583 29.654 26.7597 29.4459 26.8757C29.3448 26.9306 28.3814 27.2113 27.2991 27.5103L25.3366 28.0474L25.3069 20.1079C25.2772 12.6322 25.2712 12.1562 25.1701 11.9243C25.0988 11.7656 24.4922 11.0943 23.3861 9.94705C22.4643 8.99505 21.7745 8.25663 21.8577 8.31156C21.941 8.36038 22.7854 8.86079 23.731 9.42223Z"/>
<path d="M7.70441 8.03034C7.59142 8.09137 7.4368 8.23173 7.36544 8.34159C7.24056 8.53688 7.23461 8.59791 7.2465 9.83679C7.25245 11.2954 7.19298 11.7226 6.86591 12.4488C6.51505 13.23 5.7598 13.8036 4.70722 14.0844L4.23742 14.2125L4.04118 14.0295C3.77357 13.7914 3.63679 13.7731 2.37607 13.7975C1.30564 13.8159 1.2997 13.8159 1.08561 13.9867C0.633655 14.3407 0.657442 14.0905 0.657442 18.454C0.657442 22.1463 0.663389 22.3721 0.770432 22.5918C0.8299 22.7138 0.966676 22.8786 1.06777 22.9579C1.24023 23.0861 1.31754 23.0922 2.48906 23.1105C3.66653 23.1288 3.73194 23.1227 3.92819 23.0007C4.04118 22.9274 4.17795 22.8115 4.21958 22.7443C4.33257 22.5796 4.60018 22.6101 5.63492 22.903C6.9789 23.2814 7.79956 23.3058 10.4697 23.0556C11.1595 22.9946 12.0813 22.9396 12.5213 22.9396C13.3241 22.9396 13.3301 22.9396 13.6512 22.7382C13.901 22.5857 14.014 22.4697 14.1389 22.2134C14.3292 21.8411 14.3589 21.3651 14.2221 21.0294C14.1448 20.828 14.1448 20.8219 14.3648 20.6328C14.8406 20.2239 15.0071 19.4427 14.7454 18.8507L14.6205 18.57L14.8227 18.332C15.3104 17.7461 15.2806 16.7941 14.7454 16.2509L14.6087 16.1044L14.7395 15.8725C14.8406 15.6955 14.8703 15.5552 14.8703 15.189C14.8644 14.4994 14.5968 14.0661 14.008 13.7914C13.7583 13.6755 13.6215 13.6633 12.1764 13.6633H10.6065L10.654 13.1873C10.6778 12.9309 10.7016 12.2901 10.6957 11.7714C10.6838 9.75745 10.214 8.59791 9.203 8.10968C8.81052 7.91438 7.9958 7.87167 7.70441 8.03034ZM8.76294 8.93967C9.36952 9.19599 9.6728 9.83679 9.78579 11.1245C9.83337 11.6127 9.82742 12.0338 9.77985 12.6258C9.74416 13.0774 9.70254 13.9318 9.69659 14.5238C9.6847 15.1158 9.64307 15.7199 9.60739 15.8664C9.41709 16.5866 8.98892 17.0809 8.26936 17.4165C7.82929 17.624 7.70441 17.7522 7.70441 17.9963C7.70441 18.1733 7.96607 18.4235 8.15042 18.4235C8.32288 18.4235 8.98297 18.1306 9.24463 17.9414C9.33978 17.8682 9.43493 17.8132 9.45277 17.8132C9.47061 17.8132 9.53603 17.917 9.60144 18.0451C9.66686 18.1733 9.75606 18.3137 9.80958 18.3564C9.88689 18.4235 9.88094 18.4601 9.75606 18.6432C9.35168 19.2535 9.47656 20.1689 10.0296 20.6511C10.1961 20.7914 10.208 20.8219 10.1485 20.9989C10.0653 21.2369 10.0653 21.8716 10.1426 22.0242C10.2259 22.1829 10.1842 22.189 8.91756 22.2744C7.58547 22.366 6.84212 22.2988 5.79548 21.9937C5.3911 21.8777 4.91536 21.7618 4.74885 21.7435L4.43367 21.7008V18.3991V15.0975L4.97482 14.9632C6.39611 14.6092 7.38328 13.7609 7.82335 12.5159C8.07906 11.7958 8.14447 11.2588 8.13853 9.98326V8.84202H8.34072C8.44776 8.84202 8.63806 8.88474 8.76294 8.93967ZM13.8118 14.7923C14.0021 14.9876 14.0199 15.0364 13.9902 15.2378C13.9664 15.3843 13.8891 15.5247 13.7702 15.6284L13.5917 15.7993H12.4024C11.6115 15.7993 11.1655 15.7749 11.0644 15.7261C10.7789 15.5918 10.66 15.189 10.8205 14.89C10.9752 14.6092 11.1 14.5848 12.3964 14.5787H13.6036L13.8118 14.7923ZM3.52975 18.4235C3.54164 21.8411 3.5357 22.1219 3.44055 22.189C3.37513 22.2439 3.08374 22.2683 2.52474 22.2683C1.8587 22.2683 1.68624 22.25 1.61488 22.1707C1.53162 22.0852 1.51973 21.6702 1.51973 18.509C1.51973 16.1349 1.54352 14.8961 1.5792 14.8167C1.63867 14.7069 1.70408 14.7008 2.57826 14.713L3.51191 14.7313L3.52975 18.4235ZM13.9486 16.8063C14.3351 17.0138 14.3886 17.4959 14.0556 17.7827L13.8772 17.9353H12.2953C10.5767 17.9353 10.5589 17.9292 10.3864 17.5874C10.2437 17.3006 10.3983 16.9039 10.7016 16.7757C10.767 16.7452 11.4925 16.7208 12.3013 16.7208C13.5085 16.7147 13.8058 16.733 13.9486 16.8063ZM13.6512 18.9606C13.9426 19.107 14.0556 19.4305 13.9248 19.7234C13.7523 20.0835 13.6691 20.1018 12.1586 20.1018H10.8027L10.6302 19.9309C10.4102 19.7173 10.3626 19.4915 10.4816 19.2352C10.6362 18.8873 10.8027 18.8507 12.1942 18.8507C13.2647 18.8507 13.4728 18.869 13.6512 18.9606ZM13.0863 21.0722C13.4371 21.2247 13.5263 21.6092 13.2647 21.8716C13.122 22.0181 13.0982 22.0242 12.1942 22.0242C11.2903 22.0242 11.2665 22.0181 11.1238 21.8716C10.9395 21.6885 10.9335 21.4261 11.0941 21.2125C11.2428 21.0172 11.3082 21.005 12.1824 20.9928C12.67 20.9867 12.9435 21.0111 13.0863 21.0722Z"/>
<path d="M18.1529 8.86687C17.7247 8.98893 17.5522 9.1476 17.5284 9.41613C17.4928 9.85554 17.7842 9.9837 18.3491 9.7823C18.7594 9.63583 19.0925 9.70907 19.3957 10.0264C19.8536 10.4902 19.8774 11.0883 19.4552 11.5338C18.9319 12.0831 18.2004 11.9854 17.7723 11.3019C17.5641 10.9663 17.3619 10.832 17.1776 10.8991C16.6899 11.0761 16.7791 11.6925 17.3679 12.254C17.796 12.6568 18.1053 12.7788 18.7059 12.7788C19.3065 12.7727 19.6277 12.6506 20.038 12.2601C21.0252 11.3202 20.7754 9.58091 19.5622 8.99503C19.1579 8.79974 18.5691 8.74482 18.1529 8.86687Z"/>
<path d="M13.5803 10.4086C12.9083 11.1104 12.3136 11.7695 12.2601 11.8732C12.1411 12.1112 12.0757 12.7154 12.1292 13.0145C12.2006 13.4051 12.6942 13.5271 12.9083 13.2159C12.9558 13.1426 12.9975 12.9534 12.9975 12.7948C12.9975 12.6422 13.0272 12.4347 13.0629 12.3371C13.0986 12.2455 13.6457 11.6291 14.282 10.9761C15.2989 9.92032 15.4357 9.76165 15.4357 9.58466C15.4357 9.32834 15.2573 9.14526 15.0015 9.14526C14.8291 9.14526 14.6804 9.27952 13.5803 10.4086Z"/>
<path d="M15.708 15.4683C15.4761 15.7002 15.5415 16.1152 15.827 16.225C16.047 16.3105 21.3932 16.3044 21.5775 16.2189C21.7203 16.1518 21.857 15.9321 21.857 15.7734C21.857 15.7307 21.8035 15.6208 21.7321 15.5293L21.6132 15.3706H18.7052C16.1422 15.3706 15.7913 15.3828 15.708 15.4683Z"/>
<path d="M15.6793 17.7286C15.5128 17.9422 15.5247 18.1497 15.7031 18.3327L15.8458 18.4853H18.6944C21.864 18.4853 21.757 18.4975 21.8343 18.0764C21.864 17.9177 21.8402 17.8506 21.7213 17.7286L21.5667 17.5699H18.6825H15.7983L15.6793 17.7286Z"/>
<path d="M17.6228 20.0715C16.0469 20.4804 14.7683 21.7986 14.3877 23.3976C14.251 23.9651 14.251 25.027 14.3877 25.5946C14.6791 26.8335 15.5712 27.9808 16.6832 28.5545C17.3671 28.9085 17.825 29.0122 18.7051 29.0122C19.5852 29.0122 20.0491 28.9085 20.727 28.5545C21.8034 27.9991 22.6776 26.8701 22.9928 25.6434C23.1652 24.9904 23.1652 24.0018 22.9928 23.3487C22.5943 21.7986 21.4942 20.6208 19.9837 20.1325C19.3771 19.9372 18.2532 19.9067 17.6228 20.0715ZM19.5079 20.9564C20.7627 21.286 21.7618 22.2869 22.1245 23.5746C22.184 23.7882 22.2316 24.1543 22.2316 24.4595C22.2375 26.8335 20.0669 28.5911 17.8488 28.0052C16.035 27.5292 14.8635 25.68 15.2203 23.8492C15.4998 22.4455 16.5643 21.2799 17.8845 20.9503C18.3186 20.8466 19.0857 20.8466 19.5079 20.9564Z"/>
<path d="M18.492 21.4759C18.3611 21.5308 18.2482 21.7688 18.2184 22.0495C18.2006 22.196 18.153 22.2387 17.8973 22.3364C17.5405 22.4767 17.1896 22.8124 17.0945 23.1053C16.9993 23.4044 17.0528 23.9475 17.2015 24.1428C17.4572 24.5029 17.7367 24.6677 18.4444 24.8691C19.1759 25.0827 19.378 25.1803 19.4791 25.3756C19.5802 25.5709 19.3305 25.815 18.9915 25.8516C18.492 25.9127 18.1887 25.8272 17.8913 25.5465C17.487 25.162 17.0945 25.2108 17.0112 25.6563C16.9458 26.0103 17.4394 26.5352 17.9746 26.6816C18.2065 26.7426 18.2303 26.7671 18.2303 26.9501C18.2303 27.2187 18.3314 27.4323 18.5098 27.5116C18.712 27.6093 18.7893 27.597 18.9677 27.4506C19.0926 27.3529 19.1223 27.2736 19.1223 27.06V26.7976L19.4613 26.6877C20.2879 26.4192 20.6209 25.6197 20.2284 24.8447C20.0381 24.4663 19.6159 24.2283 18.6644 23.978C18.1411 23.8377 17.9151 23.679 17.9449 23.4715C17.9687 23.2823 18.3136 23.1236 18.6882 23.1236C19.0867 23.1236 19.2888 23.203 19.5148 23.4654C19.7349 23.7095 19.9252 23.7339 20.1571 23.5447C20.5317 23.2396 20.1571 22.5683 19.4791 22.3303C19.1759 22.2265 19.1521 22.2021 19.1342 22.0129C19.1045 21.6529 19.0688 21.5613 18.9142 21.4881C18.7358 21.4026 18.6644 21.4026 18.492 21.4759Z"/>
</svg>
