<svg width="30" height="31" viewBox="0 0 30 31">
<path d="M1.09159 0.986328C0.686689 1.17969 0.335376 1.52539 0.144833 1.92969L0.0197893 2.19922L0.0019259 8.75C-0.00402856 13.168 0.00788036 15.377 0.0495616 15.5293C0.138878 15.8633 0.454465 16.2324 0.793869 16.4023L1.08564 16.5547L4.91435 16.5723L8.73712 16.5898L8.77284 16.8652C8.95743 18.2246 9.56479 19.5078 10.5115 20.5098C11.232 21.2773 12.4587 22.0039 13.4709 22.2676L13.9532 22.3965L13.9354 23.2168C13.9115 24.1836 13.977 24.4238 14.3403 24.752C14.5904 24.9746 14.8404 25.0449 15.2632 25.0098L15.5312 24.9922V27.3301C15.5312 28.9355 15.555 29.7383 15.6026 29.8906C15.6919 30.1953 16.0075 30.5527 16.3231 30.6992C16.5791 30.8223 16.6268 30.8223 21.962 30.8223C27.2793 30.8223 27.3448 30.8223 27.5949 30.6992C27.7378 30.6348 27.9343 30.4824 28.0415 30.3711C28.4226 29.9375 28.4226 29.9727 28.4404 27.3828L28.4583 25.0215H28.7798C29.1669 25.0215 29.3812 24.9512 29.6075 24.7402C29.929 24.4414 30.0005 24.2012 30.0005 23.3105C30.0005 22.3438 29.9052 22.0156 29.5122 21.6406C29.2026 21.3477 29.1014 21.3008 28.1367 20.9551C27.2972 20.6562 27.0233 20.627 26.8446 20.8027C26.6958 20.9492 26.6839 21.2891 26.8327 21.4355C26.8923 21.4941 27.3329 21.6816 27.8092 21.8516C28.4404 22.0742 28.7262 22.209 28.8513 22.3379C29.012 22.502 29.018 22.5312 29.0359 23.2109C29.0597 23.9316 29.018 24.084 28.8275 24.084C28.7739 24.084 27.3627 23.5918 25.6895 22.9883L22.6467 21.8867L21.962 21.8926H21.2772L18.2404 22.9883C16.5732 23.5918 15.1679 24.084 15.1143 24.084C14.9178 24.084 14.8762 23.9551 14.8762 23.3164C14.8762 22.9707 14.894 22.6484 14.9119 22.5957C14.9417 22.5254 15.031 22.502 15.293 22.502C16.8173 22.502 18.4905 21.8398 19.61 20.7969C19.9196 20.5098 20.0506 20.4395 20.5865 20.252C21.8131 19.8301 22.2001 19.8535 23.8912 20.4512C24.5283 20.6738 25.1178 20.8613 25.2071 20.8613C25.5585 20.8613 25.7847 20.3809 25.5525 20.1113C25.487 20.0352 25.0226 19.8359 24.3735 19.6074C22.8254 19.0566 22.6765 19.0273 21.7476 19.0566L20.9676 19.0801L21.1403 18.7051C21.2355 18.5 21.3844 18.0781 21.4737 17.7676C21.6226 17.2402 21.6345 17.1172 21.6345 16.1152C21.6345 14.9258 21.5571 14.5215 21.17 13.6309C20.4019 11.8438 18.7763 10.4551 16.8769 9.96875C16.6149 9.89844 16.341 9.8457 16.2695 9.8457C16.1445 9.8457 16.1385 9.81641 16.1147 9.27148C16.1028 8.81445 16.0671 8.64453 15.9539 8.41602C15.7574 8.0293 15.4121 7.70117 15.0012 7.50781L14.6678 7.35547L12.3634 7.33789L10.0531 7.32031V6.6582C10.0531 5.94922 9.99946 5.78516 9.7196 5.68555C9.54692 5.62109 9.23729 5.71484 9.15988 5.86133C9.12416 5.93164 9.10034 7.4668 9.10034 9.95703V13.9473L8.95148 14.5098C8.86812 14.8203 8.80262 15.1426 8.80262 15.2305C8.80262 15.6289 8.77284 15.6465 8.23099 15.6465H7.73081V14.0645C7.73081 12.3125 7.71295 12.2129 7.35568 11.8496C7.2485 11.7383 7.05796 11.5977 6.92696 11.5273C6.70069 11.4043 6.61733 11.3984 5.02153 11.3984C3.39001 11.3984 3.34833 11.3984 3.09229 11.5332C2.77075 11.7031 2.5683 11.9141 2.42539 12.2188C2.32416 12.4297 2.31226 12.623 2.31226 14.0469V15.6465H1.86567C1.62154 15.6465 1.35359 15.6172 1.27023 15.5762C0.924867 15.4238 0.94273 15.7285 0.94273 8.85547C0.94273 4.51953 0.960594 2.47461 1.00823 2.36328C1.08564 2.1582 1.27618 1.95312 1.5084 1.83008C1.66917 1.74219 2.0324 1.73047 4.75358 1.71289C6.4387 1.70117 7.95708 1.71289 8.12976 1.73047C8.52871 1.77734 8.79666 1.95898 8.96934 2.28711C9.08843 2.52148 9.10034 2.63281 9.10034 3.37109C9.10034 4.00391 9.1182 4.2207 9.18966 4.32031C9.3802 4.58984 9.86251 4.53125 9.99351 4.2207C10.0411 4.10352 10.059 3.75781 10.0411 3.125C10.0233 2.33984 9.99946 2.1582 9.89228 1.92969C9.71365 1.53711 9.3802 1.20312 8.96934 0.998047L8.60612 0.822266H5.02749H1.44886L1.09159 0.986328ZM14.7154 8.43359C15.0369 8.62695 15.1858 8.94336 15.162 9.39453L15.1441 9.75781L14.5784 9.79883C13.0362 9.91016 11.3452 10.7598 10.321 11.9434L10.0531 12.2598V10.2559V8.25781L12.2741 8.27539C14.4832 8.29297 14.4891 8.29297 14.7154 8.43359ZM16.4839 10.8477C17.4842 11.0762 18.7108 11.7969 19.348 12.5469C20.3543 13.7188 20.7592 14.8613 20.6937 16.3672C20.646 17.5391 20.3304 18.4355 19.6338 19.3613L19.3301 19.7656L19.2229 19.5254C18.9728 18.9746 18.2345 18.1191 17.7343 17.8086L17.5854 17.7148L17.7462 17.4863C18.6215 16.2383 18.4905 14.5918 17.4366 13.5371C15.9361 12.0371 13.3756 12.4414 12.4289 14.3281C12.1014 14.9785 12.018 15.5645 12.155 16.2324C12.2562 16.7422 12.4706 17.2344 12.7087 17.5156L12.8516 17.6855L12.5301 17.9199C12.0716 18.2656 11.6191 18.7812 11.3333 19.2969L11.0832 19.748L10.8033 19.3789C10.6485 19.1797 10.4044 18.7754 10.2615 18.4883C8.78475 15.5527 10.3508 11.9727 13.5483 10.959C14.5129 10.6543 15.4597 10.6191 16.4839 10.8477ZM6.59351 12.459L6.7781 12.6113V14.1289V15.6465H5.02153H3.26497V14.1289V12.6113L3.44956 12.459L3.63415 12.3066H5.02153H6.40892L6.59351 12.459ZM16.1087 13.7656C16.5732 13.9824 16.9483 14.3516 17.1686 14.8027C17.3175 15.1016 17.3413 15.2188 17.3473 15.6758C17.3473 16.1562 17.3294 16.2383 17.1567 16.5898C16.9245 17.0527 16.5494 17.4102 16.079 17.627C15.7872 17.7617 15.6622 17.7852 15.2037 17.7852C14.7392 17.7793 14.6201 17.7559 14.3164 17.6094C13.6615 17.3047 13.1553 16.625 13.0601 15.9395C12.8814 14.6738 14.0664 13.4668 15.3823 13.5664C15.5967 13.584 15.8825 13.6602 16.1087 13.7656ZM14.4713 18.6641C15.1739 18.8281 15.9658 18.7461 16.5434 18.459L16.7816 18.3418L17.0972 18.5352C17.514 18.8047 18.0856 19.4141 18.2881 19.8184C18.6037 20.457 18.6037 20.416 18.2345 20.6562C17.7819 20.9551 17.1031 21.2539 16.5553 21.4004C16.1981 21.4941 15.9063 21.5234 15.2632 21.5293C14.376 21.5352 13.9235 21.459 13.1791 21.1719C12.6611 20.9727 11.8989 20.5039 11.8989 20.3867C11.8989 20.1992 12.3157 19.4785 12.6254 19.1387C12.7981 18.9453 13.0958 18.6875 13.2863 18.5703L13.6376 18.3477L13.8699 18.459C13.9949 18.5234 14.2688 18.6172 14.4713 18.6641ZM24.9094 23.7207L27.4698 24.6406L27.4877 26.9668C27.5056 29.5742 27.4937 29.668 27.1423 29.8379C26.9756 29.9258 26.7732 29.9434 26.0884 29.9434H25.2429L25.225 27.998C25.2071 25.7832 25.2071 25.8066 24.6891 25.3379C24.2008 24.8926 24.0937 24.875 21.9322 24.875C20.0506 24.875 20.0208 24.875 19.7112 25.0156C19.3241 25.1855 18.9133 25.625 18.7823 26C18.7049 26.2285 18.687 26.5859 18.687 28.1094V29.9434H17.8534C16.9602 29.9434 16.6685 29.8789 16.5494 29.6621C16.5077 29.5801 16.4839 28.7305 16.4839 27.084V24.6289L19.0324 23.7148C21.3368 22.8887 21.6107 22.8008 21.962 22.8008C22.3133 22.8008 22.5812 22.8828 24.9094 23.7207ZM23.6947 25.8418C23.8079 25.8711 23.9805 25.9824 24.0818 26.082L24.2544 26.2578L24.2723 28.1035L24.2902 29.9434H21.962H19.6397V28.1855C19.6397 26.3223 19.6516 26.2461 19.9255 26C19.991 25.9414 20.122 25.8711 20.2114 25.8418C20.4555 25.7715 23.4327 25.7715 23.6947 25.8418Z"/>
<path d="M4.74189 13.2675C4.59303 13.3789 4.51562 13.6191 4.51562 13.9707C4.51562 14.375 4.60494 14.6211 4.78953 14.7031C5.00389 14.7968 5.13489 14.7851 5.31352 14.6445C5.46238 14.5332 5.46834 14.498 5.46834 13.9765C5.46834 13.455 5.46238 13.4199 5.31352 13.3086C5.13489 13.1679 4.89076 13.1504 4.74189 13.2675Z"/>
<path d="M20.8604 27.9043C20.4019 28.1504 20.5567 28.7715 21.0807 28.7715C21.5928 28.7715 21.7119 28.0625 21.2295 27.8926C21.0152 27.8223 21.0092 27.8223 20.8604 27.9043Z"/>
<path d="M19.7292 2.14844C19.4672 2.23047 19.2886 2.38281 18.2049 3.44922C16.8532 4.78516 16.7817 4.89062 16.7817 5.57031C16.7817 6.23828 16.8651 6.36133 18.1453 7.64453C19.4791 8.97461 19.6458 9.08594 20.3187 9.08594C20.8427 9.08594 21.1047 9.00391 21.4619 8.74023C21.8013 8.48242 22.0753 8.03125 22.1229 7.62695L22.1586 7.32812H22.7481C23.8497 7.32812 24.1593 7.65039 24.1653 8.79883C24.1653 9.28516 24.1414 9.32031 23.8199 9.32031C23.5877 9.32031 23.0994 9.56641 22.8612 9.79492C22.3432 10.2988 22.2003 11.1309 22.5159 11.8105C22.6528 12.0977 22.8731 12.3438 23.7663 13.2227C25.0465 14.4707 25.1954 14.5645 25.9218 14.5645C26.6721 14.5645 26.809 14.4766 28.1071 13.1992C29.3159 12.0098 29.4528 11.8164 29.5064 11.1953C29.5481 10.7617 29.4111 10.2988 29.1372 9.95312C28.8931 9.63086 28.3155 9.32031 27.9761 9.32031H27.7558L27.7201 8.45312C27.6844 7.46875 27.5593 6.91797 27.2437 6.29688C26.7793 5.39453 26.0886 4.70898 25.2133 4.28711C24.4987 3.94141 24.1474 3.86523 23.0875 3.83008L22.1527 3.79492L22.1229 3.51367C22.0574 2.98047 21.7358 2.5293 21.2416 2.25977C20.8486 2.04883 20.1996 2.00195 19.7292 2.14844ZM20.807 3.10352C21.1404 3.30273 21.2833 3.8125 21.1047 4.15234C21.057 4.24023 20.8546 4.46875 20.6521 4.66211C20.2175 5.07812 20.1162 5.24805 20.1162 5.57031C20.1162 5.89258 20.2175 6.0625 20.6521 6.47852C21.188 6.98828 21.2952 7.29883 21.0868 7.7207C20.9558 8.00195 20.6938 8.14844 20.3306 8.14844H20.0329L18.967 7.10547C18.3835 6.53711 17.8654 5.99805 17.8178 5.91016C17.7106 5.70508 17.7106 5.42969 17.8178 5.23047C17.9131 5.05469 19.8423 3.15625 20.0269 3.05664C20.2115 2.95703 20.6045 2.98047 20.807 3.10352ZM24.2248 4.9082C25.0168 5.19531 25.5705 5.57031 25.9933 6.12109C26.5709 6.87109 26.7793 7.59766 26.7793 8.82227V9.52539L26.3506 9.91797L25.9159 10.3047L25.5229 9.92969L25.1358 9.56055L25.1001 8.72266C25.0644 7.71484 24.981 7.44531 24.5761 7.01172C24.1295 6.52539 23.8497 6.43164 22.766 6.39648L21.8728 6.36133L21.4917 5.96289L21.1106 5.57031L21.4917 5.16016L21.8728 4.75586L22.8851 4.77344C23.7187 4.79102 23.9569 4.81445 24.2248 4.9082ZM24.5225 10.3516C24.6059 10.3926 24.8322 10.5859 25.0287 10.7852C25.4455 11.207 25.6241 11.3125 25.9218 11.3125C26.2017 11.3125 26.3982 11.207 26.7257 10.873C27.1723 10.4102 27.4224 10.2578 27.726 10.2578C28.0595 10.2578 28.3453 10.4277 28.4763 10.6914C28.6013 10.9551 28.5954 11.1543 28.4584 11.418C28.3096 11.7051 26.4518 13.498 26.2076 13.5918C25.7849 13.7617 25.6598 13.6797 24.4749 12.5254C23.2959 11.3711 23.1947 11.2188 23.3316 10.8203C23.4984 10.3164 24.0343 10.1055 24.5225 10.3516Z"/>
<path d="M3.50314 3.14307C2.97914 3.36572 2.84814 3.65283 2.84814 4.56104C2.84814 5.22314 2.8541 5.26416 3.02082 5.52197C3.13396 5.69775 3.28282 5.82666 3.46145 5.91455C3.72345 6.0376 3.7949 6.04346 5.09893 6.02588L6.4625 6.0083L6.70068 5.8501C6.84954 5.75635 6.99245 5.59229 7.07581 5.42822C7.18895 5.18799 7.20085 5.08252 7.18299 4.46729C7.16513 3.82861 7.15322 3.75244 7.00436 3.53564C6.90909 3.39502 6.74236 3.24854 6.58754 3.17236C6.34341 3.06104 6.23028 3.04932 5.01557 3.04932C3.9914 3.05518 3.66986 3.07275 3.50314 3.14307ZM6.17073 4.05713C6.266 4.15088 6.266 4.93604 6.17073 5.02979C6.09332 5.10596 4.08072 5.13525 3.89613 5.06494C3.81872 5.03564 3.80086 4.93018 3.80086 4.54932C3.80086 4.27979 3.81872 4.04541 3.84254 4.02783C3.91399 3.95166 6.09332 3.98096 6.17073 4.05713Z"/>
<path d="M3.61627 7.26172C3.34832 7.34375 3.14587 7.50781 2.99701 7.76562C2.86005 7.98828 2.84814 8.07617 2.84814 8.69727C2.84814 9.25391 2.87196 9.42383 2.96128 9.59961C3.24114 10.1387 3.43764 10.1973 5.03343 10.1973C6.22432 10.1973 6.34341 10.1855 6.58754 10.0742C6.74236 9.99805 6.90909 9.85156 7.00436 9.71094C7.15917 9.48242 7.16513 9.44141 7.16513 8.70312C7.16513 7.98242 7.15322 7.91797 7.02222 7.72461C6.94481 7.61328 6.78404 7.45508 6.67091 7.37891C6.4625 7.24414 6.42677 7.23828 5.11679 7.22656C4.37844 7.2207 3.69963 7.23828 3.61627 7.26172ZM6.17669 8.22852C6.22432 8.28125 6.24219 8.48047 6.23028 8.77344L6.21241 9.23047H5.02152H3.83063L3.81277 8.73828C3.80086 8.38086 3.81872 8.22852 3.87231 8.19922C3.91399 8.16992 4.43799 8.14648 5.02748 8.14648C5.88492 8.14648 6.1231 8.16406 6.17669 8.22852Z"/>
<path d="M3.40788 18.3416C3.12802 18.4764 2.81838 18.7459 1.94903 19.6131C0.698597 20.8611 0.615234 20.99 0.615234 21.7107C0.621189 22.6014 1.24045 23.2986 2.14553 23.4158L2.41944 23.451L2.44325 24.4295C2.46707 25.3025 2.48493 25.449 2.6338 25.8709C2.86602 26.5447 3.21733 27.0955 3.73537 27.6053C4.25341 28.115 4.81313 28.4607 5.49789 28.6893C5.92661 28.8357 6.07547 28.8533 6.96269 28.8768L7.95113 28.9002L7.98685 29.1814C8.09403 30.0545 8.82048 30.6697 9.75533 30.6697C10.4758 30.6756 10.6604 30.5584 11.9942 29.2283C13.2566 27.9744 13.328 27.8631 13.328 27.16C13.328 26.4568 13.2566 26.3455 11.9942 25.0916C10.6425 23.7498 10.4758 23.6443 9.72556 23.6502C9.33256 23.6502 9.19561 23.6795 8.95148 23.8025C8.42748 24.0721 8.08808 24.535 7.99281 25.1268L7.95113 25.3729H7.33186C6.62328 25.3729 6.37915 25.2967 6.16479 24.9979C6.05166 24.8396 6.03379 24.7283 6.01593 24.1248L5.99211 23.4393H6.13502C6.45656 23.4393 6.89123 23.2576 7.183 22.9998C7.58791 22.6424 7.75463 22.2557 7.76058 21.6814C7.76058 20.9725 7.6415 20.7908 6.28983 19.4783C5.00962 18.2303 4.90244 18.1658 4.15814 18.1658C3.8366 18.1658 3.69369 18.201 3.40788 18.3416ZM4.56304 19.1854C4.65236 19.2322 5.1823 19.7244 5.74798 20.2869C6.59351 21.1248 6.7781 21.3357 6.80787 21.5174C6.93292 22.1736 6.23624 22.7186 5.65866 22.4197C5.56934 22.3729 5.33712 22.1736 5.14062 21.9744C4.7119 21.5408 4.52731 21.4354 4.18791 21.4354C3.85446 21.4354 3.74133 21.4998 3.19947 22.0096C2.87197 22.3143 2.68739 22.4432 2.53257 22.4725C1.91926 22.5896 1.37741 21.9803 1.60367 21.4295C1.68108 21.2303 3.47337 19.3963 3.7711 19.2146C3.98546 19.0857 4.33677 19.0682 4.56304 19.1854ZM4.65831 22.8416L5.05131 23.2166V24.0252C5.05131 24.699 5.07512 24.8982 5.1704 25.1561C5.32521 25.5662 5.61698 25.8885 6.00997 26.1053C6.31961 26.2752 6.36129 26.2811 7.26637 26.2986L8.20121 26.3221L8.61803 26.7381L9.03484 27.16L8.63589 27.5818L8.23694 28.0037L7.314 27.9803C6.73642 27.9686 6.26006 27.9217 6.03975 27.8631C5.1049 27.617 4.18791 26.8904 3.77705 26.076C3.4436 25.4021 3.38406 25.115 3.38406 24.0838V23.1756L3.78301 22.8123C4.00928 22.6131 4.20577 22.4549 4.22959 22.4607C4.24745 22.4666 4.44395 22.6365 4.65831 22.8416ZM10.0352 24.6111C10.2257 24.6814 12.1609 26.5506 12.2919 26.7908C12.3991 26.99 12.3991 27.324 12.2919 27.5291C12.2443 27.617 11.7441 28.1385 11.1725 28.6893C10.3031 29.533 10.1066 29.6971 9.9161 29.7322C9.46356 29.8143 9.02888 29.5271 8.94552 29.0936C8.88598 28.7596 8.96339 28.6072 9.45761 28.0975C10.2257 27.3123 10.2257 27.0076 9.45761 26.2225C9.11225 25.8709 8.98125 25.6834 8.95148 25.5311C8.83239 24.91 9.43974 24.3943 10.0352 24.6111Z"/>
</svg>
