<svg width="31" height="31" viewBox="0 0 31 31">
<path d="M6.24921 0.999308C4.93834 1.34519 4.11661 2.72873 4.30574 4.28522C4.35791 4.78149 4.60574 5.41311 4.85356 5.7214L5.0166 5.9169L4.71661 6.05224C4.31226 6.22519 3.68618 6.90944 3.484 7.39067C3.28835 7.85686 1.68401 15.2107 1.68401 15.6468V15.9401H1.36445C0.999232 15.9401 0.692712 16.1431 0.464452 16.5341C0.314453 16.7897 0.314453 16.8123 0.314453 19.3989C0.314453 21.9855 0.314453 22.0081 0.464452 22.2637C0.744886 22.7525 0.973146 22.8578 1.69053 22.8578H2.33618V26.076V29.3018L2.53836 29.7604C2.87096 30.5349 3.42531 30.9259 4.19487 30.9334C4.76226 30.941 5.27747 30.6778 5.62312 30.2116C6.04703 29.6476 6.05356 29.58 6.05356 26.0384V22.8578H7.03181C8.15354 22.8578 8.3492 22.7976 8.63615 22.3615L8.82528 22.0833V19.3989V16.7145L8.63615 16.4363C8.3818 16.0453 8.12746 15.9401 7.45572 15.9401C6.94703 15.9401 6.89486 15.925 6.92746 15.8047C6.94703 15.737 7.00572 15.4588 7.06442 15.1881C7.12312 14.9174 7.20138 14.564 7.23398 14.4061L7.30572 14.1129L7.48833 14.4813C7.58616 14.6843 7.75572 14.94 7.85355 15.0453C8.05572 15.2483 11.5187 17.5642 12.0796 17.865C12.7253 18.2109 13.4687 18.0454 13.8731 17.4589C14.0687 17.1657 14.2709 16.5792 14.2709 16.2859C14.2709 15.9025 14.0753 15.3686 13.834 15.0979C13.697 14.9475 12.8231 14.3309 11.8905 13.7219C10.9579 13.1128 10.1492 12.5564 10.084 12.4887C10.0253 12.421 9.56223 11.2856 9.05354 9.96225C7.98398 7.19517 7.91224 7.01471 7.73616 6.78913L7.60572 6.62371L7.93181 6.43572C8.57093 6.05976 8.94267 5.55597 9.18397 4.72886C9.5231 3.59345 9.15137 2.23246 8.32311 1.53317C7.71659 1.01435 6.94051 0.818846 6.24921 0.999308ZM7.47529 1.91666C8.27094 2.30766 8.75354 3.40547 8.53833 4.33785C8.3492 5.1349 7.6905 5.80411 6.9992 5.90186C5.95573 6.05224 4.99704 5.05218 5.00356 3.82655C5.01008 2.36781 6.3079 1.36023 7.47529 1.91666ZM6.55573 6.84176C6.73833 6.932 6.97312 7.11246 7.08398 7.24028C7.22746 7.40571 7.63181 8.36817 8.3818 10.2931L9.47745 13.1053L11.3166 14.3159C12.3274 14.9851 13.2274 15.6092 13.3187 15.707C13.5535 15.9626 13.5861 16.2408 13.4361 16.6469C13.2927 17.0153 13.0383 17.2183 12.7187 17.2183C12.5883 17.2183 11.8579 16.7747 10.5144 15.8949C9.40571 15.1581 8.43398 14.4964 8.3492 14.4136C8.27094 14.3309 7.80789 13.361 7.31877 12.2631C6.82964 11.1653 6.38616 10.2029 6.32747 10.1277C6.13182 9.87202 5.72747 10.045 5.72747 10.3909C5.72747 10.4736 5.96877 11.0826 6.26225 11.7518L6.79703 12.9549L6.41225 14.7295C6.02747 16.5416 5.92312 16.8875 5.64269 17.2258C5.55791 17.3311 5.45356 17.489 5.40791 17.5717C5.35573 17.692 5.33617 19.3162 5.33617 23.4217C5.33617 29.7905 5.36225 29.4371 4.8666 29.8507C4.56008 30.1138 4.22748 30.189 3.91444 30.0687C3.56226 29.9409 3.32748 29.7228 3.184 29.3995C3.06009 29.1138 3.05357 28.9333 3.05357 23.324V17.5417L2.89053 17.286C2.61009 16.8499 2.44705 16.3687 2.41444 15.9401C2.39488 15.6017 2.53183 14.8723 3.21661 11.7368C3.66661 9.65396 4.06443 7.87942 4.10356 7.80423C4.31878 7.34555 4.84052 6.87184 5.33617 6.68386C5.59704 6.58611 6.19703 6.6613 6.55573 6.84176ZM1.87966 16.9927C1.92531 17.1206 2.04923 17.3612 2.14705 17.5191L2.33618 17.8199V19.9253V22.0306H1.79488C0.95358 22.0306 0.999232 22.1885 0.999232 19.3989C0.999232 17.2258 1.00575 17.0755 1.12314 16.9251C1.21445 16.8123 1.32532 16.7672 1.52097 16.7672C1.76879 16.7672 1.80792 16.7897 1.87966 16.9927ZM8.03615 16.9326C8.12746 17.0755 8.1405 17.4439 8.1405 19.3989C8.1405 21.3539 8.12746 21.7224 8.03615 21.8652C7.94485 22.0231 7.89268 22.0306 6.99268 22.0306H6.05356V20.0155V18.0003L6.30138 17.6244C6.43834 17.4138 6.58834 17.1356 6.63399 17.0003L6.71877 16.7672H7.33181C7.88615 16.7672 7.94485 16.7822 8.03615 16.9326Z"/>
<path d="M20.8776 1.42039C19.4428 2.03696 18.8037 3.83406 19.4493 5.4507C19.7428 6.19511 20.4993 6.87936 21.1841 7.02975L21.4189 7.07486L21.2362 7.50346C21.1319 7.73656 21.0341 8.12004 21.008 8.34561C20.9754 8.67646 20.8058 9.13514 20.1406 10.6239L19.3123 12.4887L17.4993 13.6843C16.5015 14.346 15.6145 14.9626 15.5298 15.0528C14.6037 16.0528 15.2754 18.0454 16.5406 18.0454C16.7167 18.0454 16.958 18.0078 17.0754 17.9627C17.4602 17.8048 21.3602 15.1957 21.5623 14.955C21.6667 14.8272 21.8102 14.5941 21.8689 14.4287C21.9341 14.2633 22.0123 14.158 22.0319 14.1881C22.058 14.2181 22.1297 14.4964 22.1949 14.7971L22.3123 15.346L22.1102 15.5866C21.9993 15.722 21.8754 15.925 21.8428 16.0378C21.7971 16.1732 21.771 17.1657 21.771 18.7447C21.771 21.1885 21.7776 21.2486 21.921 21.5419C22.1036 21.9254 22.521 22.181 22.958 22.181H23.271V25.7376V29.3018L23.4732 29.7604C23.8058 30.5349 24.3601 30.9259 25.1297 30.9334C25.6971 30.941 26.2123 30.6778 26.558 30.2116C26.9884 29.6401 26.9884 29.61 26.9884 25.7076V22.1885L28.3123 22.166L29.6427 22.1434L29.8775 21.9329C30.3145 21.5494 30.3145 21.572 30.3145 18.7222C30.3145 15.8197 30.3079 15.7897 29.8384 15.4287C29.584 15.2332 29.5253 15.2257 28.5927 15.1957L27.608 15.1731L26.8319 11.5488C26.408 9.56373 25.9971 7.75911 25.9123 7.54105C25.7297 7.08238 25.2471 6.45076 24.8688 6.20263C24.7254 6.09736 24.4449 5.96953 24.2493 5.90938C24.0536 5.84922 23.8971 5.77403 23.9101 5.73643C23.9167 5.70636 24.0015 5.42063 24.0928 5.11234C24.2362 4.63862 24.2558 4.46568 24.2297 4.02205C24.158 2.9092 23.6623 2.03696 22.8341 1.56325C22.4623 1.35271 22.3254 1.31512 21.8102 1.30008C21.3471 1.27752 21.1449 1.3076 20.8776 1.42039ZM22.5732 2.35277C23.1406 2.73625 23.5319 3.48066 23.5319 4.17243C23.5319 5.18753 22.7819 6.12744 21.9015 6.21767C21.3993 6.2703 21.0276 6.14999 20.6232 5.79659C19.5145 4.83413 19.7819 2.79641 21.0928 2.21743C21.4906 2.04448 22.208 2.11216 22.5732 2.35277ZM24.1058 6.72898C24.5297 6.87936 25.1036 7.46586 25.2601 7.91702C25.4167 8.36065 27.2493 16.9401 27.2493 17.2183C27.2493 17.8575 26.5449 18.2635 26.0362 17.9026C25.9254 17.8274 25.8014 17.662 25.7623 17.5492C25.7167 17.4289 25.3188 15.6092 24.8688 13.5038C24.4188 11.3984 24.021 9.6314 23.9819 9.57125C23.8319 9.36823 23.3362 9.52614 23.3362 9.77427C23.3362 9.81187 23.5841 10.9999 23.8906 12.4135C24.1971 13.8347 24.4449 15.0377 24.4449 15.0904C24.4449 15.1656 24.2754 15.1881 23.7341 15.1881H23.0232L22.5928 13.188C22.3515 12.0827 22.1297 11.1202 22.0906 11.045C22.0449 10.9473 21.9536 10.9022 21.7971 10.9022C21.4319 10.9022 21.3928 11.1127 21.5949 12.0376L21.7645 12.8045L21.4449 13.5264C21.2754 13.9249 21.0602 14.3234 20.9819 14.4061C20.6689 14.737 16.8015 17.2183 16.5993 17.2183C16.0124 17.2183 15.6015 16.3386 15.9406 15.8122C16.0254 15.6844 16.8276 15.1054 17.9624 14.361L19.8471 13.1203L20.7732 11.0525C21.4971 9.44342 21.7058 8.91708 21.7058 8.68398C21.7189 7.82679 22.2797 6.99215 23.0232 6.72898C23.4015 6.59363 23.7015 6.59363 24.1058 6.72898ZM24.8688 16.9777C25.1949 18.444 25.5275 18.835 26.4667 18.835C26.884 18.835 27.0014 18.8049 27.2688 18.6244C27.8884 18.2033 28.1036 17.4289 27.8819 16.4438L27.784 16.0152H28.4884C28.8797 16.0152 29.271 16.0453 29.3623 16.0904C29.6427 16.2107 29.6753 16.5266 29.6493 18.8951L29.6297 21.0682L29.4732 21.211C29.3297 21.3464 29.1732 21.3539 26.0362 21.3539C22.8341 21.3539 22.7428 21.3464 22.6189 21.2035C22.4949 21.0607 22.4884 20.9554 22.4884 18.6921V16.3235L22.6645 16.1656C22.821 16.0228 22.9058 16.0152 23.7471 16.0303L24.6601 16.0528L24.8688 16.9777ZM26.271 25.6624C26.271 29.5875 26.2906 29.4521 25.7623 29.8807C25.2406 30.3093 24.5297 30.1289 24.1775 29.4822L23.9884 29.1439V25.6624V22.181H25.1297H26.271V25.6624Z"/>
<path d="M14.0425 19.2135C13.0446 19.4315 12.2751 19.8977 11.5642 20.7173C10.9707 21.4016 10.6251 22.0332 10.3773 22.8979C10.2142 23.4393 10.2012 23.6047 10.2012 24.5897C10.2012 25.5747 10.2142 25.7402 10.3773 26.2816C11.0751 28.6802 13.0185 30.2066 15.1838 30.0562C16.3381 29.9735 17.2837 29.4998 18.125 28.5975C19.1555 27.4771 19.6316 26.1988 19.625 24.5521C19.625 23.1611 19.2011 21.9054 18.399 20.9053C17.662 19.9879 16.7751 19.424 15.7316 19.2135C15.0598 19.0781 14.662 19.0781 14.0425 19.2135ZM15.6729 20.0406C16.4359 20.221 17.1598 20.6872 17.7272 21.3489C18.5359 22.2964 18.9076 23.319 18.9076 24.5897C18.9076 25.8906 18.5359 26.8981 17.6946 27.8681C17.3033 28.3193 17.049 28.5373 16.6772 28.7479C15.0403 29.6727 13.162 29.2592 11.9359 27.7102C10.6838 26.1312 10.5273 23.7701 11.5707 22.0106C12.5033 20.4466 14.1207 19.6646 15.6729 20.0406Z"/>
<path d="M15.51 24.0987L14.173 25.6402L13.5534 24.9258C12.9013 24.1739 12.7056 24.0687 12.4839 24.3318C12.2752 24.5649 12.3665 24.7454 13.1752 25.6928C13.8469 26.4748 14.0034 26.6177 14.173 26.6177C14.3426 26.6177 14.5708 26.3921 15.8882 24.8657C16.7426 23.8807 17.4012 23.0611 17.4012 22.9859C17.4012 22.7152 17.2708 22.5573 17.0556 22.5573C16.8665 22.5573 16.6969 22.7302 15.51 24.0987Z"/>
</svg>
