<svg width="30" height="31" viewBox="0 0 30 31">
<path d="M5.20778 0.981028C4.43339 1.24109 3.83445 1.7068 3.4049 2.37813C3.18711 2.71683 2.89671 3.50308 2.89671 3.7571C2.89671 3.85387 2.79386 4.04136 2.61841 4.25304C2.29777 4.65221 2.15862 4.90623 2.02552 5.35379C1.89243 5.8074 1.89847 6.61784 2.04367 7.13193C2.15257 7.53715 2.15257 7.54924 2.04367 7.8456C1.88638 8.25082 1.89243 8.88587 2.05577 9.31528C2.30382 9.98662 2.95116 10.4463 3.70135 10.4886L4.11274 10.5128L4.28819 10.8636C4.53019 11.3414 4.97788 11.8676 5.42557 12.1942C5.78857 12.4542 5.80067 12.4724 5.80067 12.7385C5.79462 13.3191 5.62522 13.7001 5.28038 13.8997C5.17753 13.9542 4.71168 14.0509 4.12484 14.1235C3.06611 14.2626 2.52767 14.4199 1.92872 14.7707C1.17854 15.2122 0.482795 16.077 0.16215 16.9722L0.0230022 17.3653L0.00485244 21.8106C-0.00724738 24.9798 0.00485244 26.3225 0.0532517 26.4858C0.144 26.8003 0.549345 27.2237 0.86394 27.3446C1.06359 27.4232 1.29953 27.4353 2.00737 27.4232L2.89671 27.4051V29.1107V30.8223H7.73664H12.5766V25.1673V19.5124L13.0485 19.7482C13.7926 20.1232 14.1132 20.1958 14.8997 20.1655C15.6439 20.1353 16.0553 20.0204 16.5877 19.6877C16.7631 19.5789 17.84 18.5568 18.9895 17.4137L21.0827 15.3392H22.3351C23.7266 15.3392 23.8778 15.3089 24.2469 14.9581C24.6159 14.6074 24.6764 14.3896 24.6764 13.4038C24.6764 12.4663 24.6038 12.1821 24.3255 11.9281L24.1985 11.8192L24.3436 11.6257C24.5856 11.3112 24.634 11.1055 24.6764 10.2225C24.7308 9.22456 24.7732 9.10965 25.2693 8.77096C26.0497 8.22663 26.7334 7.24079 26.9754 6.29124C27.1387 5.65619 27.1387 4.7006 26.9754 4.06555C26.5942 2.56562 25.354 1.32577 23.8536 0.944738C23.2184 0.781441 22.2625 0.781441 21.6272 0.944738C20.1269 1.32577 18.8866 2.56562 18.5055 4.06555C18.3421 4.7006 18.3421 5.65619 18.5055 6.29124C18.7475 7.24079 19.4311 8.22663 20.2237 8.77701C20.6714 9.08546 20.744 9.2548 20.744 9.99872V10.5975L20.5201 10.6761C20.3447 10.7366 19.6187 11.4261 17.6282 13.4038L14.9663 16.0468L14.3734 15.5811C13.2784 14.7162 12.3951 14.317 11.0157 14.057C9.99931 13.8634 9.75731 13.6518 9.69076 12.8776L9.66051 12.4663L10.0417 12.1942C10.4954 11.8676 10.9431 11.3474 11.1851 10.8575L11.3666 10.5007H11.6993C12.389 10.5007 13.0485 10.0834 13.3631 9.4423C13.4901 9.18827 13.5143 9.05522 13.5143 8.56532C13.5143 8.09357 13.4901 7.94237 13.3812 7.72464L13.2481 7.45852L13.3994 7.01701C13.5809 6.47873 13.599 5.57152 13.4478 5.05139C13.2058 4.2349 12.6492 3.50308 11.9776 3.12205C11.6509 2.93456 11.6146 2.89222 11.6086 2.71683C11.6025 2.07573 10.9431 1.21085 10.2595 0.956835C9.92671 0.829824 9.81781 0.823776 7.77899 0.823776C5.66757 0.829824 5.64337 0.829824 5.20778 0.981028ZM9.91461 1.93662C10.2111 2.09387 10.3321 2.20879 10.4651 2.46885C10.7495 3.02528 10.5135 3.7571 9.96301 4.02321C9.81781 4.08974 9.66656 4.15022 9.62421 4.15022C9.58791 4.15022 9.54556 4.17442 9.52741 4.20465C9.47901 4.28328 9.79361 5.1784 9.87226 5.1784C9.91461 5.1784 10.1143 5.09977 10.3139 5.003C10.7313 4.80946 11.1488 4.45868 11.2819 4.19861C11.3303 4.10789 11.4089 4.02926 11.4573 4.02926C11.6025 4.02926 12.1349 4.61592 12.3104 4.97276C12.5947 5.55338 12.5887 6.74485 12.2983 6.70251C12.2378 6.69042 12.0563 6.66623 11.899 6.64808L11.6086 6.61179V6.14004V5.66224H10.6587C8.49288 5.66224 7.32525 5.4687 5.97612 4.90018L5.29853 4.61592L4.97183 4.78527C4.42129 5.06953 3.9494 5.75901 3.8768 6.35777C3.84655 6.63598 3.87075 6.62994 3.13871 6.70251L2.98746 6.72066V6.17633C2.99351 5.53523 3.10241 5.28121 3.5622 4.79132C3.8405 4.50101 3.85865 4.45868 3.91915 3.99902C4.00989 3.37002 4.20954 2.9527 4.61489 2.54143C4.99603 2.1604 5.44372 1.93662 5.95797 1.858C6.15761 1.82776 7.0772 1.80357 8.00889 1.80961C9.53346 1.82171 9.72101 1.83381 9.91461 1.93662ZM23.6479 1.95477C24.3739 2.14831 25.0636 2.65635 25.5113 3.32163C25.9287 3.95064 26.0376 4.33167 26.0376 5.1784C26.0376 6.03118 25.9287 6.4122 25.4931 7.04725C25.2753 7.37385 25.0454 7.61577 24.6764 7.90003C24.0896 8.35364 23.7931 8.77701 23.7326 9.24271L23.6903 9.53302H22.7404H21.7906L21.7482 9.24271C21.6877 8.80725 21.4034 8.36574 20.9678 8.03309C20.145 7.41619 19.6429 6.70251 19.4735 5.89812C19.3767 5.45056 19.4251 4.51916 19.5703 4.08974C19.6308 3.9083 19.8183 3.55146 19.9877 3.30349C20.7924 2.11202 22.2504 1.57374 23.6479 1.95477ZM6.28466 6.1219C7.3676 6.49688 8.22063 6.62994 9.56371 6.62994H10.6527L10.6224 8.06333C10.5922 9.61164 10.5438 9.8959 10.2292 10.4402C9.25517 12.1216 6.9804 12.3998 5.66757 10.9967C5.32877 10.6338 5.11098 10.2648 4.97788 9.80518C4.88713 9.50278 4.86898 9.21247 4.86293 8.05124C4.86293 7.28313 4.88108 6.56341 4.91133 6.44849C4.97183 6.15819 5.29853 5.75901 5.43162 5.81949C5.48607 5.84369 5.86722 5.98279 6.28466 6.1219ZM3.8647 8.56532C3.8647 9.46649 3.8647 9.47253 3.7316 9.47253C3.3444 9.47253 2.95721 9.01288 2.95721 8.56532C2.95721 8.11776 3.3444 7.65811 3.7316 7.65811C3.8647 7.65811 3.8647 7.66416 3.8647 8.56532ZM12.0805 7.77907C12.6613 8.13591 12.6613 8.99474 12.0805 9.35157C11.9716 9.4181 11.8203 9.47253 11.7477 9.47253C11.6086 9.47253 11.6086 9.46649 11.6086 8.56532C11.6086 7.66416 11.6086 7.65811 11.7477 7.65811C11.8203 7.65811 11.9716 7.71254 12.0805 7.77907ZM23.6479 10.6459C23.6479 10.8273 23.418 11.172 23.2063 11.287C23.049 11.3777 23.0369 11.3716 22.8614 11.1539C22.6618 10.912 22.3532 10.7063 22.0205 10.5854C21.8269 10.5128 21.8995 10.5068 22.7283 10.5007H23.6479V10.6459ZM21.9418 11.7406C22.0689 11.8555 22.2262 12.0551 22.2867 12.1942L22.3956 12.4361H22.7707C23.5269 12.4361 23.7084 12.6236 23.7084 13.3917C23.7084 14.311 23.6056 14.3715 22.1233 14.3715H21.0767L20.3507 13.6457L19.6247 12.9199L20.1995 12.3393C20.9012 11.6257 21.0525 11.5289 21.4215 11.5289C21.6696 11.5289 21.7482 11.5591 21.9418 11.7406ZM8.70463 13.1619C8.70463 13.3917 8.64413 13.5187 8.23878 14.1417C7.97864 14.5348 7.75479 14.8553 7.73664 14.8553C7.71849 14.8553 7.49464 14.5348 7.24055 14.1417C6.82915 13.5187 6.76865 13.3917 6.76865 13.1619V12.8897H7.73664H8.70463V13.1619ZM19.4735 14.2808L20.0482 14.8553L18.1122 16.7907C15.8859 19.0225 15.777 19.1011 14.9179 19.1434C14.2947 19.1676 14.0043 19.089 13.2542 18.6777C12.6371 18.3451 12.625 18.333 12.6613 18.1515C12.6855 18.0548 12.7581 17.8915 12.8246 17.7947L12.9517 17.6253L12.5826 17.2504L12.2075 16.8814L12.0805 17.0326C12.0139 17.1173 11.8869 17.3169 11.7961 17.4862L11.6388 17.7886L11.6207 20.9155L11.6025 24.0484H8.20248H4.79638L4.71773 23.8307C4.67538 23.7097 4.46364 23.4315 4.25189 23.2077L3.87075 22.7965L3.8526 20.2926L3.83445 17.7886L3.67715 17.4862C3.5864 17.3169 3.45935 17.1173 3.3928 17.0326L3.26576 16.8814L2.89066 17.2504L2.52162 17.6253L2.64866 17.7947C2.85436 18.085 2.89671 18.5265 2.89671 20.6071V22.5969H1.92267H0.948639L0.972838 20.1897C0.997038 17.9338 1.00914 17.7645 1.13014 17.3895C1.43868 16.4581 2.17677 15.69 3.07821 15.3694C3.35045 15.2726 5.02023 15.0186 5.06863 15.067C5.08073 15.0852 4.99603 15.944 4.88108 16.9843C4.76613 18.0245 4.67538 18.8894 4.68748 18.8954C4.69353 18.9075 5.06258 18.6293 5.50422 18.2785C5.93982 17.9217 6.30886 17.6435 6.32096 17.6556C6.33306 17.6616 6.19996 18.4963 6.03056 19.5063L5.72807 21.3449L6.73235 22.3489L7.73664 23.3529L8.74092 22.3489L9.74521 21.3449L9.44271 19.5063C9.27332 18.4963 9.14022 17.6616 9.15232 17.6556C9.16442 17.6435 9.53346 17.9217 9.96906 18.2785C10.4107 18.6293 10.7797 18.9075 10.7858 18.8954C10.7979 18.8894 10.7132 18.085 10.6043 17.1234C10.4954 16.1557 10.4047 15.2847 10.4047 15.1819L10.3986 14.9884L10.8402 15.0731C11.7901 15.2545 12.4798 15.5327 13.2118 16.0226C13.7019 16.3553 14.331 16.8633 14.331 16.9238C14.331 16.954 14.2645 17.1052 14.1858 17.2685L14.0406 17.5528L14.4944 17.7826C14.7424 17.9036 14.9602 18.0003 14.9663 17.9882C14.9723 17.9761 15.0691 17.7947 15.178 17.577C15.3414 17.2383 15.6197 16.9359 17.1019 15.442C18.0578 14.4864 18.8503 13.7062 18.8685 13.7062C18.8866 13.7062 19.1589 13.9663 19.4735 14.2808ZM6.65371 15.1335L7.03485 15.7142L6.8594 15.8593C6.75655 15.944 6.51456 16.1315 6.32096 16.2887L5.96402 16.573L6.00032 16.3008C6.01847 16.1557 6.06686 15.7021 6.10921 15.2908C6.15156 14.8856 6.20601 14.5529 6.22416 14.5529C6.24836 14.5529 6.44196 14.813 6.65371 15.1335ZM9.36407 15.2908C9.40641 15.7021 9.45481 16.1557 9.47296 16.3008L9.50926 16.573L9.15232 16.2887C8.95872 16.1315 8.71673 15.944 8.61388 15.8593L8.43843 15.7142L8.81957 15.1335C9.03132 14.813 9.22492 14.5529 9.24912 14.5529C9.26727 14.5529 9.32172 14.8856 9.36407 15.2908ZM7.84554 16.5669C7.88184 16.6093 8.07543 17.6133 8.27508 18.7926L8.63203 20.9337L8.18433 21.3873L7.73664 21.8409L7.28895 21.3873L6.84125 20.9337L7.1982 18.7926C7.53094 16.8149 7.60959 16.4883 7.73664 16.4883C7.76084 16.4883 7.80924 16.5246 7.84554 16.5669ZM3.4533 23.9093C3.73765 24.1875 3.8042 24.2964 3.8042 24.4476C3.8042 24.6774 3.6832 24.7923 3.21131 25.0101L2.89671 25.1552V25.5302C2.89671 26.2862 2.70916 26.4676 1.92872 26.4676C1.37818 26.4676 1.11804 26.3588 1.02729 26.1048C0.984938 25.9838 0.960739 25.4516 0.960739 24.7379V23.5646H2.03157H3.10241L3.4533 23.9093ZM11.6086 27.4353V29.8546H9.90856H8.20248L8.23273 28.9897C8.25693 28.4151 8.29323 28.0583 8.35978 27.9131C8.48683 27.6107 8.85587 27.2116 9.14627 27.0664C9.27332 26.9999 9.37012 26.9092 9.35197 26.8729C9.33987 26.8305 9.26727 26.6128 9.19467 26.389C9.06762 26.0201 9.04342 25.9838 8.92847 26.0201C8.63203 26.1108 8.31743 26.3104 8.03308 26.5826L7.73664 26.8668L7.44019 26.5826C7.15585 26.3104 6.84125 26.1108 6.54481 26.0201C6.42986 25.9838 6.40566 26.0201 6.27861 26.389C6.20601 26.6128 6.13341 26.8305 6.12131 26.8729C6.10316 26.9092 6.19996 26.9999 6.32701 27.0664C6.61741 27.2116 6.98645 27.6107 7.1135 27.9131C7.18005 28.0583 7.21635 28.4151 7.24055 28.9897L7.2708 29.8546H5.56472H3.8647V27.8406V25.8326L4.16719 25.6693C4.36079 25.5604 4.51204 25.4153 4.60279 25.258L4.74193 25.0161H8.17828H11.6086V27.4353Z"/>
<path d="M23.0307 4.61865L21.7724 5.87665L21.4699 5.57425L21.1674 5.27184L20.7862 5.65287L20.4111 6.02785L21.0948 6.70524L21.7724 7.38867L23.4179 5.74359L25.0696 4.09247L24.7066 3.72958C24.5069 3.52999 24.3315 3.3667 24.3133 3.3667C24.2952 3.3667 23.7204 3.92917 23.0307 4.61865Z"/>
<path d="M22.1053 16.4195C21.9722 16.48 21.7786 16.6251 21.6697 16.734C21.3128 17.109 21.2886 17.2481 21.2886 18.7238C21.2886 19.7943 21.3067 20.1028 21.3854 20.2842C21.5729 20.7439 22.1114 21.137 22.547 21.1431H22.7406V21.7055C22.7406 22.3466 22.8253 22.5704 23.1882 22.8607C23.3818 23.018 23.4786 23.0482 23.8295 23.0663C24.3922 23.1026 24.5555 22.9998 25.584 21.9656L26.4007 21.1431H27.6712C29.093 21.1431 29.2442 21.1068 29.6193 20.7136C29.9762 20.3387 30.0004 20.1996 30.0004 18.7238C30.0004 17.2481 29.9762 17.109 29.6193 16.734C29.2019 16.2925 29.3229 16.3046 25.6445 16.3046C22.5591 16.3046 22.3292 16.3167 22.1053 16.4195ZM28.6937 17.357C28.8328 17.4114 28.9175 17.5021 28.9659 17.6352C29.0567 17.8952 29.0567 19.5524 28.9659 19.8125C28.851 20.1391 28.6695 20.1754 27.1751 20.1754H25.8563L24.9185 21.1128C24.4043 21.6269 23.9505 22.0503 23.9082 22.0503C23.7569 22.0503 23.7085 21.7962 23.7085 20.9979V20.1754H23.2548C22.6801 20.1754 22.4199 20.0725 22.3231 19.8125C22.2324 19.5524 22.2324 17.8952 22.3231 17.6352C22.4502 17.2783 22.4683 17.2783 25.6324 17.2723C27.9435 17.2723 28.5303 17.2904 28.6937 17.357Z"/>
<path d="M23.2246 18.7251V19.209H25.6446H28.0645V18.7251V18.2413H25.6446H23.2246V18.7251Z"/>
<path d="M19.9576 23.249C19.8064 23.3457 19.3345 23.7873 18.8989 24.2227L18.1124 25.015H16.8419C15.4202 25.015 15.2689 25.0513 14.8938 25.4444C14.5369 25.8194 14.5127 25.9585 14.5127 27.4342C14.5127 28.91 14.5369 29.0491 14.8938 29.4241C15.3113 29.8656 15.1903 29.8535 18.8565 29.8535C22.4744 29.8535 22.3836 29.8656 22.795 29.4724C23.1943 29.0975 23.2246 28.9523 23.2246 27.4463C23.2246 26.3637 23.2064 26.0553 23.1278 25.8738C22.9402 25.4142 22.4018 25.0211 21.9722 25.015H21.7726V24.4525C21.7726 23.8114 21.6879 23.5877 21.3249 23.2913C21.1252 23.1341 21.0406 23.1099 20.6655 23.0917C20.2662 23.0736 20.2057 23.0857 19.9576 23.249ZM20.7441 24.2227C20.7744 24.2892 20.8046 24.7126 20.8046 25.1602V25.9827H21.2523C22.1779 25.9827 22.2566 26.0916 22.2566 27.4342C22.2566 28.4927 22.2021 28.7104 21.8936 28.8193C21.6153 28.916 16.122 28.916 15.8437 28.8193C15.5412 28.7104 15.4807 28.4927 15.4807 27.4463C15.4807 26.9323 15.5109 26.4605 15.5472 26.3456C15.6622 26.019 15.8437 25.9827 17.338 25.9827H18.6569L19.5946 25.0453C20.1089 24.5312 20.5626 24.1078 20.605 24.1078C20.6473 24.1078 20.7078 24.1622 20.7441 24.2227Z"/>
<path d="M16.4487 27.4361V27.9199H18.8687H21.2887V27.4361V26.9522H18.8687H16.4487V27.4361Z"/>
</svg>
