<svg width="30" height="31" viewBox="0 0 30 31">
<path d="M10.704 1.02264C10.2165 1.17266 9.60388 1.64149 9.39135 2.0228C9.34134 2.11031 9.31634 2.11031 9.09131 2.01655C8.89753 1.93528 8.66 1.92278 7.81614 1.94153C6.81601 1.96029 6.76601 1.96654 6.40346 2.14157C5.92215 2.3791 5.44708 2.85418 5.20955 3.3355L5.02828 3.71056L5.00953 5.99217L4.99078 8.27378L4.84076 8.43005C4.57822 8.7051 4.49696 8.99889 4.49696 9.68025C4.49696 10.3929 4.57822 10.6554 4.89076 10.9867C5.1908 11.3055 5.51584 11.4305 6.04716 11.4305H6.49722V11.7618C6.49722 12.5932 6.98479 13.7496 7.62862 14.456L8.00367 14.8623L7.98492 15.6874L7.96616 16.5188L5.79088 17.0627C2.95926 17.7753 2.47795 18.0003 1.46532 19.0692C0.88399 19.6818 0.521443 20.2882 0.233906 21.1196L0.0276289 21.7134L0.00887643 26.1953C-0.00987602 30.646 -0.00987601 30.6773 0.121391 30.8086L0.246407 30.9336L12.4855 30.9211L24.7183 30.9023L25.2747 30.7273C26.5186 30.3398 27.3687 29.8147 28.2376 28.902C29.1002 27.9894 29.6627 26.9205 29.9065 25.689C30.069 24.8889 30.0128 23.4074 29.7878 22.6573C29.4315 21.4759 28.9064 20.6007 28.0438 19.7631C27.1999 18.9442 26.4186 18.4879 25.2747 18.1441C24.8246 18.0128 24.5496 17.9753 23.8245 17.9503C22.5368 17.9003 21.7117 18.0566 20.7053 18.5379L20.249 18.7504L19.8302 18.4316C19.0426 17.8315 18.58 17.6565 16.1985 17.0627L14.0295 16.5188L14.0107 15.6874L13.9919 14.8623L14.367 14.456C15.0108 13.7496 15.4984 12.5932 15.4984 11.7618V11.4305H15.9547C16.4798 11.4305 16.8048 11.3055 17.1049 10.9867C17.4236 10.6492 17.4987 10.3929 17.4987 9.66775C17.4987 8.97389 17.3986 8.64259 17.1299 8.40505C16.9986 8.28628 16.9986 8.25503 16.9986 6.05468C16.9986 3.58554 16.9861 3.51053 16.586 2.73541C16.186 1.97279 15.4671 1.37895 14.6045 1.08515C14.1482 0.935125 14.0795 0.928875 12.548 0.935125C11.4229 0.935125 10.8915 0.960131 10.704 1.02264ZM13.7794 1.99154C14.3732 2.07906 14.8108 2.29784 15.2234 2.70415C15.6297 3.11672 15.8484 3.55429 15.936 4.14813C15.9672 4.39192 15.9985 5.33582 15.9985 6.25471V7.92998H15.7484H15.4984V7.49241C15.4984 6.97983 15.3921 6.67978 15.1046 6.37348C14.6733 5.91716 14.7983 5.92966 11.0103 5.92966C7.27232 5.92966 7.36608 5.91716 6.94103 6.32347C6.62224 6.62352 6.49722 6.94857 6.49722 7.47365V7.92998H6.24094H5.98465L6.00966 6.03593C6.02841 4.2669 6.03466 4.12938 6.15968 3.86684C6.3222 3.52303 6.63474 3.22299 6.96603 3.07921C7.32858 2.92919 8.34121 2.88543 8.635 3.01045C8.83503 3.09797 8.87878 3.15422 8.96629 3.45427C9.07881 3.84183 9.18507 3.92935 9.52262 3.92935C9.82265 3.92935 9.97892 3.76057 10.0289 3.38551C10.1289 2.62914 10.5978 2.10406 11.2791 1.98529C11.6729 1.92278 13.2981 1.92278 13.7794 1.99154ZM14.1545 7.01733C14.4983 7.1611 14.517 7.30488 14.4795 9.78027C14.4483 12.1181 14.4295 12.2807 14.0982 12.9558C13.7107 13.7371 12.8981 14.4498 12.0917 14.7123C11.5666 14.8873 10.429 14.8873 9.90392 14.7123C9.09756 14.4498 8.28495 13.7371 7.8974 12.9558C7.56611 12.2807 7.54736 12.1181 7.5161 9.78027C7.4786 7.32363 7.49735 7.16736 7.82864 7.02358C8.12868 6.89231 13.8419 6.89231 14.1545 7.01733ZM6.49722 9.68025V10.4304H6.28469C5.77838 10.4304 5.49709 10.1678 5.49709 9.69275C5.49709 9.19267 5.75963 8.93638 6.26594 8.93013H6.49722V9.68025ZM16.1485 9.01765C16.4735 9.15517 16.5923 9.64275 16.411 10.0803C16.3172 10.3053 16.0735 10.4304 15.7109 10.4304H15.4984V9.68025V8.93013H15.7172C15.8422 8.93013 16.036 8.96764 16.1485 9.01765ZM9.96642 15.8437C10.7603 16.025 11.9917 15.9312 12.7043 15.6249L12.9981 15.4999V16.05V16.6001L11.9979 17.2002L10.9978 17.8003L9.99768 17.2002L8.99755 16.6001V16.05V15.4999L9.29134 15.6249C9.45386 15.6937 9.76015 15.7937 9.96642 15.8437ZM9.19132 17.9753C9.63513 18.2441 9.99768 18.4816 9.99768 18.5066C9.99768 18.5504 8.6725 19.6193 8.6225 19.6193C8.5975 19.6193 7.95991 18.6817 7.4786 17.9315L7.37234 17.7565L7.85365 17.6315C8.12243 17.5627 8.35371 17.5065 8.35996 17.5002C8.37247 17.494 8.74751 17.7128 9.19132 17.9753ZM14.2045 17.6565L14.6233 17.7628L14.517 17.9315C14.0357 18.6817 13.3981 19.6193 13.3731 19.6193C13.3231 19.6193 11.9979 18.5504 11.9979 18.5066C11.9979 18.4254 13.5919 17.5002 13.6857 17.5252C13.7357 17.5377 13.9669 17.6002 14.2045 17.6565ZM6.52222 24.045C7.17231 27.1955 7.71613 29.8147 7.73488 29.8522C7.75363 29.9147 7.50985 29.9334 6.62849 29.9334H5.49709V27.058C5.49709 24.2638 5.49084 24.1763 5.37208 24.0575C5.2033 23.8887 4.79075 23.8887 4.62198 24.0575C4.50321 24.1763 4.49696 24.2638 4.49696 27.058V29.9334H2.74048H0.984003L1.01526 26.0703C1.04026 21.8134 1.04026 21.8697 1.45907 20.9758C1.87787 20.0694 2.60922 19.3005 3.46558 18.8692C3.85938 18.6692 4.95952 18.3191 5.2158 18.3129C5.33457 18.3066 5.42833 18.7254 6.52222 24.045ZM17.4361 18.4691C18.0737 18.6442 18.5738 18.8692 19.0301 19.1817L19.3176 19.3818L18.7988 19.9194C17.5924 21.1758 16.9986 22.6573 16.9986 24.4326C16.9986 25.7265 17.2986 26.8142 17.9362 27.8519C18.2988 28.4395 19.0239 29.2396 19.5739 29.6521L19.949 29.9334H18.7238H17.4987V29.0583C17.4987 28.2644 17.4862 28.1707 17.3736 28.0581C17.2924 27.9769 17.1674 27.9331 16.9986 27.9331C16.8298 27.9331 16.7048 27.9769 16.6235 28.0581C16.511 28.1707 16.4985 28.2644 16.4985 29.0583V29.9334H15.3671C14.4858 29.9334 14.242 29.9147 14.2607 29.8522C14.2795 29.8147 14.8233 27.1955 15.4734 24.045C16.4048 19.513 16.6735 18.3066 16.7486 18.3066C16.7986 18.3066 17.1111 18.3816 17.4361 18.4691ZM7.30983 19.6193C7.72863 20.2569 8.11618 20.8133 8.17244 20.8508C8.36621 21.007 8.71001 20.9445 9.0038 20.7132C9.15382 20.5945 9.28508 20.5195 9.29759 20.5445C9.31009 20.5945 8.635 28.602 8.60375 28.6957C8.5975 28.727 8.11618 26.4454 7.53486 23.6324C6.95353 20.8258 6.46597 18.4816 6.44722 18.4316C6.38471 18.2441 6.55348 18.4754 7.30983 19.6193ZM14.4733 23.5699C13.8857 26.4204 13.3981 28.727 13.3919 28.6957C13.3606 28.602 12.6855 20.5945 12.698 20.5445C12.7105 20.5195 12.8418 20.5945 12.9918 20.7132C13.2606 20.9258 13.5294 20.9883 13.7669 20.8945C13.8169 20.8758 14.2357 20.3007 14.692 19.6131C15.1421 18.9317 15.5234 18.3754 15.5296 18.3816C15.5421 18.3941 15.0671 20.7257 14.4733 23.5699ZM24.8746 19.1505C25.4934 19.3068 26.4748 19.8068 26.9686 20.2257C29.419 22.2885 29.619 25.9141 27.4124 28.2332C25.7997 29.9272 23.0869 30.371 21.0116 29.2771C19.5802 28.5207 18.555 27.2143 18.1862 25.6828C18.0175 24.9577 18.0175 23.9075 18.1862 23.1824C18.455 22.0697 19.1551 20.9508 20.049 20.2069C20.524 19.8131 21.5242 19.3005 22.1243 19.1442C22.9431 18.9317 24.037 18.9317 24.8746 19.1505ZM11.2978 19.363C11.5354 19.5818 11.5604 19.6318 11.5604 19.8881C11.5604 20.1694 11.5541 20.1694 11.2791 20.2632C11.0291 20.3507 10.9666 20.3507 10.7165 20.2632C10.4415 20.1694 10.4352 20.1694 10.4352 19.8881C10.4352 19.6318 10.4602 19.5818 10.6978 19.363C10.8478 19.2255 10.9791 19.1192 10.9978 19.1192C11.0166 19.1192 11.1478 19.2255 11.2978 19.363ZM10.879 21.4133C11.0416 21.4321 11.2728 21.4133 11.4041 21.3696C11.5291 21.3258 11.6416 21.3071 11.6541 21.3196C11.6666 21.3321 11.8354 23.1699 12.0229 25.4015C12.2167 27.6393 12.3855 29.5709 12.4042 29.6959L12.4355 29.9334H10.9978H9.56012L9.59762 29.6709C9.62888 29.3959 10.3102 21.4696 10.3102 21.3571C10.3102 21.3196 10.3665 21.3133 10.454 21.3383C10.529 21.3571 10.7228 21.3946 10.879 21.4133Z"/>
<path d="M9.12209 8.55496C9.01582 8.66123 8.99707 8.76124 8.99707 9.18006C8.99707 9.78015 9.09708 9.93018 9.49714 9.93018C9.89719 9.93018 9.9972 9.78015 9.9972 9.18006C9.9972 8.57996 9.89719 8.42994 9.49714 8.42994C9.32836 8.42994 9.20335 8.4737 9.12209 8.55496Z"/>
<path d="M12.1226 8.55496C12.0163 8.66123 11.9976 8.76124 11.9976 9.18006C11.9976 9.78015 12.0976 9.93018 12.4976 9.93018C12.8977 9.93018 12.9977 9.78015 12.9977 9.18006C12.9977 8.57996 12.8977 8.42994 12.4976 8.42994C12.3289 8.42994 12.2038 8.4737 12.1226 8.55496Z"/>
<path d="M9.15334 12.0847C9.04083 12.191 8.99707 12.3035 8.99707 12.466C8.99707 12.7536 9.28461 13.0349 9.87218 13.3224C10.2535 13.51 10.3097 13.5225 10.9973 13.5225C11.6724 13.5225 11.7412 13.51 12.1225 13.3287C12.3475 13.2224 12.635 13.0349 12.7663 12.9161C12.9601 12.7286 12.9976 12.6536 12.9976 12.4348C12.9976 12.0972 12.8351 11.9285 12.5038 11.9285C12.3288 11.9285 12.1975 11.9785 12.0725 12.0847C11.4349 12.6161 10.5598 12.6161 9.92219 12.0847C9.67841 11.8785 9.35962 11.8722 9.15334 12.0847Z"/>
<path d="M22.324 20.0567C20.7925 20.463 19.5174 21.7445 19.1236 23.2822C19.036 23.6135 18.9985 23.9761 18.9985 24.4324C18.9985 25.7326 19.4048 26.714 20.3112 27.6204C21.2176 28.5268 22.199 28.9331 23.4991 28.9331C24.7993 28.9331 25.7807 28.5268 26.687 27.6204C27.5934 26.714 27.9997 25.7326 27.9997 24.4324C27.9997 23.9761 27.9622 23.6135 27.8747 23.2822C27.4809 21.732 26.1995 20.4505 24.6493 20.0567C24.0054 19.8879 22.9616 19.8942 22.324 20.0567ZM23.0803 21.0694C23.0553 21.1131 23.0178 21.3257 22.9991 21.5444L22.9678 21.9383L22.6428 22.0508C22.2177 22.1945 21.9114 22.4071 21.6989 22.7071C21.5489 22.9259 21.5301 23.0134 21.5301 23.4322C21.5301 23.8386 21.5551 23.9448 21.6864 24.1449C22.0052 24.6199 22.5677 24.87 23.5554 24.9825C24.1367 25.0512 24.4055 25.195 24.4055 25.4326C24.4055 25.5138 24.3305 25.6326 24.2305 25.7076C24.0804 25.8201 23.9617 25.8389 23.4991 25.8389C22.849 25.8389 22.6428 25.7326 22.5115 25.3325C22.4115 25.0262 22.2865 24.9325 21.9864 24.9325C21.6114 24.9325 21.4801 25.1075 21.5114 25.5576C21.5551 26.1577 21.9302 26.5765 22.6428 26.814L22.9678 26.9265L22.9991 27.3204C23.0178 27.5391 23.0553 27.7517 23.0866 27.8017C23.1303 27.8704 23.0991 27.8767 22.899 27.8454C21.8177 27.6392 20.855 26.9015 20.38 25.9014C20.1237 25.3638 20.0424 24.92 20.0737 24.2386C20.1112 23.5198 20.2612 23.0634 20.6675 22.4696C21.005 21.982 21.4801 21.5757 22.0364 21.3069C22.5803 21.0444 23.1866 20.9068 23.0803 21.0694ZM24.6868 21.1881C25.1743 21.3569 25.8432 21.8382 26.1682 22.2446C26.4995 22.6634 26.7745 23.2197 26.8746 23.6885C26.9871 24.1886 26.9246 25.12 26.762 25.5888C26.3432 26.7328 25.2994 27.6204 24.0992 27.8454C23.8992 27.8767 23.8679 27.8704 23.9117 27.8017C23.9429 27.7517 23.9804 27.5391 23.9992 27.3204L24.0304 26.9265L24.3555 26.814C24.7805 26.6702 25.0868 26.4577 25.2994 26.1577C25.4494 25.9389 25.4681 25.8514 25.4681 25.4326C25.4681 25.0262 25.4431 24.92 25.3119 24.7199C24.9931 24.2449 24.4305 23.9948 23.4429 23.8823C22.8615 23.8136 22.5928 23.6698 22.5928 23.4322C22.5928 23.351 22.6678 23.2322 22.7678 23.1572C22.9178 23.0447 23.0366 23.0259 23.4991 23.0259C24.1492 23.0259 24.3555 23.1322 24.4868 23.5323C24.5868 23.8386 24.7118 23.9323 25.0118 23.9323C25.3869 23.9323 25.5181 23.7573 25.4869 23.3072C25.4431 22.7071 25.0681 22.2883 24.3555 22.0508L24.0304 21.9383L23.9992 21.5444C23.9804 21.3257 23.9429 21.1131 23.9117 21.0631C23.8679 20.9944 23.8992 20.9881 24.0992 21.0194C24.2305 21.0444 24.4993 21.1194 24.6868 21.1881Z"/>
<path d="M20.1237 8.05476C20.005 8.17353 19.9987 8.26104 19.9987 10.5552V12.9305H19.3736C18.6361 12.9305 18.4985 13.0055 18.4985 13.4306C18.4985 13.6619 18.586 13.7807 19.7549 15.1934C20.4488 16.031 21.0676 16.7624 21.1364 16.8186C21.2114 16.8874 21.3614 16.9312 21.4989 16.9312C21.6364 16.9312 21.7865 16.8874 21.8615 16.8186C21.9302 16.7624 22.5491 16.031 23.2429 15.1934C24.4118 13.7807 24.4993 13.6619 24.4993 13.4306C24.4993 13.0055 24.3618 12.9305 23.6242 12.9305H22.9991V10.5552C22.9991 8.26104 22.9929 8.17353 22.8741 8.05476C22.7553 7.93599 22.6678 7.92974 21.4989 7.92974C20.33 7.92974 20.2425 7.93599 20.1237 8.05476ZM21.999 11.3053C21.999 13.5994 22.0052 13.6869 22.124 13.8057C22.2178 13.8994 22.3303 13.9307 22.5616 13.9307H22.8804L22.2115 14.7246C21.8427 15.1684 21.5239 15.5247 21.4989 15.5247C21.4739 15.5247 21.1551 15.1684 20.7863 14.7246L20.1175 13.9307H20.4363C20.6676 13.9307 20.7801 13.8994 20.8738 13.8057C20.9926 13.6869 20.9989 13.5994 20.9989 11.3053V8.92989H21.4989H21.999V11.3053Z"/>
<path d="M26.6369 8.036C26.5681 8.09851 25.9493 8.82988 25.2554 9.66751C24.0865 11.0802 23.999 11.199 23.999 11.4303C23.999 11.8554 24.1365 11.9304 24.8741 11.9304H25.4992V14.3057C25.4992 16.5999 25.5055 16.6874 25.6242 16.8061C25.743 16.9249 25.8305 16.9312 26.9994 16.9312C28.1683 16.9312 28.2558 16.9249 28.3746 16.8061C28.4934 16.6874 28.4996 16.5999 28.4996 14.3057V11.9304H29.1247C29.8623 11.9304 29.9998 11.8554 29.9998 11.4303C29.9998 11.199 29.9123 11.0802 28.7434 9.66751C28.0496 8.82988 27.4307 8.09851 27.362 8.036C27.287 7.97349 27.1369 7.92974 26.9994 7.92974C26.8619 7.92974 26.7119 7.97349 26.6369 8.036ZM27.712 10.1301L28.3808 10.9302H28.0621C27.8308 10.9302 27.7183 10.9615 27.6245 11.0552C27.5057 11.174 27.4995 11.2615 27.4995 13.5556V15.931H26.9994H26.4993V13.5556C26.4993 11.2615 26.4931 11.174 26.3743 11.0552C26.2806 10.9615 26.1681 10.9302 25.9368 10.9302H25.6242L26.2931 10.1176C26.6681 9.67376 26.9869 9.31746 27.0057 9.32371C27.0307 9.32996 27.3432 9.69251 27.712 10.1301Z"/>
</svg>
