<svg width="30" height="31" viewBox="0 0 30 31">
<path d="M1.0083 0.979405C0.838379 1.06142 0.615723 1.23717 0.504395 1.36605C0.117676 1.81713 0.117676 1.81127 0.117676 5.08602V8.03271H0.586426H1.05518V5.14461C1.05518 2.39124 1.06104 2.2565 1.17236 2.07489C1.3833 1.7234 1.1958 1.73512 5.58447 1.71754L9.60986 1.69997V1.26646V0.827091H5.46143H1.31299L1.0083 0.979405Z"/>
<path d="M10.4302 1.26169V1.70105L11.6196 1.71863C12.9497 1.7362 13.0903 1.77721 13.2661 2.14042C13.3481 2.31617 13.3599 2.74968 13.3599 6.1826C13.3599 10.3712 13.3657 10.3127 13.0317 10.5353C12.8853 10.629 12.6919 10.6407 10.981 10.6583L9.08838 10.6759L8.16846 11.496C7.66455 11.9412 7.2251 12.3103 7.1958 12.3103C7.1665 12.3103 6.73291 11.9412 6.22314 11.4902L5.30322 10.67H3.49854C1.49463 10.67 1.3833 10.6524 1.17236 10.3068C1.07275 10.1428 1.05518 10.0139 1.05518 9.48078V8.85395H0.580566H0.105957L0.129395 9.65653C0.146973 10.3419 0.17041 10.5001 0.275879 10.6993C0.445801 11.0156 0.73291 11.2793 1.08447 11.4433C1.36572 11.5722 1.45361 11.578 3.16455 11.6073L4.95166 11.6366L6.05322 12.6149C6.65674 13.1598 7.17236 13.5991 7.1958 13.5991C7.2251 13.5991 7.74658 13.1539 8.36182 12.6091L9.4751 11.6132L11.2563 11.5956L13.0376 11.578L13.3716 11.414C13.729 11.2383 13.9282 11.0391 14.1392 10.6466C14.2681 10.4064 14.2681 10.4064 14.2856 6.31734C14.2974 3.62255 14.2798 2.15214 14.2388 1.99982C14.145 1.64833 13.8286 1.2324 13.5122 1.03322L13.2251 0.857469L11.8247 0.839894L10.4302 0.82232V1.26169Z"/>
<path d="M16.7114 0.916051C16.3833 1.06251 16.0845 1.33199 15.9028 1.66005L15.7329 1.97053V6.18846V10.4064L15.8618 10.6466C16.0728 11.0391 16.272 11.2383 16.6294 11.414L16.9634 11.578L18.7446 11.5956L20.5259 11.6132L21.6392 12.6091C22.2544 13.1539 22.7759 13.5991 22.8052 13.5991C22.8286 13.5991 23.3442 13.1598 23.9478 12.6149L25.0493 11.6366L26.8364 11.6073C28.5474 11.578 28.6353 11.5722 28.9165 11.4433C29.2681 11.2793 29.5552 11.0156 29.7251 10.6993C29.8306 10.5001 29.854 10.3419 29.8716 9.65653L29.895 8.85395H29.4204H28.9458V9.48078C28.9458 10.0139 28.9282 10.1428 28.8286 10.3068C28.6177 10.6524 28.5063 10.67 26.5024 10.67H24.6978L23.7778 11.4902C23.2681 11.9412 22.8345 12.3103 22.8052 12.3103C22.7759 12.3103 22.3364 11.9412 21.8325 11.496L20.9126 10.6759L19.02 10.6583C17.3091 10.6407 17.1157 10.629 16.9692 10.5353C16.6353 10.3127 16.6411 10.3712 16.6411 6.1826C16.6411 2.74968 16.6528 2.31617 16.7349 2.14042C16.9106 1.77721 17.0513 1.7362 18.3872 1.71863L19.5708 1.70105V1.26169V0.828177H18.2407C17.2036 0.834036 16.8579 0.851611 16.7114 0.916051Z"/>
<path d="M20.3911 1.26646V1.69997L24.4224 1.71754C28.8052 1.73512 28.6177 1.7234 28.8286 2.07489C28.9399 2.2565 28.9458 2.39124 28.9458 5.14461V8.03271H29.4146H29.8833V5.08602C29.8833 1.81127 29.8833 1.81713 29.4966 1.36605C29.3853 1.23717 29.1626 1.06142 28.9927 0.979405L28.688 0.827091H24.5396H20.3911V1.26646Z"/>
<path d="M1.87549 3.11084V3.57959H2.34424H2.81299V3.11084V2.64209H2.34424H1.87549V3.11084Z"/>
<path d="M6.73878 3.43427V3.87363H6.52199C6.20558 3.87949 5.85402 4.05524 5.61964 4.33643C5.15675 4.86953 5.15675 5.66039 5.60792 6.1642C5.97706 6.56842 6.18214 6.63872 7.13136 6.67973C8.03956 6.72073 8.11574 6.74417 8.18019 7.07223C8.20363 7.21283 8.18019 7.28898 8.06886 7.42372L7.92238 7.59361L6.80324 7.61119L5.6841 7.62876V8.09742V8.56022H6.21144H6.73878V8.97029V9.38037H7.20753H7.67628V8.97615V8.57194L7.96925 8.50749C8.71925 8.34346 9.10597 7.87481 9.11183 7.11909C9.11183 6.76174 9.08839 6.66801 8.93605 6.42196C8.83644 6.26379 8.64308 6.0529 8.50246 5.95331C8.25636 5.78342 8.23878 5.77756 7.3716 5.74827C6.49855 5.71898 6.49269 5.71898 6.35206 5.55495C6.18214 5.35577 6.17042 5.1683 6.33449 4.96326L6.45167 4.81095H7.56496H8.67238V4.34229V3.87363H8.17433H7.67628V3.43427V2.9949H7.20753H6.73878V3.43427Z"/>
<path d="M23.7603 5.69162L21.5337 7.91775L20.772 7.15618C20.3501 6.73439 19.981 6.39461 19.9517 6.39461C19.9165 6.39461 19.7466 6.54107 19.5708 6.71681L19.2485 7.03901L20.3794 8.16965L21.5044 9.29443L24.0942 6.7051L26.6899 4.1099L26.3677 3.7877C26.1919 3.61195 26.0337 3.46549 26.0161 3.46549C25.9985 3.46549 24.9849 4.46725 23.7603 5.69162Z"/>
<path d="M1.87549 4.86865V5.3374H2.34424H2.81299V4.86865V4.3999H2.34424H1.87549V4.86865Z"/>
<path d="M4.86377 14.7404C4.47119 14.8635 3.99072 15.2267 3.73877 15.5899C3.36377 16.123 3.34033 16.2753 3.34033 18.2202C3.34033 19.1868 3.36963 20.0714 3.40479 20.2179C3.43408 20.3643 3.55127 20.6573 3.6626 20.874C3.77393 21.0908 3.83838 21.2841 3.81494 21.2958C3.7915 21.3134 3.18213 21.536 2.46143 21.7938C1.0083 22.321 0.686035 22.5085 0.35791 23.024C0.0356445 23.5219 0.000488281 23.7328 0.000488281 25.0919V26.3105H0.469238H0.937988V25.1505C0.937988 24.0257 0.943848 23.9789 1.08447 23.6918C1.17236 23.5161 1.32471 23.3345 1.45361 23.2466C1.5708 23.1587 2.35596 22.8424 3.18799 22.5436L4.71143 21.9929L5.02783 22.1335C5.70752 22.4499 6.604 22.444 7.29541 22.1277L7.58838 21.9929L9.17041 22.567C10.688 23.1177 10.7642 23.1529 10.9927 23.3989C11.1216 23.5454 11.2622 23.768 11.2974 23.891C11.3501 24.0609 11.3677 25.0509 11.3677 27.4762V30.8213H11.8364H12.311L12.2935 27.2595L12.2759 23.7035L12.1177 23.3696C11.9243 22.9537 11.52 22.5143 11.1509 22.3151C10.9927 22.2331 10.3306 21.9754 9.66846 21.741C9.00635 21.5008 8.45557 21.3017 8.44385 21.2899C8.43213 21.2841 8.50244 21.1201 8.60205 20.9326C8.90088 20.3761 8.96533 19.9836 8.96533 18.6948V17.5524L9.60986 16.123C9.96143 15.338 10.2544 14.6877 10.2544 14.676C10.2544 14.6643 9.1001 14.6526 7.69385 14.6584C5.67236 14.6584 5.06885 14.676 4.86377 14.7404ZM8.77783 15.6368C8.77197 15.666 8.63135 15.9824 8.47314 16.3397L8.18018 16.9959H6.73877H5.30322L4.80518 17.4059L4.30713 17.816L4.28955 17.2302C4.26611 16.3808 4.44775 15.9882 5.01611 15.7071C5.22705 15.6016 5.37354 15.5957 7.02002 15.5899C7.99854 15.5899 8.78955 15.6133 8.77783 15.6368ZM8.01611 18.9701C7.99268 20.1593 7.93994 20.3526 7.50049 20.8271C7.13135 21.2314 6.69775 21.4188 6.15283 21.413C5.61963 21.413 5.24463 21.2607 4.87549 20.9033C4.47119 20.5167 4.31885 20.1652 4.29541 19.5735L4.27197 19.0755L4.96338 18.5073L5.65479 17.9332H6.84424H8.03955L8.01611 18.9701Z"/>
<path d="M19.7466 14.6701C19.7466 14.6819 20.0396 15.338 20.3911 16.123L21.0356 17.5524V18.6713C21.0356 19.9836 21.0767 20.2765 21.3638 20.8506C21.481 21.0908 21.563 21.2899 21.5513 21.2958C21.5454 21.3075 20.9946 21.5067 20.3325 21.741C19.6704 21.9754 19.0142 22.2273 18.8677 22.3034C18.5161 22.4733 18.0767 22.9537 17.8833 23.3696L17.7251 23.7035L17.7075 27.2595L17.6899 30.8213H18.1646H18.6333V27.4762C18.6333 25.0041 18.6509 24.0667 18.7036 23.8851C18.7505 23.7387 18.8794 23.5395 19.0435 23.3813C19.2896 23.1353 19.4067 23.0826 20.8599 22.5553L22.4126 21.9988L22.7056 22.1277C23.397 22.444 24.2935 22.4499 24.9731 22.1394L25.2896 21.9929L26.8013 22.5378C27.6392 22.8424 28.4185 23.1529 28.5415 23.2407C28.6763 23.3345 28.8286 23.5161 28.9165 23.6918C29.0571 23.9789 29.063 24.0257 29.063 25.1505V26.3105H29.5317H30.0005V25.0802C30.0005 23.7153 29.9536 23.4692 29.5962 22.9537C29.2856 22.4967 28.9517 22.3093 27.6216 21.8289C26.9478 21.5829 26.3384 21.3602 26.2681 21.331L26.1333 21.2782L26.3384 20.8799C26.6489 20.2765 26.6665 20.0714 26.6489 18.0679L26.6313 16.2636L26.4614 15.9121C26.2388 15.4669 25.8169 15.0392 25.3833 14.84L25.0493 14.6819L22.4009 14.6643C20.9419 14.6584 19.7466 14.6584 19.7466 14.6701ZM24.9966 15.7188C25.2954 15.8535 25.5708 16.1874 25.6704 16.5213C25.6997 16.6385 25.7231 16.9783 25.7114 17.2771L25.6938 17.816L25.1958 17.4059L24.6978 16.9959H23.2622H21.8208L21.5278 16.3397C21.3696 15.9824 21.2349 15.666 21.2231 15.6368C21.2114 15.6133 21.9966 15.5899 22.9634 15.5899C24.6509 15.5899 24.7388 15.5957 24.9966 15.7188ZM25.0376 18.5073L25.729 19.0755L25.7056 19.5735C25.6821 20.1652 25.5298 20.5167 25.1255 20.9033C24.7563 21.2607 24.3813 21.413 23.8481 21.413C23.3032 21.4188 22.8696 21.2314 22.5005 20.8271C22.061 20.3526 22.0083 20.1593 21.9849 18.9701L21.9614 17.9332H23.1567H24.3462L25.0376 18.5073Z"/>
<path d="M2.46143 27.9215V30.8213H2.93018H3.39893V27.9215V25.0216H2.93018H2.46143V27.9215Z"/>
<path d="M8.90674 27.9215V30.8213H9.37549H9.84424V27.9215V25.0216H9.37549H8.90674V27.9215Z"/>
<path d="M20.1567 27.9215V30.8213H20.6255H21.0942V27.9215V25.0216H20.6255H20.1567V27.9215Z"/>
<path d="M26.6021 27.9215V30.8213H27.0708H27.5396V27.9215V25.0216H27.0708H26.6021V27.9215Z"/>
<path d="M0.000488281 28.9756V30.8213H0.469238H0.937988V28.9756V27.1299H0.469238H0.000488281V28.9756Z"/>
<path d="M29.063 28.9756V30.8213H29.5317H30.0005V28.9756V27.1299H29.5317H29.063V28.9756Z"/>
</svg>
