<svg width="30" height="31" viewBox="0 0 30 31">
<path d="M4.03544 1.00937C2.22367 1.40801 0.794261 2.74466 0.223673 4.5503C0.106026 4.93136 0.0883789 5.10723 0.0883789 5.89867C0.0883789 6.58457 0.111908 6.90115 0.194261 7.18255C0.611908 8.70093 1.54132 9.85583 2.85309 10.5066C3.66485 10.9052 4.16485 11.0166 5.1472 11.0166C6.06485 11.0166 6.59426 10.9111 7.27662 10.5886C8.95309 9.80893 10.1001 8.11468 10.2178 6.24455C10.306 4.83756 9.8472 3.57126 8.87662 2.53361C8.20014 1.81252 7.58838 1.4256 6.6472 1.12075C6.21779 0.980053 6.02956 0.956603 5.29426 0.939016C4.67661 0.921429 4.32956 0.944879 4.03544 1.00937ZM5.92956 1.94736C6.80014 2.12323 7.48838 2.51016 8.10603 3.17262C9.04132 4.1751 9.45309 5.62313 9.15309 6.90115C8.7472 8.6423 7.20014 9.93204 5.3825 10.0434C4.65309 10.0903 4.01191 9.95549 3.29426 9.60961C2.82956 9.38683 2.65897 9.26372 2.23544 8.83576C1.81191 8.41367 1.6825 8.23779 1.45308 7.77466C1.02956 6.90701 0.923673 6.20938 1.0825 5.30656C1.49426 3.00261 3.6825 1.48423 5.92956 1.94736Z"/>
<path d="M3.79417 3.20304C3.62358 3.27339 2.37064 4.55727 2.32946 4.70383C2.26476 4.91488 2.40005 5.14938 2.82946 5.57734L3.23535 5.98771L2.79417 6.42739C2.30594 6.90812 2.22358 7.10158 2.38829 7.35366C2.53535 7.5823 3.34123 8.40891 3.61182 8.60237C3.98829 8.87791 4.1177 8.84273 4.67064 8.30338L5.15299 7.83439L5.6177 8.30338C6.28829 8.97757 6.29417 8.97757 7.2177 8.0513C7.88241 7.38884 7.94123 7.31263 7.94123 7.1133C7.94123 6.91984 7.88829 6.83777 7.48829 6.42739L7.04123 5.9584L7.48829 5.49526C7.88829 5.09075 7.94123 5.00868 7.94123 4.81522C7.94123 4.62175 7.88241 4.53968 7.31182 3.95343C6.62358 3.24994 6.42358 3.1151 6.18829 3.17372C6.10594 3.19131 5.83535 3.40822 5.58829 3.64272L5.14123 4.08241L4.76476 3.69548C4.25299 3.17959 4.07064 3.08579 3.79417 3.20304ZM4.47652 4.81522C5.11182 5.41905 5.19417 5.41319 5.92358 4.70383L6.29417 4.35208L6.52947 4.58072L6.75888 4.80349L6.34711 5.23731C5.68829 5.92908 5.68829 6.03461 6.35299 6.69121L6.76476 7.09572L6.5177 7.3478L6.27064 7.59989L5.82358 7.1602C5.15888 6.51533 5.08829 6.52119 4.34711 7.23055L3.96476 7.59989L3.73535 7.36539L3.50594 7.13089L3.95888 6.66776C4.36476 6.25738 4.41182 6.18117 4.41182 5.98185C4.41182 5.77666 4.36476 5.71217 3.95888 5.3018L3.50594 4.84453L3.73535 4.61003C3.85888 4.48105 3.97652 4.37553 3.98829 4.37553C4.00594 4.37553 4.22358 4.57485 4.47652 4.81522Z"/>
<path d="M13.4116 1.09351C13.2939 1.21076 13.2939 1.28698 13.2939 10.9659V20.7269L13.4469 20.8442L13.6057 20.9673H21.6587H29.7116L29.8528 20.8207L29.9998 20.68V10.9425C29.9998 1.28698 29.9998 1.21076 29.8822 1.09351C29.7645 0.976265 29.6881 0.976265 21.6469 0.976265C13.6057 0.976265 13.5292 0.976265 13.4116 1.09351ZM29.0587 10.9425V19.9707H21.6469H14.2351V10.9425V1.91426H21.6469H29.0587V10.9425Z"/>
<path d="M16 3.32178C15.9235 3.39795 15.8823 3.51514 15.8823 3.67334C15.8823 3.83154 15.9235 3.94873 16 4.0249C16.1176 4.14209 16.1941 4.14209 21.647 4.14209C27.1 4.14209 27.1764 4.14209 27.2941 4.0249C27.3706 3.94873 27.4117 3.83154 27.4117 3.67334C27.4117 3.51514 27.3706 3.39795 27.2941 3.32178C27.1764 3.20459 27.1 3.20459 21.647 3.20459C16.1941 3.20459 16.1176 3.20459 16 3.32178Z"/>
<path d="M16.0353 5.37939C15.9117 5.47314 15.8823 5.54932 15.8823 5.75439C15.8823 5.95947 15.9117 6.03564 16.0353 6.12939C16.1941 6.25244 16.2176 6.25244 21.647 6.25244C27.0764 6.25244 27.1 6.25244 27.2588 6.12939C27.3823 6.03564 27.4117 5.95947 27.4117 5.75439C27.4117 5.54932 27.3823 5.47314 27.2588 5.37939C27.1 5.25635 27.0764 5.25635 21.647 5.25635C16.2176 5.25635 16.1941 5.25635 16.0353 5.37939Z"/>
<path d="M16 7.48438C15.9235 7.56055 15.8823 7.67773 15.8823 7.83594C15.8823 7.99414 15.9235 8.11133 16 8.1875C16.1176 8.30469 16.1941 8.30469 21.647 8.30469C27.1 8.30469 27.1764 8.30469 27.2941 8.1875C27.3706 8.11133 27.4117 7.99414 27.4117 7.83594C27.4117 7.67773 27.3706 7.56055 27.2941 7.48438C27.1764 7.36719 27.1 7.36719 21.647 7.36719C16.1941 7.36719 16.1176 7.36719 16 7.48438Z"/>
<path d="M16.0353 9.54199C15.9117 9.63574 15.8823 9.71191 15.8823 9.91699C15.8823 10.1221 15.9117 10.1982 16.0353 10.292C16.1941 10.415 16.2176 10.415 21.647 10.415C27.0764 10.415 27.1 10.415 27.2588 10.292C27.3823 10.1982 27.4117 10.1221 27.4117 9.91699C27.4117 9.71191 27.3823 9.63574 27.2588 9.54199C27.1 9.41895 27.0764 9.41895 21.647 9.41895C16.2176 9.41895 16.1941 9.41895 16.0353 9.54199Z"/>
<path d="M16 11.6465C15.9235 11.7227 15.8823 11.8398 15.8823 11.998C15.8823 12.1562 15.9235 12.2734 16 12.3496C16.1176 12.4668 16.1941 12.4668 21.647 12.4668C27.1 12.4668 27.1764 12.4668 27.2941 12.3496C27.3706 12.2734 27.4117 12.1562 27.4117 11.998C27.4117 11.8398 27.3706 11.7227 27.2941 11.6465C27.1764 11.5293 27.1 11.5293 21.647 11.5293C16.1941 11.5293 16.1176 11.5293 16 11.6465Z"/>
<path d="M16.0353 13.7041C15.9117 13.7979 15.8823 13.874 15.8823 14.0791C15.8823 14.2842 15.9117 14.3604 16.0353 14.4541C16.1941 14.5771 16.2176 14.5771 21.647 14.5771C27.0764 14.5771 27.1 14.5771 27.2588 14.4541C27.3823 14.3604 27.4117 14.2842 27.4117 14.0791C27.4117 13.874 27.3823 13.7979 27.2588 13.7041C27.1 13.5811 27.0764 13.5811 21.647 13.5811C16.2176 13.5811 16.1941 13.5811 16.0353 13.7041Z"/>
<path d="M16 15.8091C15.9235 15.8853 15.8823 16.0024 15.8823 16.1606C15.8823 16.3188 15.9235 16.436 16 16.5122C16.1176 16.6294 16.1941 16.6294 21.647 16.6294C27.1 16.6294 27.1764 16.6294 27.2941 16.5122C27.3706 16.436 27.4117 16.3188 27.4117 16.1606C27.4117 16.0024 27.3706 15.8853 27.2941 15.8091C27.1764 15.6919 27.1 15.6919 21.647 15.6919C16.1941 15.6919 16.1176 15.6919 16 15.8091Z"/>
<path d="M16.0353 17.8667C15.9117 17.9604 15.8823 18.0366 15.8823 18.2417C15.8823 18.4468 15.9117 18.5229 16.0353 18.6167C16.1941 18.7397 16.2176 18.7397 21.647 18.7397C27.0764 18.7397 27.1 18.7397 27.2588 18.6167C27.3823 18.5229 27.4117 18.4468 27.4117 18.2417C27.4117 18.0366 27.3823 17.9604 27.2588 17.8667C27.1 17.7437 27.0764 17.7437 21.647 17.7437C16.2176 17.7437 16.1941 17.7437 16.0353 17.8667Z"/>
<path d="M7.53529 11.4995C6.62353 11.7047 5.79412 12.2909 5.41765 12.9944C5.25294 13.3051 5.19412 13.3579 4.88235 13.4986C4.47647 13.6803 4.04706 14.0966 3.87647 14.4835C3.58235 15.146 3.60588 16.1836 3.92941 17.2096C4.07059 17.6492 4.08823 17.7606 4.04118 18.0948C3.94118 18.8979 4.13529 19.9356 4.50588 20.5981C4.61765 20.8032 4.85294 21.1198 5.02941 21.3074L5.34118 21.6474L5.10588 22.1516L4.87059 22.6499L4.07059 22.6851C3.45294 22.7085 3.17647 22.7437 2.88235 22.8434C1.74118 23.2244 0.864706 24.0042 0.382353 25.0418C0.0176471 25.8215 0 25.9857 0 28.4596C0 30.6229 0.00588235 30.705 0.117647 30.8163C0.235294 30.9336 0.311765 30.9336 7.79412 30.9336C15.2765 30.9336 15.3529 30.9336 15.4706 30.8163C15.5824 30.705 15.5882 30.6229 15.5882 28.4538C15.5882 25.9739 15.5706 25.8098 15.2118 25.0535C14.7235 23.9983 13.8471 23.2303 12.7059 22.8434C12.4118 22.7437 12.1353 22.7085 11.5176 22.6851L10.7176 22.6499L10.5059 22.2044C10.3882 21.9582 10.2941 21.7295 10.2941 21.7002C10.2941 21.665 10.4353 21.5009 10.6059 21.3367C10.9824 20.9674 11.3118 20.4339 11.4824 19.9122C11.5882 19.5897 11.6118 19.3787 11.6235 18.5345C11.6353 17.7489 11.6647 17.4323 11.7588 17.0395C12.0176 16.0253 11.9706 14.976 11.6529 14.3545C11.3471 13.7624 10.7471 13.2758 10.0588 13.0531C9.65294 12.9241 9.64706 12.9182 9.77647 12.8244C9.84706 12.7717 10.0294 12.6661 10.1765 12.5841C10.3882 12.4668 10.4529 12.3965 10.4941 12.2147C10.5824 11.8806 10.4235 11.7047 9.90588 11.5699C9.34706 11.4233 8.04118 11.3823 7.53529 11.4995ZM8.58235 12.6779C8.46471 12.9065 8.41176 13.0882 8.41176 13.2817C8.41176 13.6979 8.48235 13.7566 9.11176 13.8504C9.98823 13.9793 10.4471 14.2373 10.7353 14.7649C10.8765 15.0229 10.9118 15.1636 10.9294 15.5856C10.9471 15.867 10.9353 16.1895 10.9176 16.3067L10.8765 16.5178L10.4118 16.0898C9.58823 15.3277 8.91176 15.017 8.17059 15.058C7.73529 15.0815 7.51765 15.2105 7.44706 15.486C7.39412 15.6912 6.77647 16.2247 6.3 16.4767C5.7 16.7875 4.92353 17.0571 4.87647 16.9633C4.77647 16.7875 4.64706 16.0077 4.64706 15.615C4.64706 15.2691 4.67647 15.1284 4.8 14.8822C4.96471 14.548 5.02941 14.5011 5.58235 14.2842C5.97647 14.1318 5.98235 14.1259 6.18235 13.6803C6.54706 12.8772 7.38824 12.373 8.42353 12.3554L8.75882 12.3496L8.58235 12.6779ZM8.99412 16.254C9.37647 16.4592 9.95882 16.9809 10.3529 17.4792L10.6529 17.8603L10.6647 18.4289C10.6647 18.7455 10.6353 19.15 10.5941 19.3259C10.3353 20.4046 9.59412 21.1667 8.58235 21.4071C6.61176 21.8702 4.92353 20.4749 5.01176 18.4524L5.02941 18.0186L5.52941 17.8486C6.2 17.6258 6.54118 17.4792 7.01176 17.2096C7.45882 16.9516 8 16.4767 8.17647 16.1895C8.28823 16.0136 8.31176 16.0019 8.49412 16.0429C8.6 16.0664 8.82941 16.1602 8.99412 16.254ZM6.85294 22.3275C7.44706 22.4799 8.54118 22.4506 9.07059 22.2747L9.40588 22.1575L9.58235 22.562C9.68235 22.7789 9.76471 22.9782 9.76471 23.0017C9.76471 23.0251 9.32353 23.4883 8.78235 24.0276L7.79412 25.0125L6.81176 24.0335C6.26471 23.4941 5.82353 23.031 5.82353 23.0075C5.82353 22.9841 5.90588 22.773 6.01176 22.5503C6.15294 22.2278 6.21765 22.1458 6.28823 22.1692C6.34118 22.1927 6.59412 22.263 6.85294 22.3275ZM6.26471 24.8953C7.51176 26.1322 7.57647 26.185 7.79412 26.185C8.01176 26.185 8.07647 26.1322 9.32941 24.8835L10.6412 23.5879L11.3353 23.6231C12.0882 23.6583 12.5353 23.7814 13.0941 24.1038C13.5647 24.3735 14.0235 24.8894 14.2882 25.4346C14.5588 25.9974 14.6471 26.4371 14.6471 27.2813V27.8851H13.7941H12.9412V27.6506C12.9412 27.2168 12.5059 27.0292 12.1529 27.3047L12 27.422V28.7117V29.9956H7.79412H3.58824V28.741C3.58824 27.5627 3.58235 27.4806 3.46471 27.334C3.37059 27.2109 3.29412 27.1816 3.08824 27.1816C2.77647 27.1816 2.64706 27.3282 2.64706 27.6623V27.8851H1.79412H0.941176V27.2227C0.941176 26.0267 1.21176 25.2763 1.88235 24.5963C2.53529 23.9397 3.35882 23.6172 4.44118 23.6114L4.96471 23.6055L6.26471 24.8953ZM2.64706 29.4094V29.9956H1.79412H0.941176V29.4094V28.8231H1.79412H2.64706V29.4094ZM14.6471 29.4094V29.9956H13.7941H12.9412V29.4094V28.8231H13.7941H14.6471V29.4094Z"/>
</svg>
