<svg width="30" height="31" viewBox="0 0 30 31">
<path d="M11.6021 3.25391V5.68555H13.3013H15.0005L15.0122 7.17383L15.0298 8.66211L16.8052 7.17383L18.5806 5.68555H20.9243H23.2622V3.25391V0.822266H17.4321H11.6021V3.25391ZM22.2075 3.25391V4.68945H20.1802H18.1528L17.0864 5.57422L16.0259 6.46484L16.0083 5.57422L15.9907 4.68945H14.2974H12.5981V3.25391V1.81836H17.4028H22.2075V3.25391Z"/>
<path d="M13.5356 3.25391V3.75195H14.0337H14.5317V3.25391V2.75586H14.0337H13.5356V3.25391Z"/>
<path d="M15.4692 3.25391V3.75195H17.4321H19.395V3.25391V2.75586H17.4321H15.4692V3.25391Z"/>
<path d="M20.2739 3.25391V3.75195H20.8013H21.3286V3.25391V2.75586H20.8013H20.2739V3.25391Z"/>
<path d="M10.2251 8.08789C9.07666 8.26953 8.1626 9.07227 7.82861 10.1914C7.7583 10.4316 7.73486 10.7539 7.73486 11.4512C7.73486 12.7227 7.83447 13.0859 8.39697 13.8242C8.67236 14.1875 8.67822 14.1992 8.66064 14.5801L8.64307 14.9609L7.58838 15.2656C7.0083 15.4297 6.42822 15.623 6.29346 15.6875C5.97705 15.8516 5.64893 16.2324 5.46143 16.6367C5.3208 16.9473 5.30908 17.0352 5.28564 18.0605L5.26221 19.1621H4.30127H3.34033V20.6562V22.1504H3.83838H4.33643V25.9883V29.8262H2.16846H0.000488281V30.3242V30.8223H15.0005H30.0005V30.3242V29.8262H27.3403H24.6802L24.645 29.6035C24.6274 29.4863 24.5454 28.7129 24.4634 27.8926C24.3872 27.0723 24.3052 26.3047 24.2876 26.1875L24.2583 25.9766L24.6274 25.877C25.7173 25.5723 26.6138 24.6934 26.9888 23.5566C27.0884 23.2637 27.1001 22.9238 27.1177 19.7598L27.1353 16.291H26.1743H25.2134L25.1841 15.7168C25.1489 15.0312 24.9966 14.6797 24.5747 14.3105L24.3052 14.0703L24.522 13.8184C24.7974 13.4902 25.0552 12.9512 25.1313 12.5176C25.1665 12.3242 25.1958 11.8379 25.1958 11.4336C25.1958 10.2617 24.9614 9.57031 24.3579 8.95508C23.772 8.36328 23.0806 8.07031 22.2661 8.07031C20.9595 8.07031 19.8696 8.86719 19.4712 10.1211C19.354 10.4961 19.3364 10.6719 19.3364 11.4336C19.3364 12.4297 19.4126 12.834 19.6997 13.3789C19.9165 13.7832 20.4907 14.3398 20.9067 14.5449L21.1997 14.6914L19.9282 15.9629L18.6626 17.2285H17.3325H15.9966L15.9673 17.0645C15.8501 16.5254 15.5454 16.0625 15.1177 15.7695C14.9595 15.6641 14.5669 15.5117 14.1216 15.3828C13.7173 15.2656 13.2134 15.1191 12.9966 15.0547L12.5981 14.9375V14.5566C12.5981 14.1875 12.6099 14.1582 12.8325 13.9004C13.1724 13.5137 13.4653 12.8867 13.5415 12.3652C13.6411 11.7266 13.5767 10.4902 13.4302 10.0684C13.0962 9.13672 12.3638 8.42773 11.479 8.18164C11.0571 8.07031 10.5825 8.0293 10.2251 8.08789ZM11.4321 9.27148C11.8364 9.45898 12.1646 9.78711 12.3579 10.1973C12.5044 10.502 12.5103 10.5664 12.5103 11.4863C12.5103 12.4004 12.5044 12.4707 12.3638 12.7402C12.0239 13.4141 11.4556 13.7832 10.7114 13.8184C10.3247 13.8418 10.2192 13.8242 9.92041 13.6895C9.53955 13.5137 9.12939 13.1445 8.96533 12.834C8.78955 12.4941 8.71338 11.9492 8.74268 11.2402C8.77197 10.5137 8.89502 10.1328 9.229 9.74023C9.75635 9.11914 10.6763 8.91992 11.4321 9.27148ZM23.0396 9.27148C23.4263 9.45312 23.7603 9.77539 23.9653 10.1738C24.1001 10.4375 24.1118 10.5371 24.1294 11.3691C24.1528 12.4941 24.0649 12.7988 23.5903 13.2793C23.1743 13.6895 22.7466 13.8535 22.1489 13.8184C21.3989 13.7715 20.854 13.3906 20.5259 12.6875C20.3735 12.3535 20.3618 12.2891 20.3618 11.5156C20.3618 10.5957 20.4146 10.3438 20.7017 9.92188C20.9126 9.61719 21.3989 9.25391 21.7329 9.1543C22.0903 9.04883 22.6646 9.10156 23.0396 9.27148ZM11.5142 15.2715C11.3384 15.541 10.9634 15.7637 10.6821 15.7637C10.1665 15.7637 9.72705 15.4062 9.72705 14.9844C9.72705 14.7559 9.72705 14.7559 9.92041 14.791C10.3188 14.8789 10.8813 14.8848 11.2212 14.8145L11.5728 14.7383L11.5903 14.9316C11.6021 15.043 11.5669 15.1895 11.5142 15.2715ZM22.8755 14.9434C23.0688 15.0137 23.2153 15.3066 23.1685 15.5117C23.145 15.623 22.5356 16.2676 21.3989 17.416L19.6646 19.1621H17.0044H14.3501L14.2095 19.0156C14.1274 18.9395 14.063 18.8047 14.063 18.7227C14.063 18.6406 14.1274 18.5059 14.2095 18.4297L14.3501 18.2832H16.7114H19.0728L20.6548 16.6953C21.5278 15.8223 22.3188 15.0547 22.4126 14.9961C22.6118 14.8672 22.6704 14.8613 22.8755 14.9434ZM9.229 16.209C9.66846 16.6309 10.061 16.7891 10.6646 16.7891C11.2563 16.7832 11.561 16.666 12.0356 16.2266L12.3403 15.9453L13.4126 16.2559C14.5435 16.584 14.7485 16.7012 14.8774 17.0586C14.936 17.2285 14.936 17.2285 14.7075 17.2285C14.0806 17.2285 13.5532 17.4863 13.2778 17.9258C13.1079 18.1895 13.02 18.6348 13.0728 18.9395L13.1079 19.1621H9.71533H6.32861V18.1777C6.32861 16.7246 6.35791 16.6895 7.93408 16.2266C8.44971 16.0742 8.89502 15.9512 8.9126 15.9453C8.93018 15.9395 9.0708 16.0625 9.229 16.209ZM24.0884 22.0391C23.9888 22.3848 23.7134 22.707 23.3735 22.877L23.063 23.0293H20.9946H18.9263V22.5898V22.1504H19.6294H20.3325V21.0547V19.959L22.1431 18.1367C23.1509 17.123 23.9829 16.2383 24.0298 16.127C24.1001 15.9629 24.1118 16.2969 24.1294 18.8809C24.1411 20.791 24.1235 21.9043 24.0884 22.0391ZM26.0747 20.1465C26.0747 22.6602 26.063 23.041 25.9751 23.2988C25.7876 23.8555 25.4653 24.2715 24.9907 24.582C24.3989 24.9629 24.3931 24.9629 21.522 24.9629H18.9263V24.5234V24.084H20.9067C23.0806 24.084 23.4497 24.043 23.9478 23.75C24.563 23.3926 25.0259 22.7363 25.1372 22.0566C25.1724 21.8691 25.1958 20.7148 25.1958 19.4961V17.2871H25.6353H26.0747V20.1465ZM19.3364 20.6562V21.0957H11.8657H4.39502V20.6562V20.2168H11.8657H19.3364V20.6562ZM17.8716 22.5898V23.0293H12.8032H7.73486V23.5566V24.084H12.8032H17.8716V26.9551V29.8262H17.3267H16.7876L16.3013 28.8594L15.8208 27.8926H11.6138H7.4126L6.92627 28.8594L6.4458 29.8262H5.88916H5.33252V26.9551V24.084H6.06494H6.79736V23.5566V23.0293H6.06494H5.33252V22.5898V22.1504H11.6021H17.8716V22.5898ZM21.3286 26.1172C21.3286 26.1758 21.4106 27.002 21.5044 27.9512C21.5981 28.9004 21.6802 29.7148 21.6802 29.75C21.6802 29.8086 21.3638 29.8262 20.3032 29.8262H18.9263V27.9219V26.0176H20.1274C21.2349 26.0176 21.3286 26.0234 21.3286 26.1172ZM23.2622 26.1172C23.2622 26.1758 23.3442 27.002 23.438 27.9512C23.5317 28.9004 23.6138 29.7148 23.6138 29.75C23.6138 29.8027 23.4849 29.8262 23.1743 29.8262H22.7407L22.7114 29.6328C22.6938 29.5332 22.6118 28.748 22.5298 27.8926C22.4478 27.0371 22.3716 26.2695 22.354 26.1758L22.3306 26.0176H22.7935C23.2036 26.0176 23.2622 26.0293 23.2622 26.1172ZM15.3696 29.3281C15.4868 29.5742 15.5864 29.7852 15.5864 29.7969C15.5864 29.8145 13.7935 29.8262 11.6021 29.8262H7.61768L7.85205 29.3574L8.08643 28.8887H11.6196H15.1528L15.3696 29.3281Z"/>
</svg>
