<svg width="30" height="31" viewBox="0 0 30 31">
<path d="M13.3291 0.154648C13.0024 0.288576 12.7128 0.556434 12.5494 0.877862C12.4083 1.15242 12.4009 1.35331 12.4009 4.62116V8.06982L12.5865 8.41134C12.7053 8.62563 12.891 8.81982 13.084 8.94036L13.3885 9.13456L16.6484 9.15465L19.9157 9.17474L20.7697 9.83768C21.5271 10.427 21.6608 10.5073 21.9058 10.5073C22.0692 10.5073 22.2623 10.4538 22.3588 10.3801C22.5147 10.2663 22.537 10.1792 22.5593 9.71045L22.589 9.16804H23.4727C24.2078 9.16804 24.4083 9.14795 24.6459 9.03411C25.0024 8.8734 25.3514 8.50509 25.4628 8.17027C25.5816 7.80866 25.5816 1.42027 25.4628 1.05867C25.3514 0.723844 25.0024 0.35554 24.6459 0.194826C24.3712 0.0675945 24.193 0.0608978 18.9578 0.0608978C14.6286 0.0675945 13.5073 0.080987 13.3291 0.154648ZM24.1781 1.29304C24.334 1.48724 24.334 7.7417 24.1781 7.9359C24.0816 8.04974 23.9553 8.06313 22.8563 8.08322C21.7573 8.10331 21.6311 8.1167 21.4826 8.24393C21.3935 8.31759 21.3118 8.45152 21.2969 8.53857C21.2746 8.6859 21.2598 8.6792 20.8811 8.39795L20.4801 8.09661H17.2796C14.8439 8.09661 14.0271 8.07652 13.886 8.00956L13.7004 7.9225V4.61447V1.30643L13.886 1.21938C14.0345 1.15242 15.1336 1.13902 19.0692 1.15242C23.9256 1.16581 24.0741 1.1725 24.1781 1.29304Z"/>
<path d="M19.7224 3.48366L18.111 4.9033L17.8363 4.67562C17.6878 4.55508 17.3462 4.26714 17.0789 4.03946C16.5442 3.57741 16.3734 3.51044 16.0764 3.61089C15.7942 3.70464 15.6754 3.86535 15.668 4.1466C15.668 4.35419 15.7645 4.46803 16.7298 5.33187C18.1704 6.63098 17.9254 6.65776 19.8115 5.02383C20.6135 4.32741 21.5046 3.54392 21.7868 3.28276C22.2695 2.82741 22.2917 2.78723 22.2546 2.55285C22.1952 2.23812 21.9724 2.07071 21.6086 2.07071C21.3487 2.07071 21.2373 2.15107 19.7224 3.48366Z"/>
<path d="M5.54713 3.67835C5.2204 3.76541 4.84169 4.06005 4.65604 4.36809C4.49268 4.64934 4.49268 4.64934 4.49268 8.19844V11.7475L4.7006 12.0623C4.83426 12.2699 5.02733 12.444 5.25753 12.5645C5.57683 12.7386 5.68079 12.752 6.5199 12.7788L7.42584 12.7989V13.2676C7.42584 13.6962 7.44812 13.7498 7.64119 13.9306C8.02733 14.2721 8.18327 14.2185 9.24515 13.3949L9.9803 12.819L13.2179 12.7855L16.4481 12.752L16.7823 12.5846C16.9605 12.4909 17.213 12.29 17.3318 12.1292C17.5323 11.8748 17.5546 11.7877 17.5843 11.2051C17.614 10.6159 17.6065 10.5556 17.4432 10.4016C17.3169 10.281 17.1981 10.2409 16.9605 10.2409C16.5075 10.2409 16.3367 10.4551 16.3367 11.0109C16.3367 11.694 16.5744 11.6471 12.8541 11.6471C9.35654 11.6471 9.45307 11.6337 9.0298 12.0422C8.7699 12.2833 8.68822 12.3034 8.68822 12.1159C8.68822 12.0355 8.60654 11.9016 8.50258 11.8145C8.32436 11.6538 8.29466 11.6471 7.14367 11.6471C6.09664 11.6471 5.94812 11.6337 5.84416 11.5266C5.73277 11.4127 5.71792 11.0846 5.71792 8.18505C5.71792 5.15827 5.72535 4.96407 5.85159 4.86362C5.97782 4.76318 6.26 4.74978 8.42089 4.74978H10.8565L11.0793 4.54889C11.2724 4.36809 11.3021 4.30782 11.265 4.09353C11.1758 3.60469 11.213 3.61139 8.32436 3.61809C6.91347 3.61809 5.65852 3.65157 5.54713 3.67835Z"/>
<path d="M6.64557 6.45773C6.34854 6.71889 6.43764 7.20103 6.80893 7.35505C6.92032 7.40193 7.59606 7.42871 8.68022 7.42871C10.2693 7.42871 10.3881 7.42201 10.5664 7.29478C10.9005 7.05371 10.8931 6.61175 10.5515 6.37737C10.4624 6.3171 9.92774 6.29701 8.62824 6.29032H6.82378L6.64557 6.45773Z"/>
<path d="M6.61639 8.26967C6.52728 8.37012 6.46045 8.53083 6.46045 8.63128C6.46045 8.73172 6.52728 8.89244 6.61639 8.99289L6.7649 9.16699H9.05946H11.354L11.5025 8.99289C11.703 8.76521 11.703 8.49735 11.5025 8.26967L11.354 8.09556H9.05946H6.7649L6.61639 8.26967Z"/>
<path d="M6.78673 9.91804C6.43772 10.0654 6.36347 10.5542 6.64565 10.8087L6.82386 10.9761H10.0392C12.4526 10.9694 13.2843 10.9493 13.3734 10.889C13.715 10.6546 13.7224 10.2127 13.3882 9.97161C13.2026 9.84438 13.0986 9.83768 10.0689 9.84438C8.07881 9.84438 6.88327 9.87116 6.78673 9.91804Z"/>
<path d="M3.99505 13.8571C1.63366 14.2455 0.00742574 16.0335 0 18.25C0 19.4955 0.638614 20.7411 1.64851 21.4643C1.79703 21.5714 1.92327 21.6719 1.93069 21.692C1.93069 21.712 1.81931 21.7857 1.69307 21.8594C1.01733 22.2143 0.415842 22.904 0.155941 23.6138C0.00742574 24.0089 0 24.1763 0 26.4598C0 29.1719 0.00742574 29.192 0.527228 29.6406C1.03218 30.0692 0.980198 30.0625 4.80446 30.0625C8.64356 30.0625 8.59901 30.0625 9.08911 29.6205C9.53465 29.212 9.60891 28.9844 9.63861 27.8795L9.66832 26.8616L12.0965 27.933L14.5173 28.9978L15.0743 28.9777C15.6238 28.9509 15.6683 28.9308 17.9777 27.9062L20.3317 26.8683L20.3614 27.8795C20.3911 28.9844 20.4653 29.212 20.9109 29.6205C21.401 30.0625 21.3564 30.0625 25.1955 30.0625C29.0198 30.0625 28.9678 30.0692 29.4728 29.6406C29.9926 29.192 30 29.1719 30 26.4598C30 24.1763 29.9926 24.0089 29.8441 23.6138C29.5842 22.904 28.9827 22.2143 28.3144 21.8594C28.1807 21.7857 28.0693 21.712 28.0693 21.692C28.0767 21.6719 28.203 21.5714 28.3515 21.4643C29.3614 20.7411 30 19.4955 30 18.25C29.9926 16.1607 28.5149 14.3996 26.3614 13.9174C25.8416 13.8036 24.5866 13.8036 24.0594 13.9174C23.2574 14.0915 22.4554 14.5 21.8837 15.0156C21.2822 15.558 20.948 16.0335 20.6584 16.75C20.4802 17.192 20.4579 17.3259 20.4579 18.2098C20.4579 19.0937 20.4728 19.2277 20.651 19.6629C20.9109 20.2924 21.4455 21.0089 21.9505 21.3973L22.3515 21.7054L22.0396 21.8929C21.6906 22.0937 21.3193 22.4085 21.0446 22.7366C20.9109 22.8906 20.198 23.2388 17.9406 24.2299L15.0149 25.5156L12.0965 24.2366C10.4851 23.5335 9.11139 22.8906 9.03713 22.8103C8.69554 22.4353 8.25 22.0536 7.9604 21.8929L7.64851 21.7054L8.05693 21.3973C8.58416 20.9888 9.13366 20.2388 9.36386 19.6094C9.5198 19.1808 9.54208 18.9933 9.54208 18.1763C9.53465 17.3326 9.5198 17.192 9.34158 16.75C8.77723 15.3504 7.55941 14.2991 6.09653 13.9576C5.52475 13.8237 4.48515 13.7768 3.99505 13.8571ZM5.88119 15.1295C6.48267 15.2969 7.17327 15.692 7.51485 16.0737C8.70297 17.3929 8.59901 19.308 7.27723 20.4464C5.00495 22.4018 1.26238 20.9888 1.26238 18.1763C1.26238 16.683 2.36139 15.3973 3.90594 15.0692C4.43317 14.9554 5.36881 14.9888 5.88119 15.1295ZM26.0644 15.0692C28.2995 15.5312 29.4059 17.808 28.3144 19.7031C27.2525 21.5312 24.4233 21.9062 22.7228 20.4464C21.401 19.308 21.297 17.3929 22.4851 16.0737C22.8193 15.7054 23.5099 15.2969 24.0891 15.1295C24.5941 14.9888 25.5297 14.9554 26.0644 15.0692ZM6.9505 22.7165C7.68564 23.0245 8.15347 23.5536 8.31683 24.2701C8.36881 24.4911 8.39109 25.375 8.37624 26.6339C8.35396 28.6295 8.35396 28.6562 8.18317 28.8036L8.01238 28.9576L4.93812 28.9777C1.59653 28.9978 1.38861 28.9777 1.2995 28.6429C1.27723 28.5558 1.26238 27.4777 1.27723 26.2455C1.2995 24.0826 1.30693 23.9955 1.46287 23.7277C1.70792 23.3192 1.98267 23.0513 2.36139 22.8504C2.95545 22.5357 3.24505 22.4955 4.93812 22.5156C6.47525 22.529 6.50495 22.529 6.9505 22.7165ZM27.3267 22.7031C27.8762 22.9308 28.2178 23.212 28.4851 23.6473L28.7005 24.0022L28.7228 26.2455C28.7376 27.4777 28.7228 28.5558 28.7005 28.6429C28.6114 28.9777 28.4035 28.9978 25.0619 28.9777L21.9876 28.9576L21.8168 28.8036C21.646 28.6495 21.646 28.6495 21.646 26.4598C21.646 23.9955 21.6757 23.8348 22.1807 23.3058C22.8342 22.6094 23.302 22.4955 25.3589 22.5156C26.8663 22.529 26.9332 22.5357 27.3267 22.7031ZM14.9703 26.7879C15.1337 26.8549 15.3193 26.962 15.3861 27.029C15.698 27.3437 15.4678 27.8594 15.0223 27.846C14.9035 27.846 13.6634 27.337 12.2525 26.721L9.69059 25.5893L9.66832 25.0201L9.64604 24.4442L12.1559 25.5491C13.5371 26.1652 14.7995 26.721 14.9703 26.7879ZM20.3465 25.0469V25.5826L18.5941 26.3527C17.6287 26.7745 16.8267 27.1161 16.8119 27.1161C16.797 27.1161 16.7822 27.0625 16.7822 27.0022C16.7822 26.942 16.6856 26.7411 16.5668 26.5536L16.3589 26.212L18.2896 25.3549C19.3589 24.8862 20.2574 24.5045 20.2871 24.5045C20.3168 24.5045 20.3465 24.7455 20.3465 25.0469Z"/>
</svg>
